M48
; DRILL file {KiCad 5.1.5+dfsg1-2build2} date Thu 11 Feb 2021 13:09:32 GMT
; FORMAT={-:-/ absolute / metric / decimal}
; #@! TF.CreationDate,2021-02-11T13:09:32+00:00
; #@! TF.GenerationSoftware,Kicad,Pcbnew,5.1.5+dfsg1-2build2
FMAT,2
METRIC
T1C0.800
T2C1.000
%
G90
G05
T1
X88.9Y-93.98
X88.9Y-109.22
X91.44Y-93.98
X91.44Y-109.22
X93.98Y-93.98
X93.98Y-109.22
X96.52Y-93.98
X96.52Y-109.22
X99.06Y-93.98
X99.06Y-109.22
X101.6Y-93.98
X101.6Y-109.22
X104.14Y-93.98
X104.14Y-109.22
X106.68Y-93.98
X106.68Y-109.22
X109.22Y-93.98
X109.22Y-109.22
X111.76Y-93.98
X111.76Y-109.22
X114.3Y-93.98
X114.3Y-109.22
X116.84Y-93.98
X116.84Y-109.22
X96.52Y-119.38
X104.14Y-119.38
T2
X111.76Y-129.54
X114.3Y-129.54
X116.84Y-129.54
X119.38Y-129.54
X121.92Y-129.54
X124.46Y-129.54
X106.68Y-81.28
X109.22Y-81.28
X111.76Y-81.28
X114.3Y-81.28
X116.84Y-81.28
X119.38Y-81.28
X121.92Y-81.28
X124.46Y-81.28
X79.756Y-81.28
X82.296Y-81.28
X84.836Y-81.28
X87.376Y-81.28
X89.916Y-81.28
X92.456Y-81.28
X94.996Y-81.28
X97.536Y-81.28
X100.076Y-81.28
X102.616Y-81.28
X88.9Y-129.54
X91.44Y-129.54
X93.98Y-129.54
X96.52Y-129.54
X99.06Y-129.54
X101.6Y-129.54
X104.14Y-129.54
X106.68Y-129.54
X101.6Y-124.46
X104.14Y-124.46
X96.52Y-124.46
X116.84Y-119.38
T0
M30
