M48
; DRILL file {KiCad 5.1.5+dfsg1-2build2} date Wed 10 Feb 2021 21:19:31 GMT
; FORMAT={3:3/ absolute / metric / suppress leading zeros}
; #@! TF.CreationDate,2021-02-10T21:19:31+00:00
; #@! TF.GenerationSoftware,Kicad,Pcbnew,5.1.5+dfsg1-2build2
FMAT,2
METRIC,TZ
T1C0.800
T2C1.000
%
G90
G05
T1
X88900Y-93980
X88900Y-109220
X91440Y-93980
X91440Y-109220
X93980Y-93980
X93980Y-109220
X96520Y-93980
X96520Y-109220
X99060Y-93980
X99060Y-109220
X101600Y-93980
X101600Y-109220
X104140Y-93980
X104140Y-109220
X106680Y-93980
X106680Y-109220
X109220Y-93980
X109220Y-109220
X111760Y-93980
X111760Y-109220
X114300Y-93980
X114300Y-109220
X116840Y-93980
X116840Y-109220
X96520Y-119380
X104140Y-119380
T2
X116840Y-119380
X96520Y-124460
X111760Y-129540
X114300Y-129540
X116840Y-129540
X119380Y-129540
X121920Y-129540
X124460Y-129540
X106680Y-81280
X109220Y-81280
X111760Y-81280
X114300Y-81280
X116840Y-81280
X119380Y-81280
X121920Y-81280
X124460Y-81280
X101600Y-124460
X104140Y-124460
X79756Y-81280
X82296Y-81280
X84836Y-81280
X87376Y-81280
X89916Y-81280
X92456Y-81280
X94996Y-81280
X97536Y-81280
X100076Y-81280
X102616Y-81280
X88900Y-129540
X91440Y-129540
X93980Y-129540
X96520Y-129540
X99060Y-129540
X101600Y-129540
X104140Y-129540
X106680Y-129540
T0
M30
