G04 #@! TF.GenerationSoftware,KiCad,Pcbnew,5.1.5+dfsg1-2build2*
G04 #@! TF.CreationDate,2021-02-11T13:07:57+00:00*
G04 #@! TF.ProjectId,eeprom-burner,65657072-6f6d-42d6-9275-726e65722e6b,rev?*
G04 #@! TF.SameCoordinates,Original*
G04 #@! TF.FileFunction,Legend,Top*
G04 #@! TF.FilePolarity,Positive*
%FSLAX46Y46*%
G04 Gerber Fmt 4.6, Leading zero omitted, Abs format (unit mm)*
G04 Created by KiCad (PCBNEW 5.1.5+dfsg1-2build2) date 2021-02-11 13:07:57*
%MOMM*%
%LPD*%
G04 APERTURE LIST*
%ADD10C,0.300000*%
%ADD11C,0.150000*%
%ADD12C,0.120000*%
G04 APERTURE END LIST*
D10*
X88830285Y-135641142D02*
X88830285Y-138212571D01*
X88687428Y-138498285D01*
X88401714Y-138641142D01*
X88258857Y-138641142D01*
X88830285Y-134641142D02*
X88687428Y-134784000D01*
X88830285Y-134926857D01*
X88973142Y-134784000D01*
X88830285Y-134641142D01*
X88830285Y-134926857D01*
X91401714Y-137498285D02*
X91116000Y-137641142D01*
X90544571Y-137641142D01*
X90258857Y-137498285D01*
X90116000Y-137212571D01*
X90116000Y-136069714D01*
X90258857Y-135784000D01*
X90544571Y-135641142D01*
X91116000Y-135641142D01*
X91401714Y-135784000D01*
X91544571Y-136069714D01*
X91544571Y-136355428D01*
X90116000Y-136641142D01*
X92687428Y-137498285D02*
X92973142Y-137641142D01*
X93544571Y-137641142D01*
X93830285Y-137498285D01*
X93973142Y-137212571D01*
X93973142Y-137069714D01*
X93830285Y-136784000D01*
X93544571Y-136641142D01*
X93116000Y-136641142D01*
X92830285Y-136498285D01*
X92687428Y-136212571D01*
X92687428Y-136069714D01*
X92830285Y-135784000D01*
X93116000Y-135641142D01*
X93544571Y-135641142D01*
X93830285Y-135784000D01*
X95401714Y-134641142D02*
X95116000Y-135212571D01*
X96544571Y-137498285D02*
X96830285Y-137641142D01*
X97401714Y-137641142D01*
X97687428Y-137498285D01*
X97830285Y-137212571D01*
X97830285Y-137069714D01*
X97687428Y-136784000D01*
X97401714Y-136641142D01*
X96973142Y-136641142D01*
X96687428Y-136498285D01*
X96544571Y-136212571D01*
X96544571Y-136069714D01*
X96687428Y-135784000D01*
X96973142Y-135641142D01*
X97401714Y-135641142D01*
X97687428Y-135784000D01*
X102544571Y-137498285D02*
X102258857Y-137641142D01*
X101687428Y-137641142D01*
X101401714Y-137498285D01*
X101258857Y-137212571D01*
X101258857Y-136069714D01*
X101401714Y-135784000D01*
X101687428Y-135641142D01*
X102258857Y-135641142D01*
X102544571Y-135784000D01*
X102687428Y-136069714D01*
X102687428Y-136355428D01*
X101258857Y-136641142D01*
X105116000Y-137498285D02*
X104830285Y-137641142D01*
X104258857Y-137641142D01*
X103973142Y-137498285D01*
X103830285Y-137212571D01*
X103830285Y-136069714D01*
X103973142Y-135784000D01*
X104258857Y-135641142D01*
X104830285Y-135641142D01*
X105116000Y-135784000D01*
X105258857Y-136069714D01*
X105258857Y-136355428D01*
X103830285Y-136641142D01*
X106544571Y-135641142D02*
X106544571Y-138641142D01*
X106544571Y-135784000D02*
X106830285Y-135641142D01*
X107401714Y-135641142D01*
X107687428Y-135784000D01*
X107830285Y-135926857D01*
X107973142Y-136212571D01*
X107973142Y-137069714D01*
X107830285Y-137355428D01*
X107687428Y-137498285D01*
X107401714Y-137641142D01*
X106830285Y-137641142D01*
X106544571Y-137498285D01*
X109258857Y-137641142D02*
X109258857Y-135641142D01*
X109258857Y-136212571D02*
X109401714Y-135926857D01*
X109544571Y-135784000D01*
X109830285Y-135641142D01*
X110116000Y-135641142D01*
X111544571Y-137641142D02*
X111258857Y-137498285D01*
X111116000Y-137355428D01*
X110973142Y-137069714D01*
X110973142Y-136212571D01*
X111116000Y-135926857D01*
X111258857Y-135784000D01*
X111544571Y-135641142D01*
X111973142Y-135641142D01*
X112258857Y-135784000D01*
X112401714Y-135926857D01*
X112544571Y-136212571D01*
X112544571Y-137069714D01*
X112401714Y-137355428D01*
X112258857Y-137498285D01*
X111973142Y-137641142D01*
X111544571Y-137641142D01*
X113830285Y-137641142D02*
X113830285Y-135641142D01*
X113830285Y-135926857D02*
X113973142Y-135784000D01*
X114258857Y-135641142D01*
X114687428Y-135641142D01*
X114973142Y-135784000D01*
X115116000Y-136069714D01*
X115116000Y-137641142D01*
X115116000Y-136069714D02*
X115258857Y-135784000D01*
X115544571Y-135641142D01*
X115973142Y-135641142D01*
X116258857Y-135784000D01*
X116401714Y-136069714D01*
X116401714Y-137641142D01*
X96116000Y-142441142D02*
X96116000Y-139441142D01*
X96116000Y-140584000D02*
X96401714Y-140441142D01*
X96973142Y-140441142D01*
X97258857Y-140584000D01*
X97401714Y-140726857D01*
X97544571Y-141012571D01*
X97544571Y-141869714D01*
X97401714Y-142155428D01*
X97258857Y-142298285D01*
X96973142Y-142441142D01*
X96401714Y-142441142D01*
X96116000Y-142298285D01*
X100116000Y-140441142D02*
X100116000Y-142441142D01*
X98830285Y-140441142D02*
X98830285Y-142012571D01*
X98973142Y-142298285D01*
X99258857Y-142441142D01*
X99687428Y-142441142D01*
X99973142Y-142298285D01*
X100116000Y-142155428D01*
X101544571Y-142441142D02*
X101544571Y-140441142D01*
X101544571Y-141012571D02*
X101687428Y-140726857D01*
X101830285Y-140584000D01*
X102116000Y-140441142D01*
X102401714Y-140441142D01*
X103401714Y-140441142D02*
X103401714Y-142441142D01*
X103401714Y-140726857D02*
X103544571Y-140584000D01*
X103830285Y-140441142D01*
X104258857Y-140441142D01*
X104544571Y-140584000D01*
X104687428Y-140869714D01*
X104687428Y-142441142D01*
X107258857Y-142298285D02*
X106973142Y-142441142D01*
X106401714Y-142441142D01*
X106116000Y-142298285D01*
X105973142Y-142012571D01*
X105973142Y-140869714D01*
X106116000Y-140584000D01*
X106401714Y-140441142D01*
X106973142Y-140441142D01*
X107258857Y-140584000D01*
X107401714Y-140869714D01*
X107401714Y-141155428D01*
X105973142Y-141441142D01*
X108687428Y-142441142D02*
X108687428Y-140441142D01*
X108687428Y-141012571D02*
X108830285Y-140726857D01*
X108973142Y-140584000D01*
X109258857Y-140441142D01*
X109544571Y-140441142D01*
D11*
X109806309Y-123087380D02*
X109996785Y-123087380D01*
X110092023Y-123135000D01*
X110187261Y-123230238D01*
X110234880Y-123420714D01*
X110234880Y-123754047D01*
X110187261Y-123944523D01*
X110092023Y-124039761D01*
X109996785Y-124087380D01*
X109806309Y-124087380D01*
X109711071Y-124039761D01*
X109615833Y-123944523D01*
X109568214Y-123754047D01*
X109568214Y-123420714D01*
X109615833Y-123230238D01*
X109711071Y-123135000D01*
X109806309Y-123087380D01*
X110663452Y-123420714D02*
X110663452Y-124420714D01*
X110663452Y-123468333D02*
X110758690Y-123420714D01*
X110949166Y-123420714D01*
X111044404Y-123468333D01*
X111092023Y-123515952D01*
X111139642Y-123611190D01*
X111139642Y-123896904D01*
X111092023Y-123992142D01*
X111044404Y-124039761D01*
X110949166Y-124087380D01*
X110758690Y-124087380D01*
X110663452Y-124039761D01*
X111949166Y-124039761D02*
X111853928Y-124087380D01*
X111663452Y-124087380D01*
X111568214Y-124039761D01*
X111520595Y-123944523D01*
X111520595Y-123563571D01*
X111568214Y-123468333D01*
X111663452Y-123420714D01*
X111853928Y-123420714D01*
X111949166Y-123468333D01*
X111996785Y-123563571D01*
X111996785Y-123658809D01*
X111520595Y-123754047D01*
X112425357Y-123420714D02*
X112425357Y-124087380D01*
X112425357Y-123515952D02*
X112472976Y-123468333D01*
X112568214Y-123420714D01*
X112711071Y-123420714D01*
X112806309Y-123468333D01*
X112853928Y-123563571D01*
X112853928Y-124087380D01*
X113330119Y-123992142D02*
X113377738Y-124039761D01*
X113330119Y-124087380D01*
X113282500Y-124039761D01*
X113330119Y-123992142D01*
X113330119Y-124087380D01*
X113330119Y-123468333D02*
X113377738Y-123515952D01*
X113330119Y-123563571D01*
X113282500Y-123515952D01*
X113330119Y-123468333D01*
X113330119Y-123563571D01*
X114520595Y-123801666D02*
X114996785Y-123801666D01*
X114425357Y-124087380D02*
X114758690Y-123087380D01*
X115092023Y-124087380D01*
X115949166Y-124087380D02*
X115377738Y-124087380D01*
X115663452Y-124087380D02*
X115663452Y-123087380D01*
X115568214Y-123230238D01*
X115472976Y-123325476D01*
X115377738Y-123373095D01*
X116568214Y-123087380D02*
X116663452Y-123087380D01*
X116758690Y-123135000D01*
X116806309Y-123182619D01*
X116853928Y-123277857D01*
X116901547Y-123468333D01*
X116901547Y-123706428D01*
X116853928Y-123896904D01*
X116806309Y-123992142D01*
X116758690Y-124039761D01*
X116663452Y-124087380D01*
X116568214Y-124087380D01*
X116472976Y-124039761D01*
X116425357Y-123992142D01*
X116377738Y-123896904D01*
X116330119Y-123706428D01*
X116330119Y-123468333D01*
X116377738Y-123277857D01*
X116425357Y-123182619D01*
X116472976Y-123135000D01*
X116568214Y-123087380D01*
X117330119Y-123563571D02*
X118092023Y-123563571D01*
X118092023Y-123849285D02*
X117330119Y-123849285D01*
X119092023Y-124087380D02*
X118520595Y-124087380D01*
X118806309Y-124087380D02*
X118806309Y-123087380D01*
X118711071Y-123230238D01*
X118615833Y-123325476D01*
X118520595Y-123373095D01*
X108901547Y-125642142D02*
X108853928Y-125689761D01*
X108711071Y-125737380D01*
X108615833Y-125737380D01*
X108472976Y-125689761D01*
X108377738Y-125594523D01*
X108330119Y-125499285D01*
X108282500Y-125308809D01*
X108282500Y-125165952D01*
X108330119Y-124975476D01*
X108377738Y-124880238D01*
X108472976Y-124785000D01*
X108615833Y-124737380D01*
X108711071Y-124737380D01*
X108853928Y-124785000D01*
X108901547Y-124832619D01*
X109472976Y-125737380D02*
X109377738Y-125689761D01*
X109330119Y-125594523D01*
X109330119Y-124737380D01*
X109996785Y-125737380D02*
X109901547Y-125689761D01*
X109853928Y-125642142D01*
X109806309Y-125546904D01*
X109806309Y-125261190D01*
X109853928Y-125165952D01*
X109901547Y-125118333D01*
X109996785Y-125070714D01*
X110139642Y-125070714D01*
X110234880Y-125118333D01*
X110282500Y-125165952D01*
X110330119Y-125261190D01*
X110330119Y-125546904D01*
X110282500Y-125642142D01*
X110234880Y-125689761D01*
X110139642Y-125737380D01*
X109996785Y-125737380D01*
X110711071Y-125689761D02*
X110806309Y-125737380D01*
X110996785Y-125737380D01*
X111092023Y-125689761D01*
X111139642Y-125594523D01*
X111139642Y-125546904D01*
X111092023Y-125451666D01*
X110996785Y-125404047D01*
X110853928Y-125404047D01*
X110758690Y-125356428D01*
X110711071Y-125261190D01*
X110711071Y-125213571D01*
X110758690Y-125118333D01*
X110853928Y-125070714D01*
X110996785Y-125070714D01*
X111092023Y-125118333D01*
X111949166Y-125689761D02*
X111853928Y-125737380D01*
X111663452Y-125737380D01*
X111568214Y-125689761D01*
X111520595Y-125594523D01*
X111520595Y-125213571D01*
X111568214Y-125118333D01*
X111663452Y-125070714D01*
X111853928Y-125070714D01*
X111949166Y-125118333D01*
X111996785Y-125213571D01*
X111996785Y-125308809D01*
X111520595Y-125404047D01*
X112853928Y-125737380D02*
X112853928Y-124737380D01*
X112853928Y-125689761D02*
X112758690Y-125737380D01*
X112568214Y-125737380D01*
X112472976Y-125689761D01*
X112425357Y-125642142D01*
X112377738Y-125546904D01*
X112377738Y-125261190D01*
X112425357Y-125165952D01*
X112472976Y-125118333D01*
X112568214Y-125070714D01*
X112758690Y-125070714D01*
X112853928Y-125118333D01*
X113330119Y-125642142D02*
X113377738Y-125689761D01*
X113330119Y-125737380D01*
X113282500Y-125689761D01*
X113330119Y-125642142D01*
X113330119Y-125737380D01*
X113330119Y-125118333D02*
X113377738Y-125165952D01*
X113330119Y-125213571D01*
X113282500Y-125165952D01*
X113330119Y-125118333D01*
X113330119Y-125213571D01*
X114520595Y-125451666D02*
X114996785Y-125451666D01*
X114425357Y-125737380D02*
X114758690Y-124737380D01*
X115092023Y-125737380D01*
X115949166Y-125737380D02*
X115377738Y-125737380D01*
X115663452Y-125737380D02*
X115663452Y-124737380D01*
X115568214Y-124880238D01*
X115472976Y-124975476D01*
X115377738Y-125023095D01*
X116568214Y-124737380D02*
X116663452Y-124737380D01*
X116758690Y-124785000D01*
X116806309Y-124832619D01*
X116853928Y-124927857D01*
X116901547Y-125118333D01*
X116901547Y-125356428D01*
X116853928Y-125546904D01*
X116806309Y-125642142D01*
X116758690Y-125689761D01*
X116663452Y-125737380D01*
X116568214Y-125737380D01*
X116472976Y-125689761D01*
X116425357Y-125642142D01*
X116377738Y-125546904D01*
X116330119Y-125356428D01*
X116330119Y-125118333D01*
X116377738Y-124927857D01*
X116425357Y-124832619D01*
X116472976Y-124785000D01*
X116568214Y-124737380D01*
X117330119Y-125213571D02*
X118092023Y-125213571D01*
X118092023Y-125499285D02*
X117330119Y-125499285D01*
X118758690Y-124737380D02*
X118853928Y-124737380D01*
X118949166Y-124785000D01*
X118996785Y-124832619D01*
X119044404Y-124927857D01*
X119092023Y-125118333D01*
X119092023Y-125356428D01*
X119044404Y-125546904D01*
X118996785Y-125642142D01*
X118949166Y-125689761D01*
X118853928Y-125737380D01*
X118758690Y-125737380D01*
X118663452Y-125689761D01*
X118615833Y-125642142D01*
X118568214Y-125546904D01*
X118520595Y-125356428D01*
X118520595Y-125118333D01*
X118568214Y-124927857D01*
X118615833Y-124832619D01*
X118663452Y-124785000D01*
X118758690Y-124737380D01*
D12*
X103946000Y-81280000D02*
X103946000Y-82610000D01*
X103946000Y-82610000D02*
X102616000Y-82610000D01*
X101346000Y-82610000D02*
X78426000Y-82610000D01*
X78426000Y-79950000D02*
X78426000Y-82610000D01*
X101346000Y-79950000D02*
X78426000Y-79950000D01*
X101346000Y-79950000D02*
X101346000Y-82610000D01*
X115510000Y-120710000D02*
X118170000Y-120710000D01*
X115510000Y-120650000D02*
X115510000Y-120710000D01*
X118170000Y-120650000D02*
X118170000Y-120710000D01*
X115510000Y-120650000D02*
X118170000Y-120650000D01*
X115510000Y-119380000D02*
X115510000Y-118050000D01*
X115510000Y-118050000D02*
X116840000Y-118050000D01*
X95190000Y-123130000D02*
X96520000Y-123130000D01*
X95190000Y-124460000D02*
X95190000Y-123130000D01*
X95190000Y-125730000D02*
X97850000Y-125730000D01*
X97850000Y-125730000D02*
X97850000Y-125790000D01*
X95190000Y-125730000D02*
X95190000Y-125790000D01*
X95190000Y-125790000D02*
X97850000Y-125790000D01*
X100270000Y-125790000D02*
X100270000Y-124460000D01*
X101600000Y-125790000D02*
X100270000Y-125790000D01*
X102870000Y-125790000D02*
X102870000Y-123130000D01*
X102870000Y-123130000D02*
X105470000Y-123130000D01*
X102870000Y-125790000D02*
X105470000Y-125790000D01*
X105470000Y-125790000D02*
X105470000Y-123130000D01*
X103600000Y-120750000D02*
X103600000Y-120420000D01*
X97060000Y-120750000D02*
X103600000Y-120750000D01*
X97060000Y-120420000D02*
X97060000Y-120750000D01*
X103600000Y-118010000D02*
X103600000Y-118340000D01*
X97060000Y-118010000D02*
X103600000Y-118010000D01*
X97060000Y-118340000D02*
X97060000Y-118010000D01*
X118230000Y-110660000D02*
X118230000Y-92540000D01*
X87510000Y-110660000D02*
X118230000Y-110660000D01*
X87510000Y-92540000D02*
X87510000Y-110660000D01*
X118230000Y-92540000D02*
X87510000Y-92540000D01*
X118170000Y-107660000D02*
X118170000Y-102600000D01*
X87570000Y-107660000D02*
X118170000Y-107660000D01*
X87570000Y-95540000D02*
X87570000Y-107660000D01*
X118170000Y-95540000D02*
X87570000Y-95540000D01*
X118170000Y-100600000D02*
X118170000Y-95540000D01*
X118170000Y-102600000D02*
G75*
G02X118170000Y-100600000I0J1000000D01*
G01*
X105410000Y-128210000D02*
X105410000Y-130870000D01*
X105410000Y-128210000D02*
X87570000Y-128210000D01*
X87570000Y-128210000D02*
X87570000Y-130870000D01*
X105410000Y-130870000D02*
X87570000Y-130870000D01*
X108010000Y-130870000D02*
X106680000Y-130870000D01*
X108010000Y-129540000D02*
X108010000Y-130870000D01*
X110430000Y-129540000D02*
X110430000Y-128210000D01*
X110430000Y-128210000D02*
X111760000Y-128210000D01*
X113030000Y-128210000D02*
X125790000Y-128210000D01*
X125790000Y-130870000D02*
X125790000Y-128210000D01*
X113030000Y-130870000D02*
X125790000Y-130870000D01*
X113030000Y-130870000D02*
X113030000Y-128210000D01*
X125790000Y-81280000D02*
X125790000Y-82610000D01*
X125790000Y-82610000D02*
X124460000Y-82610000D01*
X123190000Y-82610000D02*
X105350000Y-82610000D01*
X105350000Y-79950000D02*
X105350000Y-82610000D01*
X123190000Y-79950000D02*
X105350000Y-79950000D01*
X123190000Y-79950000D02*
X123190000Y-82610000D01*
M02*
