G04 #@! TF.GenerationSoftware,KiCad,Pcbnew,5.1.5+dfsg1-2build2*
G04 #@! TF.CreationDate,2021-02-22T20:55:43+00:00*
G04 #@! TF.ProjectId,backplane,6261636b-706c-4616-9e65-2e6b69636164,rev?*
G04 #@! TF.SameCoordinates,Original*
G04 #@! TF.FileFunction,Copper,L1,Top*
G04 #@! TF.FilePolarity,Positive*
%FSLAX46Y46*%
G04 Gerber Fmt 4.6, Leading zero omitted, Abs format (unit mm)*
G04 Created by KiCad (PCBNEW 5.1.5+dfsg1-2build2) date 2021-02-22 20:55:43*
%MOMM*%
%LPD*%
G04 APERTURE LIST*
%ADD10O,1.700000X1.700000*%
%ADD11R,1.700000X1.700000*%
%ADD12C,0.300000*%
G04 APERTURE END LIST*
D10*
X353540000Y-157660000D03*
X351000000Y-157660000D03*
X353540000Y-155120000D03*
X351000000Y-155120000D03*
X353540000Y-152580000D03*
X351000000Y-152580000D03*
X353540000Y-150040000D03*
X351000000Y-150040000D03*
X353540000Y-147500000D03*
X351000000Y-147500000D03*
X353540000Y-144960000D03*
X351000000Y-144960000D03*
X353540000Y-142420000D03*
X351000000Y-142420000D03*
X353540000Y-139880000D03*
X351000000Y-139880000D03*
X353540000Y-137340000D03*
X351000000Y-137340000D03*
X353540000Y-134800000D03*
X351000000Y-134800000D03*
X353540000Y-132260000D03*
X351000000Y-132260000D03*
X353540000Y-129720000D03*
X351000000Y-129720000D03*
X353540000Y-127180000D03*
X351000000Y-127180000D03*
X353540000Y-124640000D03*
X351000000Y-124640000D03*
X353540000Y-122100000D03*
X351000000Y-122100000D03*
X353540000Y-119560000D03*
X351000000Y-119560000D03*
X353540000Y-117020000D03*
X351000000Y-117020000D03*
X353540000Y-114480000D03*
X351000000Y-114480000D03*
X353540000Y-111940000D03*
X351000000Y-111940000D03*
X353540000Y-109400000D03*
X351000000Y-109400000D03*
X353540000Y-106860000D03*
X351000000Y-106860000D03*
X353540000Y-104320000D03*
X351000000Y-104320000D03*
X353540000Y-101780000D03*
X351000000Y-101780000D03*
X353540000Y-99240000D03*
X351000000Y-99240000D03*
X353540000Y-96700000D03*
X351000000Y-96700000D03*
X353540000Y-94160000D03*
X351000000Y-94160000D03*
X353540000Y-91620000D03*
X351000000Y-91620000D03*
X353540000Y-89080000D03*
X351000000Y-89080000D03*
X353540000Y-86540000D03*
X351000000Y-86540000D03*
X353540000Y-84000000D03*
D11*
X351000000Y-84000000D03*
D10*
X313540000Y-157660000D03*
X311000000Y-157660000D03*
X313540000Y-155120000D03*
X311000000Y-155120000D03*
X313540000Y-152580000D03*
X311000000Y-152580000D03*
X313540000Y-150040000D03*
X311000000Y-150040000D03*
X313540000Y-147500000D03*
X311000000Y-147500000D03*
X313540000Y-144960000D03*
X311000000Y-144960000D03*
X313540000Y-142420000D03*
X311000000Y-142420000D03*
X313540000Y-139880000D03*
X311000000Y-139880000D03*
X313540000Y-137340000D03*
X311000000Y-137340000D03*
X313540000Y-134800000D03*
X311000000Y-134800000D03*
X313540000Y-132260000D03*
X311000000Y-132260000D03*
X313540000Y-129720000D03*
X311000000Y-129720000D03*
X313540000Y-127180000D03*
X311000000Y-127180000D03*
X313540000Y-124640000D03*
X311000000Y-124640000D03*
X313540000Y-122100000D03*
X311000000Y-122100000D03*
X313540000Y-119560000D03*
X311000000Y-119560000D03*
X313540000Y-117020000D03*
X311000000Y-117020000D03*
X313540000Y-114480000D03*
X311000000Y-114480000D03*
X313540000Y-111940000D03*
X311000000Y-111940000D03*
X313540000Y-109400000D03*
X311000000Y-109400000D03*
X313540000Y-106860000D03*
X311000000Y-106860000D03*
X313540000Y-104320000D03*
X311000000Y-104320000D03*
X313540000Y-101780000D03*
X311000000Y-101780000D03*
X313540000Y-99240000D03*
X311000000Y-99240000D03*
X313540000Y-96700000D03*
X311000000Y-96700000D03*
X313540000Y-94160000D03*
X311000000Y-94160000D03*
X313540000Y-91620000D03*
X311000000Y-91620000D03*
X313540000Y-89080000D03*
X311000000Y-89080000D03*
X313540000Y-86540000D03*
X311000000Y-86540000D03*
X313540000Y-84000000D03*
D11*
X311000000Y-84000000D03*
D10*
X273540000Y-157660000D03*
X271000000Y-157660000D03*
X273540000Y-155120000D03*
X271000000Y-155120000D03*
X273540000Y-152580000D03*
X271000000Y-152580000D03*
X273540000Y-150040000D03*
X271000000Y-150040000D03*
X273540000Y-147500000D03*
X271000000Y-147500000D03*
X273540000Y-144960000D03*
X271000000Y-144960000D03*
X273540000Y-142420000D03*
X271000000Y-142420000D03*
X273540000Y-139880000D03*
X271000000Y-139880000D03*
X273540000Y-137340000D03*
X271000000Y-137340000D03*
X273540000Y-134800000D03*
X271000000Y-134800000D03*
X273540000Y-132260000D03*
X271000000Y-132260000D03*
X273540000Y-129720000D03*
X271000000Y-129720000D03*
X273540000Y-127180000D03*
X271000000Y-127180000D03*
X273540000Y-124640000D03*
X271000000Y-124640000D03*
X273540000Y-122100000D03*
X271000000Y-122100000D03*
X273540000Y-119560000D03*
X271000000Y-119560000D03*
X273540000Y-117020000D03*
X271000000Y-117020000D03*
X273540000Y-114480000D03*
X271000000Y-114480000D03*
X273540000Y-111940000D03*
X271000000Y-111940000D03*
X273540000Y-109400000D03*
X271000000Y-109400000D03*
X273540000Y-106860000D03*
X271000000Y-106860000D03*
X273540000Y-104320000D03*
X271000000Y-104320000D03*
X273540000Y-101780000D03*
X271000000Y-101780000D03*
X273540000Y-99240000D03*
X271000000Y-99240000D03*
X273540000Y-96700000D03*
X271000000Y-96700000D03*
X273540000Y-94160000D03*
X271000000Y-94160000D03*
X273540000Y-91620000D03*
X271000000Y-91620000D03*
X273540000Y-89080000D03*
X271000000Y-89080000D03*
X273540000Y-86540000D03*
X271000000Y-86540000D03*
X273540000Y-84000000D03*
D11*
X271000000Y-84000000D03*
D10*
X233540000Y-157660000D03*
X231000000Y-157660000D03*
X233540000Y-155120000D03*
X231000000Y-155120000D03*
X233540000Y-152580000D03*
X231000000Y-152580000D03*
X233540000Y-150040000D03*
X231000000Y-150040000D03*
X233540000Y-147500000D03*
X231000000Y-147500000D03*
X233540000Y-144960000D03*
X231000000Y-144960000D03*
X233540000Y-142420000D03*
X231000000Y-142420000D03*
X233540000Y-139880000D03*
X231000000Y-139880000D03*
X233540000Y-137340000D03*
X231000000Y-137340000D03*
X233540000Y-134800000D03*
X231000000Y-134800000D03*
X233540000Y-132260000D03*
X231000000Y-132260000D03*
X233540000Y-129720000D03*
X231000000Y-129720000D03*
X233540000Y-127180000D03*
X231000000Y-127180000D03*
X233540000Y-124640000D03*
X231000000Y-124640000D03*
X233540000Y-122100000D03*
X231000000Y-122100000D03*
X233540000Y-119560000D03*
X231000000Y-119560000D03*
X233540000Y-117020000D03*
X231000000Y-117020000D03*
X233540000Y-114480000D03*
X231000000Y-114480000D03*
X233540000Y-111940000D03*
X231000000Y-111940000D03*
X233540000Y-109400000D03*
X231000000Y-109400000D03*
X233540000Y-106860000D03*
X231000000Y-106860000D03*
X233540000Y-104320000D03*
X231000000Y-104320000D03*
X233540000Y-101780000D03*
X231000000Y-101780000D03*
X233540000Y-99240000D03*
X231000000Y-99240000D03*
X233540000Y-96700000D03*
X231000000Y-96700000D03*
X233540000Y-94160000D03*
X231000000Y-94160000D03*
X233540000Y-91620000D03*
X231000000Y-91620000D03*
X233540000Y-89080000D03*
X231000000Y-89080000D03*
X233540000Y-86540000D03*
X231000000Y-86540000D03*
X233540000Y-84000000D03*
D11*
X231000000Y-84000000D03*
D10*
X193540000Y-157660000D03*
X191000000Y-157660000D03*
X193540000Y-155120000D03*
X191000000Y-155120000D03*
X193540000Y-152580000D03*
X191000000Y-152580000D03*
X193540000Y-150040000D03*
X191000000Y-150040000D03*
X193540000Y-147500000D03*
X191000000Y-147500000D03*
X193540000Y-144960000D03*
X191000000Y-144960000D03*
X193540000Y-142420000D03*
X191000000Y-142420000D03*
X193540000Y-139880000D03*
X191000000Y-139880000D03*
X193540000Y-137340000D03*
X191000000Y-137340000D03*
X193540000Y-134800000D03*
X191000000Y-134800000D03*
X193540000Y-132260000D03*
X191000000Y-132260000D03*
X193540000Y-129720000D03*
X191000000Y-129720000D03*
X193540000Y-127180000D03*
X191000000Y-127180000D03*
X193540000Y-124640000D03*
X191000000Y-124640000D03*
X193540000Y-122100000D03*
X191000000Y-122100000D03*
X193540000Y-119560000D03*
X191000000Y-119560000D03*
X193540000Y-117020000D03*
X191000000Y-117020000D03*
X193540000Y-114480000D03*
X191000000Y-114480000D03*
X193540000Y-111940000D03*
X191000000Y-111940000D03*
X193540000Y-109400000D03*
X191000000Y-109400000D03*
X193540000Y-106860000D03*
X191000000Y-106860000D03*
X193540000Y-104320000D03*
X191000000Y-104320000D03*
X193540000Y-101780000D03*
X191000000Y-101780000D03*
X193540000Y-99240000D03*
X191000000Y-99240000D03*
X193540000Y-96700000D03*
X191000000Y-96700000D03*
X193540000Y-94160000D03*
X191000000Y-94160000D03*
X193540000Y-91620000D03*
X191000000Y-91620000D03*
X193540000Y-89080000D03*
X191000000Y-89080000D03*
X193540000Y-86540000D03*
X191000000Y-86540000D03*
X193540000Y-84000000D03*
D11*
X191000000Y-84000000D03*
D10*
X153540000Y-157660000D03*
X151000000Y-157660000D03*
X153540000Y-155120000D03*
X151000000Y-155120000D03*
X153540000Y-152580000D03*
X151000000Y-152580000D03*
X153540000Y-150040000D03*
X151000000Y-150040000D03*
X153540000Y-147500000D03*
X151000000Y-147500000D03*
X153540000Y-144960000D03*
X151000000Y-144960000D03*
X153540000Y-142420000D03*
X151000000Y-142420000D03*
X153540000Y-139880000D03*
X151000000Y-139880000D03*
X153540000Y-137340000D03*
X151000000Y-137340000D03*
X153540000Y-134800000D03*
X151000000Y-134800000D03*
X153540000Y-132260000D03*
X151000000Y-132260000D03*
X153540000Y-129720000D03*
X151000000Y-129720000D03*
X153540000Y-127180000D03*
X151000000Y-127180000D03*
X153540000Y-124640000D03*
X151000000Y-124640000D03*
X153540000Y-122100000D03*
X151000000Y-122100000D03*
X153540000Y-119560000D03*
X151000000Y-119560000D03*
X153540000Y-117020000D03*
X151000000Y-117020000D03*
X153540000Y-114480000D03*
X151000000Y-114480000D03*
X153540000Y-111940000D03*
X151000000Y-111940000D03*
X153540000Y-109400000D03*
X151000000Y-109400000D03*
X153540000Y-106860000D03*
X151000000Y-106860000D03*
X153540000Y-104320000D03*
X151000000Y-104320000D03*
X153540000Y-101780000D03*
X151000000Y-101780000D03*
X153540000Y-99240000D03*
X151000000Y-99240000D03*
X153540000Y-96700000D03*
X151000000Y-96700000D03*
X153540000Y-94160000D03*
X151000000Y-94160000D03*
X153540000Y-91620000D03*
X151000000Y-91620000D03*
X153540000Y-89080000D03*
X151000000Y-89080000D03*
X153540000Y-86540000D03*
X151000000Y-86540000D03*
X153540000Y-84000000D03*
D11*
X151000000Y-84000000D03*
D10*
X113540000Y-157660000D03*
X111000000Y-157660000D03*
X113540000Y-155120000D03*
X111000000Y-155120000D03*
X113540000Y-152580000D03*
X111000000Y-152580000D03*
X113540000Y-150040000D03*
X111000000Y-150040000D03*
X113540000Y-147500000D03*
X111000000Y-147500000D03*
X113540000Y-144960000D03*
X111000000Y-144960000D03*
X113540000Y-142420000D03*
X111000000Y-142420000D03*
X113540000Y-139880000D03*
X111000000Y-139880000D03*
X113540000Y-137340000D03*
X111000000Y-137340000D03*
X113540000Y-134800000D03*
X111000000Y-134800000D03*
X113540000Y-132260000D03*
X111000000Y-132260000D03*
X113540000Y-129720000D03*
X111000000Y-129720000D03*
X113540000Y-127180000D03*
X111000000Y-127180000D03*
X113540000Y-124640000D03*
X111000000Y-124640000D03*
X113540000Y-122100000D03*
X111000000Y-122100000D03*
X113540000Y-119560000D03*
X111000000Y-119560000D03*
X113540000Y-117020000D03*
X111000000Y-117020000D03*
X113540000Y-114480000D03*
X111000000Y-114480000D03*
X113540000Y-111940000D03*
X111000000Y-111940000D03*
X113540000Y-109400000D03*
X111000000Y-109400000D03*
X113540000Y-106860000D03*
X111000000Y-106860000D03*
X113540000Y-104320000D03*
X111000000Y-104320000D03*
X113540000Y-101780000D03*
X111000000Y-101780000D03*
X113540000Y-99240000D03*
X111000000Y-99240000D03*
X113540000Y-96700000D03*
X111000000Y-96700000D03*
X113540000Y-94160000D03*
X111000000Y-94160000D03*
X113540000Y-91620000D03*
X111000000Y-91620000D03*
X113540000Y-89080000D03*
X111000000Y-89080000D03*
X113540000Y-86540000D03*
X111000000Y-86540000D03*
X113540000Y-84000000D03*
D11*
X111000000Y-84000000D03*
D10*
X73540000Y-157660000D03*
X71000000Y-157660000D03*
X73540000Y-155120000D03*
X71000000Y-155120000D03*
X73540000Y-152580000D03*
X71000000Y-152580000D03*
X73540000Y-150040000D03*
X71000000Y-150040000D03*
X73540000Y-147500000D03*
X71000000Y-147500000D03*
X73540000Y-144960000D03*
X71000000Y-144960000D03*
X73540000Y-142420000D03*
X71000000Y-142420000D03*
X73540000Y-139880000D03*
X71000000Y-139880000D03*
X73540000Y-137340000D03*
X71000000Y-137340000D03*
X73540000Y-134800000D03*
X71000000Y-134800000D03*
X73540000Y-132260000D03*
X71000000Y-132260000D03*
X73540000Y-129720000D03*
X71000000Y-129720000D03*
X73540000Y-127180000D03*
X71000000Y-127180000D03*
X73540000Y-124640000D03*
X71000000Y-124640000D03*
X73540000Y-122100000D03*
X71000000Y-122100000D03*
X73540000Y-119560000D03*
X71000000Y-119560000D03*
X73540000Y-117020000D03*
X71000000Y-117020000D03*
X73540000Y-114480000D03*
X71000000Y-114480000D03*
X73540000Y-111940000D03*
X71000000Y-111940000D03*
X73540000Y-109400000D03*
X71000000Y-109400000D03*
X73540000Y-106860000D03*
X71000000Y-106860000D03*
X73540000Y-104320000D03*
X71000000Y-104320000D03*
X73540000Y-101780000D03*
X71000000Y-101780000D03*
X73540000Y-99240000D03*
X71000000Y-99240000D03*
X73540000Y-96700000D03*
X71000000Y-96700000D03*
X73540000Y-94160000D03*
X71000000Y-94160000D03*
X73540000Y-91620000D03*
X71000000Y-91620000D03*
X73540000Y-89080000D03*
X71000000Y-89080000D03*
X73540000Y-86540000D03*
X71000000Y-86540000D03*
X73540000Y-84000000D03*
D11*
X71000000Y-84000000D03*
D12*
X109303168Y-157660000D02*
X108053167Y-158910001D01*
X192358835Y-158910001D02*
X191108834Y-157660000D01*
X191021000Y-157660000D02*
X189303168Y-157660000D01*
X191108834Y-157660000D02*
X191021000Y-157660000D01*
X111021000Y-157660000D02*
X109303168Y-157660000D01*
X188053167Y-158910001D02*
X152358835Y-158910001D01*
X189303168Y-157660000D02*
X188053167Y-158910001D01*
X152358835Y-158910001D02*
X151108834Y-157660000D01*
X148053167Y-158910001D02*
X112358835Y-158910001D01*
X351021000Y-157660000D02*
X349303168Y-157660000D01*
X151108834Y-157660000D02*
X151021000Y-157660000D01*
X108053167Y-158910001D02*
X72358835Y-158910001D01*
X271021000Y-157660000D02*
X269303168Y-157660000D01*
X268053167Y-158910001D02*
X232358835Y-158910001D01*
X231108834Y-157660000D02*
X231021000Y-157660000D01*
X269303168Y-157660000D02*
X268053167Y-158910001D01*
X232358835Y-158910001D02*
X231108834Y-157660000D01*
X231021000Y-157660000D02*
X229303168Y-157660000D01*
X348053167Y-158910001D02*
X312358835Y-158910001D01*
X311108834Y-157660000D02*
X311021000Y-157660000D01*
X349303168Y-157660000D02*
X348053167Y-158910001D01*
X312358835Y-158910001D02*
X311108834Y-157660000D01*
X308053167Y-158910001D02*
X272358835Y-158910001D01*
X311021000Y-157660000D02*
X309303168Y-157660000D01*
X271108834Y-157660000D02*
X271021000Y-157660000D01*
X309303168Y-157660000D02*
X308053167Y-158910001D01*
X272358835Y-158910001D02*
X271108834Y-157660000D01*
X229303168Y-157660000D02*
X228053167Y-158910001D01*
X228053167Y-158910001D02*
X192358835Y-158910001D01*
X149303168Y-157660000D02*
X148053167Y-158910001D01*
X72358835Y-158910001D02*
X71108834Y-157660000D01*
X112358835Y-158910001D02*
X111108834Y-157660000D01*
X71108834Y-157660000D02*
X71021000Y-157660000D01*
X151021000Y-157660000D02*
X149303168Y-157660000D01*
X111108834Y-157660000D02*
X111021000Y-157660000D01*
X187541000Y-157660000D02*
X153561000Y-157660000D01*
X348791001Y-156409999D02*
X347541000Y-157660000D01*
X308791001Y-156409999D02*
X307541000Y-157660000D01*
X312871002Y-157660000D02*
X311621001Y-156409999D01*
X307541000Y-157660000D02*
X273561000Y-157660000D01*
X311621001Y-156409999D02*
X308791001Y-156409999D01*
X313561000Y-157660000D02*
X312871002Y-157660000D01*
X111621001Y-156409999D02*
X108791001Y-156409999D01*
X107541000Y-157660000D02*
X73561000Y-157660000D01*
X112871002Y-157660000D02*
X111621001Y-156409999D01*
X113561000Y-157660000D02*
X112871002Y-157660000D01*
X108791001Y-156409999D02*
X107541000Y-157660000D01*
X151621001Y-156409999D02*
X148791001Y-156409999D01*
X147541000Y-157660000D02*
X113561000Y-157660000D01*
X152871002Y-157660000D02*
X151621001Y-156409999D01*
X153561000Y-157660000D02*
X152871002Y-157660000D01*
X148791001Y-156409999D02*
X147541000Y-157660000D01*
X191621001Y-156409999D02*
X188791001Y-156409999D01*
X228791001Y-156409999D02*
X227541000Y-157660000D01*
X271621001Y-156409999D02*
X268791001Y-156409999D01*
X267541000Y-157660000D02*
X233561000Y-157660000D01*
X272871002Y-157660000D02*
X271621001Y-156409999D01*
X273561000Y-157660000D02*
X272871002Y-157660000D01*
X268791001Y-156409999D02*
X267541000Y-157660000D01*
X351621001Y-156409999D02*
X348791001Y-156409999D01*
X347541000Y-157660000D02*
X313561000Y-157660000D01*
X352871002Y-157660000D02*
X351621001Y-156409999D01*
X192871002Y-157660000D02*
X191621001Y-156409999D01*
X193561000Y-157660000D02*
X192871002Y-157660000D01*
X188791001Y-156409999D02*
X187541000Y-157660000D01*
X231621001Y-156409999D02*
X228791001Y-156409999D01*
X227541000Y-157660000D02*
X193561000Y-157660000D01*
X232871002Y-157660000D02*
X231621001Y-156409999D01*
X353561000Y-157660000D02*
X352871002Y-157660000D01*
X233561000Y-157660000D02*
X232871002Y-157660000D01*
X152358835Y-156370001D02*
X151108834Y-155120000D01*
X71108834Y-155120000D02*
X71021000Y-155120000D01*
X72358835Y-156370001D02*
X71108834Y-155120000D01*
X111021000Y-155120000D02*
X109303168Y-155120000D01*
X109303168Y-155120000D02*
X108053167Y-156370001D01*
X108053167Y-156370001D02*
X72358835Y-156370001D01*
X111108834Y-155120000D02*
X111021000Y-155120000D01*
X112358835Y-156370001D02*
X111108834Y-155120000D01*
X151021000Y-155120000D02*
X149303168Y-155120000D01*
X149303168Y-155120000D02*
X148053167Y-156370001D01*
X148053167Y-156370001D02*
X112358835Y-156370001D01*
X151108834Y-155120000D02*
X151021000Y-155120000D01*
X191021000Y-155120000D02*
X189303168Y-155120000D01*
X189303168Y-155120000D02*
X188053167Y-156370001D01*
X188053167Y-156370001D02*
X152358835Y-156370001D01*
X191108834Y-155120000D02*
X191021000Y-155120000D01*
X192358835Y-156370001D02*
X191108834Y-155120000D01*
X231021000Y-155120000D02*
X229303168Y-155120000D01*
X229303168Y-155120000D02*
X228053167Y-156370001D01*
X228053167Y-156370001D02*
X192358835Y-156370001D01*
X231108834Y-155120000D02*
X231021000Y-155120000D01*
X232358835Y-156370001D02*
X231108834Y-155120000D01*
X271021000Y-155120000D02*
X269303168Y-155120000D01*
X269303168Y-155120000D02*
X268053167Y-156370001D01*
X268053167Y-156370001D02*
X232358835Y-156370001D01*
X311108834Y-155120000D02*
X311021000Y-155120000D01*
X312358835Y-156370001D02*
X311108834Y-155120000D01*
X351021000Y-155120000D02*
X349303168Y-155120000D01*
X349303168Y-155120000D02*
X348053167Y-156370001D01*
X348053167Y-156370001D02*
X312358835Y-156370001D01*
X308053167Y-156370001D02*
X272358835Y-156370001D01*
X311021000Y-155120000D02*
X309303168Y-155120000D01*
X271108834Y-155120000D02*
X271021000Y-155120000D01*
X309303168Y-155120000D02*
X308053167Y-156370001D01*
X272358835Y-156370001D02*
X271108834Y-155120000D01*
X147541000Y-155120000D02*
X113561000Y-155120000D01*
X153561000Y-155120000D02*
X152871002Y-155120000D01*
X152871002Y-155120000D02*
X151621001Y-153869999D01*
X191621001Y-153869999D02*
X188791001Y-153869999D01*
X188791001Y-153869999D02*
X187541000Y-155120000D01*
X187541000Y-155120000D02*
X153561000Y-155120000D01*
X193561000Y-155120000D02*
X192871002Y-155120000D01*
X192871002Y-155120000D02*
X191621001Y-153869999D01*
X231621001Y-153869999D02*
X228791001Y-153869999D01*
X228791001Y-153869999D02*
X227541000Y-155120000D01*
X227541000Y-155120000D02*
X193561000Y-155120000D01*
X233561000Y-155120000D02*
X232871002Y-155120000D01*
X232871002Y-155120000D02*
X231621001Y-153869999D01*
X271621001Y-153869999D02*
X268791001Y-153869999D01*
X268791001Y-153869999D02*
X267541000Y-155120000D01*
X267541000Y-155120000D02*
X233561000Y-155120000D01*
X273561000Y-155120000D02*
X272871002Y-155120000D01*
X272871002Y-155120000D02*
X271621001Y-153869999D01*
X351621001Y-153869999D02*
X348791001Y-153869999D01*
X348791001Y-153869999D02*
X347541000Y-155120000D01*
X347541000Y-155120000D02*
X313561000Y-155120000D01*
X353561000Y-155120000D02*
X352871002Y-155120000D01*
X352871002Y-155120000D02*
X351621001Y-153869999D01*
X308791001Y-153869999D02*
X307541000Y-155120000D01*
X312871002Y-155120000D02*
X311621001Y-153869999D01*
X307541000Y-155120000D02*
X273561000Y-155120000D01*
X311621001Y-153869999D02*
X308791001Y-153869999D01*
X313561000Y-155120000D02*
X312871002Y-155120000D01*
X111621001Y-153869999D02*
X108791001Y-153869999D01*
X108791001Y-153869999D02*
X107541000Y-155120000D01*
X107541000Y-155120000D02*
X73561000Y-155120000D01*
X113561000Y-155120000D02*
X112871002Y-155120000D01*
X112871002Y-155120000D02*
X111621001Y-153869999D01*
X151621001Y-153869999D02*
X148791001Y-153869999D01*
X148791001Y-153869999D02*
X147541000Y-155120000D01*
X148053167Y-153830001D02*
X112358835Y-153830001D01*
X112358835Y-153830001D02*
X111108834Y-152580000D01*
X149303168Y-152580000D02*
X148053167Y-153830001D01*
X151021000Y-152580000D02*
X149303168Y-152580000D01*
X111108834Y-152580000D02*
X111021000Y-152580000D01*
X188053167Y-153830001D02*
X152358835Y-153830001D01*
X152358835Y-153830001D02*
X151108834Y-152580000D01*
X189303168Y-152580000D02*
X188053167Y-153830001D01*
X191021000Y-152580000D02*
X189303168Y-152580000D01*
X151108834Y-152580000D02*
X151021000Y-152580000D01*
X228053167Y-153830001D02*
X192358835Y-153830001D01*
X192358835Y-153830001D02*
X191108834Y-152580000D01*
X229303168Y-152580000D02*
X228053167Y-153830001D01*
X231021000Y-152580000D02*
X229303168Y-152580000D01*
X191108834Y-152580000D02*
X191021000Y-152580000D01*
X268053167Y-153830001D02*
X232358835Y-153830001D01*
X232358835Y-153830001D02*
X231108834Y-152580000D01*
X269303168Y-152580000D02*
X268053167Y-153830001D01*
X271021000Y-152580000D02*
X269303168Y-152580000D01*
X231108834Y-152580000D02*
X231021000Y-152580000D01*
X348053167Y-153830001D02*
X312358835Y-153830001D01*
X312358835Y-153830001D02*
X311108834Y-152580000D01*
X349303168Y-152580000D02*
X348053167Y-153830001D01*
X351021000Y-152580000D02*
X349303168Y-152580000D01*
X311108834Y-152580000D02*
X311021000Y-152580000D01*
X308053167Y-153830001D02*
X272358835Y-153830001D01*
X311021000Y-152580000D02*
X309303168Y-152580000D01*
X271108834Y-152580000D02*
X271021000Y-152580000D01*
X309303168Y-152580000D02*
X308053167Y-153830001D01*
X272358835Y-153830001D02*
X271108834Y-152580000D01*
X108053167Y-153830001D02*
X72358835Y-153830001D01*
X72358835Y-153830001D02*
X71108834Y-152580000D01*
X109303168Y-152580000D02*
X108053167Y-153830001D01*
X111021000Y-152580000D02*
X109303168Y-152580000D01*
X71108834Y-152580000D02*
X71021000Y-152580000D01*
X113561000Y-152580000D02*
X112871002Y-152580000D01*
X111621001Y-151329999D02*
X108791001Y-151329999D01*
X107541000Y-152580000D02*
X73561000Y-152580000D01*
X108791001Y-151329999D02*
X107541000Y-152580000D01*
X112871002Y-152580000D02*
X111621001Y-151329999D01*
X153561000Y-152580000D02*
X152871002Y-152580000D01*
X151621001Y-151329999D02*
X148791001Y-151329999D01*
X147541000Y-152580000D02*
X113561000Y-152580000D01*
X148791001Y-151329999D02*
X147541000Y-152580000D01*
X152871002Y-152580000D02*
X151621001Y-151329999D01*
X193561000Y-152580000D02*
X192871002Y-152580000D01*
X191621001Y-151329999D02*
X188791001Y-151329999D01*
X187541000Y-152580000D02*
X153561000Y-152580000D01*
X188791001Y-151329999D02*
X187541000Y-152580000D01*
X192871002Y-152580000D02*
X191621001Y-151329999D01*
X233561000Y-152580000D02*
X232871002Y-152580000D01*
X231621001Y-151329999D02*
X228791001Y-151329999D01*
X227541000Y-152580000D02*
X193561000Y-152580000D01*
X228791001Y-151329999D02*
X227541000Y-152580000D01*
X232871002Y-152580000D02*
X231621001Y-151329999D01*
X273561000Y-152580000D02*
X272871002Y-152580000D01*
X271621001Y-151329999D02*
X268791001Y-151329999D01*
X267541000Y-152580000D02*
X233561000Y-152580000D01*
X268791001Y-151329999D02*
X267541000Y-152580000D01*
X272871002Y-152580000D02*
X271621001Y-151329999D01*
X353561000Y-152580000D02*
X352871002Y-152580000D01*
X351621001Y-151329999D02*
X348791001Y-151329999D01*
X347541000Y-152580000D02*
X313561000Y-152580000D01*
X348791001Y-151329999D02*
X347541000Y-152580000D01*
X352871002Y-152580000D02*
X351621001Y-151329999D01*
X308791001Y-151329999D02*
X307541000Y-152580000D01*
X312871002Y-152580000D02*
X311621001Y-151329999D01*
X307541000Y-152580000D02*
X273561000Y-152580000D01*
X311621001Y-151329999D02*
X308791001Y-151329999D01*
X313561000Y-152580000D02*
X312871002Y-152580000D01*
X111021000Y-150040000D02*
X109303168Y-150040000D01*
X109303168Y-150040000D02*
X108053167Y-151290001D01*
X71108834Y-150040000D02*
X71021000Y-150040000D01*
X72358835Y-151290001D02*
X71108834Y-150040000D01*
X108053167Y-151290001D02*
X72358835Y-151290001D01*
X151021000Y-150040000D02*
X149303168Y-150040000D01*
X149303168Y-150040000D02*
X148053167Y-151290001D01*
X111108834Y-150040000D02*
X111021000Y-150040000D01*
X112358835Y-151290001D02*
X111108834Y-150040000D01*
X148053167Y-151290001D02*
X112358835Y-151290001D01*
X191021000Y-150040000D02*
X189303168Y-150040000D01*
X189303168Y-150040000D02*
X188053167Y-151290001D01*
X151108834Y-150040000D02*
X151021000Y-150040000D01*
X152358835Y-151290001D02*
X151108834Y-150040000D01*
X188053167Y-151290001D02*
X152358835Y-151290001D01*
X231021000Y-150040000D02*
X229303168Y-150040000D01*
X229303168Y-150040000D02*
X228053167Y-151290001D01*
X191108834Y-150040000D02*
X191021000Y-150040000D01*
X192358835Y-151290001D02*
X191108834Y-150040000D01*
X228053167Y-151290001D02*
X192358835Y-151290001D01*
X271021000Y-150040000D02*
X269303168Y-150040000D01*
X269303168Y-150040000D02*
X268053167Y-151290001D01*
X231108834Y-150040000D02*
X231021000Y-150040000D01*
X232358835Y-151290001D02*
X231108834Y-150040000D01*
X268053167Y-151290001D02*
X232358835Y-151290001D01*
X351021000Y-150040000D02*
X349303168Y-150040000D01*
X349303168Y-150040000D02*
X348053167Y-151290001D01*
X311108834Y-150040000D02*
X311021000Y-150040000D01*
X312358835Y-151290001D02*
X311108834Y-150040000D01*
X348053167Y-151290001D02*
X312358835Y-151290001D01*
X308053167Y-151290001D02*
X272358835Y-151290001D01*
X311021000Y-150040000D02*
X309303168Y-150040000D01*
X271108834Y-150040000D02*
X271021000Y-150040000D01*
X309303168Y-150040000D02*
X308053167Y-151290001D01*
X272358835Y-151290001D02*
X271108834Y-150040000D01*
X112871002Y-150040000D02*
X111621001Y-148789999D01*
X108791001Y-148789999D02*
X107541000Y-150040000D01*
X111621001Y-148789999D02*
X108791001Y-148789999D01*
X113561000Y-150040000D02*
X112871002Y-150040000D01*
X107541000Y-150040000D02*
X73561000Y-150040000D01*
X148791001Y-148789999D02*
X147541000Y-150040000D01*
X152871002Y-150040000D02*
X151621001Y-148789999D01*
X151621001Y-148789999D02*
X148791001Y-148789999D01*
X153561000Y-150040000D02*
X152871002Y-150040000D01*
X147541000Y-150040000D02*
X113561000Y-150040000D01*
X188791001Y-148789999D02*
X187541000Y-150040000D01*
X192871002Y-150040000D02*
X191621001Y-148789999D01*
X191621001Y-148789999D02*
X188791001Y-148789999D01*
X193561000Y-150040000D02*
X192871002Y-150040000D01*
X187541000Y-150040000D02*
X153561000Y-150040000D01*
X228791001Y-148789999D02*
X227541000Y-150040000D01*
X232871002Y-150040000D02*
X231621001Y-148789999D01*
X231621001Y-148789999D02*
X228791001Y-148789999D01*
X233561000Y-150040000D02*
X232871002Y-150040000D01*
X227541000Y-150040000D02*
X193561000Y-150040000D01*
X268791001Y-148789999D02*
X267541000Y-150040000D01*
X272871002Y-150040000D02*
X271621001Y-148789999D01*
X271621001Y-148789999D02*
X268791001Y-148789999D01*
X273561000Y-150040000D02*
X272871002Y-150040000D01*
X267541000Y-150040000D02*
X233561000Y-150040000D01*
X348791001Y-148789999D02*
X347541000Y-150040000D01*
X352871002Y-150040000D02*
X351621001Y-148789999D01*
X351621001Y-148789999D02*
X348791001Y-148789999D01*
X353561000Y-150040000D02*
X352871002Y-150040000D01*
X347541000Y-150040000D02*
X313561000Y-150040000D01*
X308791001Y-148789999D02*
X307541000Y-150040000D01*
X312871002Y-150040000D02*
X311621001Y-148789999D01*
X307541000Y-150040000D02*
X273561000Y-150040000D01*
X311621001Y-148789999D02*
X308791001Y-148789999D01*
X313561000Y-150040000D02*
X312871002Y-150040000D01*
X71108834Y-147500000D02*
X71021000Y-147500000D01*
X108053167Y-148750001D02*
X72358835Y-148750001D01*
X72358835Y-148750001D02*
X71108834Y-147500000D01*
X111021000Y-147500000D02*
X109303168Y-147500000D01*
X149303168Y-147500000D02*
X148053167Y-148750001D01*
X111108834Y-147500000D02*
X111021000Y-147500000D01*
X148053167Y-148750001D02*
X112358835Y-148750001D01*
X112358835Y-148750001D02*
X111108834Y-147500000D01*
X151021000Y-147500000D02*
X149303168Y-147500000D01*
X189303168Y-147500000D02*
X188053167Y-148750001D01*
X151108834Y-147500000D02*
X151021000Y-147500000D01*
X188053167Y-148750001D02*
X152358835Y-148750001D01*
X152358835Y-148750001D02*
X151108834Y-147500000D01*
X191021000Y-147500000D02*
X189303168Y-147500000D01*
X229303168Y-147500000D02*
X228053167Y-148750001D01*
X191108834Y-147500000D02*
X191021000Y-147500000D01*
X228053167Y-148750001D02*
X192358835Y-148750001D01*
X192358835Y-148750001D02*
X191108834Y-147500000D01*
X231021000Y-147500000D02*
X229303168Y-147500000D01*
X269303168Y-147500000D02*
X268053167Y-148750001D01*
X231108834Y-147500000D02*
X231021000Y-147500000D01*
X268053167Y-148750001D02*
X232358835Y-148750001D01*
X232358835Y-148750001D02*
X231108834Y-147500000D01*
X271021000Y-147500000D02*
X269303168Y-147500000D01*
X349303168Y-147500000D02*
X348053167Y-148750001D01*
X311108834Y-147500000D02*
X311021000Y-147500000D01*
X348053167Y-148750001D02*
X312358835Y-148750001D01*
X312358835Y-148750001D02*
X311108834Y-147500000D01*
X351021000Y-147500000D02*
X349303168Y-147500000D01*
X308053167Y-148750001D02*
X272358835Y-148750001D01*
X311021000Y-147500000D02*
X309303168Y-147500000D01*
X271108834Y-147500000D02*
X271021000Y-147500000D01*
X309303168Y-147500000D02*
X308053167Y-148750001D01*
X272358835Y-148750001D02*
X271108834Y-147500000D01*
X109303168Y-147500000D02*
X108053167Y-148750001D01*
X112871002Y-147500000D02*
X111621001Y-146249999D01*
X111621001Y-146249999D02*
X108791001Y-146249999D01*
X113561000Y-147500000D02*
X112871002Y-147500000D01*
X108791001Y-146249999D02*
X107541000Y-147500000D01*
X107541000Y-147500000D02*
X73561000Y-147500000D01*
X152871002Y-147500000D02*
X151621001Y-146249999D01*
X151621001Y-146249999D02*
X148791001Y-146249999D01*
X153561000Y-147500000D02*
X152871002Y-147500000D01*
X148791001Y-146249999D02*
X147541000Y-147500000D01*
X147541000Y-147500000D02*
X113561000Y-147500000D01*
X192871002Y-147500000D02*
X191621001Y-146249999D01*
X191621001Y-146249999D02*
X188791001Y-146249999D01*
X193561000Y-147500000D02*
X192871002Y-147500000D01*
X188791001Y-146249999D02*
X187541000Y-147500000D01*
X187541000Y-147500000D02*
X153561000Y-147500000D01*
X232871002Y-147500000D02*
X231621001Y-146249999D01*
X231621001Y-146249999D02*
X228791001Y-146249999D01*
X233561000Y-147500000D02*
X232871002Y-147500000D01*
X228791001Y-146249999D02*
X227541000Y-147500000D01*
X227541000Y-147500000D02*
X193561000Y-147500000D01*
X272871002Y-147500000D02*
X271621001Y-146249999D01*
X271621001Y-146249999D02*
X268791001Y-146249999D01*
X273561000Y-147500000D02*
X272871002Y-147500000D01*
X268791001Y-146249999D02*
X267541000Y-147500000D01*
X267541000Y-147500000D02*
X233561000Y-147500000D01*
X352871002Y-147500000D02*
X351621001Y-146249999D01*
X351621001Y-146249999D02*
X348791001Y-146249999D01*
X353561000Y-147500000D02*
X352871002Y-147500000D01*
X348791001Y-146249999D02*
X347541000Y-147500000D01*
X347541000Y-147500000D02*
X313561000Y-147500000D01*
X308791001Y-146249999D02*
X307541000Y-147500000D01*
X312871002Y-147500000D02*
X311621001Y-146249999D01*
X307541000Y-147500000D02*
X273561000Y-147500000D01*
X311621001Y-146249999D02*
X308791001Y-146249999D01*
X313561000Y-147500000D02*
X312871002Y-147500000D01*
X272358835Y-146210001D02*
X271108834Y-144960000D01*
X72358835Y-146210001D02*
X71108834Y-144960000D01*
X71108834Y-144960000D02*
X71021000Y-144960000D01*
X109303168Y-144960000D02*
X108053167Y-146210001D01*
X108053167Y-146210001D02*
X72358835Y-146210001D01*
X111021000Y-144960000D02*
X109303168Y-144960000D01*
X112358835Y-146210001D02*
X111108834Y-144960000D01*
X111108834Y-144960000D02*
X111021000Y-144960000D01*
X149303168Y-144960000D02*
X148053167Y-146210001D01*
X148053167Y-146210001D02*
X112358835Y-146210001D01*
X151021000Y-144960000D02*
X149303168Y-144960000D01*
X152358835Y-146210001D02*
X151108834Y-144960000D01*
X151108834Y-144960000D02*
X151021000Y-144960000D01*
X189303168Y-144960000D02*
X188053167Y-146210001D01*
X188053167Y-146210001D02*
X152358835Y-146210001D01*
X191021000Y-144960000D02*
X189303168Y-144960000D01*
X192358835Y-146210001D02*
X191108834Y-144960000D01*
X191108834Y-144960000D02*
X191021000Y-144960000D01*
X229303168Y-144960000D02*
X228053167Y-146210001D01*
X228053167Y-146210001D02*
X192358835Y-146210001D01*
X231021000Y-144960000D02*
X229303168Y-144960000D01*
X232358835Y-146210001D02*
X231108834Y-144960000D01*
X231108834Y-144960000D02*
X231021000Y-144960000D01*
X269303168Y-144960000D02*
X268053167Y-146210001D01*
X268053167Y-146210001D02*
X232358835Y-146210001D01*
X271021000Y-144960000D02*
X269303168Y-144960000D01*
X312358835Y-146210001D02*
X311108834Y-144960000D01*
X311108834Y-144960000D02*
X311021000Y-144960000D01*
X349303168Y-144960000D02*
X348053167Y-146210001D01*
X348053167Y-146210001D02*
X312358835Y-146210001D01*
X351021000Y-144960000D02*
X349303168Y-144960000D01*
X308053167Y-146210001D02*
X272358835Y-146210001D01*
X311021000Y-144960000D02*
X309303168Y-144960000D01*
X271108834Y-144960000D02*
X271021000Y-144960000D01*
X309303168Y-144960000D02*
X308053167Y-146210001D01*
X111621001Y-143709999D02*
X108791001Y-143709999D01*
X107541000Y-144960000D02*
X73561000Y-144960000D01*
X113561000Y-144960000D02*
X112871002Y-144960000D01*
X108791001Y-143709999D02*
X107541000Y-144960000D01*
X112871002Y-144960000D02*
X111621001Y-143709999D01*
X151621001Y-143709999D02*
X148791001Y-143709999D01*
X147541000Y-144960000D02*
X113561000Y-144960000D01*
X153561000Y-144960000D02*
X152871002Y-144960000D01*
X148791001Y-143709999D02*
X147541000Y-144960000D01*
X152871002Y-144960000D02*
X151621001Y-143709999D01*
X191621001Y-143709999D02*
X188791001Y-143709999D01*
X187541000Y-144960000D02*
X153561000Y-144960000D01*
X193561000Y-144960000D02*
X192871002Y-144960000D01*
X188791001Y-143709999D02*
X187541000Y-144960000D01*
X192871002Y-144960000D02*
X191621001Y-143709999D01*
X231621001Y-143709999D02*
X228791001Y-143709999D01*
X227541000Y-144960000D02*
X193561000Y-144960000D01*
X233561000Y-144960000D02*
X232871002Y-144960000D01*
X228791001Y-143709999D02*
X227541000Y-144960000D01*
X232871002Y-144960000D02*
X231621001Y-143709999D01*
X271621001Y-143709999D02*
X268791001Y-143709999D01*
X267541000Y-144960000D02*
X233561000Y-144960000D01*
X273561000Y-144960000D02*
X272871002Y-144960000D01*
X268791001Y-143709999D02*
X267541000Y-144960000D01*
X272871002Y-144960000D02*
X271621001Y-143709999D01*
X351621001Y-143709999D02*
X348791001Y-143709999D01*
X347541000Y-144960000D02*
X313561000Y-144960000D01*
X353561000Y-144960000D02*
X352871002Y-144960000D01*
X348791001Y-143709999D02*
X347541000Y-144960000D01*
X352871002Y-144960000D02*
X351621001Y-143709999D01*
X308791001Y-143709999D02*
X307541000Y-144960000D01*
X312871002Y-144960000D02*
X311621001Y-143709999D01*
X307541000Y-144960000D02*
X273561000Y-144960000D01*
X311621001Y-143709999D02*
X308791001Y-143709999D01*
X313561000Y-144960000D02*
X312871002Y-144960000D01*
X151021000Y-142420000D02*
X149303168Y-142420000D01*
X148053167Y-143670001D02*
X112358835Y-143670001D01*
X112358835Y-143670001D02*
X111108834Y-142420000D01*
X111108834Y-142420000D02*
X111021000Y-142420000D01*
X149303168Y-142420000D02*
X148053167Y-143670001D01*
X191021000Y-142420000D02*
X189303168Y-142420000D01*
X188053167Y-143670001D02*
X152358835Y-143670001D01*
X152358835Y-143670001D02*
X151108834Y-142420000D01*
X151108834Y-142420000D02*
X151021000Y-142420000D01*
X189303168Y-142420000D02*
X188053167Y-143670001D01*
X231021000Y-142420000D02*
X229303168Y-142420000D01*
X228053167Y-143670001D02*
X192358835Y-143670001D01*
X192358835Y-143670001D02*
X191108834Y-142420000D01*
X191108834Y-142420000D02*
X191021000Y-142420000D01*
X229303168Y-142420000D02*
X228053167Y-143670001D01*
X271021000Y-142420000D02*
X269303168Y-142420000D01*
X268053167Y-143670001D02*
X232358835Y-143670001D01*
X232358835Y-143670001D02*
X231108834Y-142420000D01*
X231108834Y-142420000D02*
X231021000Y-142420000D01*
X269303168Y-142420000D02*
X268053167Y-143670001D01*
X351021000Y-142420000D02*
X349303168Y-142420000D01*
X348053167Y-143670001D02*
X312358835Y-143670001D01*
X312358835Y-143670001D02*
X311108834Y-142420000D01*
X311108834Y-142420000D02*
X311021000Y-142420000D01*
X349303168Y-142420000D02*
X348053167Y-143670001D01*
X308053167Y-143670001D02*
X272358835Y-143670001D01*
X311021000Y-142420000D02*
X309303168Y-142420000D01*
X271108834Y-142420000D02*
X271021000Y-142420000D01*
X309303168Y-142420000D02*
X308053167Y-143670001D01*
X272358835Y-143670001D02*
X271108834Y-142420000D01*
X111021000Y-142420000D02*
X109303168Y-142420000D01*
X108053167Y-143670001D02*
X72358835Y-143670001D01*
X72358835Y-143670001D02*
X71108834Y-142420000D01*
X71108834Y-142420000D02*
X71021000Y-142420000D01*
X109303168Y-142420000D02*
X108053167Y-143670001D01*
X113561000Y-142420000D02*
X112871002Y-142420000D01*
X107541000Y-142420000D02*
X73561000Y-142420000D01*
X108791001Y-141169999D02*
X107541000Y-142420000D01*
X112871002Y-142420000D02*
X111621001Y-141169999D01*
X111621001Y-141169999D02*
X108791001Y-141169999D01*
X153561000Y-142420000D02*
X152871002Y-142420000D01*
X147541000Y-142420000D02*
X113561000Y-142420000D01*
X148791001Y-141169999D02*
X147541000Y-142420000D01*
X152871002Y-142420000D02*
X151621001Y-141169999D01*
X151621001Y-141169999D02*
X148791001Y-141169999D01*
X193561000Y-142420000D02*
X192871002Y-142420000D01*
X187541000Y-142420000D02*
X153561000Y-142420000D01*
X188791001Y-141169999D02*
X187541000Y-142420000D01*
X192871002Y-142420000D02*
X191621001Y-141169999D01*
X191621001Y-141169999D02*
X188791001Y-141169999D01*
X233561000Y-142420000D02*
X232871002Y-142420000D01*
X227541000Y-142420000D02*
X193561000Y-142420000D01*
X228791001Y-141169999D02*
X227541000Y-142420000D01*
X232871002Y-142420000D02*
X231621001Y-141169999D01*
X231621001Y-141169999D02*
X228791001Y-141169999D01*
X273561000Y-142420000D02*
X272871002Y-142420000D01*
X267541000Y-142420000D02*
X233561000Y-142420000D01*
X268791001Y-141169999D02*
X267541000Y-142420000D01*
X272871002Y-142420000D02*
X271621001Y-141169999D01*
X271621001Y-141169999D02*
X268791001Y-141169999D01*
X353561000Y-142420000D02*
X352871002Y-142420000D01*
X347541000Y-142420000D02*
X313561000Y-142420000D01*
X348791001Y-141169999D02*
X347541000Y-142420000D01*
X352871002Y-142420000D02*
X351621001Y-141169999D01*
X351621001Y-141169999D02*
X348791001Y-141169999D01*
X308791001Y-141169999D02*
X307541000Y-142420000D01*
X312871002Y-142420000D02*
X311621001Y-141169999D01*
X307541000Y-142420000D02*
X273561000Y-142420000D01*
X311621001Y-141169999D02*
X308791001Y-141169999D01*
X313561000Y-142420000D02*
X312871002Y-142420000D01*
X189303168Y-139880000D02*
X188053167Y-141130001D01*
X151108834Y-139880000D02*
X151021000Y-139880000D01*
X152358835Y-141130001D02*
X151108834Y-139880000D01*
X228053167Y-141130001D02*
X192358835Y-141130001D01*
X231021000Y-139880000D02*
X229303168Y-139880000D01*
X229303168Y-139880000D02*
X228053167Y-141130001D01*
X191108834Y-139880000D02*
X191021000Y-139880000D01*
X192358835Y-141130001D02*
X191108834Y-139880000D01*
X268053167Y-141130001D02*
X232358835Y-141130001D01*
X271021000Y-139880000D02*
X269303168Y-139880000D01*
X269303168Y-139880000D02*
X268053167Y-141130001D01*
X231108834Y-139880000D02*
X231021000Y-139880000D01*
X232358835Y-141130001D02*
X231108834Y-139880000D01*
X348053167Y-141130001D02*
X312358835Y-141130001D01*
X351021000Y-139880000D02*
X349303168Y-139880000D01*
X349303168Y-139880000D02*
X348053167Y-141130001D01*
X311108834Y-139880000D02*
X311021000Y-139880000D01*
X312358835Y-141130001D02*
X311108834Y-139880000D01*
X308053167Y-141130001D02*
X272358835Y-141130001D01*
X311021000Y-139880000D02*
X309303168Y-139880000D01*
X271108834Y-139880000D02*
X271021000Y-139880000D01*
X309303168Y-139880000D02*
X308053167Y-141130001D01*
X272358835Y-141130001D02*
X271108834Y-139880000D01*
X108053167Y-141130001D02*
X72358835Y-141130001D01*
X111021000Y-139880000D02*
X109303168Y-139880000D01*
X109303168Y-139880000D02*
X108053167Y-141130001D01*
X71108834Y-139880000D02*
X71021000Y-139880000D01*
X72358835Y-141130001D02*
X71108834Y-139880000D01*
X148053167Y-141130001D02*
X112358835Y-141130001D01*
X151021000Y-139880000D02*
X149303168Y-139880000D01*
X149303168Y-139880000D02*
X148053167Y-141130001D01*
X111108834Y-139880000D02*
X111021000Y-139880000D01*
X112358835Y-141130001D02*
X111108834Y-139880000D01*
X188053167Y-141130001D02*
X152358835Y-141130001D01*
X191021000Y-139880000D02*
X189303168Y-139880000D01*
X351621001Y-138629999D02*
X348791001Y-138629999D01*
X352871002Y-139880000D02*
X351621001Y-138629999D01*
X308791001Y-138629999D02*
X307541000Y-139880000D01*
X312871002Y-139880000D02*
X311621001Y-138629999D01*
X307541000Y-139880000D02*
X273561000Y-139880000D01*
X311621001Y-138629999D02*
X308791001Y-138629999D01*
X313561000Y-139880000D02*
X312871002Y-139880000D01*
X113561000Y-139880000D02*
X112871002Y-139880000D01*
X108791001Y-138629999D02*
X107541000Y-139880000D01*
X107541000Y-139880000D02*
X73561000Y-139880000D01*
X111621001Y-138629999D02*
X108791001Y-138629999D01*
X112871002Y-139880000D02*
X111621001Y-138629999D01*
X153561000Y-139880000D02*
X152871002Y-139880000D01*
X148791001Y-138629999D02*
X147541000Y-139880000D01*
X147541000Y-139880000D02*
X113561000Y-139880000D01*
X151621001Y-138629999D02*
X148791001Y-138629999D01*
X152871002Y-139880000D02*
X151621001Y-138629999D01*
X193561000Y-139880000D02*
X192871002Y-139880000D01*
X188791001Y-138629999D02*
X187541000Y-139880000D01*
X187541000Y-139880000D02*
X153561000Y-139880000D01*
X191621001Y-138629999D02*
X188791001Y-138629999D01*
X192871002Y-139880000D02*
X191621001Y-138629999D01*
X233561000Y-139880000D02*
X232871002Y-139880000D01*
X228791001Y-138629999D02*
X227541000Y-139880000D01*
X227541000Y-139880000D02*
X193561000Y-139880000D01*
X231621001Y-138629999D02*
X228791001Y-138629999D01*
X232871002Y-139880000D02*
X231621001Y-138629999D01*
X273561000Y-139880000D02*
X272871002Y-139880000D01*
X268791001Y-138629999D02*
X267541000Y-139880000D01*
X267541000Y-139880000D02*
X233561000Y-139880000D01*
X271621001Y-138629999D02*
X268791001Y-138629999D01*
X272871002Y-139880000D02*
X271621001Y-138629999D01*
X353561000Y-139880000D02*
X352871002Y-139880000D01*
X348791001Y-138629999D02*
X347541000Y-139880000D01*
X347541000Y-139880000D02*
X313561000Y-139880000D01*
X151021000Y-137340000D02*
X149303168Y-137340000D01*
X152358835Y-138590001D02*
X151108834Y-137340000D01*
X151108834Y-137340000D02*
X151021000Y-137340000D01*
X188053167Y-138590001D02*
X152358835Y-138590001D01*
X189303168Y-137340000D02*
X188053167Y-138590001D01*
X191021000Y-137340000D02*
X189303168Y-137340000D01*
X192358835Y-138590001D02*
X191108834Y-137340000D01*
X191108834Y-137340000D02*
X191021000Y-137340000D01*
X228053167Y-138590001D02*
X192358835Y-138590001D01*
X229303168Y-137340000D02*
X228053167Y-138590001D01*
X231021000Y-137340000D02*
X229303168Y-137340000D01*
X232358835Y-138590001D02*
X231108834Y-137340000D01*
X231108834Y-137340000D02*
X231021000Y-137340000D01*
X268053167Y-138590001D02*
X232358835Y-138590001D01*
X269303168Y-137340000D02*
X268053167Y-138590001D01*
X271021000Y-137340000D02*
X269303168Y-137340000D01*
X312358835Y-138590001D02*
X311108834Y-137340000D01*
X311108834Y-137340000D02*
X311021000Y-137340000D01*
X348053167Y-138590001D02*
X312358835Y-138590001D01*
X349303168Y-137340000D02*
X348053167Y-138590001D01*
X351021000Y-137340000D02*
X349303168Y-137340000D01*
X308053167Y-138590001D02*
X272358835Y-138590001D01*
X311021000Y-137340000D02*
X309303168Y-137340000D01*
X271108834Y-137340000D02*
X271021000Y-137340000D01*
X309303168Y-137340000D02*
X308053167Y-138590001D01*
X272358835Y-138590001D02*
X271108834Y-137340000D01*
X72358835Y-138590001D02*
X71108834Y-137340000D01*
X71108834Y-137340000D02*
X71021000Y-137340000D01*
X108053167Y-138590001D02*
X72358835Y-138590001D01*
X109303168Y-137340000D02*
X108053167Y-138590001D01*
X111021000Y-137340000D02*
X109303168Y-137340000D01*
X112358835Y-138590001D02*
X111108834Y-137340000D01*
X111108834Y-137340000D02*
X111021000Y-137340000D01*
X148053167Y-138590001D02*
X112358835Y-138590001D01*
X149303168Y-137340000D02*
X148053167Y-138590001D01*
X192871002Y-137340000D02*
X191621001Y-136089999D01*
X233561000Y-137340000D02*
X232871002Y-137340000D01*
X228791001Y-136089999D02*
X227541000Y-137340000D01*
X231621001Y-136089999D02*
X228791001Y-136089999D01*
X227541000Y-137340000D02*
X193561000Y-137340000D01*
X273561000Y-137340000D02*
X272871002Y-137340000D01*
X268791001Y-136089999D02*
X267541000Y-137340000D01*
X271621001Y-136089999D02*
X268791001Y-136089999D01*
X267541000Y-137340000D02*
X233561000Y-137340000D01*
X272871002Y-137340000D02*
X271621001Y-136089999D01*
X353561000Y-137340000D02*
X352871002Y-137340000D01*
X348791001Y-136089999D02*
X347541000Y-137340000D01*
X351621001Y-136089999D02*
X348791001Y-136089999D01*
X347541000Y-137340000D02*
X313561000Y-137340000D01*
X352871002Y-137340000D02*
X351621001Y-136089999D01*
X308791001Y-136089999D02*
X307541000Y-137340000D01*
X312871002Y-137340000D02*
X311621001Y-136089999D01*
X307541000Y-137340000D02*
X273561000Y-137340000D01*
X311621001Y-136089999D02*
X308791001Y-136089999D01*
X313561000Y-137340000D02*
X312871002Y-137340000D01*
X232871002Y-137340000D02*
X231621001Y-136089999D01*
X113561000Y-137340000D02*
X112871002Y-137340000D01*
X108791001Y-136089999D02*
X107541000Y-137340000D01*
X111621001Y-136089999D02*
X108791001Y-136089999D01*
X107541000Y-137340000D02*
X73561000Y-137340000D01*
X112871002Y-137340000D02*
X111621001Y-136089999D01*
X153561000Y-137340000D02*
X152871002Y-137340000D01*
X148791001Y-136089999D02*
X147541000Y-137340000D01*
X151621001Y-136089999D02*
X148791001Y-136089999D01*
X147541000Y-137340000D02*
X113561000Y-137340000D01*
X152871002Y-137340000D02*
X151621001Y-136089999D01*
X193561000Y-137340000D02*
X192871002Y-137340000D01*
X188791001Y-136089999D02*
X187541000Y-137340000D01*
X191621001Y-136089999D02*
X188791001Y-136089999D01*
X187541000Y-137340000D02*
X153561000Y-137340000D01*
X111021000Y-134800000D02*
X109303168Y-134800000D01*
X72358835Y-136050001D02*
X71108834Y-134800000D01*
X71108834Y-134800000D02*
X71021000Y-134800000D01*
X109303168Y-134800000D02*
X108053167Y-136050001D01*
X108053167Y-136050001D02*
X72358835Y-136050001D01*
X151021000Y-134800000D02*
X149303168Y-134800000D01*
X111108834Y-134800000D02*
X111021000Y-134800000D01*
X149303168Y-134800000D02*
X148053167Y-136050001D01*
X148053167Y-136050001D02*
X112358835Y-136050001D01*
X191021000Y-134800000D02*
X189303168Y-134800000D01*
X152358835Y-136050001D02*
X151108834Y-134800000D01*
X151108834Y-134800000D02*
X151021000Y-134800000D01*
X189303168Y-134800000D02*
X188053167Y-136050001D01*
X188053167Y-136050001D02*
X152358835Y-136050001D01*
X231021000Y-134800000D02*
X229303168Y-134800000D01*
X192358835Y-136050001D02*
X191108834Y-134800000D01*
X191108834Y-134800000D02*
X191021000Y-134800000D01*
X229303168Y-134800000D02*
X228053167Y-136050001D01*
X228053167Y-136050001D02*
X192358835Y-136050001D01*
X271021000Y-134800000D02*
X269303168Y-134800000D01*
X232358835Y-136050001D02*
X231108834Y-134800000D01*
X231108834Y-134800000D02*
X231021000Y-134800000D01*
X269303168Y-134800000D02*
X268053167Y-136050001D01*
X268053167Y-136050001D02*
X232358835Y-136050001D01*
X351021000Y-134800000D02*
X349303168Y-134800000D01*
X312358835Y-136050001D02*
X311108834Y-134800000D01*
X311108834Y-134800000D02*
X311021000Y-134800000D01*
X349303168Y-134800000D02*
X348053167Y-136050001D01*
X348053167Y-136050001D02*
X312358835Y-136050001D01*
X308053167Y-136050001D02*
X272358835Y-136050001D01*
X311021000Y-134800000D02*
X309303168Y-134800000D01*
X271108834Y-134800000D02*
X271021000Y-134800000D01*
X309303168Y-134800000D02*
X308053167Y-136050001D01*
X272358835Y-136050001D02*
X271108834Y-134800000D01*
X112358835Y-136050001D02*
X111108834Y-134800000D01*
X113561000Y-134800000D02*
X112871002Y-134800000D01*
X111621001Y-133549999D02*
X108791001Y-133549999D01*
X112871002Y-134800000D02*
X111621001Y-133549999D01*
X107541000Y-134800000D02*
X73561000Y-134800000D01*
X108791001Y-133549999D02*
X107541000Y-134800000D01*
X153561000Y-134800000D02*
X152871002Y-134800000D01*
X151621001Y-133549999D02*
X148791001Y-133549999D01*
X152871002Y-134800000D02*
X151621001Y-133549999D01*
X147541000Y-134800000D02*
X113561000Y-134800000D01*
X148791001Y-133549999D02*
X147541000Y-134800000D01*
X193561000Y-134800000D02*
X192871002Y-134800000D01*
X191621001Y-133549999D02*
X188791001Y-133549999D01*
X192871002Y-134800000D02*
X191621001Y-133549999D01*
X187541000Y-134800000D02*
X153561000Y-134800000D01*
X188791001Y-133549999D02*
X187541000Y-134800000D01*
X233561000Y-134800000D02*
X232871002Y-134800000D01*
X231621001Y-133549999D02*
X228791001Y-133549999D01*
X232871002Y-134800000D02*
X231621001Y-133549999D01*
X227541000Y-134800000D02*
X193561000Y-134800000D01*
X228791001Y-133549999D02*
X227541000Y-134800000D01*
X273561000Y-134800000D02*
X272871002Y-134800000D01*
X271621001Y-133549999D02*
X268791001Y-133549999D01*
X272871002Y-134800000D02*
X271621001Y-133549999D01*
X267541000Y-134800000D02*
X233561000Y-134800000D01*
X268791001Y-133549999D02*
X267541000Y-134800000D01*
X353561000Y-134800000D02*
X352871002Y-134800000D01*
X351621001Y-133549999D02*
X348791001Y-133549999D01*
X352871002Y-134800000D02*
X351621001Y-133549999D01*
X347541000Y-134800000D02*
X313561000Y-134800000D01*
X348791001Y-133549999D02*
X347541000Y-134800000D01*
X308791001Y-133549999D02*
X307541000Y-134800000D01*
X312871002Y-134800000D02*
X311621001Y-133549999D01*
X307541000Y-134800000D02*
X273561000Y-134800000D01*
X311621001Y-133549999D02*
X308791001Y-133549999D01*
X313561000Y-134800000D02*
X312871002Y-134800000D01*
X228053167Y-133510001D02*
X192358835Y-133510001D01*
X231021000Y-132260000D02*
X229303168Y-132260000D01*
X232358835Y-133510001D02*
X231108834Y-132260000D01*
X231108834Y-132260000D02*
X231021000Y-132260000D01*
X269303168Y-132260000D02*
X268053167Y-133510001D01*
X268053167Y-133510001D02*
X232358835Y-133510001D01*
X271021000Y-132260000D02*
X269303168Y-132260000D01*
X312358835Y-133510001D02*
X311108834Y-132260000D01*
X311108834Y-132260000D02*
X311021000Y-132260000D01*
X349303168Y-132260000D02*
X348053167Y-133510001D01*
X348053167Y-133510001D02*
X312358835Y-133510001D01*
X351021000Y-132260000D02*
X349303168Y-132260000D01*
X308053167Y-133510001D02*
X272358835Y-133510001D01*
X311021000Y-132260000D02*
X309303168Y-132260000D01*
X271108834Y-132260000D02*
X271021000Y-132260000D01*
X309303168Y-132260000D02*
X308053167Y-133510001D01*
X272358835Y-133510001D02*
X271108834Y-132260000D01*
X72358835Y-133510001D02*
X71108834Y-132260000D01*
X71108834Y-132260000D02*
X71021000Y-132260000D01*
X109303168Y-132260000D02*
X108053167Y-133510001D01*
X108053167Y-133510001D02*
X72358835Y-133510001D01*
X111021000Y-132260000D02*
X109303168Y-132260000D01*
X112358835Y-133510001D02*
X111108834Y-132260000D01*
X111108834Y-132260000D02*
X111021000Y-132260000D01*
X149303168Y-132260000D02*
X148053167Y-133510001D01*
X148053167Y-133510001D02*
X112358835Y-133510001D01*
X151021000Y-132260000D02*
X149303168Y-132260000D01*
X152358835Y-133510001D02*
X151108834Y-132260000D01*
X151108834Y-132260000D02*
X151021000Y-132260000D01*
X189303168Y-132260000D02*
X188053167Y-133510001D01*
X188053167Y-133510001D02*
X152358835Y-133510001D01*
X191021000Y-132260000D02*
X189303168Y-132260000D01*
X192358835Y-133510001D02*
X191108834Y-132260000D01*
X191108834Y-132260000D02*
X191021000Y-132260000D01*
X229303168Y-132260000D02*
X228053167Y-133510001D01*
X113561000Y-132260000D02*
X112871002Y-132260000D01*
X112871002Y-132260000D02*
X111621001Y-131009999D01*
X108791001Y-131009999D02*
X107541000Y-132260000D01*
X111621001Y-131009999D02*
X108791001Y-131009999D01*
X107541000Y-132260000D02*
X73561000Y-132260000D01*
X153561000Y-132260000D02*
X152871002Y-132260000D01*
X152871002Y-132260000D02*
X151621001Y-131009999D01*
X148791001Y-131009999D02*
X147541000Y-132260000D01*
X151621001Y-131009999D02*
X148791001Y-131009999D01*
X147541000Y-132260000D02*
X113561000Y-132260000D01*
X193561000Y-132260000D02*
X192871002Y-132260000D01*
X192871002Y-132260000D02*
X191621001Y-131009999D01*
X188791001Y-131009999D02*
X187541000Y-132260000D01*
X191621001Y-131009999D02*
X188791001Y-131009999D01*
X187541000Y-132260000D02*
X153561000Y-132260000D01*
X233561000Y-132260000D02*
X232871002Y-132260000D01*
X232871002Y-132260000D02*
X231621001Y-131009999D01*
X228791001Y-131009999D02*
X227541000Y-132260000D01*
X231621001Y-131009999D02*
X228791001Y-131009999D01*
X227541000Y-132260000D02*
X193561000Y-132260000D01*
X273561000Y-132260000D02*
X272871002Y-132260000D01*
X272871002Y-132260000D02*
X271621001Y-131009999D01*
X268791001Y-131009999D02*
X267541000Y-132260000D01*
X271621001Y-131009999D02*
X268791001Y-131009999D01*
X267541000Y-132260000D02*
X233561000Y-132260000D01*
X353561000Y-132260000D02*
X352871002Y-132260000D01*
X352871002Y-132260000D02*
X351621001Y-131009999D01*
X348791001Y-131009999D02*
X347541000Y-132260000D01*
X351621001Y-131009999D02*
X348791001Y-131009999D01*
X347541000Y-132260000D02*
X313561000Y-132260000D01*
X308791001Y-131009999D02*
X307541000Y-132260000D01*
X312871002Y-132260000D02*
X311621001Y-131009999D01*
X307541000Y-132260000D02*
X273561000Y-132260000D01*
X311621001Y-131009999D02*
X308791001Y-131009999D01*
X313561000Y-132260000D02*
X312871002Y-132260000D01*
X111021000Y-129720000D02*
X109303168Y-129720000D01*
X109303168Y-129720000D02*
X108053167Y-130970001D01*
X71108834Y-129720000D02*
X71021000Y-129720000D01*
X108053167Y-130970001D02*
X72358835Y-130970001D01*
X72358835Y-130970001D02*
X71108834Y-129720000D01*
X151021000Y-129720000D02*
X149303168Y-129720000D01*
X149303168Y-129720000D02*
X148053167Y-130970001D01*
X111108834Y-129720000D02*
X111021000Y-129720000D01*
X148053167Y-130970001D02*
X112358835Y-130970001D01*
X112358835Y-130970001D02*
X111108834Y-129720000D01*
X191021000Y-129720000D02*
X189303168Y-129720000D01*
X189303168Y-129720000D02*
X188053167Y-130970001D01*
X151108834Y-129720000D02*
X151021000Y-129720000D01*
X188053167Y-130970001D02*
X152358835Y-130970001D01*
X152358835Y-130970001D02*
X151108834Y-129720000D01*
X231021000Y-129720000D02*
X229303168Y-129720000D01*
X229303168Y-129720000D02*
X228053167Y-130970001D01*
X191108834Y-129720000D02*
X191021000Y-129720000D01*
X228053167Y-130970001D02*
X192358835Y-130970001D01*
X192358835Y-130970001D02*
X191108834Y-129720000D01*
X271021000Y-129720000D02*
X269303168Y-129720000D01*
X269303168Y-129720000D02*
X268053167Y-130970001D01*
X231108834Y-129720000D02*
X231021000Y-129720000D01*
X268053167Y-130970001D02*
X232358835Y-130970001D01*
X232358835Y-130970001D02*
X231108834Y-129720000D01*
X351021000Y-129720000D02*
X349303168Y-129720000D01*
X349303168Y-129720000D02*
X348053167Y-130970001D01*
X311108834Y-129720000D02*
X311021000Y-129720000D01*
X348053167Y-130970001D02*
X312358835Y-130970001D01*
X312358835Y-130970001D02*
X311108834Y-129720000D01*
X308053167Y-130970001D02*
X272358835Y-130970001D01*
X311021000Y-129720000D02*
X309303168Y-129720000D01*
X271108834Y-129720000D02*
X271021000Y-129720000D01*
X309303168Y-129720000D02*
X308053167Y-130970001D01*
X272358835Y-130970001D02*
X271108834Y-129720000D01*
X108791001Y-128469999D02*
X107541000Y-129720000D01*
X111621001Y-128469999D02*
X108791001Y-128469999D01*
X107541000Y-129720000D02*
X73561000Y-129720000D01*
X113561000Y-129720000D02*
X112871002Y-129720000D01*
X112871002Y-129720000D02*
X111621001Y-128469999D01*
X148791001Y-128469999D02*
X147541000Y-129720000D01*
X151621001Y-128469999D02*
X148791001Y-128469999D01*
X147541000Y-129720000D02*
X113561000Y-129720000D01*
X153561000Y-129720000D02*
X152871002Y-129720000D01*
X152871002Y-129720000D02*
X151621001Y-128469999D01*
X188791001Y-128469999D02*
X187541000Y-129720000D01*
X191621001Y-128469999D02*
X188791001Y-128469999D01*
X187541000Y-129720000D02*
X153561000Y-129720000D01*
X193561000Y-129720000D02*
X192871002Y-129720000D01*
X192871002Y-129720000D02*
X191621001Y-128469999D01*
X228791001Y-128469999D02*
X227541000Y-129720000D01*
X231621001Y-128469999D02*
X228791001Y-128469999D01*
X227541000Y-129720000D02*
X193561000Y-129720000D01*
X233561000Y-129720000D02*
X232871002Y-129720000D01*
X232871002Y-129720000D02*
X231621001Y-128469999D01*
X268791001Y-128469999D02*
X267541000Y-129720000D01*
X271621001Y-128469999D02*
X268791001Y-128469999D01*
X267541000Y-129720000D02*
X233561000Y-129720000D01*
X273561000Y-129720000D02*
X272871002Y-129720000D01*
X272871002Y-129720000D02*
X271621001Y-128469999D01*
X348791001Y-128469999D02*
X347541000Y-129720000D01*
X351621001Y-128469999D02*
X348791001Y-128469999D01*
X347541000Y-129720000D02*
X313561000Y-129720000D01*
X353561000Y-129720000D02*
X352871002Y-129720000D01*
X352871002Y-129720000D02*
X351621001Y-128469999D01*
X308791001Y-128469999D02*
X307541000Y-129720000D01*
X312871002Y-129720000D02*
X311621001Y-128469999D01*
X307541000Y-129720000D02*
X273561000Y-129720000D01*
X311621001Y-128469999D02*
X308791001Y-128469999D01*
X313561000Y-129720000D02*
X312871002Y-129720000D01*
X71108834Y-127180000D02*
X71021000Y-127180000D01*
X108053167Y-128430001D02*
X72358835Y-128430001D01*
X111021000Y-127180000D02*
X109303168Y-127180000D01*
X72358835Y-128430001D02*
X71108834Y-127180000D01*
X109303168Y-127180000D02*
X108053167Y-128430001D01*
X111108834Y-127180000D02*
X111021000Y-127180000D01*
X148053167Y-128430001D02*
X112358835Y-128430001D01*
X151021000Y-127180000D02*
X149303168Y-127180000D01*
X112358835Y-128430001D02*
X111108834Y-127180000D01*
X149303168Y-127180000D02*
X148053167Y-128430001D01*
X151108834Y-127180000D02*
X151021000Y-127180000D01*
X188053167Y-128430001D02*
X152358835Y-128430001D01*
X191021000Y-127180000D02*
X189303168Y-127180000D01*
X152358835Y-128430001D02*
X151108834Y-127180000D01*
X189303168Y-127180000D02*
X188053167Y-128430001D01*
X191108834Y-127180000D02*
X191021000Y-127180000D01*
X228053167Y-128430001D02*
X192358835Y-128430001D01*
X231021000Y-127180000D02*
X229303168Y-127180000D01*
X192358835Y-128430001D02*
X191108834Y-127180000D01*
X229303168Y-127180000D02*
X228053167Y-128430001D01*
X231108834Y-127180000D02*
X231021000Y-127180000D01*
X268053167Y-128430001D02*
X232358835Y-128430001D01*
X271021000Y-127180000D02*
X269303168Y-127180000D01*
X232358835Y-128430001D02*
X231108834Y-127180000D01*
X269303168Y-127180000D02*
X268053167Y-128430001D01*
X311108834Y-127180000D02*
X311021000Y-127180000D01*
X348053167Y-128430001D02*
X312358835Y-128430001D01*
X351021000Y-127180000D02*
X349303168Y-127180000D01*
X312358835Y-128430001D02*
X311108834Y-127180000D01*
X349303168Y-127180000D02*
X348053167Y-128430001D01*
X308053167Y-128430001D02*
X272358835Y-128430001D01*
X311021000Y-127180000D02*
X309303168Y-127180000D01*
X271108834Y-127180000D02*
X271021000Y-127180000D01*
X309303168Y-127180000D02*
X308053167Y-128430001D01*
X272358835Y-128430001D02*
X271108834Y-127180000D01*
X111621001Y-125929999D02*
X108791001Y-125929999D01*
X108791001Y-125929999D02*
X107541000Y-127180000D01*
X113561000Y-127180000D02*
X112871002Y-127180000D01*
X107541000Y-127180000D02*
X73561000Y-127180000D01*
X112871002Y-127180000D02*
X111621001Y-125929999D01*
X151621001Y-125929999D02*
X148791001Y-125929999D01*
X148791001Y-125929999D02*
X147541000Y-127180000D01*
X153561000Y-127180000D02*
X152871002Y-127180000D01*
X147541000Y-127180000D02*
X113561000Y-127180000D01*
X152871002Y-127180000D02*
X151621001Y-125929999D01*
X191621001Y-125929999D02*
X188791001Y-125929999D01*
X188791001Y-125929999D02*
X187541000Y-127180000D01*
X193561000Y-127180000D02*
X192871002Y-127180000D01*
X187541000Y-127180000D02*
X153561000Y-127180000D01*
X192871002Y-127180000D02*
X191621001Y-125929999D01*
X231621001Y-125929999D02*
X228791001Y-125929999D01*
X228791001Y-125929999D02*
X227541000Y-127180000D01*
X233561000Y-127180000D02*
X232871002Y-127180000D01*
X227541000Y-127180000D02*
X193561000Y-127180000D01*
X232871002Y-127180000D02*
X231621001Y-125929999D01*
X271621001Y-125929999D02*
X268791001Y-125929999D01*
X268791001Y-125929999D02*
X267541000Y-127180000D01*
X273561000Y-127180000D02*
X272871002Y-127180000D01*
X267541000Y-127180000D02*
X233561000Y-127180000D01*
X272871002Y-127180000D02*
X271621001Y-125929999D01*
X351621001Y-125929999D02*
X348791001Y-125929999D01*
X348791001Y-125929999D02*
X347541000Y-127180000D01*
X353561000Y-127180000D02*
X352871002Y-127180000D01*
X347541000Y-127180000D02*
X313561000Y-127180000D01*
X352871002Y-127180000D02*
X351621001Y-125929999D01*
X308791001Y-125929999D02*
X307541000Y-127180000D01*
X312871002Y-127180000D02*
X311621001Y-125929999D01*
X307541000Y-127180000D02*
X273561000Y-127180000D01*
X311621001Y-125929999D02*
X308791001Y-125929999D01*
X313561000Y-127180000D02*
X312871002Y-127180000D01*
X271108834Y-124640000D02*
X271021000Y-124640000D01*
X309303168Y-124640000D02*
X308053167Y-125890001D01*
X272358835Y-125890001D02*
X271108834Y-124640000D01*
X71108834Y-124640000D02*
X71021000Y-124640000D01*
X109303168Y-124640000D02*
X108053167Y-125890001D01*
X72358835Y-125890001D02*
X71108834Y-124640000D01*
X108053167Y-125890001D02*
X72358835Y-125890001D01*
X111021000Y-124640000D02*
X109303168Y-124640000D01*
X111108834Y-124640000D02*
X111021000Y-124640000D01*
X149303168Y-124640000D02*
X148053167Y-125890001D01*
X112358835Y-125890001D02*
X111108834Y-124640000D01*
X148053167Y-125890001D02*
X112358835Y-125890001D01*
X151021000Y-124640000D02*
X149303168Y-124640000D01*
X151108834Y-124640000D02*
X151021000Y-124640000D01*
X189303168Y-124640000D02*
X188053167Y-125890001D01*
X152358835Y-125890001D02*
X151108834Y-124640000D01*
X188053167Y-125890001D02*
X152358835Y-125890001D01*
X191021000Y-124640000D02*
X189303168Y-124640000D01*
X191108834Y-124640000D02*
X191021000Y-124640000D01*
X229303168Y-124640000D02*
X228053167Y-125890001D01*
X192358835Y-125890001D02*
X191108834Y-124640000D01*
X228053167Y-125890001D02*
X192358835Y-125890001D01*
X231021000Y-124640000D02*
X229303168Y-124640000D01*
X231108834Y-124640000D02*
X231021000Y-124640000D01*
X269303168Y-124640000D02*
X268053167Y-125890001D01*
X232358835Y-125890001D02*
X231108834Y-124640000D01*
X268053167Y-125890001D02*
X232358835Y-125890001D01*
X271021000Y-124640000D02*
X269303168Y-124640000D01*
X311108834Y-124640000D02*
X311021000Y-124640000D01*
X349303168Y-124640000D02*
X348053167Y-125890001D01*
X312358835Y-125890001D02*
X311108834Y-124640000D01*
X348053167Y-125890001D02*
X312358835Y-125890001D01*
X351021000Y-124640000D02*
X349303168Y-124640000D01*
X308053167Y-125890001D02*
X272358835Y-125890001D01*
X311021000Y-124640000D02*
X309303168Y-124640000D01*
X112871002Y-124640000D02*
X111621001Y-123389999D01*
X108791001Y-123389999D02*
X107541000Y-124640000D01*
X111621001Y-123389999D02*
X108791001Y-123389999D01*
X113561000Y-124640000D02*
X112871002Y-124640000D01*
X107541000Y-124640000D02*
X73561000Y-124640000D01*
X152871002Y-124640000D02*
X151621001Y-123389999D01*
X148791001Y-123389999D02*
X147541000Y-124640000D01*
X151621001Y-123389999D02*
X148791001Y-123389999D01*
X153561000Y-124640000D02*
X152871002Y-124640000D01*
X147541000Y-124640000D02*
X113561000Y-124640000D01*
X192871002Y-124640000D02*
X191621001Y-123389999D01*
X188791001Y-123389999D02*
X187541000Y-124640000D01*
X191621001Y-123389999D02*
X188791001Y-123389999D01*
X193561000Y-124640000D02*
X192871002Y-124640000D01*
X187541000Y-124640000D02*
X153561000Y-124640000D01*
X232871002Y-124640000D02*
X231621001Y-123389999D01*
X228791001Y-123389999D02*
X227541000Y-124640000D01*
X231621001Y-123389999D02*
X228791001Y-123389999D01*
X233561000Y-124640000D02*
X232871002Y-124640000D01*
X227541000Y-124640000D02*
X193561000Y-124640000D01*
X272871002Y-124640000D02*
X271621001Y-123389999D01*
X268791001Y-123389999D02*
X267541000Y-124640000D01*
X271621001Y-123389999D02*
X268791001Y-123389999D01*
X273561000Y-124640000D02*
X272871002Y-124640000D01*
X267541000Y-124640000D02*
X233561000Y-124640000D01*
X352871002Y-124640000D02*
X351621001Y-123389999D01*
X348791001Y-123389999D02*
X347541000Y-124640000D01*
X351621001Y-123389999D02*
X348791001Y-123389999D01*
X353561000Y-124640000D02*
X352871002Y-124640000D01*
X347541000Y-124640000D02*
X313561000Y-124640000D01*
X308791001Y-123389999D02*
X307541000Y-124640000D01*
X312871002Y-124640000D02*
X311621001Y-123389999D01*
X307541000Y-124640000D02*
X273561000Y-124640000D01*
X311621001Y-123389999D02*
X308791001Y-123389999D01*
X313561000Y-124640000D02*
X312871002Y-124640000D01*
X191021000Y-122100000D02*
X189303168Y-122100000D01*
X108053167Y-123350001D02*
X72358835Y-123350001D01*
X111021000Y-122100000D02*
X109303168Y-122100000D01*
X72358835Y-123350001D02*
X71108834Y-122100000D01*
X71108834Y-122100000D02*
X71021000Y-122100000D01*
X109303168Y-122100000D02*
X108053167Y-123350001D01*
X148053167Y-123350001D02*
X112358835Y-123350001D01*
X151021000Y-122100000D02*
X149303168Y-122100000D01*
X112358835Y-123350001D02*
X111108834Y-122100000D01*
X111108834Y-122100000D02*
X111021000Y-122100000D01*
X149303168Y-122100000D02*
X148053167Y-123350001D01*
X188053167Y-123350001D02*
X152358835Y-123350001D01*
X152358835Y-123350001D02*
X151108834Y-122100000D01*
X151108834Y-122100000D02*
X151021000Y-122100000D01*
X189303168Y-122100000D02*
X188053167Y-123350001D01*
X228053167Y-123350001D02*
X192358835Y-123350001D01*
X231021000Y-122100000D02*
X229303168Y-122100000D01*
X192358835Y-123350001D02*
X191108834Y-122100000D01*
X191108834Y-122100000D02*
X191021000Y-122100000D01*
X229303168Y-122100000D02*
X228053167Y-123350001D01*
X268053167Y-123350001D02*
X232358835Y-123350001D01*
X271021000Y-122100000D02*
X269303168Y-122100000D01*
X232358835Y-123350001D02*
X231108834Y-122100000D01*
X231108834Y-122100000D02*
X231021000Y-122100000D01*
X269303168Y-122100000D02*
X268053167Y-123350001D01*
X348053167Y-123350001D02*
X312358835Y-123350001D01*
X351021000Y-122100000D02*
X349303168Y-122100000D01*
X312358835Y-123350001D02*
X311108834Y-122100000D01*
X311108834Y-122100000D02*
X311021000Y-122100000D01*
X349303168Y-122100000D02*
X348053167Y-123350001D01*
X308053167Y-123350001D02*
X272358835Y-123350001D01*
X311021000Y-122100000D02*
X309303168Y-122100000D01*
X271108834Y-122100000D02*
X271021000Y-122100000D01*
X309303168Y-122100000D02*
X308053167Y-123350001D01*
X272358835Y-123350001D02*
X271108834Y-122100000D01*
X352871002Y-122100000D02*
X351621001Y-120849999D01*
X308791001Y-120849999D02*
X307541000Y-122100000D01*
X312871002Y-122100000D02*
X311621001Y-120849999D01*
X307541000Y-122100000D02*
X273561000Y-122100000D01*
X311621001Y-120849999D02*
X308791001Y-120849999D01*
X313561000Y-122100000D02*
X312871002Y-122100000D01*
X108791001Y-120849999D02*
X107541000Y-122100000D01*
X107541000Y-122100000D02*
X73561000Y-122100000D01*
X113561000Y-122100000D02*
X112871002Y-122100000D01*
X111621001Y-120849999D02*
X108791001Y-120849999D01*
X112871002Y-122100000D02*
X111621001Y-120849999D01*
X148791001Y-120849999D02*
X147541000Y-122100000D01*
X147541000Y-122100000D02*
X113561000Y-122100000D01*
X153561000Y-122100000D02*
X152871002Y-122100000D01*
X151621001Y-120849999D02*
X148791001Y-120849999D01*
X152871002Y-122100000D02*
X151621001Y-120849999D01*
X188791001Y-120849999D02*
X187541000Y-122100000D01*
X187541000Y-122100000D02*
X153561000Y-122100000D01*
X193561000Y-122100000D02*
X192871002Y-122100000D01*
X191621001Y-120849999D02*
X188791001Y-120849999D01*
X192871002Y-122100000D02*
X191621001Y-120849999D01*
X228791001Y-120849999D02*
X227541000Y-122100000D01*
X227541000Y-122100000D02*
X193561000Y-122100000D01*
X233561000Y-122100000D02*
X232871002Y-122100000D01*
X231621001Y-120849999D02*
X228791001Y-120849999D01*
X232871002Y-122100000D02*
X231621001Y-120849999D01*
X268791001Y-120849999D02*
X267541000Y-122100000D01*
X267541000Y-122100000D02*
X233561000Y-122100000D01*
X273561000Y-122100000D02*
X272871002Y-122100000D01*
X271621001Y-120849999D02*
X268791001Y-120849999D01*
X272871002Y-122100000D02*
X271621001Y-120849999D01*
X348791001Y-120849999D02*
X347541000Y-122100000D01*
X347541000Y-122100000D02*
X313561000Y-122100000D01*
X353561000Y-122100000D02*
X352871002Y-122100000D01*
X351621001Y-120849999D02*
X348791001Y-120849999D01*
X72358835Y-120810001D02*
X71108834Y-119560000D01*
X109303168Y-119560000D02*
X108053167Y-120810001D01*
X71108834Y-119560000D02*
X71021000Y-119560000D01*
X111021000Y-119560000D02*
X109303168Y-119560000D01*
X108053167Y-120810001D02*
X72358835Y-120810001D01*
X112358835Y-120810001D02*
X111108834Y-119560000D01*
X149303168Y-119560000D02*
X148053167Y-120810001D01*
X111108834Y-119560000D02*
X111021000Y-119560000D01*
X151021000Y-119560000D02*
X149303168Y-119560000D01*
X148053167Y-120810001D02*
X112358835Y-120810001D01*
X152358835Y-120810001D02*
X151108834Y-119560000D01*
X189303168Y-119560000D02*
X188053167Y-120810001D01*
X151108834Y-119560000D02*
X151021000Y-119560000D01*
X191021000Y-119560000D02*
X189303168Y-119560000D01*
X188053167Y-120810001D02*
X152358835Y-120810001D01*
X192358835Y-120810001D02*
X191108834Y-119560000D01*
X229303168Y-119560000D02*
X228053167Y-120810001D01*
X191108834Y-119560000D02*
X191021000Y-119560000D01*
X231021000Y-119560000D02*
X229303168Y-119560000D01*
X228053167Y-120810001D02*
X192358835Y-120810001D01*
X232358835Y-120810001D02*
X231108834Y-119560000D01*
X269303168Y-119560000D02*
X268053167Y-120810001D01*
X231108834Y-119560000D02*
X231021000Y-119560000D01*
X271021000Y-119560000D02*
X269303168Y-119560000D01*
X268053167Y-120810001D02*
X232358835Y-120810001D01*
X312358835Y-120810001D02*
X311108834Y-119560000D01*
X349303168Y-119560000D02*
X348053167Y-120810001D01*
X311108834Y-119560000D02*
X311021000Y-119560000D01*
X351021000Y-119560000D02*
X349303168Y-119560000D01*
X348053167Y-120810001D02*
X312358835Y-120810001D01*
X308053167Y-120810001D02*
X272358835Y-120810001D01*
X311021000Y-119560000D02*
X309303168Y-119560000D01*
X271108834Y-119560000D02*
X271021000Y-119560000D01*
X309303168Y-119560000D02*
X308053167Y-120810001D01*
X272358835Y-120810001D02*
X271108834Y-119560000D01*
X112871002Y-119560000D02*
X111621001Y-118309999D01*
X108791001Y-118309999D02*
X107541000Y-119560000D01*
X113561000Y-119560000D02*
X112871002Y-119560000D01*
X107541000Y-119560000D02*
X73561000Y-119560000D01*
X111621001Y-118309999D02*
X108791001Y-118309999D01*
X152871002Y-119560000D02*
X151621001Y-118309999D01*
X148791001Y-118309999D02*
X147541000Y-119560000D01*
X153561000Y-119560000D02*
X152871002Y-119560000D01*
X151621001Y-118309999D02*
X148791001Y-118309999D01*
X192871002Y-119560000D02*
X191621001Y-118309999D01*
X188791001Y-118309999D02*
X187541000Y-119560000D01*
X193561000Y-119560000D02*
X192871002Y-119560000D01*
X187541000Y-119560000D02*
X153561000Y-119560000D01*
X191621001Y-118309999D02*
X188791001Y-118309999D01*
X232871002Y-119560000D02*
X231621001Y-118309999D01*
X228791001Y-118309999D02*
X227541000Y-119560000D01*
X233561000Y-119560000D02*
X232871002Y-119560000D01*
X227541000Y-119560000D02*
X193561000Y-119560000D01*
X231621001Y-118309999D02*
X228791001Y-118309999D01*
X272871002Y-119560000D02*
X271621001Y-118309999D01*
X268791001Y-118309999D02*
X267541000Y-119560000D01*
X273561000Y-119560000D02*
X272871002Y-119560000D01*
X267541000Y-119560000D02*
X233561000Y-119560000D01*
X271621001Y-118309999D02*
X268791001Y-118309999D01*
X352871002Y-119560000D02*
X351621001Y-118309999D01*
X348791001Y-118309999D02*
X347541000Y-119560000D01*
X353561000Y-119560000D02*
X352871002Y-119560000D01*
X347541000Y-119560000D02*
X313561000Y-119560000D01*
X351621001Y-118309999D02*
X348791001Y-118309999D01*
X308791001Y-118309999D02*
X307541000Y-119560000D01*
X312871002Y-119560000D02*
X311621001Y-118309999D01*
X307541000Y-119560000D02*
X273561000Y-119560000D01*
X311621001Y-118309999D02*
X308791001Y-118309999D01*
X313561000Y-119560000D02*
X312871002Y-119560000D01*
X147541000Y-119560000D02*
X113561000Y-119560000D01*
X349303168Y-117020000D02*
X348053167Y-118270001D01*
X111021000Y-117020000D02*
X109303168Y-117020000D01*
X108053167Y-118270001D02*
X72358835Y-118270001D01*
X109303168Y-117020000D02*
X108053167Y-118270001D01*
X71108834Y-117020000D02*
X71021000Y-117020000D01*
X72358835Y-118270001D02*
X71108834Y-117020000D01*
X151021000Y-117020000D02*
X149303168Y-117020000D01*
X148053167Y-118270001D02*
X112358835Y-118270001D01*
X149303168Y-117020000D02*
X148053167Y-118270001D01*
X111108834Y-117020000D02*
X111021000Y-117020000D01*
X112358835Y-118270001D02*
X111108834Y-117020000D01*
X191021000Y-117020000D02*
X189303168Y-117020000D01*
X188053167Y-118270001D02*
X152358835Y-118270001D01*
X189303168Y-117020000D02*
X188053167Y-118270001D01*
X151108834Y-117020000D02*
X151021000Y-117020000D01*
X152358835Y-118270001D02*
X151108834Y-117020000D01*
X231021000Y-117020000D02*
X229303168Y-117020000D01*
X228053167Y-118270001D02*
X192358835Y-118270001D01*
X229303168Y-117020000D02*
X228053167Y-118270001D01*
X191108834Y-117020000D02*
X191021000Y-117020000D01*
X192358835Y-118270001D02*
X191108834Y-117020000D01*
X271021000Y-117020000D02*
X269303168Y-117020000D01*
X268053167Y-118270001D02*
X232358835Y-118270001D01*
X269303168Y-117020000D02*
X268053167Y-118270001D01*
X231108834Y-117020000D02*
X231021000Y-117020000D01*
X232358835Y-118270001D02*
X231108834Y-117020000D01*
X351021000Y-117020000D02*
X349303168Y-117020000D01*
X348053167Y-118270001D02*
X312358835Y-118270001D01*
X311108834Y-117020000D02*
X311021000Y-117020000D01*
X312358835Y-118270001D02*
X311108834Y-117020000D01*
X308053167Y-118270001D02*
X272358835Y-118270001D01*
X311021000Y-117020000D02*
X309303168Y-117020000D01*
X271108834Y-117020000D02*
X271021000Y-117020000D01*
X309303168Y-117020000D02*
X308053167Y-118270001D01*
X272358835Y-118270001D02*
X271108834Y-117020000D01*
X111621001Y-115769999D02*
X108791001Y-115769999D01*
X108791001Y-115769999D02*
X107541000Y-117020000D01*
X113561000Y-117020000D02*
X112871002Y-117020000D01*
X107541000Y-117020000D02*
X73561000Y-117020000D01*
X112871002Y-117020000D02*
X111621001Y-115769999D01*
X151621001Y-115769999D02*
X148791001Y-115769999D01*
X148791001Y-115769999D02*
X147541000Y-117020000D01*
X153561000Y-117020000D02*
X152871002Y-117020000D01*
X147541000Y-117020000D02*
X113561000Y-117020000D01*
X152871002Y-117020000D02*
X151621001Y-115769999D01*
X191621001Y-115769999D02*
X188791001Y-115769999D01*
X188791001Y-115769999D02*
X187541000Y-117020000D01*
X193561000Y-117020000D02*
X192871002Y-117020000D01*
X187541000Y-117020000D02*
X153561000Y-117020000D01*
X192871002Y-117020000D02*
X191621001Y-115769999D01*
X231621001Y-115769999D02*
X228791001Y-115769999D01*
X228791001Y-115769999D02*
X227541000Y-117020000D01*
X233561000Y-117020000D02*
X232871002Y-117020000D01*
X227541000Y-117020000D02*
X193561000Y-117020000D01*
X232871002Y-117020000D02*
X231621001Y-115769999D01*
X271621001Y-115769999D02*
X268791001Y-115769999D01*
X268791001Y-115769999D02*
X267541000Y-117020000D01*
X273561000Y-117020000D02*
X272871002Y-117020000D01*
X267541000Y-117020000D02*
X233561000Y-117020000D01*
X272871002Y-117020000D02*
X271621001Y-115769999D01*
X351621001Y-115769999D02*
X348791001Y-115769999D01*
X348791001Y-115769999D02*
X347541000Y-117020000D01*
X353561000Y-117020000D02*
X352871002Y-117020000D01*
X347541000Y-117020000D02*
X313561000Y-117020000D01*
X352871002Y-117020000D02*
X351621001Y-115769999D01*
X308791001Y-115769999D02*
X307541000Y-117020000D01*
X312871002Y-117020000D02*
X311621001Y-115769999D01*
X307541000Y-117020000D02*
X273561000Y-117020000D01*
X311621001Y-115769999D02*
X308791001Y-115769999D01*
X313561000Y-117020000D02*
X312871002Y-117020000D01*
X188053167Y-115730001D02*
X152358835Y-115730001D01*
X152358835Y-115730001D02*
X151108834Y-114480000D01*
X191021000Y-114480000D02*
X189303168Y-114480000D01*
X189303168Y-114480000D02*
X188053167Y-115730001D01*
X151108834Y-114480000D02*
X151021000Y-114480000D01*
X228053167Y-115730001D02*
X192358835Y-115730001D01*
X192358835Y-115730001D02*
X191108834Y-114480000D01*
X231021000Y-114480000D02*
X229303168Y-114480000D01*
X229303168Y-114480000D02*
X228053167Y-115730001D01*
X191108834Y-114480000D02*
X191021000Y-114480000D01*
X268053167Y-115730001D02*
X232358835Y-115730001D01*
X232358835Y-115730001D02*
X231108834Y-114480000D01*
X271021000Y-114480000D02*
X269303168Y-114480000D01*
X269303168Y-114480000D02*
X268053167Y-115730001D01*
X231108834Y-114480000D02*
X231021000Y-114480000D01*
X348053167Y-115730001D02*
X312358835Y-115730001D01*
X312358835Y-115730001D02*
X311108834Y-114480000D01*
X351021000Y-114480000D02*
X349303168Y-114480000D01*
X349303168Y-114480000D02*
X348053167Y-115730001D01*
X311108834Y-114480000D02*
X311021000Y-114480000D01*
X308053167Y-115730001D02*
X272358835Y-115730001D01*
X311021000Y-114480000D02*
X309303168Y-114480000D01*
X271108834Y-114480000D02*
X271021000Y-114480000D01*
X309303168Y-114480000D02*
X308053167Y-115730001D01*
X272358835Y-115730001D02*
X271108834Y-114480000D01*
X111108834Y-114480000D02*
X111021000Y-114480000D01*
X108053167Y-115730001D02*
X72358835Y-115730001D01*
X72358835Y-115730001D02*
X71108834Y-114480000D01*
X111021000Y-114480000D02*
X109303168Y-114480000D01*
X109303168Y-114480000D02*
X108053167Y-115730001D01*
X71108834Y-114480000D02*
X71021000Y-114480000D01*
X148053167Y-115730001D02*
X112358835Y-115730001D01*
X112358835Y-115730001D02*
X111108834Y-114480000D01*
X151021000Y-114480000D02*
X149303168Y-114480000D01*
X149303168Y-114480000D02*
X148053167Y-115730001D01*
X111621001Y-113229999D02*
X108791001Y-113229999D01*
X113561000Y-114480000D02*
X112871002Y-114480000D01*
X107541000Y-114480000D02*
X73561000Y-114480000D01*
X112871002Y-114480000D02*
X111621001Y-113229999D01*
X108791001Y-113229999D02*
X107541000Y-114480000D01*
X151621001Y-113229999D02*
X148791001Y-113229999D01*
X153561000Y-114480000D02*
X152871002Y-114480000D01*
X147541000Y-114480000D02*
X113561000Y-114480000D01*
X152871002Y-114480000D02*
X151621001Y-113229999D01*
X148791001Y-113229999D02*
X147541000Y-114480000D01*
X191621001Y-113229999D02*
X188791001Y-113229999D01*
X193561000Y-114480000D02*
X192871002Y-114480000D01*
X187541000Y-114480000D02*
X153561000Y-114480000D01*
X192871002Y-114480000D02*
X191621001Y-113229999D01*
X188791001Y-113229999D02*
X187541000Y-114480000D01*
X231621001Y-113229999D02*
X228791001Y-113229999D01*
X233561000Y-114480000D02*
X232871002Y-114480000D01*
X227541000Y-114480000D02*
X193561000Y-114480000D01*
X232871002Y-114480000D02*
X231621001Y-113229999D01*
X228791001Y-113229999D02*
X227541000Y-114480000D01*
X271621001Y-113229999D02*
X268791001Y-113229999D01*
X273561000Y-114480000D02*
X272871002Y-114480000D01*
X267541000Y-114480000D02*
X233561000Y-114480000D01*
X272871002Y-114480000D02*
X271621001Y-113229999D01*
X268791001Y-113229999D02*
X267541000Y-114480000D01*
X351621001Y-113229999D02*
X348791001Y-113229999D01*
X353561000Y-114480000D02*
X352871002Y-114480000D01*
X347541000Y-114480000D02*
X313561000Y-114480000D01*
X352871002Y-114480000D02*
X351621001Y-113229999D01*
X348791001Y-113229999D02*
X347541000Y-114480000D01*
X308791001Y-113229999D02*
X307541000Y-114480000D01*
X312871002Y-114480000D02*
X311621001Y-113229999D01*
X307541000Y-114480000D02*
X273561000Y-114480000D01*
X311621001Y-113229999D02*
X308791001Y-113229999D01*
X313561000Y-114480000D02*
X312871002Y-114480000D01*
X108053167Y-113190001D02*
X72358835Y-113190001D01*
X109303168Y-111940000D02*
X108053167Y-113190001D01*
X71108834Y-111940000D02*
X71021000Y-111940000D01*
X111021000Y-111940000D02*
X109303168Y-111940000D01*
X72358835Y-113190001D02*
X71108834Y-111940000D01*
X148053167Y-113190001D02*
X112358835Y-113190001D01*
X149303168Y-111940000D02*
X148053167Y-113190001D01*
X111108834Y-111940000D02*
X111021000Y-111940000D01*
X151021000Y-111940000D02*
X149303168Y-111940000D01*
X112358835Y-113190001D02*
X111108834Y-111940000D01*
X188053167Y-113190001D02*
X152358835Y-113190001D01*
X189303168Y-111940000D02*
X188053167Y-113190001D01*
X151108834Y-111940000D02*
X151021000Y-111940000D01*
X191021000Y-111940000D02*
X189303168Y-111940000D01*
X152358835Y-113190001D02*
X151108834Y-111940000D01*
X228053167Y-113190001D02*
X192358835Y-113190001D01*
X229303168Y-111940000D02*
X228053167Y-113190001D01*
X191108834Y-111940000D02*
X191021000Y-111940000D01*
X231021000Y-111940000D02*
X229303168Y-111940000D01*
X192358835Y-113190001D02*
X191108834Y-111940000D01*
X268053167Y-113190001D02*
X232358835Y-113190001D01*
X269303168Y-111940000D02*
X268053167Y-113190001D01*
X231108834Y-111940000D02*
X231021000Y-111940000D01*
X271021000Y-111940000D02*
X269303168Y-111940000D01*
X232358835Y-113190001D02*
X231108834Y-111940000D01*
X348053167Y-113190001D02*
X312358835Y-113190001D01*
X349303168Y-111940000D02*
X348053167Y-113190001D01*
X311108834Y-111940000D02*
X311021000Y-111940000D01*
X351021000Y-111940000D02*
X349303168Y-111940000D01*
X312358835Y-113190001D02*
X311108834Y-111940000D01*
X308053167Y-113190001D02*
X272358835Y-113190001D01*
X311021000Y-111940000D02*
X309303168Y-111940000D01*
X271108834Y-111940000D02*
X271021000Y-111940000D01*
X309303168Y-111940000D02*
X308053167Y-113190001D01*
X272358835Y-113190001D02*
X271108834Y-111940000D01*
X227541000Y-111940000D02*
X193561000Y-111940000D01*
X231621001Y-110689999D02*
X228791001Y-110689999D01*
X273561000Y-111940000D02*
X272871002Y-111940000D01*
X268791001Y-110689999D02*
X267541000Y-111940000D01*
X272871002Y-111940000D02*
X271621001Y-110689999D01*
X267541000Y-111940000D02*
X233561000Y-111940000D01*
X271621001Y-110689999D02*
X268791001Y-110689999D01*
X353561000Y-111940000D02*
X352871002Y-111940000D01*
X348791001Y-110689999D02*
X347541000Y-111940000D01*
X352871002Y-111940000D02*
X351621001Y-110689999D01*
X347541000Y-111940000D02*
X313561000Y-111940000D01*
X351621001Y-110689999D02*
X348791001Y-110689999D01*
X308791001Y-110689999D02*
X307541000Y-111940000D01*
X313561000Y-111940000D02*
X312871002Y-111940000D01*
X311621001Y-110689999D02*
X308791001Y-110689999D01*
X307541000Y-111940000D02*
X273561000Y-111940000D01*
X312871002Y-111940000D02*
X311621001Y-110689999D01*
X113561000Y-111940000D02*
X112871002Y-111940000D01*
X108791001Y-110689999D02*
X107541000Y-111940000D01*
X112871002Y-111940000D02*
X111621001Y-110689999D01*
X107541000Y-111940000D02*
X73561000Y-111940000D01*
X111621001Y-110689999D02*
X108791001Y-110689999D01*
X153561000Y-111940000D02*
X152871002Y-111940000D01*
X148791001Y-110689999D02*
X147541000Y-111940000D01*
X152871002Y-111940000D02*
X151621001Y-110689999D01*
X147541000Y-111940000D02*
X113561000Y-111940000D01*
X151621001Y-110689999D02*
X148791001Y-110689999D01*
X193561000Y-111940000D02*
X192871002Y-111940000D01*
X188791001Y-110689999D02*
X187541000Y-111940000D01*
X192871002Y-111940000D02*
X191621001Y-110689999D01*
X187541000Y-111940000D02*
X153561000Y-111940000D01*
X191621001Y-110689999D02*
X188791001Y-110689999D01*
X233561000Y-111940000D02*
X232871002Y-111940000D01*
X228791001Y-110689999D02*
X227541000Y-111940000D01*
X232871002Y-111940000D02*
X231621001Y-110689999D01*
X108053167Y-110650001D02*
X72358835Y-110650001D01*
X111021000Y-109400000D02*
X109303168Y-109400000D01*
X109303168Y-109400000D02*
X108053167Y-110650001D01*
X72358835Y-110650001D02*
X71108834Y-109400000D01*
X71108834Y-109400000D02*
X71021000Y-109400000D01*
X148053167Y-110650001D02*
X112358835Y-110650001D01*
X151021000Y-109400000D02*
X149303168Y-109400000D01*
X149303168Y-109400000D02*
X148053167Y-110650001D01*
X112358835Y-110650001D02*
X111108834Y-109400000D01*
X111108834Y-109400000D02*
X111021000Y-109400000D01*
X188053167Y-110650001D02*
X152358835Y-110650001D01*
X191021000Y-109400000D02*
X189303168Y-109400000D01*
X189303168Y-109400000D02*
X188053167Y-110650001D01*
X152358835Y-110650001D02*
X151108834Y-109400000D01*
X151108834Y-109400000D02*
X151021000Y-109400000D01*
X228053167Y-110650001D02*
X192358835Y-110650001D01*
X231021000Y-109400000D02*
X229303168Y-109400000D01*
X229303168Y-109400000D02*
X228053167Y-110650001D01*
X192358835Y-110650001D02*
X191108834Y-109400000D01*
X191108834Y-109400000D02*
X191021000Y-109400000D01*
X268053167Y-110650001D02*
X232358835Y-110650001D01*
X271021000Y-109400000D02*
X269303168Y-109400000D01*
X269303168Y-109400000D02*
X268053167Y-110650001D01*
X232358835Y-110650001D02*
X231108834Y-109400000D01*
X231108834Y-109400000D02*
X231021000Y-109400000D01*
X348053167Y-110650001D02*
X312358835Y-110650001D01*
X351021000Y-109400000D02*
X349303168Y-109400000D01*
X349303168Y-109400000D02*
X348053167Y-110650001D01*
X312358835Y-110650001D02*
X311108834Y-109400000D01*
X311108834Y-109400000D02*
X311021000Y-109400000D01*
X308053167Y-110650001D02*
X272358835Y-110650001D01*
X311021000Y-109400000D02*
X309303168Y-109400000D01*
X271108834Y-109400000D02*
X271021000Y-109400000D01*
X309303168Y-109400000D02*
X308053167Y-110650001D01*
X272358835Y-110650001D02*
X271108834Y-109400000D01*
X112871002Y-109400000D02*
X111621001Y-108149999D01*
X113561000Y-109400000D02*
X112871002Y-109400000D01*
X108791001Y-108149999D02*
X107541000Y-109400000D01*
X111621001Y-108149999D02*
X108791001Y-108149999D01*
X107541000Y-109400000D02*
X73561000Y-109400000D01*
X152871002Y-109400000D02*
X151621001Y-108149999D01*
X153561000Y-109400000D02*
X152871002Y-109400000D01*
X151621001Y-108149999D02*
X148791001Y-108149999D01*
X147541000Y-109400000D02*
X113561000Y-109400000D01*
X192871002Y-109400000D02*
X191621001Y-108149999D01*
X193561000Y-109400000D02*
X192871002Y-109400000D01*
X188791001Y-108149999D02*
X187541000Y-109400000D01*
X191621001Y-108149999D02*
X188791001Y-108149999D01*
X187541000Y-109400000D02*
X153561000Y-109400000D01*
X232871002Y-109400000D02*
X231621001Y-108149999D01*
X233561000Y-109400000D02*
X232871002Y-109400000D01*
X228791001Y-108149999D02*
X227541000Y-109400000D01*
X231621001Y-108149999D02*
X228791001Y-108149999D01*
X227541000Y-109400000D02*
X193561000Y-109400000D01*
X272871002Y-109400000D02*
X271621001Y-108149999D01*
X273561000Y-109400000D02*
X272871002Y-109400000D01*
X268791001Y-108149999D02*
X267541000Y-109400000D01*
X271621001Y-108149999D02*
X268791001Y-108149999D01*
X267541000Y-109400000D02*
X233561000Y-109400000D01*
X352871002Y-109400000D02*
X351621001Y-108149999D01*
X353561000Y-109400000D02*
X352871002Y-109400000D01*
X348791001Y-108149999D02*
X347541000Y-109400000D01*
X351621001Y-108149999D02*
X348791001Y-108149999D01*
X347541000Y-109400000D02*
X313561000Y-109400000D01*
X308791001Y-108149999D02*
X307541000Y-109400000D01*
X312871002Y-109400000D02*
X311621001Y-108149999D01*
X307541000Y-109400000D02*
X273561000Y-109400000D01*
X311621001Y-108149999D02*
X308791001Y-108149999D01*
X313561000Y-109400000D02*
X312871002Y-109400000D01*
X148791001Y-108149999D02*
X147541000Y-109400000D01*
X109303168Y-106860000D02*
X108053167Y-108110001D01*
X71108834Y-106860000D02*
X71021000Y-106860000D01*
X72358835Y-108110001D02*
X71108834Y-106860000D01*
X108053167Y-108110001D02*
X72358835Y-108110001D01*
X111021000Y-106860000D02*
X109303168Y-106860000D01*
X149303168Y-106860000D02*
X148053167Y-108110001D01*
X111108834Y-106860000D02*
X111021000Y-106860000D01*
X112358835Y-108110001D02*
X111108834Y-106860000D01*
X148053167Y-108110001D02*
X112358835Y-108110001D01*
X151021000Y-106860000D02*
X149303168Y-106860000D01*
X189303168Y-106860000D02*
X188053167Y-108110001D01*
X151108834Y-106860000D02*
X151021000Y-106860000D01*
X152358835Y-108110001D02*
X151108834Y-106860000D01*
X188053167Y-108110001D02*
X152358835Y-108110001D01*
X191021000Y-106860000D02*
X189303168Y-106860000D01*
X229303168Y-106860000D02*
X228053167Y-108110001D01*
X191108834Y-106860000D02*
X191021000Y-106860000D01*
X192358835Y-108110001D02*
X191108834Y-106860000D01*
X228053167Y-108110001D02*
X192358835Y-108110001D01*
X231021000Y-106860000D02*
X229303168Y-106860000D01*
X269303168Y-106860000D02*
X268053167Y-108110001D01*
X231108834Y-106860000D02*
X231021000Y-106860000D01*
X232358835Y-108110001D02*
X231108834Y-106860000D01*
X268053167Y-108110001D02*
X232358835Y-108110001D01*
X271021000Y-106860000D02*
X269303168Y-106860000D01*
X349303168Y-106860000D02*
X348053167Y-108110001D01*
X311108834Y-106860000D02*
X311021000Y-106860000D01*
X312358835Y-108110001D02*
X311108834Y-106860000D01*
X348053167Y-108110001D02*
X312358835Y-108110001D01*
X351021000Y-106860000D02*
X349303168Y-106860000D01*
X308053167Y-108110001D02*
X272358835Y-108110001D01*
X311021000Y-106860000D02*
X309303168Y-106860000D01*
X271108834Y-106860000D02*
X271021000Y-106860000D01*
X309303168Y-106860000D02*
X308053167Y-108110001D01*
X272358835Y-108110001D02*
X271108834Y-106860000D01*
X107541000Y-106860000D02*
X73561000Y-106860000D01*
X111621001Y-105609999D02*
X108791001Y-105609999D01*
X113561000Y-106860000D02*
X112871002Y-106860000D01*
X108791001Y-105609999D02*
X107541000Y-106860000D01*
X112871002Y-106860000D02*
X111621001Y-105609999D01*
X147541000Y-106860000D02*
X113561000Y-106860000D01*
X151621001Y-105609999D02*
X148791001Y-105609999D01*
X153561000Y-106860000D02*
X152871002Y-106860000D01*
X148791001Y-105609999D02*
X147541000Y-106860000D01*
X152871002Y-106860000D02*
X151621001Y-105609999D01*
X187541000Y-106860000D02*
X153561000Y-106860000D01*
X191621001Y-105609999D02*
X188791001Y-105609999D01*
X193561000Y-106860000D02*
X192871002Y-106860000D01*
X188791001Y-105609999D02*
X187541000Y-106860000D01*
X192871002Y-106860000D02*
X191621001Y-105609999D01*
X227541000Y-106860000D02*
X193561000Y-106860000D01*
X231621001Y-105609999D02*
X228791001Y-105609999D01*
X233561000Y-106860000D02*
X232871002Y-106860000D01*
X228791001Y-105609999D02*
X227541000Y-106860000D01*
X232871002Y-106860000D02*
X231621001Y-105609999D01*
X267541000Y-106860000D02*
X233561000Y-106860000D01*
X271621001Y-105609999D02*
X268791001Y-105609999D01*
X273561000Y-106860000D02*
X272871002Y-106860000D01*
X268791001Y-105609999D02*
X267541000Y-106860000D01*
X272871002Y-106860000D02*
X271621001Y-105609999D01*
X347541000Y-106860000D02*
X313561000Y-106860000D01*
X351621001Y-105609999D02*
X348791001Y-105609999D01*
X353561000Y-106860000D02*
X352871002Y-106860000D01*
X348791001Y-105609999D02*
X347541000Y-106860000D01*
X352871002Y-106860000D02*
X351621001Y-105609999D01*
X308791001Y-105609999D02*
X307541000Y-106860000D01*
X312871002Y-106860000D02*
X311621001Y-105609999D01*
X307541000Y-106860000D02*
X273561000Y-106860000D01*
X311621001Y-105609999D02*
X308791001Y-105609999D01*
X313561000Y-106860000D02*
X312871002Y-106860000D01*
X268053167Y-105570001D02*
X232358835Y-105570001D01*
X351021000Y-104320000D02*
X349303168Y-104320000D01*
X349303168Y-104320000D02*
X348053167Y-105570001D01*
X312358835Y-105570001D02*
X311108834Y-104320000D01*
X311108834Y-104320000D02*
X311021000Y-104320000D01*
X348053167Y-105570001D02*
X312358835Y-105570001D01*
X308053167Y-105570001D02*
X272358835Y-105570001D01*
X311021000Y-104320000D02*
X309303168Y-104320000D01*
X271108834Y-104320000D02*
X271021000Y-104320000D01*
X309303168Y-104320000D02*
X308053167Y-105570001D01*
X272358835Y-105570001D02*
X271108834Y-104320000D01*
X111021000Y-104320000D02*
X109303168Y-104320000D01*
X109303168Y-104320000D02*
X108053167Y-105570001D01*
X72358835Y-105570001D02*
X71108834Y-104320000D01*
X71108834Y-104320000D02*
X71021000Y-104320000D01*
X108053167Y-105570001D02*
X72358835Y-105570001D01*
X151021000Y-104320000D02*
X149303168Y-104320000D01*
X149303168Y-104320000D02*
X148053167Y-105570001D01*
X112358835Y-105570001D02*
X111108834Y-104320000D01*
X111108834Y-104320000D02*
X111021000Y-104320000D01*
X148053167Y-105570001D02*
X112358835Y-105570001D01*
X191021000Y-104320000D02*
X189303168Y-104320000D01*
X189303168Y-104320000D02*
X188053167Y-105570001D01*
X152358835Y-105570001D02*
X151108834Y-104320000D01*
X151108834Y-104320000D02*
X151021000Y-104320000D01*
X188053167Y-105570001D02*
X152358835Y-105570001D01*
X231021000Y-104320000D02*
X229303168Y-104320000D01*
X229303168Y-104320000D02*
X228053167Y-105570001D01*
X192358835Y-105570001D02*
X191108834Y-104320000D01*
X191108834Y-104320000D02*
X191021000Y-104320000D01*
X228053167Y-105570001D02*
X192358835Y-105570001D01*
X271021000Y-104320000D02*
X269303168Y-104320000D01*
X269303168Y-104320000D02*
X268053167Y-105570001D01*
X232358835Y-105570001D02*
X231108834Y-104320000D01*
X231108834Y-104320000D02*
X231021000Y-104320000D01*
X112871002Y-104320000D02*
X111621001Y-103069999D01*
X111621001Y-103069999D02*
X108791001Y-103069999D01*
X108791001Y-103069999D02*
X107541000Y-104320000D01*
X113561000Y-104320000D02*
X112871002Y-104320000D01*
X107541000Y-104320000D02*
X73561000Y-104320000D01*
X152871002Y-104320000D02*
X151621001Y-103069999D01*
X151621001Y-103069999D02*
X148791001Y-103069999D01*
X148791001Y-103069999D02*
X147541000Y-104320000D01*
X153561000Y-104320000D02*
X152871002Y-104320000D01*
X147541000Y-104320000D02*
X113561000Y-104320000D01*
X192871002Y-104320000D02*
X191621001Y-103069999D01*
X191621001Y-103069999D02*
X188791001Y-103069999D01*
X188791001Y-103069999D02*
X187541000Y-104320000D01*
X193561000Y-104320000D02*
X192871002Y-104320000D01*
X187541000Y-104320000D02*
X153561000Y-104320000D01*
X232871002Y-104320000D02*
X231621001Y-103069999D01*
X231621001Y-103069999D02*
X228791001Y-103069999D01*
X228791001Y-103069999D02*
X227541000Y-104320000D01*
X233561000Y-104320000D02*
X232871002Y-104320000D01*
X227541000Y-104320000D02*
X193561000Y-104320000D01*
X272871002Y-104320000D02*
X271621001Y-103069999D01*
X271621001Y-103069999D02*
X268791001Y-103069999D01*
X268791001Y-103069999D02*
X267541000Y-104320000D01*
X273561000Y-104320000D02*
X272871002Y-104320000D01*
X267541000Y-104320000D02*
X233561000Y-104320000D01*
X352871002Y-104320000D02*
X351621001Y-103069999D01*
X351621001Y-103069999D02*
X348791001Y-103069999D01*
X348791001Y-103069999D02*
X347541000Y-104320000D01*
X353561000Y-104320000D02*
X352871002Y-104320000D01*
X347541000Y-104320000D02*
X313561000Y-104320000D01*
X308791001Y-103069999D02*
X307541000Y-104320000D01*
X312871002Y-104320000D02*
X311621001Y-103069999D01*
X307541000Y-104320000D02*
X273561000Y-104320000D01*
X311621001Y-103069999D02*
X308791001Y-103069999D01*
X313561000Y-104320000D02*
X312871002Y-104320000D01*
X111021000Y-101780000D02*
X109303168Y-101780000D01*
X71108834Y-101780000D02*
X71021000Y-101780000D01*
X72358835Y-103030001D02*
X71108834Y-101780000D01*
X108053167Y-103030001D02*
X72358835Y-103030001D01*
X109303168Y-101780000D02*
X108053167Y-103030001D01*
X151021000Y-101780000D02*
X149303168Y-101780000D01*
X111108834Y-101780000D02*
X111021000Y-101780000D01*
X112358835Y-103030001D02*
X111108834Y-101780000D01*
X148053167Y-103030001D02*
X112358835Y-103030001D01*
X149303168Y-101780000D02*
X148053167Y-103030001D01*
X191021000Y-101780000D02*
X189303168Y-101780000D01*
X151108834Y-101780000D02*
X151021000Y-101780000D01*
X152358835Y-103030001D02*
X151108834Y-101780000D01*
X188053167Y-103030001D02*
X152358835Y-103030001D01*
X189303168Y-101780000D02*
X188053167Y-103030001D01*
X231021000Y-101780000D02*
X229303168Y-101780000D01*
X191108834Y-101780000D02*
X191021000Y-101780000D01*
X192358835Y-103030001D02*
X191108834Y-101780000D01*
X228053167Y-103030001D02*
X192358835Y-103030001D01*
X229303168Y-101780000D02*
X228053167Y-103030001D01*
X271021000Y-101780000D02*
X269303168Y-101780000D01*
X231108834Y-101780000D02*
X231021000Y-101780000D01*
X232358835Y-103030001D02*
X231108834Y-101780000D01*
X268053167Y-103030001D02*
X232358835Y-103030001D01*
X269303168Y-101780000D02*
X268053167Y-103030001D01*
X351021000Y-101780000D02*
X349303168Y-101780000D01*
X311108834Y-101780000D02*
X311021000Y-101780000D01*
X312358835Y-103030001D02*
X311108834Y-101780000D01*
X348053167Y-103030001D02*
X312358835Y-103030001D01*
X349303168Y-101780000D02*
X348053167Y-103030001D01*
X308053167Y-103030001D02*
X272358835Y-103030001D01*
X311021000Y-101780000D02*
X309303168Y-101780000D01*
X271108834Y-101780000D02*
X271021000Y-101780000D01*
X309303168Y-101780000D02*
X308053167Y-103030001D01*
X272358835Y-103030001D02*
X271108834Y-101780000D01*
X113561000Y-101780000D02*
X112871002Y-101780000D01*
X147541000Y-101780000D02*
X113561000Y-101780000D01*
X148791001Y-100529999D02*
X147541000Y-101780000D01*
X151621001Y-100529999D02*
X148791001Y-100529999D01*
X152871002Y-101780000D02*
X151621001Y-100529999D01*
X153561000Y-101780000D02*
X152871002Y-101780000D01*
X187541000Y-101780000D02*
X153561000Y-101780000D01*
X188791001Y-100529999D02*
X187541000Y-101780000D01*
X191621001Y-100529999D02*
X188791001Y-100529999D01*
X192871002Y-101780000D02*
X191621001Y-100529999D01*
X193561000Y-101780000D02*
X192871002Y-101780000D01*
X227541000Y-101780000D02*
X193561000Y-101780000D01*
X228791001Y-100529999D02*
X227541000Y-101780000D01*
X231621001Y-100529999D02*
X228791001Y-100529999D01*
X232871002Y-101780000D02*
X231621001Y-100529999D01*
X233561000Y-101780000D02*
X232871002Y-101780000D01*
X267541000Y-101780000D02*
X233561000Y-101780000D01*
X268791001Y-100529999D02*
X267541000Y-101780000D01*
X271621001Y-100529999D02*
X268791001Y-100529999D01*
X272871002Y-101780000D02*
X271621001Y-100529999D01*
X273561000Y-101780000D02*
X272871002Y-101780000D01*
X347541000Y-101780000D02*
X313561000Y-101780000D01*
X348791001Y-100529999D02*
X347541000Y-101780000D01*
X351621001Y-100529999D02*
X348791001Y-100529999D01*
X352871002Y-101780000D02*
X351621001Y-100529999D01*
X353561000Y-101780000D02*
X352871002Y-101780000D01*
X308791001Y-100529999D02*
X307541000Y-101780000D01*
X312871002Y-101780000D02*
X311621001Y-100529999D01*
X307541000Y-101780000D02*
X273561000Y-101780000D01*
X311621001Y-100529999D02*
X308791001Y-100529999D01*
X313561000Y-101780000D02*
X312871002Y-101780000D01*
X107541000Y-101780000D02*
X73561000Y-101780000D01*
X108791001Y-100529999D02*
X107541000Y-101780000D01*
X111621001Y-100529999D02*
X108791001Y-100529999D01*
X112871002Y-101780000D02*
X111621001Y-100529999D01*
X111021000Y-99240000D02*
X109303168Y-99240000D01*
X71108834Y-99240000D02*
X71021000Y-99240000D01*
X108053167Y-100490001D02*
X72358835Y-100490001D01*
X72358835Y-100490001D02*
X71108834Y-99240000D01*
X109303168Y-99240000D02*
X108053167Y-100490001D01*
X151021000Y-99240000D02*
X149303168Y-99240000D01*
X111108834Y-99240000D02*
X111021000Y-99240000D01*
X148053167Y-100490001D02*
X112358835Y-100490001D01*
X112358835Y-100490001D02*
X111108834Y-99240000D01*
X149303168Y-99240000D02*
X148053167Y-100490001D01*
X191021000Y-99240000D02*
X189303168Y-99240000D01*
X151108834Y-99240000D02*
X151021000Y-99240000D01*
X188053167Y-100490001D02*
X152358835Y-100490001D01*
X152358835Y-100490001D02*
X151108834Y-99240000D01*
X189303168Y-99240000D02*
X188053167Y-100490001D01*
X231021000Y-99240000D02*
X229303168Y-99240000D01*
X191108834Y-99240000D02*
X191021000Y-99240000D01*
X228053167Y-100490001D02*
X192358835Y-100490001D01*
X192358835Y-100490001D02*
X191108834Y-99240000D01*
X229303168Y-99240000D02*
X228053167Y-100490001D01*
X271021000Y-99240000D02*
X269303168Y-99240000D01*
X231108834Y-99240000D02*
X231021000Y-99240000D01*
X268053167Y-100490001D02*
X232358835Y-100490001D01*
X232358835Y-100490001D02*
X231108834Y-99240000D01*
X269303168Y-99240000D02*
X268053167Y-100490001D01*
X351021000Y-99240000D02*
X349303168Y-99240000D01*
X311108834Y-99240000D02*
X311021000Y-99240000D01*
X348053167Y-100490001D02*
X312358835Y-100490001D01*
X312358835Y-100490001D02*
X311108834Y-99240000D01*
X349303168Y-99240000D02*
X348053167Y-100490001D01*
X308053167Y-100490001D02*
X272358835Y-100490001D01*
X311021000Y-99240000D02*
X309303168Y-99240000D01*
X271108834Y-99240000D02*
X271021000Y-99240000D01*
X309303168Y-99240000D02*
X308053167Y-100490001D01*
X272358835Y-100490001D02*
X271108834Y-99240000D01*
X108791001Y-97989999D02*
X107541000Y-99240000D01*
X113561000Y-99240000D02*
X112871002Y-99240000D01*
X107541000Y-99240000D02*
X73561000Y-99240000D01*
X112871002Y-99240000D02*
X111621001Y-97989999D01*
X111621001Y-97989999D02*
X108791001Y-97989999D01*
X148791001Y-97989999D02*
X147541000Y-99240000D01*
X153561000Y-99240000D02*
X152871002Y-99240000D01*
X147541000Y-99240000D02*
X113561000Y-99240000D01*
X152871002Y-99240000D02*
X151621001Y-97989999D01*
X151621001Y-97989999D02*
X148791001Y-97989999D01*
X188791001Y-97989999D02*
X187541000Y-99240000D01*
X193561000Y-99240000D02*
X192871002Y-99240000D01*
X187541000Y-99240000D02*
X153561000Y-99240000D01*
X192871002Y-99240000D02*
X191621001Y-97989999D01*
X191621001Y-97989999D02*
X188791001Y-97989999D01*
X228791001Y-97989999D02*
X227541000Y-99240000D01*
X233561000Y-99240000D02*
X232871002Y-99240000D01*
X227541000Y-99240000D02*
X193561000Y-99240000D01*
X232871002Y-99240000D02*
X231621001Y-97989999D01*
X231621001Y-97989999D02*
X228791001Y-97989999D01*
X268791001Y-97989999D02*
X267541000Y-99240000D01*
X273561000Y-99240000D02*
X272871002Y-99240000D01*
X267541000Y-99240000D02*
X233561000Y-99240000D01*
X272871002Y-99240000D02*
X271621001Y-97989999D01*
X271621001Y-97989999D02*
X268791001Y-97989999D01*
X348791001Y-97989999D02*
X347541000Y-99240000D01*
X353561000Y-99240000D02*
X352871002Y-99240000D01*
X347541000Y-99240000D02*
X313561000Y-99240000D01*
X352871002Y-99240000D02*
X351621001Y-97989999D01*
X351621001Y-97989999D02*
X348791001Y-97989999D01*
X308791001Y-97989999D02*
X307541000Y-99240000D01*
X312871002Y-99240000D02*
X311621001Y-97989999D01*
X307541000Y-99240000D02*
X273561000Y-99240000D01*
X311621001Y-97989999D02*
X308791001Y-97989999D01*
X313561000Y-99240000D02*
X312871002Y-99240000D01*
X72358835Y-97950001D02*
X71108834Y-96700000D01*
X111021000Y-96700000D02*
X109303168Y-96700000D01*
X108053167Y-97950001D02*
X72358835Y-97950001D01*
X71108834Y-96700000D02*
X71021000Y-96700000D01*
X109303168Y-96700000D02*
X108053167Y-97950001D01*
X112358835Y-97950001D02*
X111108834Y-96700000D01*
X151021000Y-96700000D02*
X149303168Y-96700000D01*
X148053167Y-97950001D02*
X112358835Y-97950001D01*
X111108834Y-96700000D02*
X111021000Y-96700000D01*
X149303168Y-96700000D02*
X148053167Y-97950001D01*
X152358835Y-97950001D02*
X151108834Y-96700000D01*
X191021000Y-96700000D02*
X189303168Y-96700000D01*
X188053167Y-97950001D02*
X152358835Y-97950001D01*
X151108834Y-96700000D02*
X151021000Y-96700000D01*
X189303168Y-96700000D02*
X188053167Y-97950001D01*
X192358835Y-97950001D02*
X191108834Y-96700000D01*
X231021000Y-96700000D02*
X229303168Y-96700000D01*
X228053167Y-97950001D02*
X192358835Y-97950001D01*
X191108834Y-96700000D02*
X191021000Y-96700000D01*
X229303168Y-96700000D02*
X228053167Y-97950001D01*
X232358835Y-97950001D02*
X231108834Y-96700000D01*
X271021000Y-96700000D02*
X269303168Y-96700000D01*
X268053167Y-97950001D02*
X232358835Y-97950001D01*
X231108834Y-96700000D02*
X231021000Y-96700000D01*
X269303168Y-96700000D02*
X268053167Y-97950001D01*
X312358835Y-97950001D02*
X311108834Y-96700000D01*
X351021000Y-96700000D02*
X349303168Y-96700000D01*
X348053167Y-97950001D02*
X312358835Y-97950001D01*
X311108834Y-96700000D02*
X311021000Y-96700000D01*
X349303168Y-96700000D02*
X348053167Y-97950001D01*
X308053167Y-97950001D02*
X272358835Y-97950001D01*
X311021000Y-96700000D02*
X309303168Y-96700000D01*
X271108834Y-96700000D02*
X271021000Y-96700000D01*
X309303168Y-96700000D02*
X308053167Y-97950001D01*
X272358835Y-97950001D02*
X271108834Y-96700000D01*
X112871002Y-96700000D02*
X111621001Y-95449999D01*
X107541000Y-96700000D02*
X73561000Y-96700000D01*
X108791001Y-95449999D02*
X107541000Y-96700000D01*
X111621001Y-95449999D02*
X108791001Y-95449999D01*
X113561000Y-96700000D02*
X112871002Y-96700000D01*
X152871002Y-96700000D02*
X151621001Y-95449999D01*
X147541000Y-96700000D02*
X113561000Y-96700000D01*
X148791001Y-95449999D02*
X147541000Y-96700000D01*
X151621001Y-95449999D02*
X148791001Y-95449999D01*
X153561000Y-96700000D02*
X152871002Y-96700000D01*
X192871002Y-96700000D02*
X191621001Y-95449999D01*
X187541000Y-96700000D02*
X153561000Y-96700000D01*
X188791001Y-95449999D02*
X187541000Y-96700000D01*
X191621001Y-95449999D02*
X188791001Y-95449999D01*
X193561000Y-96700000D02*
X192871002Y-96700000D01*
X232871002Y-96700000D02*
X231621001Y-95449999D01*
X227541000Y-96700000D02*
X193561000Y-96700000D01*
X228791001Y-95449999D02*
X227541000Y-96700000D01*
X231621001Y-95449999D02*
X228791001Y-95449999D01*
X233561000Y-96700000D02*
X232871002Y-96700000D01*
X272871002Y-96700000D02*
X271621001Y-95449999D01*
X267541000Y-96700000D02*
X233561000Y-96700000D01*
X268791001Y-95449999D02*
X267541000Y-96700000D01*
X271621001Y-95449999D02*
X268791001Y-95449999D01*
X273561000Y-96700000D02*
X272871002Y-96700000D01*
X352871002Y-96700000D02*
X351621001Y-95449999D01*
X347541000Y-96700000D02*
X313561000Y-96700000D01*
X348791001Y-95449999D02*
X347541000Y-96700000D01*
X351621001Y-95449999D02*
X348791001Y-95449999D01*
X353561000Y-96700000D02*
X352871002Y-96700000D01*
X308791001Y-95449999D02*
X307541000Y-96700000D01*
X312871002Y-96700000D02*
X311621001Y-95449999D01*
X307541000Y-96700000D02*
X273561000Y-96700000D01*
X311621001Y-95449999D02*
X308791001Y-95449999D01*
X313561000Y-96700000D02*
X312871002Y-96700000D01*
X108053167Y-95410001D02*
X72358835Y-95410001D01*
X71108834Y-94160000D02*
X71021000Y-94160000D01*
X72358835Y-95410001D02*
X71108834Y-94160000D01*
X109303168Y-94160000D02*
X108053167Y-95410001D01*
X111021000Y-94160000D02*
X109303168Y-94160000D01*
X148053167Y-95410001D02*
X112358835Y-95410001D01*
X111108834Y-94160000D02*
X111021000Y-94160000D01*
X112358835Y-95410001D02*
X111108834Y-94160000D01*
X149303168Y-94160000D02*
X148053167Y-95410001D01*
X151021000Y-94160000D02*
X149303168Y-94160000D01*
X188053167Y-95410001D02*
X152358835Y-95410001D01*
X151108834Y-94160000D02*
X151021000Y-94160000D01*
X152358835Y-95410001D02*
X151108834Y-94160000D01*
X189303168Y-94160000D02*
X188053167Y-95410001D01*
X191021000Y-94160000D02*
X189303168Y-94160000D01*
X228053167Y-95410001D02*
X192358835Y-95410001D01*
X191108834Y-94160000D02*
X191021000Y-94160000D01*
X192358835Y-95410001D02*
X191108834Y-94160000D01*
X229303168Y-94160000D02*
X228053167Y-95410001D01*
X231021000Y-94160000D02*
X229303168Y-94160000D01*
X268053167Y-95410001D02*
X232358835Y-95410001D01*
X231108834Y-94160000D02*
X231021000Y-94160000D01*
X232358835Y-95410001D02*
X231108834Y-94160000D01*
X269303168Y-94160000D02*
X268053167Y-95410001D01*
X271021000Y-94160000D02*
X269303168Y-94160000D01*
X348053167Y-95410001D02*
X312358835Y-95410001D01*
X311108834Y-94160000D02*
X311021000Y-94160000D01*
X312358835Y-95410001D02*
X311108834Y-94160000D01*
X349303168Y-94160000D02*
X348053167Y-95410001D01*
X351021000Y-94160000D02*
X349303168Y-94160000D01*
X308053167Y-95410001D02*
X272358835Y-95410001D01*
X272358835Y-95410001D02*
X271108834Y-94160000D01*
X309303168Y-94160000D02*
X308053167Y-95410001D01*
X271108834Y-94160000D02*
X271021000Y-94160000D01*
X311021000Y-94160000D02*
X309303168Y-94160000D01*
X107541000Y-94160000D02*
X73561000Y-94160000D01*
X113561000Y-94160000D02*
X112871002Y-94160000D01*
X112871002Y-94160000D02*
X111621001Y-92909999D01*
X108791001Y-92909999D02*
X107541000Y-94160000D01*
X111621001Y-92909999D02*
X108791001Y-92909999D01*
X147541000Y-94160000D02*
X113561000Y-94160000D01*
X153561000Y-94160000D02*
X152871002Y-94160000D01*
X152871002Y-94160000D02*
X151621001Y-92909999D01*
X148791001Y-92909999D02*
X147541000Y-94160000D01*
X151621001Y-92909999D02*
X148791001Y-92909999D01*
X187541000Y-94160000D02*
X153561000Y-94160000D01*
X193561000Y-94160000D02*
X192871002Y-94160000D01*
X192871002Y-94160000D02*
X191621001Y-92909999D01*
X188791001Y-92909999D02*
X187541000Y-94160000D01*
X191621001Y-92909999D02*
X188791001Y-92909999D01*
X227541000Y-94160000D02*
X193561000Y-94160000D01*
X233561000Y-94160000D02*
X232871002Y-94160000D01*
X232871002Y-94160000D02*
X231621001Y-92909999D01*
X228791001Y-92909999D02*
X227541000Y-94160000D01*
X231621001Y-92909999D02*
X228791001Y-92909999D01*
X267541000Y-94160000D02*
X233561000Y-94160000D01*
X273561000Y-94160000D02*
X272871002Y-94160000D01*
X272871002Y-94160000D02*
X271621001Y-92909999D01*
X268791001Y-92909999D02*
X267541000Y-94160000D01*
X271621001Y-92909999D02*
X268791001Y-92909999D01*
X347541000Y-94160000D02*
X313561000Y-94160000D01*
X353561000Y-94160000D02*
X352871002Y-94160000D01*
X352871002Y-94160000D02*
X351621001Y-92909999D01*
X348791001Y-92909999D02*
X347541000Y-94160000D01*
X351621001Y-92909999D02*
X348791001Y-92909999D01*
X308791001Y-92909999D02*
X307541000Y-94160000D01*
X313561000Y-94160000D02*
X312871002Y-94160000D01*
X311621001Y-92909999D02*
X308791001Y-92909999D01*
X307541000Y-94160000D02*
X273561000Y-94160000D01*
X312871002Y-94160000D02*
X311621001Y-92909999D01*
X71108834Y-91620000D02*
X71021000Y-91620000D01*
X109303168Y-91620000D02*
X108053167Y-92870001D01*
X72358835Y-92870001D02*
X71108834Y-91620000D01*
X108053167Y-92870001D02*
X72358835Y-92870001D01*
X111021000Y-91620000D02*
X109303168Y-91620000D01*
X111108834Y-91620000D02*
X111021000Y-91620000D01*
X149303168Y-91620000D02*
X148053167Y-92870001D01*
X112358835Y-92870001D02*
X111108834Y-91620000D01*
X148053167Y-92870001D02*
X112358835Y-92870001D01*
X151021000Y-91620000D02*
X149303168Y-91620000D01*
X151108834Y-91620000D02*
X151021000Y-91620000D01*
X189303168Y-91620000D02*
X188053167Y-92870001D01*
X152358835Y-92870001D02*
X151108834Y-91620000D01*
X188053167Y-92870001D02*
X152358835Y-92870001D01*
X191021000Y-91620000D02*
X189303168Y-91620000D01*
X191108834Y-91620000D02*
X191021000Y-91620000D01*
X229303168Y-91620000D02*
X228053167Y-92870001D01*
X192358835Y-92870001D02*
X191108834Y-91620000D01*
X228053167Y-92870001D02*
X192358835Y-92870001D01*
X231021000Y-91620000D02*
X229303168Y-91620000D01*
X231108834Y-91620000D02*
X231021000Y-91620000D01*
X269303168Y-91620000D02*
X268053167Y-92870001D01*
X232358835Y-92870001D02*
X231108834Y-91620000D01*
X268053167Y-92870001D02*
X232358835Y-92870001D01*
X271021000Y-91620000D02*
X269303168Y-91620000D01*
X311108834Y-91620000D02*
X311021000Y-91620000D01*
X349303168Y-91620000D02*
X348053167Y-92870001D01*
X312358835Y-92870001D02*
X311108834Y-91620000D01*
X348053167Y-92870001D02*
X312358835Y-92870001D01*
X351021000Y-91620000D02*
X349303168Y-91620000D01*
X308053167Y-92870001D02*
X272358835Y-92870001D01*
X311021000Y-91620000D02*
X309303168Y-91620000D01*
X271108834Y-91620000D02*
X271021000Y-91620000D01*
X309303168Y-91620000D02*
X308053167Y-92870001D01*
X272358835Y-92870001D02*
X271108834Y-91620000D01*
X273561000Y-91620000D02*
X272871002Y-91620000D01*
X272871002Y-91620000D02*
X271621001Y-90369999D01*
X267541000Y-91620000D02*
X233561000Y-91620000D01*
X348791001Y-90369999D02*
X347541000Y-91620000D01*
X351621001Y-90369999D02*
X348791001Y-90369999D01*
X353561000Y-91620000D02*
X352871002Y-91620000D01*
X352871002Y-91620000D02*
X351621001Y-90369999D01*
X347541000Y-91620000D02*
X313561000Y-91620000D01*
X308791001Y-90369999D02*
X307541000Y-91620000D01*
X313561000Y-91620000D02*
X312871002Y-91620000D01*
X311621001Y-90369999D02*
X308791001Y-90369999D01*
X307541000Y-91620000D02*
X273561000Y-91620000D01*
X312871002Y-91620000D02*
X311621001Y-90369999D01*
X108791001Y-90369999D02*
X107541000Y-91620000D01*
X111621001Y-90369999D02*
X108791001Y-90369999D01*
X113561000Y-91620000D02*
X112871002Y-91620000D01*
X112871002Y-91620000D02*
X111621001Y-90369999D01*
X107541000Y-91620000D02*
X73561000Y-91620000D01*
X148791001Y-90369999D02*
X147541000Y-91620000D01*
X151621001Y-90369999D02*
X148791001Y-90369999D01*
X153561000Y-91620000D02*
X152871002Y-91620000D01*
X152871002Y-91620000D02*
X151621001Y-90369999D01*
X147541000Y-91620000D02*
X113561000Y-91620000D01*
X188791001Y-90369999D02*
X187541000Y-91620000D01*
X191621001Y-90369999D02*
X188791001Y-90369999D01*
X193561000Y-91620000D02*
X192871002Y-91620000D01*
X192871002Y-91620000D02*
X191621001Y-90369999D01*
X187541000Y-91620000D02*
X153561000Y-91620000D01*
X228791001Y-90369999D02*
X227541000Y-91620000D01*
X231621001Y-90369999D02*
X228791001Y-90369999D01*
X233561000Y-91620000D02*
X232871002Y-91620000D01*
X232871002Y-91620000D02*
X231621001Y-90369999D01*
X227541000Y-91620000D02*
X193561000Y-91620000D01*
X268791001Y-90369999D02*
X267541000Y-91620000D01*
X271621001Y-90369999D02*
X268791001Y-90369999D01*
X71108834Y-89080000D02*
X71021000Y-89080000D01*
X72358835Y-90330001D02*
X71108834Y-89080000D01*
X108053167Y-90330001D02*
X72358835Y-90330001D01*
X111021000Y-89080000D02*
X109303168Y-89080000D01*
X109303168Y-89080000D02*
X108053167Y-90330001D01*
X111108834Y-89080000D02*
X111021000Y-89080000D01*
X112358835Y-90330001D02*
X111108834Y-89080000D01*
X148053167Y-90330001D02*
X112358835Y-90330001D01*
X151021000Y-89080000D02*
X149303168Y-89080000D01*
X149303168Y-89080000D02*
X148053167Y-90330001D01*
X151108834Y-89080000D02*
X151021000Y-89080000D01*
X152358835Y-90330001D02*
X151108834Y-89080000D01*
X188053167Y-90330001D02*
X152358835Y-90330001D01*
X191021000Y-89080000D02*
X189303168Y-89080000D01*
X189303168Y-89080000D02*
X188053167Y-90330001D01*
X191108834Y-89080000D02*
X191021000Y-89080000D01*
X192358835Y-90330001D02*
X191108834Y-89080000D01*
X228053167Y-90330001D02*
X192358835Y-90330001D01*
X231021000Y-89080000D02*
X229303168Y-89080000D01*
X229303168Y-89080000D02*
X228053167Y-90330001D01*
X231108834Y-89080000D02*
X231021000Y-89080000D01*
X232358835Y-90330001D02*
X231108834Y-89080000D01*
X268053167Y-90330001D02*
X232358835Y-90330001D01*
X271021000Y-89080000D02*
X269303168Y-89080000D01*
X269303168Y-89080000D02*
X268053167Y-90330001D01*
X311108834Y-89080000D02*
X311021000Y-89080000D01*
X312358835Y-90330001D02*
X311108834Y-89080000D01*
X348053167Y-90330001D02*
X312358835Y-90330001D01*
X351021000Y-89080000D02*
X349303168Y-89080000D01*
X349303168Y-89080000D02*
X348053167Y-90330001D01*
X308053167Y-90330001D02*
X272358835Y-90330001D01*
X272358835Y-90330001D02*
X271108834Y-89080000D01*
X309303168Y-89080000D02*
X308053167Y-90330001D01*
X271108834Y-89080000D02*
X271021000Y-89080000D01*
X311021000Y-89080000D02*
X309303168Y-89080000D01*
X108791001Y-87829999D02*
X107541000Y-89080000D01*
X113561000Y-89080000D02*
X112871002Y-89080000D01*
X111621001Y-87829999D02*
X108791001Y-87829999D01*
X107541000Y-89080000D02*
X73561000Y-89080000D01*
X112871002Y-89080000D02*
X111621001Y-87829999D01*
X148791001Y-87829999D02*
X147541000Y-89080000D01*
X153561000Y-89080000D02*
X152871002Y-89080000D01*
X151621001Y-87829999D02*
X148791001Y-87829999D01*
X147541000Y-89080000D02*
X113561000Y-89080000D01*
X152871002Y-89080000D02*
X151621001Y-87829999D01*
X188791001Y-87829999D02*
X187541000Y-89080000D01*
X193561000Y-89080000D02*
X192871002Y-89080000D01*
X191621001Y-87829999D02*
X188791001Y-87829999D01*
X187541000Y-89080000D02*
X153561000Y-89080000D01*
X192871002Y-89080000D02*
X191621001Y-87829999D01*
X228791001Y-87829999D02*
X227541000Y-89080000D01*
X233561000Y-89080000D02*
X232871002Y-89080000D01*
X231621001Y-87829999D02*
X228791001Y-87829999D01*
X227541000Y-89080000D02*
X193561000Y-89080000D01*
X232871002Y-89080000D02*
X231621001Y-87829999D01*
X268791001Y-87829999D02*
X267541000Y-89080000D01*
X273561000Y-89080000D02*
X272871002Y-89080000D01*
X271621001Y-87829999D02*
X268791001Y-87829999D01*
X267541000Y-89080000D02*
X233561000Y-89080000D01*
X272871002Y-89080000D02*
X271621001Y-87829999D01*
X348791001Y-87829999D02*
X347541000Y-89080000D01*
X353561000Y-89080000D02*
X352871002Y-89080000D01*
X351621001Y-87829999D02*
X348791001Y-87829999D01*
X347541000Y-89080000D02*
X313561000Y-89080000D01*
X352871002Y-89080000D02*
X351621001Y-87829999D01*
X313561000Y-89080000D02*
X312871002Y-89080000D01*
X308791001Y-87829999D02*
X307541000Y-89080000D01*
X307541000Y-89080000D02*
X273561000Y-89080000D01*
X312871002Y-89080000D02*
X311621001Y-87829999D01*
X311621001Y-87829999D02*
X308791001Y-87829999D01*
X108053167Y-87790001D02*
X72358835Y-87790001D01*
X72358835Y-87790001D02*
X71108834Y-86540000D01*
X109303168Y-86540000D02*
X108053167Y-87790001D01*
X71108834Y-86540000D02*
X71021000Y-86540000D01*
X111021000Y-86540000D02*
X109303168Y-86540000D01*
X148053167Y-87790001D02*
X112358835Y-87790001D01*
X112358835Y-87790001D02*
X111108834Y-86540000D01*
X149303168Y-86540000D02*
X148053167Y-87790001D01*
X111108834Y-86540000D02*
X111021000Y-86540000D01*
X151021000Y-86540000D02*
X149303168Y-86540000D01*
X188053167Y-87790001D02*
X152358835Y-87790001D01*
X152358835Y-87790001D02*
X151108834Y-86540000D01*
X189303168Y-86540000D02*
X188053167Y-87790001D01*
X151108834Y-86540000D02*
X151021000Y-86540000D01*
X191021000Y-86540000D02*
X189303168Y-86540000D01*
X228053167Y-87790001D02*
X192358835Y-87790001D01*
X192358835Y-87790001D02*
X191108834Y-86540000D01*
X229303168Y-86540000D02*
X228053167Y-87790001D01*
X191108834Y-86540000D02*
X191021000Y-86540000D01*
X231021000Y-86540000D02*
X229303168Y-86540000D01*
X268053167Y-87790001D02*
X232358835Y-87790001D01*
X232358835Y-87790001D02*
X231108834Y-86540000D01*
X269303168Y-86540000D02*
X268053167Y-87790001D01*
X231108834Y-86540000D02*
X231021000Y-86540000D01*
X271021000Y-86540000D02*
X269303168Y-86540000D01*
X348053167Y-87790001D02*
X312358835Y-87790001D01*
X312358835Y-87790001D02*
X311108834Y-86540000D01*
X349303168Y-86540000D02*
X348053167Y-87790001D01*
X311108834Y-86540000D02*
X311021000Y-86540000D01*
X351021000Y-86540000D02*
X349303168Y-86540000D01*
X309303168Y-86540000D02*
X308053167Y-87790001D01*
X308053167Y-87790001D02*
X272358835Y-87790001D01*
X272358835Y-87790001D02*
X271108834Y-86540000D01*
X271108834Y-86540000D02*
X271021000Y-86540000D01*
X311021000Y-86540000D02*
X309303168Y-86540000D01*
X107541000Y-86540000D02*
X73561000Y-86540000D01*
X108791001Y-85289999D02*
X107541000Y-86540000D01*
X112871002Y-86540000D02*
X111621001Y-85289999D01*
X113561000Y-86540000D02*
X112871002Y-86540000D01*
X111621001Y-85289999D02*
X108791001Y-85289999D01*
X147541000Y-86540000D02*
X113561000Y-86540000D01*
X148791001Y-85289999D02*
X147541000Y-86540000D01*
X152871002Y-86540000D02*
X151621001Y-85289999D01*
X153561000Y-86540000D02*
X152871002Y-86540000D01*
X151621001Y-85289999D02*
X148791001Y-85289999D01*
X187541000Y-86540000D02*
X153561000Y-86540000D01*
X188791001Y-85289999D02*
X187541000Y-86540000D01*
X192871002Y-86540000D02*
X191621001Y-85289999D01*
X193561000Y-86540000D02*
X192871002Y-86540000D01*
X191621001Y-85289999D02*
X188791001Y-85289999D01*
X227541000Y-86540000D02*
X193561000Y-86540000D01*
X228791001Y-85289999D02*
X227541000Y-86540000D01*
X232871002Y-86540000D02*
X231621001Y-85289999D01*
X233561000Y-86540000D02*
X232871002Y-86540000D01*
X231621001Y-85289999D02*
X228791001Y-85289999D01*
X267541000Y-86540000D02*
X233561000Y-86540000D01*
X268791001Y-85289999D02*
X267541000Y-86540000D01*
X272871002Y-86540000D02*
X271621001Y-85289999D01*
X273561000Y-86540000D02*
X272871002Y-86540000D01*
X271621001Y-85289999D02*
X268791001Y-85289999D01*
X347541000Y-86540000D02*
X313561000Y-86540000D01*
X348791001Y-85289999D02*
X347541000Y-86540000D01*
X352871002Y-86540000D02*
X351621001Y-85289999D01*
X353561000Y-86540000D02*
X352871002Y-86540000D01*
X351621001Y-85289999D02*
X348791001Y-85289999D01*
X311621001Y-85289999D02*
X308791001Y-85289999D01*
X312871002Y-86540000D02*
X311621001Y-85289999D01*
X313561000Y-86540000D02*
X312871002Y-86540000D01*
X307541000Y-86540000D02*
X273561000Y-86540000D01*
X308791001Y-85289999D02*
X307541000Y-86540000D01*
X109303168Y-84000000D02*
X108053167Y-85250001D01*
X71108834Y-84000000D02*
X71021000Y-84000000D01*
X111021000Y-84000000D02*
X109303168Y-84000000D01*
X108053167Y-85250001D02*
X72358835Y-85250001D01*
X72358835Y-85250001D02*
X71108834Y-84000000D01*
X149303168Y-84000000D02*
X148053167Y-85250001D01*
X111108834Y-84000000D02*
X111021000Y-84000000D01*
X151021000Y-84000000D02*
X149303168Y-84000000D01*
X148053167Y-85250001D02*
X112358835Y-85250001D01*
X112358835Y-85250001D02*
X111108834Y-84000000D01*
X189303168Y-84000000D02*
X188053167Y-85250001D01*
X151108834Y-84000000D02*
X151021000Y-84000000D01*
X191021000Y-84000000D02*
X189303168Y-84000000D01*
X188053167Y-85250001D02*
X152358835Y-85250001D01*
X152358835Y-85250001D02*
X151108834Y-84000000D01*
X229303168Y-84000000D02*
X228053167Y-85250001D01*
X191108834Y-84000000D02*
X191021000Y-84000000D01*
X231021000Y-84000000D02*
X229303168Y-84000000D01*
X228053167Y-85250001D02*
X192358835Y-85250001D01*
X192358835Y-85250001D02*
X191108834Y-84000000D01*
X269303168Y-84000000D02*
X268053167Y-85250001D01*
X231108834Y-84000000D02*
X231021000Y-84000000D01*
X271021000Y-84000000D02*
X269303168Y-84000000D01*
X268053167Y-85250001D02*
X232358835Y-85250001D01*
X232358835Y-85250001D02*
X231108834Y-84000000D01*
X349303168Y-84000000D02*
X348053167Y-85250001D01*
X311108834Y-84000000D02*
X311021000Y-84000000D01*
X351021000Y-84000000D02*
X349303168Y-84000000D01*
X348053167Y-85250001D02*
X312358835Y-85250001D01*
X312358835Y-85250001D02*
X311108834Y-84000000D01*
X308053167Y-85250001D02*
X272358835Y-85250001D01*
X271108834Y-84000000D02*
X271021000Y-84000000D01*
X309303168Y-84000000D02*
X308053167Y-85250001D01*
X272358835Y-85250001D02*
X271108834Y-84000000D01*
X311021000Y-84000000D02*
X309303168Y-84000000D01*
X108811001Y-82749999D02*
X107561000Y-84000000D01*
X113561000Y-84000000D02*
X113561000Y-82850000D01*
X107561000Y-84000000D02*
X73561000Y-84000000D01*
X113561000Y-82850000D02*
X113460999Y-82749999D01*
X113460999Y-82749999D02*
X108811001Y-82749999D01*
X148811001Y-82749999D02*
X147561000Y-84000000D01*
X153561000Y-84000000D02*
X153561000Y-82850000D01*
X147561000Y-84000000D02*
X113561000Y-84000000D01*
X153561000Y-82850000D02*
X153460999Y-82749999D01*
X153460999Y-82749999D02*
X148811001Y-82749999D01*
X188811001Y-82749999D02*
X187561000Y-84000000D01*
X193561000Y-84000000D02*
X193561000Y-82850000D01*
X187561000Y-84000000D02*
X153561000Y-84000000D01*
X193561000Y-82850000D02*
X193460999Y-82749999D01*
X193460999Y-82749999D02*
X188811001Y-82749999D01*
X228811001Y-82749999D02*
X227561000Y-84000000D01*
X233561000Y-84000000D02*
X233561000Y-82850000D01*
X227561000Y-84000000D02*
X193561000Y-84000000D01*
X233561000Y-82850000D02*
X233460999Y-82749999D01*
X233460999Y-82749999D02*
X228811001Y-82749999D01*
X268811001Y-82749999D02*
X267561000Y-84000000D01*
X273561000Y-84000000D02*
X273561000Y-82850000D01*
X267561000Y-84000000D02*
X233561000Y-84000000D01*
X273561000Y-82850000D02*
X273460999Y-82749999D01*
X273460999Y-82749999D02*
X268811001Y-82749999D01*
X348811001Y-82749999D02*
X347561000Y-84000000D01*
X353561000Y-84000000D02*
X353561000Y-82850000D01*
X347561000Y-84000000D02*
X313561000Y-84000000D01*
X353561000Y-82850000D02*
X353460999Y-82749999D01*
X353460999Y-82749999D02*
X348811001Y-82749999D01*
X313460999Y-82749999D02*
X308811001Y-82749999D01*
X308811001Y-82749999D02*
X307561000Y-84000000D01*
X307561000Y-84000000D02*
X273561000Y-84000000D01*
X313561000Y-84000000D02*
X313561000Y-82850000D01*
X313561000Y-82850000D02*
X313460999Y-82749999D01*
M02*
