M48
; DRILL file {KiCad 5.1.5+dfsg1-2build2} date Mon 22 Feb 2021 20:55:48 GMT
; FORMAT={-:-/ absolute / metric / decimal}
; #@! TF.CreationDate,2021-02-22T20:55:48+00:00
; #@! TF.GenerationSoftware,Kicad,Pcbnew,5.1.5+dfsg1-2build2
; #@! TF.FileFunction,Plated,1,2,PTH
FMAT,2
METRIC
T1C1.000
%
G90
G05
T1
X311.0Y-84.0
X311.0Y-86.54
X311.0Y-89.08
X311.0Y-91.62
X311.0Y-94.16
X311.0Y-96.7
X311.0Y-99.24
X311.0Y-101.78
X311.0Y-104.32
X311.0Y-106.86
X311.0Y-109.4
X311.0Y-111.94
X311.0Y-114.48
X311.0Y-117.02
X311.0Y-119.56
X311.0Y-122.1
X311.0Y-124.64
X311.0Y-127.18
X311.0Y-129.72
X311.0Y-132.26
X311.0Y-134.8
X311.0Y-137.34
X311.0Y-139.88
X311.0Y-142.42
X311.0Y-144.96
X311.0Y-147.5
X311.0Y-150.04
X311.0Y-152.58
X311.0Y-155.12
X311.0Y-157.66
X313.54Y-84.0
X313.54Y-86.54
X313.54Y-89.08
X313.54Y-91.62
X313.54Y-94.16
X313.54Y-96.7
X313.54Y-99.24
X313.54Y-101.78
X313.54Y-104.32
X313.54Y-106.86
X313.54Y-109.4
X313.54Y-111.94
X313.54Y-114.48
X313.54Y-117.02
X313.54Y-119.56
X313.54Y-122.1
X313.54Y-124.64
X313.54Y-127.18
X313.54Y-129.72
X313.54Y-132.26
X313.54Y-134.8
X313.54Y-137.34
X313.54Y-139.88
X313.54Y-142.42
X313.54Y-144.96
X313.54Y-147.5
X313.54Y-150.04
X313.54Y-152.58
X313.54Y-155.12
X313.54Y-157.66
X191.0Y-84.0
X191.0Y-86.54
X191.0Y-89.08
X191.0Y-91.62
X191.0Y-94.16
X191.0Y-96.7
X191.0Y-99.24
X191.0Y-101.78
X191.0Y-104.32
X191.0Y-106.86
X191.0Y-109.4
X191.0Y-111.94
X191.0Y-114.48
X191.0Y-117.02
X191.0Y-119.56
X191.0Y-122.1
X191.0Y-124.64
X191.0Y-127.18
X191.0Y-129.72
X191.0Y-132.26
X191.0Y-134.8
X191.0Y-137.34
X191.0Y-139.88
X191.0Y-142.42
X191.0Y-144.96
X191.0Y-147.5
X191.0Y-150.04
X191.0Y-152.58
X191.0Y-155.12
X191.0Y-157.66
X193.54Y-84.0
X193.54Y-86.54
X193.54Y-89.08
X193.54Y-91.62
X193.54Y-94.16
X193.54Y-96.7
X193.54Y-99.24
X193.54Y-101.78
X193.54Y-104.32
X193.54Y-106.86
X193.54Y-109.4
X193.54Y-111.94
X193.54Y-114.48
X193.54Y-117.02
X193.54Y-119.56
X193.54Y-122.1
X193.54Y-124.64
X193.54Y-127.18
X193.54Y-129.72
X193.54Y-132.26
X193.54Y-134.8
X193.54Y-137.34
X193.54Y-139.88
X193.54Y-142.42
X193.54Y-144.96
X193.54Y-147.5
X193.54Y-150.04
X193.54Y-152.58
X193.54Y-155.12
X193.54Y-157.66
X111.0Y-84.0
X111.0Y-86.54
X111.0Y-89.08
X111.0Y-91.62
X111.0Y-94.16
X111.0Y-96.7
X111.0Y-99.24
X111.0Y-101.78
X111.0Y-104.32
X111.0Y-106.86
X111.0Y-109.4
X111.0Y-111.94
X111.0Y-114.48
X111.0Y-117.02
X111.0Y-119.56
X111.0Y-122.1
X111.0Y-124.64
X111.0Y-127.18
X111.0Y-129.72
X111.0Y-132.26
X111.0Y-134.8
X111.0Y-137.34
X111.0Y-139.88
X111.0Y-142.42
X111.0Y-144.96
X111.0Y-147.5
X111.0Y-150.04
X111.0Y-152.58
X111.0Y-155.12
X111.0Y-157.66
X113.54Y-84.0
X113.54Y-86.54
X113.54Y-89.08
X113.54Y-91.62
X113.54Y-94.16
X113.54Y-96.7
X113.54Y-99.24
X113.54Y-101.78
X113.54Y-104.32
X113.54Y-106.86
X113.54Y-109.4
X113.54Y-111.94
X113.54Y-114.48
X113.54Y-117.02
X113.54Y-119.56
X113.54Y-122.1
X113.54Y-124.64
X113.54Y-127.18
X113.54Y-129.72
X113.54Y-132.26
X113.54Y-134.8
X113.54Y-137.34
X113.54Y-139.88
X113.54Y-142.42
X113.54Y-144.96
X113.54Y-147.5
X113.54Y-150.04
X113.54Y-152.58
X113.54Y-155.12
X113.54Y-157.66
X231.0Y-84.0
X231.0Y-86.54
X231.0Y-89.08
X231.0Y-91.62
X231.0Y-94.16
X231.0Y-96.7
X231.0Y-99.24
X231.0Y-101.78
X231.0Y-104.32
X231.0Y-106.86
X231.0Y-109.4
X231.0Y-111.94
X231.0Y-114.48
X231.0Y-117.02
X231.0Y-119.56
X231.0Y-122.1
X231.0Y-124.64
X231.0Y-127.18
X231.0Y-129.72
X231.0Y-132.26
X231.0Y-134.8
X231.0Y-137.34
X231.0Y-139.88
X231.0Y-142.42
X231.0Y-144.96
X231.0Y-147.5
X231.0Y-150.04
X231.0Y-152.58
X231.0Y-155.12
X231.0Y-157.66
X233.54Y-84.0
X233.54Y-86.54
X233.54Y-89.08
X233.54Y-91.62
X233.54Y-94.16
X233.54Y-96.7
X233.54Y-99.24
X233.54Y-101.78
X233.54Y-104.32
X233.54Y-106.86
X233.54Y-109.4
X233.54Y-111.94
X233.54Y-114.48
X233.54Y-117.02
X233.54Y-119.56
X233.54Y-122.1
X233.54Y-124.64
X233.54Y-127.18
X233.54Y-129.72
X233.54Y-132.26
X233.54Y-134.8
X233.54Y-137.34
X233.54Y-139.88
X233.54Y-142.42
X233.54Y-144.96
X233.54Y-147.5
X233.54Y-150.04
X233.54Y-152.58
X233.54Y-155.12
X233.54Y-157.66
X271.0Y-84.0
X271.0Y-86.54
X271.0Y-89.08
X271.0Y-91.62
X271.0Y-94.16
X271.0Y-96.7
X271.0Y-99.24
X271.0Y-101.78
X271.0Y-104.32
X271.0Y-106.86
X271.0Y-109.4
X271.0Y-111.94
X271.0Y-114.48
X271.0Y-117.02
X271.0Y-119.56
X271.0Y-122.1
X271.0Y-124.64
X271.0Y-127.18
X271.0Y-129.72
X271.0Y-132.26
X271.0Y-134.8
X271.0Y-137.34
X271.0Y-139.88
X271.0Y-142.42
X271.0Y-144.96
X271.0Y-147.5
X271.0Y-150.04
X271.0Y-152.58
X271.0Y-155.12
X271.0Y-157.66
X273.54Y-84.0
X273.54Y-86.54
X273.54Y-89.08
X273.54Y-91.62
X273.54Y-94.16
X273.54Y-96.7
X273.54Y-99.24
X273.54Y-101.78
X273.54Y-104.32
X273.54Y-106.86
X273.54Y-109.4
X273.54Y-111.94
X273.54Y-114.48
X273.54Y-117.02
X273.54Y-119.56
X273.54Y-122.1
X273.54Y-124.64
X273.54Y-127.18
X273.54Y-129.72
X273.54Y-132.26
X273.54Y-134.8
X273.54Y-137.34
X273.54Y-139.88
X273.54Y-142.42
X273.54Y-144.96
X273.54Y-147.5
X273.54Y-150.04
X273.54Y-152.58
X273.54Y-155.12
X273.54Y-157.66
X71.0Y-84.0
X71.0Y-86.54
X71.0Y-89.08
X71.0Y-91.62
X71.0Y-94.16
X71.0Y-96.7
X71.0Y-99.24
X71.0Y-101.78
X71.0Y-104.32
X71.0Y-106.86
X71.0Y-109.4
X71.0Y-111.94
X71.0Y-114.48
X71.0Y-117.02
X71.0Y-119.56
X71.0Y-122.1
X71.0Y-124.64
X71.0Y-127.18
X71.0Y-129.72
X71.0Y-132.26
X71.0Y-134.8
X71.0Y-137.34
X71.0Y-139.88
X71.0Y-142.42
X71.0Y-144.96
X71.0Y-147.5
X71.0Y-150.04
X71.0Y-152.58
X71.0Y-155.12
X71.0Y-157.66
X73.54Y-84.0
X73.54Y-86.54
X73.54Y-89.08
X73.54Y-91.62
X73.54Y-94.16
X73.54Y-96.7
X73.54Y-99.24
X73.54Y-101.78
X73.54Y-104.32
X73.54Y-106.86
X73.54Y-109.4
X73.54Y-111.94
X73.54Y-114.48
X73.54Y-117.02
X73.54Y-119.56
X73.54Y-122.1
X73.54Y-124.64
X73.54Y-127.18
X73.54Y-129.72
X73.54Y-132.26
X73.54Y-134.8
X73.54Y-137.34
X73.54Y-139.88
X73.54Y-142.42
X73.54Y-144.96
X73.54Y-147.5
X73.54Y-150.04
X73.54Y-152.58
X73.54Y-155.12
X73.54Y-157.66
X351.0Y-84.0
X351.0Y-86.54
X351.0Y-89.08
X351.0Y-91.62
X351.0Y-94.16
X351.0Y-96.7
X351.0Y-99.24
X351.0Y-101.78
X351.0Y-104.32
X351.0Y-106.86
X351.0Y-109.4
X351.0Y-111.94
X351.0Y-114.48
X351.0Y-117.02
X351.0Y-119.56
X351.0Y-122.1
X351.0Y-124.64
X351.0Y-127.18
X351.0Y-129.72
X351.0Y-132.26
X351.0Y-134.8
X351.0Y-137.34
X351.0Y-139.88
X351.0Y-142.42
X351.0Y-144.96
X351.0Y-147.5
X351.0Y-150.04
X351.0Y-152.58
X351.0Y-155.12
X351.0Y-157.66
X353.54Y-84.0
X353.54Y-86.54
X353.54Y-89.08
X353.54Y-91.62
X353.54Y-94.16
X353.54Y-96.7
X353.54Y-99.24
X353.54Y-101.78
X353.54Y-104.32
X353.54Y-106.86
X353.54Y-109.4
X353.54Y-111.94
X353.54Y-114.48
X353.54Y-117.02
X353.54Y-119.56
X353.54Y-122.1
X353.54Y-124.64
X353.54Y-127.18
X353.54Y-129.72
X353.54Y-132.26
X353.54Y-134.8
X353.54Y-137.34
X353.54Y-139.88
X353.54Y-142.42
X353.54Y-144.96
X353.54Y-147.5
X353.54Y-150.04
X353.54Y-152.58
X353.54Y-155.12
X353.54Y-157.66
X151.0Y-84.0
X151.0Y-86.54
X151.0Y-89.08
X151.0Y-91.62
X151.0Y-94.16
X151.0Y-96.7
X151.0Y-99.24
X151.0Y-101.78
X151.0Y-104.32
X151.0Y-106.86
X151.0Y-109.4
X151.0Y-111.94
X151.0Y-114.48
X151.0Y-117.02
X151.0Y-119.56
X151.0Y-122.1
X151.0Y-124.64
X151.0Y-127.18
X151.0Y-129.72
X151.0Y-132.26
X151.0Y-134.8
X151.0Y-137.34
X151.0Y-139.88
X151.0Y-142.42
X151.0Y-144.96
X151.0Y-147.5
X151.0Y-150.04
X151.0Y-152.58
X151.0Y-155.12
X151.0Y-157.66
X153.54Y-84.0
X153.54Y-86.54
X153.54Y-89.08
X153.54Y-91.62
X153.54Y-94.16
X153.54Y-96.7
X153.54Y-99.24
X153.54Y-101.78
X153.54Y-104.32
X153.54Y-106.86
X153.54Y-109.4
X153.54Y-111.94
X153.54Y-114.48
X153.54Y-117.02
X153.54Y-119.56
X153.54Y-122.1
X153.54Y-124.64
X153.54Y-127.18
X153.54Y-129.72
X153.54Y-132.26
X153.54Y-134.8
X153.54Y-137.34
X153.54Y-139.88
X153.54Y-142.42
X153.54Y-144.96
X153.54Y-147.5
X153.54Y-150.04
X153.54Y-152.58
X153.54Y-155.12
X153.54Y-157.66
T0
M30
