M48
; DRILL file {KiCad 5.1.5+dfsg1-2build2} date Wed 10 Feb 2021 01:46:50 GMT
; FORMAT={3:3/ absolute / metric / suppress leading zeros}
; #@! TF.CreationDate,2021-02-10T01:46:50+00:00
; #@! TF.GenerationSoftware,Kicad,Pcbnew,5.1.5+dfsg1-2build2
; #@! TF.FileFunction,Plated,1,2,PTH
FMAT,2
METRIC,TZ
T1C1.000
%
G90
G05
T1
X311000Y-84000
X311000Y-86540
X311000Y-89080
X311000Y-91620
X311000Y-94160
X311000Y-96700
X311000Y-99240
X311000Y-101780
X311000Y-104320
X311000Y-106860
X311000Y-109400
X311000Y-111940
X311000Y-114480
X311000Y-117020
X311000Y-119560
X311000Y-122100
X311000Y-124640
X311000Y-127180
X311000Y-129720
X311000Y-132260
X311000Y-134800
X311000Y-137340
X311000Y-139880
X311000Y-142420
X311000Y-144960
X311000Y-147500
X311000Y-150040
X311000Y-152580
X311000Y-155120
X311000Y-157660
X313540Y-84000
X313540Y-86540
X313540Y-89080
X313540Y-91620
X313540Y-94160
X313540Y-96700
X313540Y-99240
X313540Y-101780
X313540Y-104320
X313540Y-106860
X313540Y-109400
X313540Y-111940
X313540Y-114480
X313540Y-117020
X313540Y-119560
X313540Y-122100
X313540Y-124640
X313540Y-127180
X313540Y-129720
X313540Y-132260
X313540Y-134800
X313540Y-137340
X313540Y-139880
X313540Y-142420
X313540Y-144960
X313540Y-147500
X313540Y-150040
X313540Y-152580
X313540Y-155120
X313540Y-157660
X231000Y-84000
X231000Y-86540
X231000Y-89080
X231000Y-91620
X231000Y-94160
X231000Y-96700
X231000Y-99240
X231000Y-101780
X231000Y-104320
X231000Y-106860
X231000Y-109400
X231000Y-111940
X231000Y-114480
X231000Y-117020
X231000Y-119560
X231000Y-122100
X231000Y-124640
X231000Y-127180
X231000Y-129720
X231000Y-132260
X231000Y-134800
X231000Y-137340
X231000Y-139880
X231000Y-142420
X231000Y-144960
X231000Y-147500
X231000Y-150040
X231000Y-152580
X231000Y-155120
X231000Y-157660
X233540Y-84000
X233540Y-86540
X233540Y-89080
X233540Y-91620
X233540Y-94160
X233540Y-96700
X233540Y-99240
X233540Y-101780
X233540Y-104320
X233540Y-106860
X233540Y-109400
X233540Y-111940
X233540Y-114480
X233540Y-117020
X233540Y-119560
X233540Y-122100
X233540Y-124640
X233540Y-127180
X233540Y-129720
X233540Y-132260
X233540Y-134800
X233540Y-137340
X233540Y-139880
X233540Y-142420
X233540Y-144960
X233540Y-147500
X233540Y-150040
X233540Y-152580
X233540Y-155120
X233540Y-157660
X111000Y-84000
X111000Y-86540
X111000Y-89080
X111000Y-91620
X111000Y-94160
X111000Y-96700
X111000Y-99240
X111000Y-101780
X111000Y-104320
X111000Y-106860
X111000Y-109400
X111000Y-111940
X111000Y-114480
X111000Y-117020
X111000Y-119560
X111000Y-122100
X111000Y-124640
X111000Y-127180
X111000Y-129720
X111000Y-132260
X111000Y-134800
X111000Y-137340
X111000Y-139880
X111000Y-142420
X111000Y-144960
X111000Y-147500
X111000Y-150040
X111000Y-152580
X111000Y-155120
X111000Y-157660
X113540Y-84000
X113540Y-86540
X113540Y-89080
X113540Y-91620
X113540Y-94160
X113540Y-96700
X113540Y-99240
X113540Y-101780
X113540Y-104320
X113540Y-106860
X113540Y-109400
X113540Y-111940
X113540Y-114480
X113540Y-117020
X113540Y-119560
X113540Y-122100
X113540Y-124640
X113540Y-127180
X113540Y-129720
X113540Y-132260
X113540Y-134800
X113540Y-137340
X113540Y-139880
X113540Y-142420
X113540Y-144960
X113540Y-147500
X113540Y-150040
X113540Y-152580
X113540Y-155120
X113540Y-157660
X271000Y-84000
X271000Y-86540
X271000Y-89080
X271000Y-91620
X271000Y-94160
X271000Y-96700
X271000Y-99240
X271000Y-101780
X271000Y-104320
X271000Y-106860
X271000Y-109400
X271000Y-111940
X271000Y-114480
X271000Y-117020
X271000Y-119560
X271000Y-122100
X271000Y-124640
X271000Y-127180
X271000Y-129720
X271000Y-132260
X271000Y-134800
X271000Y-137340
X271000Y-139880
X271000Y-142420
X271000Y-144960
X271000Y-147500
X271000Y-150040
X271000Y-152580
X271000Y-155120
X271000Y-157660
X273540Y-84000
X273540Y-86540
X273540Y-89080
X273540Y-91620
X273540Y-94160
X273540Y-96700
X273540Y-99240
X273540Y-101780
X273540Y-104320
X273540Y-106860
X273540Y-109400
X273540Y-111940
X273540Y-114480
X273540Y-117020
X273540Y-119560
X273540Y-122100
X273540Y-124640
X273540Y-127180
X273540Y-129720
X273540Y-132260
X273540Y-134800
X273540Y-137340
X273540Y-139880
X273540Y-142420
X273540Y-144960
X273540Y-147500
X273540Y-150040
X273540Y-152580
X273540Y-155120
X273540Y-157660
X191000Y-84000
X191000Y-86540
X191000Y-89080
X191000Y-91620
X191000Y-94160
X191000Y-96700
X191000Y-99240
X191000Y-101780
X191000Y-104320
X191000Y-106860
X191000Y-109400
X191000Y-111940
X191000Y-114480
X191000Y-117020
X191000Y-119560
X191000Y-122100
X191000Y-124640
X191000Y-127180
X191000Y-129720
X191000Y-132260
X191000Y-134800
X191000Y-137340
X191000Y-139880
X191000Y-142420
X191000Y-144960
X191000Y-147500
X191000Y-150040
X191000Y-152580
X191000Y-155120
X191000Y-157660
X193540Y-84000
X193540Y-86540
X193540Y-89080
X193540Y-91620
X193540Y-94160
X193540Y-96700
X193540Y-99240
X193540Y-101780
X193540Y-104320
X193540Y-106860
X193540Y-109400
X193540Y-111940
X193540Y-114480
X193540Y-117020
X193540Y-119560
X193540Y-122100
X193540Y-124640
X193540Y-127180
X193540Y-129720
X193540Y-132260
X193540Y-134800
X193540Y-137340
X193540Y-139880
X193540Y-142420
X193540Y-144960
X193540Y-147500
X193540Y-150040
X193540Y-152580
X193540Y-155120
X193540Y-157660
X151000Y-84000
X151000Y-86540
X151000Y-89080
X151000Y-91620
X151000Y-94160
X151000Y-96700
X151000Y-99240
X151000Y-101780
X151000Y-104320
X151000Y-106860
X151000Y-109400
X151000Y-111940
X151000Y-114480
X151000Y-117020
X151000Y-119560
X151000Y-122100
X151000Y-124640
X151000Y-127180
X151000Y-129720
X151000Y-132260
X151000Y-134800
X151000Y-137340
X151000Y-139880
X151000Y-142420
X151000Y-144960
X151000Y-147500
X151000Y-150040
X151000Y-152580
X151000Y-155120
X151000Y-157660
X153540Y-84000
X153540Y-86540
X153540Y-89080
X153540Y-91620
X153540Y-94160
X153540Y-96700
X153540Y-99240
X153540Y-101780
X153540Y-104320
X153540Y-106860
X153540Y-109400
X153540Y-111940
X153540Y-114480
X153540Y-117020
X153540Y-119560
X153540Y-122100
X153540Y-124640
X153540Y-127180
X153540Y-129720
X153540Y-132260
X153540Y-134800
X153540Y-137340
X153540Y-139880
X153540Y-142420
X153540Y-144960
X153540Y-147500
X153540Y-150040
X153540Y-152580
X153540Y-155120
X153540Y-157660
X351000Y-84000
X351000Y-86540
X351000Y-89080
X351000Y-91620
X351000Y-94160
X351000Y-96700
X351000Y-99240
X351000Y-101780
X351000Y-104320
X351000Y-106860
X351000Y-109400
X351000Y-111940
X351000Y-114480
X351000Y-117020
X351000Y-119560
X351000Y-122100
X351000Y-124640
X351000Y-127180
X351000Y-129720
X351000Y-132260
X351000Y-134800
X351000Y-137340
X351000Y-139880
X351000Y-142420
X351000Y-144960
X351000Y-147500
X351000Y-150040
X351000Y-152580
X351000Y-155120
X351000Y-157660
X353540Y-84000
X353540Y-86540
X353540Y-89080
X353540Y-91620
X353540Y-94160
X353540Y-96700
X353540Y-99240
X353540Y-101780
X353540Y-104320
X353540Y-106860
X353540Y-109400
X353540Y-111940
X353540Y-114480
X353540Y-117020
X353540Y-119560
X353540Y-122100
X353540Y-124640
X353540Y-127180
X353540Y-129720
X353540Y-132260
X353540Y-134800
X353540Y-137340
X353540Y-139880
X353540Y-142420
X353540Y-144960
X353540Y-147500
X353540Y-150040
X353540Y-152580
X353540Y-155120
X353540Y-157660
X71000Y-84000
X71000Y-86540
X71000Y-89080
X71000Y-91620
X71000Y-94160
X71000Y-96700
X71000Y-99240
X71000Y-101780
X71000Y-104320
X71000Y-106860
X71000Y-109400
X71000Y-111940
X71000Y-114480
X71000Y-117020
X71000Y-119560
X71000Y-122100
X71000Y-124640
X71000Y-127180
X71000Y-129720
X71000Y-132260
X71000Y-134800
X71000Y-137340
X71000Y-139880
X71000Y-142420
X71000Y-144960
X71000Y-147500
X71000Y-150040
X71000Y-152580
X71000Y-155120
X71000Y-157660
X73540Y-84000
X73540Y-86540
X73540Y-89080
X73540Y-91620
X73540Y-94160
X73540Y-96700
X73540Y-99240
X73540Y-101780
X73540Y-104320
X73540Y-106860
X73540Y-109400
X73540Y-111940
X73540Y-114480
X73540Y-117020
X73540Y-119560
X73540Y-122100
X73540Y-124640
X73540Y-127180
X73540Y-129720
X73540Y-132260
X73540Y-134800
X73540Y-137340
X73540Y-139880
X73540Y-142420
X73540Y-144960
X73540Y-147500
X73540Y-150040
X73540Y-152580
X73540Y-155120
X73540Y-157660
T0
M30
