M48
; DRILL file {KiCad 5.1.5+dfsg1-2build2} date Sun 04 Apr 2021 16:47:09 BST
; FORMAT={-:-/ absolute / metric / decimal}
; #@! TF.CreationDate,2021-04-04T16:47:09+01:00
; #@! TF.GenerationSoftware,Kicad,Pcbnew,5.1.5+dfsg1-2build2
; #@! TF.FileFunction,Plated,1,2,PTH
FMAT,2
METRIC
T1C0.400
T2C0.800
T3C1.000
%
G90
G05
T1
X39.37Y-91.44
X40.005Y-78.74
X40.64Y-93.98
X41.275Y-73.025
X59.055Y-122.555
X60.96Y-76.2
X68.58Y-114.3
X73.66Y-116.84
X76.2Y-132.08
X78.105Y-99.695
X79.375Y-116.84
X85.09Y-116.84
X85.725Y-74.295
X86.36Y-125.73
X88.9Y-123.19
X89.535Y-67.945
X91.44Y-92.075
X92.71Y-55.88
X93.98Y-91.44
X95.25Y-56.515
X96.52Y-77.47
X96.52Y-93.98
X99.06Y-49.53
X101.6Y-48.895
X104.139Y-48.261
X104.14Y-81.28
X105.291Y-118.583
X106.68Y-74.295
X106.68Y-90.17
X106.866Y-47.811
X109.22Y-46.99
X111.76Y-46.355
X114.21Y-45.81
X116.84Y-45.085
X140.97Y-119.38
X140.97Y-121.92
X141.605Y-127.0
X142.875Y-72.39
X149.86Y-121.285
X150.495Y-67.945
X154.94Y-99.695
X156.21Y-132.08
X161.29Y-67.945
X163.195Y-116.205
X163.195Y-128.27
X163.83Y-72.39
X168.275Y-98.425
X172.085Y-103.505
X172.72Y-116.84
X173.99Y-114.935
X176.53Y-49.62
X179.07Y-48.986
X181.61Y-48.536
X183.515Y-136.525
X184.15Y-47.805
X184.15Y-106.68
X186.69Y-47.08
X189.23Y-46.535
X191.77Y-45.81
X194.31Y-45.085
X234.315Y-96.52
T2
X146.05Y-119.38
X146.05Y-134.62
X148.59Y-119.38
X148.59Y-134.62
X151.13Y-119.38
X151.13Y-134.62
X153.67Y-119.38
X153.67Y-134.62
X156.21Y-119.38
X156.21Y-134.62
X158.75Y-119.38
X158.75Y-134.62
X161.29Y-119.38
X161.29Y-134.62
X163.83Y-119.38
X163.83Y-134.62
X166.37Y-119.38
X166.37Y-134.62
X168.91Y-119.38
X168.91Y-134.62
X171.45Y-119.38
X171.45Y-134.62
X173.99Y-119.38
X173.99Y-134.62
X176.53Y-119.38
X176.53Y-134.62
X179.07Y-119.38
X179.07Y-134.62
X181.61Y-119.38
X181.61Y-134.62
X184.15Y-119.38
X184.15Y-134.62
X186.69Y-119.38
X186.69Y-134.62
X189.23Y-119.38
X189.23Y-134.62
X191.77Y-119.38
X191.77Y-134.62
X194.31Y-119.38
X194.31Y-134.62
X152.4Y-114.3
X162.56Y-114.3
X45.8Y-67.31
X50.8Y-67.31
X199.39Y-124.46
X199.39Y-129.46
X154.94Y-58.42
X159.82Y-58.42
X227.965Y-73.66
X238.125Y-73.66
X121.92Y-75.01
X121.92Y-80.01
X88.9Y-109.22
X88.9Y-114.22
X148.59Y-59.69
X148.59Y-64.69
X227.965Y-53.975
X238.125Y-53.975
X152.4Y-64.77
X162.56Y-64.77
X166.37Y-59.69
X166.37Y-64.69
X166.37Y-109.22
X166.37Y-114.22
X148.59Y-109.22
X148.59Y-114.22
X88.9Y-59.77
X88.9Y-64.77
X227.965Y-78.74
X238.125Y-78.74
X77.47Y-58.42
X82.35Y-58.42
X44.45Y-72.39
X44.45Y-74.93
X44.45Y-77.47
X44.45Y-80.01
X44.45Y-82.55
X44.45Y-85.09
X44.45Y-87.63
X52.07Y-72.39
X52.07Y-74.93
X52.07Y-77.47
X52.07Y-80.01
X52.07Y-82.55
X52.07Y-85.09
X52.07Y-87.63
X77.47Y-107.95
X82.35Y-107.95
X146.05Y-69.85
X146.05Y-85.09
X148.59Y-69.85
X148.59Y-85.09
X151.13Y-69.85
X151.13Y-85.09
X153.67Y-69.85
X153.67Y-85.09
X156.21Y-69.85
X156.21Y-85.09
X158.75Y-69.85
X158.75Y-85.09
X161.29Y-69.85
X161.29Y-85.09
X163.83Y-69.85
X163.83Y-85.09
X166.37Y-69.85
X166.37Y-85.09
X168.91Y-69.85
X168.91Y-85.09
X171.45Y-69.85
X171.45Y-85.09
X173.99Y-69.85
X173.99Y-85.09
X176.53Y-69.85
X176.53Y-85.09
X179.07Y-69.85
X179.07Y-85.09
X181.61Y-69.85
X181.61Y-85.09
X184.15Y-69.85
X184.15Y-85.09
X186.69Y-69.85
X186.69Y-85.09
X189.23Y-69.85
X189.23Y-85.09
X191.77Y-69.85
X191.77Y-85.09
X194.31Y-69.85
X194.31Y-85.09
X227.965Y-123.19
X238.125Y-123.19
X154.94Y-107.95
X159.82Y-107.95
X74.93Y-64.77
X85.09Y-64.77
X227.965Y-103.505
X238.125Y-103.505
X199.39Y-75.01
X199.39Y-80.01
X121.92Y-124.54
X121.92Y-129.54
X68.58Y-119.38
X68.58Y-134.62
X71.12Y-119.38
X71.12Y-134.62
X73.66Y-119.38
X73.66Y-134.62
X76.2Y-119.38
X76.2Y-134.62
X78.74Y-119.38
X78.74Y-134.62
X81.28Y-119.38
X81.28Y-134.62
X83.82Y-119.38
X83.82Y-134.62
X86.36Y-119.38
X86.36Y-134.62
X88.9Y-119.38
X88.9Y-134.62
X91.44Y-119.38
X91.44Y-134.62
X93.98Y-119.38
X93.98Y-134.62
X96.52Y-119.38
X96.52Y-134.62
X99.06Y-119.38
X99.06Y-134.62
X101.6Y-119.38
X101.6Y-134.62
X104.14Y-119.38
X104.14Y-134.62
X106.68Y-119.38
X106.68Y-134.62
X109.22Y-119.38
X109.22Y-134.62
X111.76Y-119.38
X111.76Y-134.62
X114.3Y-119.38
X114.3Y-134.62
X116.84Y-119.38
X116.84Y-134.62
X45.8Y-95.25
X50.8Y-95.25
X71.12Y-109.22
X71.12Y-114.22
X227.965Y-128.27
X238.125Y-128.27
X44.45Y-100.33
X44.45Y-102.87
X44.45Y-105.41
X44.45Y-107.95
X44.45Y-110.49
X44.45Y-113.03
X44.45Y-115.57
X52.07Y-100.33
X52.07Y-102.87
X52.07Y-105.41
X52.07Y-107.95
X52.07Y-110.49
X52.07Y-113.03
X52.07Y-115.57
X68.58Y-69.85
X68.58Y-85.09
X71.12Y-69.85
X71.12Y-85.09
X73.66Y-69.85
X73.66Y-85.09
X76.2Y-69.85
X76.2Y-85.09
X78.74Y-69.85
X78.74Y-85.09
X81.28Y-69.85
X81.28Y-85.09
X83.82Y-69.85
X83.82Y-85.09
X86.36Y-69.85
X86.36Y-85.09
X88.9Y-69.85
X88.9Y-85.09
X91.44Y-69.85
X91.44Y-85.09
X93.98Y-69.85
X93.98Y-85.09
X96.52Y-69.85
X96.52Y-85.09
X99.06Y-69.85
X99.06Y-85.09
X101.6Y-69.85
X101.6Y-85.09
X104.14Y-69.85
X104.14Y-85.09
X106.68Y-69.85
X106.68Y-85.09
X109.22Y-69.85
X109.22Y-85.09
X111.76Y-69.85
X111.76Y-85.09
X114.3Y-69.85
X114.3Y-85.09
X116.84Y-69.85
X116.84Y-85.09
X227.965Y-48.895
X238.125Y-48.895
X74.93Y-114.3
X85.09Y-114.3
X71.12Y-59.77
X71.12Y-64.77
X227.965Y-98.425
X238.125Y-98.425
T3
X241.935Y-111.76
X241.935Y-114.3
X239.395Y-86.995
X239.395Y-89.535
X239.395Y-62.23
X239.395Y-64.77
X229.235Y-132.715
X231.775Y-132.715
X234.315Y-132.715
X236.855Y-132.715
X239.395Y-132.715
X241.935Y-132.715
X243.205Y-98.425
X243.205Y-100.965
X243.205Y-103.505
X243.205Y-123.19
X243.205Y-125.73
X243.205Y-128.27
X243.205Y-48.895
X243.205Y-51.435
X243.205Y-53.975
X241.935Y-62.23
X241.935Y-64.77
X239.395Y-111.76
X239.395Y-114.3
X243.205Y-73.66
X243.205Y-76.2
X243.205Y-78.74
X229.235Y-83.185
X231.775Y-83.185
X234.315Y-83.185
X236.855Y-83.185
X239.395Y-83.185
X241.935Y-83.185
X236.855Y-137.795
X236.855Y-140.335
X58.42Y-116.205
X231.775Y-62.23
X231.775Y-64.77
X231.775Y-86.995
X231.775Y-89.535
X234.315Y-137.795
X234.315Y-140.335
X241.935Y-86.995
X241.935Y-89.535
X32.512Y-58.547
X32.512Y-61.087
X32.512Y-63.627
X32.512Y-66.167
X32.512Y-68.707
X32.512Y-71.247
X32.512Y-73.787
X32.512Y-76.327
X32.512Y-78.867
X32.512Y-81.407
X32.512Y-83.947
X32.512Y-86.487
X32.512Y-89.027
X32.512Y-91.567
X32.512Y-94.107
X32.512Y-96.647
X32.512Y-99.187
X32.512Y-101.727
X32.512Y-104.267
X32.512Y-106.807
X32.512Y-109.347
X32.512Y-111.887
X32.512Y-114.427
X32.512Y-116.967
X32.512Y-119.507
X32.512Y-122.047
X32.512Y-124.587
X32.512Y-127.127
X32.512Y-129.667
X32.512Y-132.207
X35.052Y-58.547
X35.052Y-61.087
X35.052Y-63.627
X35.052Y-66.167
X35.052Y-68.707
X35.052Y-71.247
X35.052Y-73.787
X35.052Y-76.327
X35.052Y-78.867
X35.052Y-81.407
X35.052Y-83.947
X35.052Y-86.487
X35.052Y-89.027
X35.052Y-91.567
X35.052Y-94.107
X35.052Y-96.647
X35.052Y-99.187
X35.052Y-101.727
X35.052Y-104.267
X35.052Y-106.807
X35.052Y-109.347
X35.052Y-111.887
X35.052Y-114.427
X35.052Y-116.967
X35.052Y-119.507
X35.052Y-122.047
X35.052Y-124.587
X35.052Y-127.127
X35.052Y-129.667
X35.052Y-132.207
X229.235Y-107.95
X231.775Y-107.95
X234.315Y-107.95
X236.855Y-107.95
X239.395Y-107.95
X241.935Y-107.95
X239.395Y-137.795
X239.395Y-140.335
X234.315Y-86.995
X234.315Y-89.535
X234.315Y-62.23
X234.315Y-64.77
X236.855Y-62.23
X236.855Y-64.77
X231.775Y-137.795
X231.775Y-140.335
X231.775Y-111.76
X231.775Y-114.3
X236.855Y-111.76
X236.855Y-114.3
X236.855Y-86.995
X236.855Y-89.535
X229.235Y-58.42
X231.775Y-58.42
X234.315Y-58.42
X236.855Y-58.42
X239.395Y-58.42
X241.935Y-58.42
X234.315Y-111.76
X234.315Y-114.3
X241.935Y-137.795
X241.935Y-140.335
T0
M30
