G04 #@! TF.GenerationSoftware,KiCad,Pcbnew,5.1.5+dfsg1-2build2*
G04 #@! TF.CreationDate,2021-04-04T16:47:07+01:00*
G04 #@! TF.ProjectId,serial,73657269-616c-42e6-9b69-6361645f7063,rev?*
G04 #@! TF.SameCoordinates,Original*
G04 #@! TF.FileFunction,Legend,Top*
G04 #@! TF.FilePolarity,Positive*
%FSLAX46Y46*%
G04 Gerber Fmt 4.6, Leading zero omitted, Abs format (unit mm)*
G04 Created by KiCad (PCBNEW 5.1.5+dfsg1-2build2) date 2021-04-04 16:47:07*
%MOMM*%
%LPD*%
G04 APERTURE LIST*
%ADD10C,0.300000*%
%ADD11C,0.150000*%
%ADD12C,0.120000*%
%ADD13C,0.500000*%
%ADD14C,0.250000*%
G04 APERTURE END LIST*
D10*
X81075000Y-77291428D02*
X80932142Y-77220000D01*
X80860714Y-77148571D01*
X80789285Y-77005714D01*
X80789285Y-76934285D01*
X80860714Y-76791428D01*
X80932142Y-76720000D01*
X81075000Y-76648571D01*
X81360714Y-76648571D01*
X81503571Y-76720000D01*
X81575000Y-76791428D01*
X81646428Y-76934285D01*
X81646428Y-77005714D01*
X81575000Y-77148571D01*
X81503571Y-77220000D01*
X81360714Y-77291428D01*
X81075000Y-77291428D01*
X80932142Y-77362857D01*
X80860714Y-77434285D01*
X80789285Y-77577142D01*
X80789285Y-77862857D01*
X80860714Y-78005714D01*
X80932142Y-78077142D01*
X81075000Y-78148571D01*
X81360714Y-78148571D01*
X81503571Y-78077142D01*
X81575000Y-78005714D01*
X81646428Y-77862857D01*
X81646428Y-77577142D01*
X81575000Y-77434285D01*
X81503571Y-77362857D01*
X81360714Y-77291428D01*
X82217857Y-76791428D02*
X82289285Y-76720000D01*
X82432142Y-76648571D01*
X82789285Y-76648571D01*
X82932142Y-76720000D01*
X83003571Y-76791428D01*
X83075000Y-76934285D01*
X83075000Y-77077142D01*
X83003571Y-77291428D01*
X82146428Y-78148571D01*
X83075000Y-78148571D01*
X84432142Y-76648571D02*
X83717857Y-76648571D01*
X83646428Y-77362857D01*
X83717857Y-77291428D01*
X83860714Y-77220000D01*
X84217857Y-77220000D01*
X84360714Y-77291428D01*
X84432142Y-77362857D01*
X84503571Y-77505714D01*
X84503571Y-77862857D01*
X84432142Y-78005714D01*
X84360714Y-78077142D01*
X84217857Y-78148571D01*
X83860714Y-78148571D01*
X83717857Y-78077142D01*
X83646428Y-78005714D01*
X85432142Y-76648571D02*
X85575000Y-76648571D01*
X85717857Y-76720000D01*
X85789285Y-76791428D01*
X85860714Y-76934285D01*
X85932142Y-77220000D01*
X85932142Y-77577142D01*
X85860714Y-77862857D01*
X85789285Y-78005714D01*
X85717857Y-78077142D01*
X85575000Y-78148571D01*
X85432142Y-78148571D01*
X85289285Y-78077142D01*
X85217857Y-78005714D01*
X85146428Y-77862857D01*
X85075000Y-77577142D01*
X85075000Y-77220000D01*
X85146428Y-76934285D01*
X85217857Y-76791428D01*
X85289285Y-76720000D01*
X85432142Y-76648571D01*
X87646428Y-76577142D02*
X86360714Y-78505714D01*
X88932142Y-78148571D02*
X88075000Y-78148571D01*
X88503571Y-78148571D02*
X88503571Y-76648571D01*
X88360714Y-76862857D01*
X88217857Y-77005714D01*
X88075000Y-77077142D01*
X90217857Y-76648571D02*
X89932142Y-76648571D01*
X89789285Y-76720000D01*
X89717857Y-76791428D01*
X89575000Y-77005714D01*
X89503571Y-77291428D01*
X89503571Y-77862857D01*
X89575000Y-78005714D01*
X89646428Y-78077142D01*
X89789285Y-78148571D01*
X90075000Y-78148571D01*
X90217857Y-78077142D01*
X90289285Y-78005714D01*
X90360714Y-77862857D01*
X90360714Y-77505714D01*
X90289285Y-77362857D01*
X90217857Y-77291428D01*
X90075000Y-77220000D01*
X89789285Y-77220000D01*
X89646428Y-77291428D01*
X89575000Y-77362857D01*
X89503571Y-77505714D01*
X91646428Y-77148571D02*
X91646428Y-78148571D01*
X91289285Y-76577142D02*
X90932142Y-77648571D01*
X91860714Y-77648571D01*
X93146428Y-76648571D02*
X92432142Y-76648571D01*
X92360714Y-77362857D01*
X92432142Y-77291428D01*
X92575000Y-77220000D01*
X92932142Y-77220000D01*
X93075000Y-77291428D01*
X93146428Y-77362857D01*
X93217857Y-77505714D01*
X93217857Y-77862857D01*
X93146428Y-78005714D01*
X93075000Y-78077142D01*
X92932142Y-78148571D01*
X92575000Y-78148571D01*
X92432142Y-78077142D01*
X92360714Y-78005714D01*
X94146428Y-76648571D02*
X94289285Y-76648571D01*
X94432142Y-76720000D01*
X94503571Y-76791428D01*
X94575000Y-76934285D01*
X94646428Y-77220000D01*
X94646428Y-77577142D01*
X94575000Y-77862857D01*
X94503571Y-78005714D01*
X94432142Y-78077142D01*
X94289285Y-78148571D01*
X94146428Y-78148571D01*
X94003571Y-78077142D01*
X93932142Y-78005714D01*
X93860714Y-77862857D01*
X93789285Y-77577142D01*
X93789285Y-77220000D01*
X93860714Y-76934285D01*
X93932142Y-76791428D01*
X94003571Y-76720000D01*
X94146428Y-76648571D01*
X96360714Y-76577142D02*
X95075000Y-78505714D01*
X97646428Y-78148571D02*
X96789285Y-78148571D01*
X97217857Y-78148571D02*
X97217857Y-76648571D01*
X97075000Y-76862857D01*
X96932142Y-77005714D01*
X96789285Y-77077142D01*
X98932142Y-76648571D02*
X98646428Y-76648571D01*
X98503571Y-76720000D01*
X98432142Y-76791428D01*
X98289285Y-77005714D01*
X98217857Y-77291428D01*
X98217857Y-77862857D01*
X98289285Y-78005714D01*
X98360714Y-78077142D01*
X98503571Y-78148571D01*
X98789285Y-78148571D01*
X98932142Y-78077142D01*
X99003571Y-78005714D01*
X99075000Y-77862857D01*
X99075000Y-77505714D01*
X99003571Y-77362857D01*
X98932142Y-77291428D01*
X98789285Y-77220000D01*
X98503571Y-77220000D01*
X98360714Y-77291428D01*
X98289285Y-77362857D01*
X98217857Y-77505714D01*
X100432142Y-76648571D02*
X99717857Y-76648571D01*
X99646428Y-77362857D01*
X99717857Y-77291428D01*
X99860714Y-77220000D01*
X100217857Y-77220000D01*
X100360714Y-77291428D01*
X100432142Y-77362857D01*
X100503571Y-77505714D01*
X100503571Y-77862857D01*
X100432142Y-78005714D01*
X100360714Y-78077142D01*
X100217857Y-78148571D01*
X99860714Y-78148571D01*
X99717857Y-78077142D01*
X99646428Y-78005714D01*
X101860714Y-76648571D02*
X101146428Y-76648571D01*
X101075000Y-77362857D01*
X101146428Y-77291428D01*
X101289285Y-77220000D01*
X101646428Y-77220000D01*
X101789285Y-77291428D01*
X101860714Y-77362857D01*
X101932142Y-77505714D01*
X101932142Y-77862857D01*
X101860714Y-78005714D01*
X101789285Y-78077142D01*
X101646428Y-78148571D01*
X101289285Y-78148571D01*
X101146428Y-78077142D01*
X101075000Y-78005714D01*
X102860714Y-76648571D02*
X103003571Y-76648571D01*
X103146428Y-76720000D01*
X103217857Y-76791428D01*
X103289285Y-76934285D01*
X103360714Y-77220000D01*
X103360714Y-77577142D01*
X103289285Y-77862857D01*
X103217857Y-78005714D01*
X103146428Y-78077142D01*
X103003571Y-78148571D01*
X102860714Y-78148571D01*
X102717857Y-78077142D01*
X102646428Y-78005714D01*
X102575000Y-77862857D01*
X102503571Y-77577142D01*
X102503571Y-77220000D01*
X102575000Y-76934285D01*
X102646428Y-76791428D01*
X102717857Y-76720000D01*
X102860714Y-76648571D01*
X81075000Y-126821428D02*
X80932142Y-126750000D01*
X80860714Y-126678571D01*
X80789285Y-126535714D01*
X80789285Y-126464285D01*
X80860714Y-126321428D01*
X80932142Y-126250000D01*
X81075000Y-126178571D01*
X81360714Y-126178571D01*
X81503571Y-126250000D01*
X81575000Y-126321428D01*
X81646428Y-126464285D01*
X81646428Y-126535714D01*
X81575000Y-126678571D01*
X81503571Y-126750000D01*
X81360714Y-126821428D01*
X81075000Y-126821428D01*
X80932142Y-126892857D01*
X80860714Y-126964285D01*
X80789285Y-127107142D01*
X80789285Y-127392857D01*
X80860714Y-127535714D01*
X80932142Y-127607142D01*
X81075000Y-127678571D01*
X81360714Y-127678571D01*
X81503571Y-127607142D01*
X81575000Y-127535714D01*
X81646428Y-127392857D01*
X81646428Y-127107142D01*
X81575000Y-126964285D01*
X81503571Y-126892857D01*
X81360714Y-126821428D01*
X82217857Y-126321428D02*
X82289285Y-126250000D01*
X82432142Y-126178571D01*
X82789285Y-126178571D01*
X82932142Y-126250000D01*
X83003571Y-126321428D01*
X83075000Y-126464285D01*
X83075000Y-126607142D01*
X83003571Y-126821428D01*
X82146428Y-127678571D01*
X83075000Y-127678571D01*
X84432142Y-126178571D02*
X83717857Y-126178571D01*
X83646428Y-126892857D01*
X83717857Y-126821428D01*
X83860714Y-126750000D01*
X84217857Y-126750000D01*
X84360714Y-126821428D01*
X84432142Y-126892857D01*
X84503571Y-127035714D01*
X84503571Y-127392857D01*
X84432142Y-127535714D01*
X84360714Y-127607142D01*
X84217857Y-127678571D01*
X83860714Y-127678571D01*
X83717857Y-127607142D01*
X83646428Y-127535714D01*
X85432142Y-126178571D02*
X85575000Y-126178571D01*
X85717857Y-126250000D01*
X85789285Y-126321428D01*
X85860714Y-126464285D01*
X85932142Y-126750000D01*
X85932142Y-127107142D01*
X85860714Y-127392857D01*
X85789285Y-127535714D01*
X85717857Y-127607142D01*
X85575000Y-127678571D01*
X85432142Y-127678571D01*
X85289285Y-127607142D01*
X85217857Y-127535714D01*
X85146428Y-127392857D01*
X85075000Y-127107142D01*
X85075000Y-126750000D01*
X85146428Y-126464285D01*
X85217857Y-126321428D01*
X85289285Y-126250000D01*
X85432142Y-126178571D01*
X87646428Y-126107142D02*
X86360714Y-128035714D01*
X88932142Y-127678571D02*
X88075000Y-127678571D01*
X88503571Y-127678571D02*
X88503571Y-126178571D01*
X88360714Y-126392857D01*
X88217857Y-126535714D01*
X88075000Y-126607142D01*
X90217857Y-126178571D02*
X89932142Y-126178571D01*
X89789285Y-126250000D01*
X89717857Y-126321428D01*
X89575000Y-126535714D01*
X89503571Y-126821428D01*
X89503571Y-127392857D01*
X89575000Y-127535714D01*
X89646428Y-127607142D01*
X89789285Y-127678571D01*
X90075000Y-127678571D01*
X90217857Y-127607142D01*
X90289285Y-127535714D01*
X90360714Y-127392857D01*
X90360714Y-127035714D01*
X90289285Y-126892857D01*
X90217857Y-126821428D01*
X90075000Y-126750000D01*
X89789285Y-126750000D01*
X89646428Y-126821428D01*
X89575000Y-126892857D01*
X89503571Y-127035714D01*
X91646428Y-126678571D02*
X91646428Y-127678571D01*
X91289285Y-126107142D02*
X90932142Y-127178571D01*
X91860714Y-127178571D01*
X93146428Y-126178571D02*
X92432142Y-126178571D01*
X92360714Y-126892857D01*
X92432142Y-126821428D01*
X92575000Y-126750000D01*
X92932142Y-126750000D01*
X93075000Y-126821428D01*
X93146428Y-126892857D01*
X93217857Y-127035714D01*
X93217857Y-127392857D01*
X93146428Y-127535714D01*
X93075000Y-127607142D01*
X92932142Y-127678571D01*
X92575000Y-127678571D01*
X92432142Y-127607142D01*
X92360714Y-127535714D01*
X94146428Y-126178571D02*
X94289285Y-126178571D01*
X94432142Y-126250000D01*
X94503571Y-126321428D01*
X94575000Y-126464285D01*
X94646428Y-126750000D01*
X94646428Y-127107142D01*
X94575000Y-127392857D01*
X94503571Y-127535714D01*
X94432142Y-127607142D01*
X94289285Y-127678571D01*
X94146428Y-127678571D01*
X94003571Y-127607142D01*
X93932142Y-127535714D01*
X93860714Y-127392857D01*
X93789285Y-127107142D01*
X93789285Y-126750000D01*
X93860714Y-126464285D01*
X93932142Y-126321428D01*
X94003571Y-126250000D01*
X94146428Y-126178571D01*
X96360714Y-126107142D02*
X95075000Y-128035714D01*
X97646428Y-127678571D02*
X96789285Y-127678571D01*
X97217857Y-127678571D02*
X97217857Y-126178571D01*
X97075000Y-126392857D01*
X96932142Y-126535714D01*
X96789285Y-126607142D01*
X98932142Y-126178571D02*
X98646428Y-126178571D01*
X98503571Y-126250000D01*
X98432142Y-126321428D01*
X98289285Y-126535714D01*
X98217857Y-126821428D01*
X98217857Y-127392857D01*
X98289285Y-127535714D01*
X98360714Y-127607142D01*
X98503571Y-127678571D01*
X98789285Y-127678571D01*
X98932142Y-127607142D01*
X99003571Y-127535714D01*
X99075000Y-127392857D01*
X99075000Y-127035714D01*
X99003571Y-126892857D01*
X98932142Y-126821428D01*
X98789285Y-126750000D01*
X98503571Y-126750000D01*
X98360714Y-126821428D01*
X98289285Y-126892857D01*
X98217857Y-127035714D01*
X100432142Y-126178571D02*
X99717857Y-126178571D01*
X99646428Y-126892857D01*
X99717857Y-126821428D01*
X99860714Y-126750000D01*
X100217857Y-126750000D01*
X100360714Y-126821428D01*
X100432142Y-126892857D01*
X100503571Y-127035714D01*
X100503571Y-127392857D01*
X100432142Y-127535714D01*
X100360714Y-127607142D01*
X100217857Y-127678571D01*
X99860714Y-127678571D01*
X99717857Y-127607142D01*
X99646428Y-127535714D01*
X101860714Y-126178571D02*
X101146428Y-126178571D01*
X101075000Y-126892857D01*
X101146428Y-126821428D01*
X101289285Y-126750000D01*
X101646428Y-126750000D01*
X101789285Y-126821428D01*
X101860714Y-126892857D01*
X101932142Y-127035714D01*
X101932142Y-127392857D01*
X101860714Y-127535714D01*
X101789285Y-127607142D01*
X101646428Y-127678571D01*
X101289285Y-127678571D01*
X101146428Y-127607142D01*
X101075000Y-127535714D01*
X102860714Y-126178571D02*
X103003571Y-126178571D01*
X103146428Y-126250000D01*
X103217857Y-126321428D01*
X103289285Y-126464285D01*
X103360714Y-126750000D01*
X103360714Y-127107142D01*
X103289285Y-127392857D01*
X103217857Y-127535714D01*
X103146428Y-127607142D01*
X103003571Y-127678571D01*
X102860714Y-127678571D01*
X102717857Y-127607142D01*
X102646428Y-127535714D01*
X102575000Y-127392857D01*
X102503571Y-127107142D01*
X102503571Y-126750000D01*
X102575000Y-126464285D01*
X102646428Y-126321428D01*
X102717857Y-126250000D01*
X102860714Y-126178571D01*
X158545000Y-77291428D02*
X158402142Y-77220000D01*
X158330714Y-77148571D01*
X158259285Y-77005714D01*
X158259285Y-76934285D01*
X158330714Y-76791428D01*
X158402142Y-76720000D01*
X158545000Y-76648571D01*
X158830714Y-76648571D01*
X158973571Y-76720000D01*
X159045000Y-76791428D01*
X159116428Y-76934285D01*
X159116428Y-77005714D01*
X159045000Y-77148571D01*
X158973571Y-77220000D01*
X158830714Y-77291428D01*
X158545000Y-77291428D01*
X158402142Y-77362857D01*
X158330714Y-77434285D01*
X158259285Y-77577142D01*
X158259285Y-77862857D01*
X158330714Y-78005714D01*
X158402142Y-78077142D01*
X158545000Y-78148571D01*
X158830714Y-78148571D01*
X158973571Y-78077142D01*
X159045000Y-78005714D01*
X159116428Y-77862857D01*
X159116428Y-77577142D01*
X159045000Y-77434285D01*
X158973571Y-77362857D01*
X158830714Y-77291428D01*
X159687857Y-76791428D02*
X159759285Y-76720000D01*
X159902142Y-76648571D01*
X160259285Y-76648571D01*
X160402142Y-76720000D01*
X160473571Y-76791428D01*
X160545000Y-76934285D01*
X160545000Y-77077142D01*
X160473571Y-77291428D01*
X159616428Y-78148571D01*
X160545000Y-78148571D01*
X161902142Y-76648571D02*
X161187857Y-76648571D01*
X161116428Y-77362857D01*
X161187857Y-77291428D01*
X161330714Y-77220000D01*
X161687857Y-77220000D01*
X161830714Y-77291428D01*
X161902142Y-77362857D01*
X161973571Y-77505714D01*
X161973571Y-77862857D01*
X161902142Y-78005714D01*
X161830714Y-78077142D01*
X161687857Y-78148571D01*
X161330714Y-78148571D01*
X161187857Y-78077142D01*
X161116428Y-78005714D01*
X162902142Y-76648571D02*
X163045000Y-76648571D01*
X163187857Y-76720000D01*
X163259285Y-76791428D01*
X163330714Y-76934285D01*
X163402142Y-77220000D01*
X163402142Y-77577142D01*
X163330714Y-77862857D01*
X163259285Y-78005714D01*
X163187857Y-78077142D01*
X163045000Y-78148571D01*
X162902142Y-78148571D01*
X162759285Y-78077142D01*
X162687857Y-78005714D01*
X162616428Y-77862857D01*
X162545000Y-77577142D01*
X162545000Y-77220000D01*
X162616428Y-76934285D01*
X162687857Y-76791428D01*
X162759285Y-76720000D01*
X162902142Y-76648571D01*
X165116428Y-76577142D02*
X163830714Y-78505714D01*
X166402142Y-78148571D02*
X165545000Y-78148571D01*
X165973571Y-78148571D02*
X165973571Y-76648571D01*
X165830714Y-76862857D01*
X165687857Y-77005714D01*
X165545000Y-77077142D01*
X167687857Y-76648571D02*
X167402142Y-76648571D01*
X167259285Y-76720000D01*
X167187857Y-76791428D01*
X167045000Y-77005714D01*
X166973571Y-77291428D01*
X166973571Y-77862857D01*
X167045000Y-78005714D01*
X167116428Y-78077142D01*
X167259285Y-78148571D01*
X167545000Y-78148571D01*
X167687857Y-78077142D01*
X167759285Y-78005714D01*
X167830714Y-77862857D01*
X167830714Y-77505714D01*
X167759285Y-77362857D01*
X167687857Y-77291428D01*
X167545000Y-77220000D01*
X167259285Y-77220000D01*
X167116428Y-77291428D01*
X167045000Y-77362857D01*
X166973571Y-77505714D01*
X169116428Y-77148571D02*
X169116428Y-78148571D01*
X168759285Y-76577142D02*
X168402142Y-77648571D01*
X169330714Y-77648571D01*
X170616428Y-76648571D02*
X169902142Y-76648571D01*
X169830714Y-77362857D01*
X169902142Y-77291428D01*
X170045000Y-77220000D01*
X170402142Y-77220000D01*
X170545000Y-77291428D01*
X170616428Y-77362857D01*
X170687857Y-77505714D01*
X170687857Y-77862857D01*
X170616428Y-78005714D01*
X170545000Y-78077142D01*
X170402142Y-78148571D01*
X170045000Y-78148571D01*
X169902142Y-78077142D01*
X169830714Y-78005714D01*
X171616428Y-76648571D02*
X171759285Y-76648571D01*
X171902142Y-76720000D01*
X171973571Y-76791428D01*
X172045000Y-76934285D01*
X172116428Y-77220000D01*
X172116428Y-77577142D01*
X172045000Y-77862857D01*
X171973571Y-78005714D01*
X171902142Y-78077142D01*
X171759285Y-78148571D01*
X171616428Y-78148571D01*
X171473571Y-78077142D01*
X171402142Y-78005714D01*
X171330714Y-77862857D01*
X171259285Y-77577142D01*
X171259285Y-77220000D01*
X171330714Y-76934285D01*
X171402142Y-76791428D01*
X171473571Y-76720000D01*
X171616428Y-76648571D01*
X173830714Y-76577142D02*
X172545000Y-78505714D01*
X175116428Y-78148571D02*
X174259285Y-78148571D01*
X174687857Y-78148571D02*
X174687857Y-76648571D01*
X174545000Y-76862857D01*
X174402142Y-77005714D01*
X174259285Y-77077142D01*
X176402142Y-76648571D02*
X176116428Y-76648571D01*
X175973571Y-76720000D01*
X175902142Y-76791428D01*
X175759285Y-77005714D01*
X175687857Y-77291428D01*
X175687857Y-77862857D01*
X175759285Y-78005714D01*
X175830714Y-78077142D01*
X175973571Y-78148571D01*
X176259285Y-78148571D01*
X176402142Y-78077142D01*
X176473571Y-78005714D01*
X176545000Y-77862857D01*
X176545000Y-77505714D01*
X176473571Y-77362857D01*
X176402142Y-77291428D01*
X176259285Y-77220000D01*
X175973571Y-77220000D01*
X175830714Y-77291428D01*
X175759285Y-77362857D01*
X175687857Y-77505714D01*
X177902142Y-76648571D02*
X177187857Y-76648571D01*
X177116428Y-77362857D01*
X177187857Y-77291428D01*
X177330714Y-77220000D01*
X177687857Y-77220000D01*
X177830714Y-77291428D01*
X177902142Y-77362857D01*
X177973571Y-77505714D01*
X177973571Y-77862857D01*
X177902142Y-78005714D01*
X177830714Y-78077142D01*
X177687857Y-78148571D01*
X177330714Y-78148571D01*
X177187857Y-78077142D01*
X177116428Y-78005714D01*
X179330714Y-76648571D02*
X178616428Y-76648571D01*
X178545000Y-77362857D01*
X178616428Y-77291428D01*
X178759285Y-77220000D01*
X179116428Y-77220000D01*
X179259285Y-77291428D01*
X179330714Y-77362857D01*
X179402142Y-77505714D01*
X179402142Y-77862857D01*
X179330714Y-78005714D01*
X179259285Y-78077142D01*
X179116428Y-78148571D01*
X178759285Y-78148571D01*
X178616428Y-78077142D01*
X178545000Y-78005714D01*
X180330714Y-76648571D02*
X180473571Y-76648571D01*
X180616428Y-76720000D01*
X180687857Y-76791428D01*
X180759285Y-76934285D01*
X180830714Y-77220000D01*
X180830714Y-77577142D01*
X180759285Y-77862857D01*
X180687857Y-78005714D01*
X180616428Y-78077142D01*
X180473571Y-78148571D01*
X180330714Y-78148571D01*
X180187857Y-78077142D01*
X180116428Y-78005714D01*
X180045000Y-77862857D01*
X179973571Y-77577142D01*
X179973571Y-77220000D01*
X180045000Y-76934285D01*
X180116428Y-76791428D01*
X180187857Y-76720000D01*
X180330714Y-76648571D01*
X158545000Y-126821428D02*
X158402142Y-126750000D01*
X158330714Y-126678571D01*
X158259285Y-126535714D01*
X158259285Y-126464285D01*
X158330714Y-126321428D01*
X158402142Y-126250000D01*
X158545000Y-126178571D01*
X158830714Y-126178571D01*
X158973571Y-126250000D01*
X159045000Y-126321428D01*
X159116428Y-126464285D01*
X159116428Y-126535714D01*
X159045000Y-126678571D01*
X158973571Y-126750000D01*
X158830714Y-126821428D01*
X158545000Y-126821428D01*
X158402142Y-126892857D01*
X158330714Y-126964285D01*
X158259285Y-127107142D01*
X158259285Y-127392857D01*
X158330714Y-127535714D01*
X158402142Y-127607142D01*
X158545000Y-127678571D01*
X158830714Y-127678571D01*
X158973571Y-127607142D01*
X159045000Y-127535714D01*
X159116428Y-127392857D01*
X159116428Y-127107142D01*
X159045000Y-126964285D01*
X158973571Y-126892857D01*
X158830714Y-126821428D01*
X159687857Y-126321428D02*
X159759285Y-126250000D01*
X159902142Y-126178571D01*
X160259285Y-126178571D01*
X160402142Y-126250000D01*
X160473571Y-126321428D01*
X160545000Y-126464285D01*
X160545000Y-126607142D01*
X160473571Y-126821428D01*
X159616428Y-127678571D01*
X160545000Y-127678571D01*
X161902142Y-126178571D02*
X161187857Y-126178571D01*
X161116428Y-126892857D01*
X161187857Y-126821428D01*
X161330714Y-126750000D01*
X161687857Y-126750000D01*
X161830714Y-126821428D01*
X161902142Y-126892857D01*
X161973571Y-127035714D01*
X161973571Y-127392857D01*
X161902142Y-127535714D01*
X161830714Y-127607142D01*
X161687857Y-127678571D01*
X161330714Y-127678571D01*
X161187857Y-127607142D01*
X161116428Y-127535714D01*
X162902142Y-126178571D02*
X163045000Y-126178571D01*
X163187857Y-126250000D01*
X163259285Y-126321428D01*
X163330714Y-126464285D01*
X163402142Y-126750000D01*
X163402142Y-127107142D01*
X163330714Y-127392857D01*
X163259285Y-127535714D01*
X163187857Y-127607142D01*
X163045000Y-127678571D01*
X162902142Y-127678571D01*
X162759285Y-127607142D01*
X162687857Y-127535714D01*
X162616428Y-127392857D01*
X162545000Y-127107142D01*
X162545000Y-126750000D01*
X162616428Y-126464285D01*
X162687857Y-126321428D01*
X162759285Y-126250000D01*
X162902142Y-126178571D01*
X165116428Y-126107142D02*
X163830714Y-128035714D01*
X166402142Y-127678571D02*
X165545000Y-127678571D01*
X165973571Y-127678571D02*
X165973571Y-126178571D01*
X165830714Y-126392857D01*
X165687857Y-126535714D01*
X165545000Y-126607142D01*
X167687857Y-126178571D02*
X167402142Y-126178571D01*
X167259285Y-126250000D01*
X167187857Y-126321428D01*
X167045000Y-126535714D01*
X166973571Y-126821428D01*
X166973571Y-127392857D01*
X167045000Y-127535714D01*
X167116428Y-127607142D01*
X167259285Y-127678571D01*
X167545000Y-127678571D01*
X167687857Y-127607142D01*
X167759285Y-127535714D01*
X167830714Y-127392857D01*
X167830714Y-127035714D01*
X167759285Y-126892857D01*
X167687857Y-126821428D01*
X167545000Y-126750000D01*
X167259285Y-126750000D01*
X167116428Y-126821428D01*
X167045000Y-126892857D01*
X166973571Y-127035714D01*
X169116428Y-126678571D02*
X169116428Y-127678571D01*
X168759285Y-126107142D02*
X168402142Y-127178571D01*
X169330714Y-127178571D01*
X170616428Y-126178571D02*
X169902142Y-126178571D01*
X169830714Y-126892857D01*
X169902142Y-126821428D01*
X170045000Y-126750000D01*
X170402142Y-126750000D01*
X170545000Y-126821428D01*
X170616428Y-126892857D01*
X170687857Y-127035714D01*
X170687857Y-127392857D01*
X170616428Y-127535714D01*
X170545000Y-127607142D01*
X170402142Y-127678571D01*
X170045000Y-127678571D01*
X169902142Y-127607142D01*
X169830714Y-127535714D01*
X171616428Y-126178571D02*
X171759285Y-126178571D01*
X171902142Y-126250000D01*
X171973571Y-126321428D01*
X172045000Y-126464285D01*
X172116428Y-126750000D01*
X172116428Y-127107142D01*
X172045000Y-127392857D01*
X171973571Y-127535714D01*
X171902142Y-127607142D01*
X171759285Y-127678571D01*
X171616428Y-127678571D01*
X171473571Y-127607142D01*
X171402142Y-127535714D01*
X171330714Y-127392857D01*
X171259285Y-127107142D01*
X171259285Y-126750000D01*
X171330714Y-126464285D01*
X171402142Y-126321428D01*
X171473571Y-126250000D01*
X171616428Y-126178571D01*
X173830714Y-126107142D02*
X172545000Y-128035714D01*
X175116428Y-127678571D02*
X174259285Y-127678571D01*
X174687857Y-127678571D02*
X174687857Y-126178571D01*
X174545000Y-126392857D01*
X174402142Y-126535714D01*
X174259285Y-126607142D01*
X176402142Y-126178571D02*
X176116428Y-126178571D01*
X175973571Y-126250000D01*
X175902142Y-126321428D01*
X175759285Y-126535714D01*
X175687857Y-126821428D01*
X175687857Y-127392857D01*
X175759285Y-127535714D01*
X175830714Y-127607142D01*
X175973571Y-127678571D01*
X176259285Y-127678571D01*
X176402142Y-127607142D01*
X176473571Y-127535714D01*
X176545000Y-127392857D01*
X176545000Y-127035714D01*
X176473571Y-126892857D01*
X176402142Y-126821428D01*
X176259285Y-126750000D01*
X175973571Y-126750000D01*
X175830714Y-126821428D01*
X175759285Y-126892857D01*
X175687857Y-127035714D01*
X177902142Y-126178571D02*
X177187857Y-126178571D01*
X177116428Y-126892857D01*
X177187857Y-126821428D01*
X177330714Y-126750000D01*
X177687857Y-126750000D01*
X177830714Y-126821428D01*
X177902142Y-126892857D01*
X177973571Y-127035714D01*
X177973571Y-127392857D01*
X177902142Y-127535714D01*
X177830714Y-127607142D01*
X177687857Y-127678571D01*
X177330714Y-127678571D01*
X177187857Y-127607142D01*
X177116428Y-127535714D01*
X179330714Y-126178571D02*
X178616428Y-126178571D01*
X178545000Y-126892857D01*
X178616428Y-126821428D01*
X178759285Y-126750000D01*
X179116428Y-126750000D01*
X179259285Y-126821428D01*
X179330714Y-126892857D01*
X179402142Y-127035714D01*
X179402142Y-127392857D01*
X179330714Y-127535714D01*
X179259285Y-127607142D01*
X179116428Y-127678571D01*
X178759285Y-127678571D01*
X178616428Y-127607142D01*
X178545000Y-127535714D01*
X180330714Y-126178571D02*
X180473571Y-126178571D01*
X180616428Y-126250000D01*
X180687857Y-126321428D01*
X180759285Y-126464285D01*
X180830714Y-126750000D01*
X180830714Y-127107142D01*
X180759285Y-127392857D01*
X180687857Y-127535714D01*
X180616428Y-127607142D01*
X180473571Y-127678571D01*
X180330714Y-127678571D01*
X180187857Y-127607142D01*
X180116428Y-127535714D01*
X180045000Y-127392857D01*
X179973571Y-127107142D01*
X179973571Y-126750000D01*
X180045000Y-126464285D01*
X180116428Y-126321428D01*
X180187857Y-126250000D01*
X180330714Y-126178571D01*
D11*
X58507380Y-113958571D02*
X59507380Y-113720476D01*
X58793095Y-113530000D01*
X59507380Y-113339523D01*
X58507380Y-113101428D01*
X59507380Y-112149047D02*
X59031190Y-112482380D01*
X59507380Y-112720476D02*
X58507380Y-112720476D01*
X58507380Y-112339523D01*
X58555000Y-112244285D01*
X58602619Y-112196666D01*
X58697857Y-112149047D01*
X58840714Y-112149047D01*
X58935952Y-112196666D01*
X58983571Y-112244285D01*
X59031190Y-112339523D01*
X59031190Y-112720476D01*
X57872380Y-98701904D02*
X58872380Y-98463809D01*
X58158095Y-98273333D01*
X58872380Y-98082857D01*
X57872380Y-97844761D01*
X58872380Y-96892380D02*
X58396190Y-97225714D01*
X58872380Y-97463809D02*
X57872380Y-97463809D01*
X57872380Y-97082857D01*
X57920000Y-96987619D01*
X57967619Y-96940000D01*
X58062857Y-96892380D01*
X58205714Y-96892380D01*
X58300952Y-96940000D01*
X58348571Y-96987619D01*
X58396190Y-97082857D01*
X58396190Y-97463809D01*
X58205714Y-95701904D02*
X59205714Y-95701904D01*
X58253333Y-95701904D02*
X58205714Y-95606666D01*
X58205714Y-95416190D01*
X58253333Y-95320952D01*
X58300952Y-95273333D01*
X58396190Y-95225714D01*
X58681904Y-95225714D01*
X58777142Y-95273333D01*
X58824761Y-95320952D01*
X58872380Y-95416190D01*
X58872380Y-95606666D01*
X58824761Y-95701904D01*
X58205714Y-94368571D02*
X58872380Y-94368571D01*
X58205714Y-94797142D02*
X58729523Y-94797142D01*
X58824761Y-94749523D01*
X58872380Y-94654285D01*
X58872380Y-94511428D01*
X58824761Y-94416190D01*
X58777142Y-94368571D01*
X58872380Y-93749523D02*
X58824761Y-93844761D01*
X58729523Y-93892380D01*
X57872380Y-93892380D01*
X58824761Y-93416190D02*
X58872380Y-93320952D01*
X58872380Y-93130476D01*
X58824761Y-93035238D01*
X58729523Y-92987619D01*
X58681904Y-92987619D01*
X58586666Y-93035238D01*
X58539047Y-93130476D01*
X58539047Y-93273333D01*
X58491428Y-93368571D01*
X58396190Y-93416190D01*
X58348571Y-93416190D01*
X58253333Y-93368571D01*
X58205714Y-93273333D01*
X58205714Y-93130476D01*
X58253333Y-93035238D01*
X58824761Y-92178095D02*
X58872380Y-92273333D01*
X58872380Y-92463809D01*
X58824761Y-92559047D01*
X58729523Y-92606666D01*
X58348571Y-92606666D01*
X58253333Y-92559047D01*
X58205714Y-92463809D01*
X58205714Y-92273333D01*
X58253333Y-92178095D01*
X58348571Y-92130476D01*
X58443809Y-92130476D01*
X58539047Y-92606666D01*
X58205714Y-90511428D02*
X59015238Y-90511428D01*
X59110476Y-90559047D01*
X59158095Y-90606666D01*
X59205714Y-90701904D01*
X59205714Y-90844761D01*
X59158095Y-90940000D01*
X58824761Y-90511428D02*
X58872380Y-90606666D01*
X58872380Y-90797142D01*
X58824761Y-90892380D01*
X58777142Y-90940000D01*
X58681904Y-90987619D01*
X58396190Y-90987619D01*
X58300952Y-90940000D01*
X58253333Y-90892380D01*
X58205714Y-90797142D01*
X58205714Y-90606666D01*
X58253333Y-90511428D01*
X58824761Y-89654285D02*
X58872380Y-89749523D01*
X58872380Y-89940000D01*
X58824761Y-90035238D01*
X58729523Y-90082857D01*
X58348571Y-90082857D01*
X58253333Y-90035238D01*
X58205714Y-89940000D01*
X58205714Y-89749523D01*
X58253333Y-89654285D01*
X58348571Y-89606666D01*
X58443809Y-89606666D01*
X58539047Y-90082857D01*
X58205714Y-89178095D02*
X58872380Y-89178095D01*
X58300952Y-89178095D02*
X58253333Y-89130476D01*
X58205714Y-89035238D01*
X58205714Y-88892380D01*
X58253333Y-88797142D01*
X58348571Y-88749523D01*
X58872380Y-88749523D01*
X58824761Y-87892380D02*
X58872380Y-87987619D01*
X58872380Y-88178095D01*
X58824761Y-88273333D01*
X58729523Y-88320952D01*
X58348571Y-88320952D01*
X58253333Y-88273333D01*
X58205714Y-88178095D01*
X58205714Y-87987619D01*
X58253333Y-87892380D01*
X58348571Y-87844761D01*
X58443809Y-87844761D01*
X58539047Y-88320952D01*
X58872380Y-87416190D02*
X58205714Y-87416190D01*
X58396190Y-87416190D02*
X58300952Y-87368571D01*
X58253333Y-87320952D01*
X58205714Y-87225714D01*
X58205714Y-87130476D01*
X58872380Y-86368571D02*
X58348571Y-86368571D01*
X58253333Y-86416190D01*
X58205714Y-86511428D01*
X58205714Y-86701904D01*
X58253333Y-86797142D01*
X58824761Y-86368571D02*
X58872380Y-86463809D01*
X58872380Y-86701904D01*
X58824761Y-86797142D01*
X58729523Y-86844761D01*
X58634285Y-86844761D01*
X58539047Y-86797142D01*
X58491428Y-86701904D01*
X58491428Y-86463809D01*
X58443809Y-86368571D01*
X58205714Y-86035238D02*
X58205714Y-85654285D01*
X57872380Y-85892380D02*
X58729523Y-85892380D01*
X58824761Y-85844761D01*
X58872380Y-85749523D01*
X58872380Y-85654285D01*
X58872380Y-85178095D02*
X58824761Y-85273333D01*
X58777142Y-85320952D01*
X58681904Y-85368571D01*
X58396190Y-85368571D01*
X58300952Y-85320952D01*
X58253333Y-85273333D01*
X58205714Y-85178095D01*
X58205714Y-85035238D01*
X58253333Y-84940000D01*
X58300952Y-84892380D01*
X58396190Y-84844761D01*
X58681904Y-84844761D01*
X58777142Y-84892380D01*
X58824761Y-84940000D01*
X58872380Y-85035238D01*
X58872380Y-85178095D01*
X58872380Y-84416190D02*
X58205714Y-84416190D01*
X58396190Y-84416190D02*
X58300952Y-84368571D01*
X58253333Y-84320952D01*
X58205714Y-84225714D01*
X58205714Y-84130476D01*
D12*
X41275000Y-118745000D02*
X41275000Y-63500000D01*
X60960000Y-118745000D02*
X41275000Y-118745000D01*
X60960000Y-63500000D02*
X60960000Y-118745000D01*
X41275000Y-63500000D02*
X60960000Y-63500000D01*
X202565000Y-137160000D02*
X143510000Y-137160000D01*
X143510000Y-103505000D02*
X202565000Y-103505000D01*
X143510000Y-137160000D02*
X143510000Y-103505000D01*
X202565000Y-103505000D02*
X202565000Y-137160000D01*
X125095000Y-137160000D02*
X66040000Y-137160000D01*
X66040000Y-103505000D02*
X125095000Y-103505000D01*
X66040000Y-137160000D02*
X66040000Y-103505000D01*
X125095000Y-103505000D02*
X125095000Y-137160000D01*
X143510000Y-87630000D02*
X143510000Y-53975000D01*
X202565000Y-87630000D02*
X143510000Y-87630000D01*
X202565000Y-53975000D02*
X202565000Y-87630000D01*
X143510000Y-53975000D02*
X202565000Y-53975000D01*
X66040000Y-87630000D02*
X66040000Y-53975000D01*
X125095000Y-87630000D02*
X66040000Y-87630000D01*
X125095000Y-53975000D02*
X125095000Y-87630000D01*
X66040000Y-53975000D02*
X125095000Y-53975000D01*
D13*
X111387142Y-61325000D02*
X111387142Y-59467857D01*
X112530000Y-60467857D01*
X112530000Y-60039285D01*
X112672857Y-59753571D01*
X112815714Y-59610714D01*
X113101428Y-59467857D01*
X113815714Y-59467857D01*
X114101428Y-59610714D01*
X114244285Y-59753571D01*
X114387142Y-60039285D01*
X114387142Y-60896428D01*
X114244285Y-61182142D01*
X114101428Y-61325000D01*
X111672857Y-110712142D02*
X111530000Y-110569285D01*
X111387142Y-110283571D01*
X111387142Y-109569285D01*
X111530000Y-109283571D01*
X111672857Y-109140714D01*
X111958571Y-108997857D01*
X112244285Y-108997857D01*
X112672857Y-109140714D01*
X114387142Y-110855000D01*
X114387142Y-108997857D01*
X191857142Y-59467857D02*
X191857142Y-61182142D01*
X191857142Y-60325000D02*
X188857142Y-60325000D01*
X189285714Y-60610714D01*
X189571428Y-60896428D01*
X189714285Y-61182142D01*
X188857142Y-109997857D02*
X188857142Y-109712142D01*
X189000000Y-109426428D01*
X189142857Y-109283571D01*
X189428571Y-109140714D01*
X190000000Y-108997857D01*
X190714285Y-108997857D01*
X191285714Y-109140714D01*
X191571428Y-109283571D01*
X191714285Y-109426428D01*
X191857142Y-109712142D01*
X191857142Y-109997857D01*
X191714285Y-110283571D01*
X191571428Y-110426428D01*
X191285714Y-110569285D01*
X190714285Y-110712142D01*
X190000000Y-110712142D01*
X189428571Y-110569285D01*
X189142857Y-110426428D01*
X189000000Y-110283571D01*
X188857142Y-109997857D01*
D12*
X127000000Y-107315000D02*
X127000000Y-96520000D01*
X139700000Y-107315000D02*
X127000000Y-107315000D01*
X139700000Y-96520000D02*
X139700000Y-107315000D01*
X127000000Y-96520000D02*
X139700000Y-96520000D01*
D11*
X138834761Y-106235000D02*
X138882380Y-106092142D01*
X138882380Y-105854047D01*
X138834761Y-105758809D01*
X138787142Y-105711190D01*
X138691904Y-105663571D01*
X138596666Y-105663571D01*
X138501428Y-105711190D01*
X138453809Y-105758809D01*
X138406190Y-105854047D01*
X138358571Y-106044523D01*
X138310952Y-106139761D01*
X138263333Y-106187380D01*
X138168095Y-106235000D01*
X138072857Y-106235000D01*
X137977619Y-106187380D01*
X137930000Y-106139761D01*
X137882380Y-106044523D01*
X137882380Y-105806428D01*
X137930000Y-105663571D01*
X138882380Y-105235000D02*
X137882380Y-105235000D01*
X138882380Y-104806428D02*
X138358571Y-104806428D01*
X138263333Y-104854047D01*
X138215714Y-104949285D01*
X138215714Y-105092142D01*
X138263333Y-105187380D01*
X138310952Y-105235000D01*
X138882380Y-103901666D02*
X138358571Y-103901666D01*
X138263333Y-103949285D01*
X138215714Y-104044523D01*
X138215714Y-104235000D01*
X138263333Y-104330238D01*
X138834761Y-103901666D02*
X138882380Y-103996904D01*
X138882380Y-104235000D01*
X138834761Y-104330238D01*
X138739523Y-104377857D01*
X138644285Y-104377857D01*
X138549047Y-104330238D01*
X138501428Y-104235000D01*
X138501428Y-103996904D01*
X138453809Y-103901666D01*
X138882380Y-103425476D02*
X138215714Y-103425476D01*
X138406190Y-103425476D02*
X138310952Y-103377857D01*
X138263333Y-103330238D01*
X138215714Y-103235000D01*
X138215714Y-103139761D01*
X138834761Y-102425476D02*
X138882380Y-102520714D01*
X138882380Y-102711190D01*
X138834761Y-102806428D01*
X138739523Y-102854047D01*
X138358571Y-102854047D01*
X138263333Y-102806428D01*
X138215714Y-102711190D01*
X138215714Y-102520714D01*
X138263333Y-102425476D01*
X138358571Y-102377857D01*
X138453809Y-102377857D01*
X138549047Y-102854047D01*
X138882380Y-101520714D02*
X137882380Y-101520714D01*
X138834761Y-101520714D02*
X138882380Y-101615952D01*
X138882380Y-101806428D01*
X138834761Y-101901666D01*
X138787142Y-101949285D01*
X138691904Y-101996904D01*
X138406190Y-101996904D01*
X138310952Y-101949285D01*
X138263333Y-101901666D01*
X138215714Y-101806428D01*
X138215714Y-101615952D01*
X138263333Y-101520714D01*
X137882380Y-100377857D02*
X138882380Y-99711190D01*
X137882380Y-99711190D02*
X138882380Y-100377857D01*
X138882380Y-99330238D02*
X137882380Y-99330238D01*
X138882380Y-98854047D02*
X137882380Y-98854047D01*
X138882380Y-98282619D01*
X137882380Y-98282619D01*
D14*
X246828571Y-69083571D02*
X248042857Y-69083571D01*
X248185714Y-69012142D01*
X248257142Y-68940714D01*
X248328571Y-68797857D01*
X248328571Y-68512142D01*
X248257142Y-68369285D01*
X248185714Y-68297857D01*
X248042857Y-68226428D01*
X246828571Y-68226428D01*
X247900000Y-67583571D02*
X247900000Y-66869285D01*
X248328571Y-67726428D02*
X246828571Y-67226428D01*
X248328571Y-66726428D01*
X248328571Y-65369285D02*
X247614285Y-65869285D01*
X248328571Y-66226428D02*
X246828571Y-66226428D01*
X246828571Y-65655000D01*
X246900000Y-65512142D01*
X246971428Y-65440714D01*
X247114285Y-65369285D01*
X247328571Y-65369285D01*
X247471428Y-65440714D01*
X247542857Y-65512142D01*
X247614285Y-65655000D01*
X247614285Y-66226428D01*
X246828571Y-64940714D02*
X246828571Y-64083571D01*
X248328571Y-64512142D02*
X246828571Y-64512142D01*
X246828571Y-62583571D02*
X246828571Y-61655000D01*
X247400000Y-62155000D01*
X247400000Y-61940714D01*
X247471428Y-61797857D01*
X247542857Y-61726428D01*
X247685714Y-61655000D01*
X248042857Y-61655000D01*
X248185714Y-61726428D01*
X248257142Y-61797857D01*
X248328571Y-61940714D01*
X248328571Y-62369285D01*
X248257142Y-62512142D01*
X248185714Y-62583571D01*
X246828571Y-93848571D02*
X248042857Y-93848571D01*
X248185714Y-93777142D01*
X248257142Y-93705714D01*
X248328571Y-93562857D01*
X248328571Y-93277142D01*
X248257142Y-93134285D01*
X248185714Y-93062857D01*
X248042857Y-92991428D01*
X246828571Y-92991428D01*
X247900000Y-92348571D02*
X247900000Y-91634285D01*
X248328571Y-92491428D02*
X246828571Y-91991428D01*
X248328571Y-91491428D01*
X248328571Y-90134285D02*
X247614285Y-90634285D01*
X248328571Y-90991428D02*
X246828571Y-90991428D01*
X246828571Y-90420000D01*
X246900000Y-90277142D01*
X246971428Y-90205714D01*
X247114285Y-90134285D01*
X247328571Y-90134285D01*
X247471428Y-90205714D01*
X247542857Y-90277142D01*
X247614285Y-90420000D01*
X247614285Y-90991428D01*
X246828571Y-89705714D02*
X246828571Y-88848571D01*
X248328571Y-89277142D02*
X246828571Y-89277142D01*
X246971428Y-87277142D02*
X246900000Y-87205714D01*
X246828571Y-87062857D01*
X246828571Y-86705714D01*
X246900000Y-86562857D01*
X246971428Y-86491428D01*
X247114285Y-86420000D01*
X247257142Y-86420000D01*
X247471428Y-86491428D01*
X248328571Y-87348571D01*
X248328571Y-86420000D01*
X246828571Y-118613571D02*
X248042857Y-118613571D01*
X248185714Y-118542142D01*
X248257142Y-118470714D01*
X248328571Y-118327857D01*
X248328571Y-118042142D01*
X248257142Y-117899285D01*
X248185714Y-117827857D01*
X248042857Y-117756428D01*
X246828571Y-117756428D01*
X247900000Y-117113571D02*
X247900000Y-116399285D01*
X248328571Y-117256428D02*
X246828571Y-116756428D01*
X248328571Y-116256428D01*
X248328571Y-114899285D02*
X247614285Y-115399285D01*
X248328571Y-115756428D02*
X246828571Y-115756428D01*
X246828571Y-115185000D01*
X246900000Y-115042142D01*
X246971428Y-114970714D01*
X247114285Y-114899285D01*
X247328571Y-114899285D01*
X247471428Y-114970714D01*
X247542857Y-115042142D01*
X247614285Y-115185000D01*
X247614285Y-115756428D01*
X246828571Y-114470714D02*
X246828571Y-113613571D01*
X248328571Y-114042142D02*
X246828571Y-114042142D01*
X248328571Y-111185000D02*
X248328571Y-112042142D01*
X248328571Y-111613571D02*
X246828571Y-111613571D01*
X247042857Y-111756428D01*
X247185714Y-111899285D01*
X247257142Y-112042142D01*
X246828571Y-144648571D02*
X248042857Y-144648571D01*
X248185714Y-144577142D01*
X248257142Y-144505714D01*
X248328571Y-144362857D01*
X248328571Y-144077142D01*
X248257142Y-143934285D01*
X248185714Y-143862857D01*
X248042857Y-143791428D01*
X246828571Y-143791428D01*
X247900000Y-143148571D02*
X247900000Y-142434285D01*
X248328571Y-143291428D02*
X246828571Y-142791428D01*
X248328571Y-142291428D01*
X248328571Y-140934285D02*
X247614285Y-141434285D01*
X248328571Y-141791428D02*
X246828571Y-141791428D01*
X246828571Y-141220000D01*
X246900000Y-141077142D01*
X246971428Y-141005714D01*
X247114285Y-140934285D01*
X247328571Y-140934285D01*
X247471428Y-141005714D01*
X247542857Y-141077142D01*
X247614285Y-141220000D01*
X247614285Y-141791428D01*
X246828571Y-140505714D02*
X246828571Y-139648571D01*
X248328571Y-140077142D02*
X246828571Y-140077142D01*
X246828571Y-137720000D02*
X246828571Y-137577142D01*
X246900000Y-137434285D01*
X246971428Y-137362857D01*
X247114285Y-137291428D01*
X247400000Y-137220000D01*
X247757142Y-137220000D01*
X248042857Y-137291428D01*
X248185714Y-137362857D01*
X248257142Y-137434285D01*
X248328571Y-137577142D01*
X248328571Y-137720000D01*
X248257142Y-137862857D01*
X248185714Y-137934285D01*
X248042857Y-138005714D01*
X247757142Y-138077142D01*
X247400000Y-138077142D01*
X247114285Y-138005714D01*
X246971428Y-137934285D01*
X246900000Y-137862857D01*
X246828571Y-137720000D01*
D12*
X250190000Y-120015000D02*
X224155000Y-120015000D01*
X250190000Y-95250000D02*
X224155000Y-95250000D01*
X250190000Y-70485000D02*
X224155000Y-70485000D01*
X224155000Y-146050000D02*
X224155000Y-44450000D01*
X250190000Y-146050000D02*
X224155000Y-146050000D01*
X250190000Y-44450000D02*
X250190000Y-146050000D01*
X224155000Y-44450000D02*
X250190000Y-44450000D01*
D11*
X227465000Y-62991904D02*
X227417380Y-63087142D01*
X227417380Y-63230000D01*
X227465000Y-63372857D01*
X227560238Y-63468095D01*
X227655476Y-63515714D01*
X227845952Y-63563333D01*
X227988809Y-63563333D01*
X228179285Y-63515714D01*
X228274523Y-63468095D01*
X228369761Y-63372857D01*
X228417380Y-63230000D01*
X228417380Y-63134761D01*
X228369761Y-62991904D01*
X228322142Y-62944285D01*
X227988809Y-62944285D01*
X227988809Y-63134761D01*
X228417380Y-62515714D02*
X227417380Y-62515714D01*
X228417380Y-61944285D01*
X227417380Y-61944285D01*
X228417380Y-61468095D02*
X227417380Y-61468095D01*
X227417380Y-61230000D01*
X227465000Y-61087142D01*
X227560238Y-60991904D01*
X227655476Y-60944285D01*
X227845952Y-60896666D01*
X227988809Y-60896666D01*
X228179285Y-60944285D01*
X228274523Y-60991904D01*
X228369761Y-61087142D01*
X228417380Y-61230000D01*
X228417380Y-61468095D01*
D10*
X264767142Y-109007857D02*
X264838571Y-108793571D01*
X264838571Y-108436428D01*
X264767142Y-108293571D01*
X264695714Y-108222142D01*
X264552857Y-108150714D01*
X264410000Y-108150714D01*
X264267142Y-108222142D01*
X264195714Y-108293571D01*
X264124285Y-108436428D01*
X264052857Y-108722142D01*
X263981428Y-108865000D01*
X263910000Y-108936428D01*
X263767142Y-109007857D01*
X263624285Y-109007857D01*
X263481428Y-108936428D01*
X263410000Y-108865000D01*
X263338571Y-108722142D01*
X263338571Y-108365000D01*
X263410000Y-108150714D01*
X264695714Y-106650714D02*
X264767142Y-106722142D01*
X264838571Y-106936428D01*
X264838571Y-107079285D01*
X264767142Y-107293571D01*
X264624285Y-107436428D01*
X264481428Y-107507857D01*
X264195714Y-107579285D01*
X263981428Y-107579285D01*
X263695714Y-107507857D01*
X263552857Y-107436428D01*
X263410000Y-107293571D01*
X263338571Y-107079285D01*
X263338571Y-106936428D01*
X263410000Y-106722142D01*
X263481428Y-106650714D01*
X264410000Y-106079285D02*
X264410000Y-105365000D01*
X264838571Y-106222142D02*
X263338571Y-105722142D01*
X264838571Y-105222142D01*
X264838571Y-104722142D02*
X263338571Y-104722142D01*
X264410000Y-104222142D01*
X263338571Y-103722142D01*
X264838571Y-103722142D01*
X264838571Y-103007857D02*
X263338571Y-103007857D01*
X263338571Y-102436428D01*
X263410000Y-102293571D01*
X263481428Y-102222142D01*
X263624285Y-102150714D01*
X263838571Y-102150714D01*
X263981428Y-102222142D01*
X264052857Y-102293571D01*
X264124285Y-102436428D01*
X264124285Y-103007857D01*
X264767142Y-100436428D02*
X264838571Y-100222142D01*
X264838571Y-99865000D01*
X264767142Y-99722142D01*
X264695714Y-99650714D01*
X264552857Y-99579285D01*
X264410000Y-99579285D01*
X264267142Y-99650714D01*
X264195714Y-99722142D01*
X264124285Y-99865000D01*
X264052857Y-100150714D01*
X263981428Y-100293571D01*
X263910000Y-100365000D01*
X263767142Y-100436428D01*
X263624285Y-100436428D01*
X263481428Y-100365000D01*
X263410000Y-100293571D01*
X263338571Y-100150714D01*
X263338571Y-99793571D01*
X263410000Y-99579285D01*
X264767142Y-98365000D02*
X264838571Y-98507857D01*
X264838571Y-98793571D01*
X264767142Y-98936428D01*
X264624285Y-99007857D01*
X264052857Y-99007857D01*
X263910000Y-98936428D01*
X263838571Y-98793571D01*
X263838571Y-98507857D01*
X263910000Y-98365000D01*
X264052857Y-98293571D01*
X264195714Y-98293571D01*
X264338571Y-99007857D01*
X264838571Y-97650714D02*
X263838571Y-97650714D01*
X264124285Y-97650714D02*
X263981428Y-97579285D01*
X263910000Y-97507857D01*
X263838571Y-97365000D01*
X263838571Y-97222142D01*
X264838571Y-96722142D02*
X263838571Y-96722142D01*
X263338571Y-96722142D02*
X263410000Y-96793571D01*
X263481428Y-96722142D01*
X263410000Y-96650714D01*
X263338571Y-96722142D01*
X263481428Y-96722142D01*
X264838571Y-95365000D02*
X264052857Y-95365000D01*
X263910000Y-95436428D01*
X263838571Y-95579285D01*
X263838571Y-95865000D01*
X263910000Y-96007857D01*
X264767142Y-95365000D02*
X264838571Y-95507857D01*
X264838571Y-95865000D01*
X264767142Y-96007857D01*
X264624285Y-96079285D01*
X264481428Y-96079285D01*
X264338571Y-96007857D01*
X264267142Y-95865000D01*
X264267142Y-95507857D01*
X264195714Y-95365000D01*
X264838571Y-94436428D02*
X264767142Y-94579285D01*
X264624285Y-94650714D01*
X263338571Y-94650714D01*
X264695714Y-91865000D02*
X264767142Y-91936428D01*
X264838571Y-92150714D01*
X264838571Y-92293571D01*
X264767142Y-92507857D01*
X264624285Y-92650714D01*
X264481428Y-92722142D01*
X264195714Y-92793571D01*
X263981428Y-92793571D01*
X263695714Y-92722142D01*
X263552857Y-92650714D01*
X263410000Y-92507857D01*
X263338571Y-92293571D01*
X263338571Y-92150714D01*
X263410000Y-91936428D01*
X263481428Y-91865000D01*
X264838571Y-90579285D02*
X264052857Y-90579285D01*
X263910000Y-90650714D01*
X263838571Y-90793571D01*
X263838571Y-91079285D01*
X263910000Y-91222142D01*
X264767142Y-90579285D02*
X264838571Y-90722142D01*
X264838571Y-91079285D01*
X264767142Y-91222142D01*
X264624285Y-91293571D01*
X264481428Y-91293571D01*
X264338571Y-91222142D01*
X264267142Y-91079285D01*
X264267142Y-90722142D01*
X264195714Y-90579285D01*
X264838571Y-89865000D02*
X263838571Y-89865000D01*
X264124285Y-89865000D02*
X263981428Y-89793571D01*
X263910000Y-89722142D01*
X263838571Y-89579285D01*
X263838571Y-89436428D01*
X264838571Y-88293571D02*
X263338571Y-88293571D01*
X264767142Y-88293571D02*
X264838571Y-88436428D01*
X264838571Y-88722142D01*
X264767142Y-88865000D01*
X264695714Y-88936428D01*
X264552857Y-89007857D01*
X264124285Y-89007857D01*
X263981428Y-88936428D01*
X263910000Y-88865000D01*
X263838571Y-88722142D01*
X263838571Y-88436428D01*
X263910000Y-88293571D01*
X264838571Y-86436428D02*
X263338571Y-86436428D01*
X263910000Y-86436428D02*
X263838571Y-86293571D01*
X263838571Y-86007857D01*
X263910000Y-85865000D01*
X263981428Y-85793571D01*
X264124285Y-85722142D01*
X264552857Y-85722142D01*
X264695714Y-85793571D01*
X264767142Y-85865000D01*
X264838571Y-86007857D01*
X264838571Y-86293571D01*
X264767142Y-86436428D01*
X263838571Y-85222142D02*
X264838571Y-84865000D01*
X263838571Y-84507857D02*
X264838571Y-84865000D01*
X265195714Y-85007857D01*
X265267142Y-85079285D01*
X265338571Y-85222142D01*
X263838571Y-82793571D02*
X265124285Y-82793571D01*
X265267142Y-82865000D01*
X265338571Y-83007857D01*
X265338571Y-83079285D01*
X263338571Y-82793571D02*
X263410000Y-82865000D01*
X263481428Y-82793571D01*
X263410000Y-82722142D01*
X263338571Y-82793571D01*
X263481428Y-82793571D01*
X264767142Y-81507857D02*
X264838571Y-81650714D01*
X264838571Y-81936428D01*
X264767142Y-82079285D01*
X264624285Y-82150714D01*
X264052857Y-82150714D01*
X263910000Y-82079285D01*
X263838571Y-81936428D01*
X263838571Y-81650714D01*
X263910000Y-81507857D01*
X264052857Y-81436428D01*
X264195714Y-81436428D01*
X264338571Y-82150714D01*
X264767142Y-80865000D02*
X264838571Y-80722142D01*
X264838571Y-80436428D01*
X264767142Y-80293571D01*
X264624285Y-80222142D01*
X264552857Y-80222142D01*
X264410000Y-80293571D01*
X264338571Y-80436428D01*
X264338571Y-80650714D01*
X264267142Y-80793571D01*
X264124285Y-80865000D01*
X264052857Y-80865000D01*
X263910000Y-80793571D01*
X263838571Y-80650714D01*
X263838571Y-80436428D01*
X263910000Y-80293571D01*
D11*
X246253095Y-53475000D02*
X246157857Y-53427380D01*
X246015000Y-53427380D01*
X245872142Y-53475000D01*
X245776904Y-53570238D01*
X245729285Y-53665476D01*
X245681666Y-53855952D01*
X245681666Y-53998809D01*
X245729285Y-54189285D01*
X245776904Y-54284523D01*
X245872142Y-54379761D01*
X246015000Y-54427380D01*
X246110238Y-54427380D01*
X246253095Y-54379761D01*
X246300714Y-54332142D01*
X246300714Y-53998809D01*
X246110238Y-53998809D01*
X246729285Y-54427380D02*
X246729285Y-53427380D01*
X247300714Y-54427380D01*
X247300714Y-53427380D01*
X247776904Y-54427380D02*
X247776904Y-53427380D01*
X248015000Y-53427380D01*
X248157857Y-53475000D01*
X248253095Y-53570238D01*
X248300714Y-53665476D01*
X248348333Y-53855952D01*
X248348333Y-53998809D01*
X248300714Y-54189285D01*
X248253095Y-54284523D01*
X248157857Y-54379761D01*
X248015000Y-54427380D01*
X247776904Y-54427380D01*
X246348333Y-51887380D02*
X246015000Y-51411190D01*
X245776904Y-51887380D02*
X245776904Y-50887380D01*
X246157857Y-50887380D01*
X246253095Y-50935000D01*
X246300714Y-50982619D01*
X246348333Y-51077857D01*
X246348333Y-51220714D01*
X246300714Y-51315952D01*
X246253095Y-51363571D01*
X246157857Y-51411190D01*
X245776904Y-51411190D01*
X246681666Y-50887380D02*
X247348333Y-51887380D01*
X247348333Y-50887380D02*
X246681666Y-51887380D01*
X247729285Y-51887380D02*
X247729285Y-50887380D01*
X247967380Y-50887380D01*
X248110238Y-50935000D01*
X248205476Y-51030238D01*
X248253095Y-51125476D01*
X248300714Y-51315952D01*
X248300714Y-51458809D01*
X248253095Y-51649285D01*
X248205476Y-51744523D01*
X248110238Y-51839761D01*
X247967380Y-51887380D01*
X247729285Y-51887380D01*
X245753095Y-48347380D02*
X246324523Y-48347380D01*
X246038809Y-49347380D02*
X246038809Y-48347380D01*
X246562619Y-48347380D02*
X247229285Y-49347380D01*
X247229285Y-48347380D02*
X246562619Y-49347380D01*
X247610238Y-49347380D02*
X247610238Y-48347380D01*
X247848333Y-48347380D01*
X247991190Y-48395000D01*
X248086428Y-48490238D01*
X248134047Y-48585476D01*
X248181666Y-48775952D01*
X248181666Y-48918809D01*
X248134047Y-49109285D01*
X248086428Y-49204523D01*
X247991190Y-49299761D01*
X247848333Y-49347380D01*
X247610238Y-49347380D01*
X246253095Y-78240000D02*
X246157857Y-78192380D01*
X246015000Y-78192380D01*
X245872142Y-78240000D01*
X245776904Y-78335238D01*
X245729285Y-78430476D01*
X245681666Y-78620952D01*
X245681666Y-78763809D01*
X245729285Y-78954285D01*
X245776904Y-79049523D01*
X245872142Y-79144761D01*
X246015000Y-79192380D01*
X246110238Y-79192380D01*
X246253095Y-79144761D01*
X246300714Y-79097142D01*
X246300714Y-78763809D01*
X246110238Y-78763809D01*
X246729285Y-79192380D02*
X246729285Y-78192380D01*
X247300714Y-79192380D01*
X247300714Y-78192380D01*
X247776904Y-79192380D02*
X247776904Y-78192380D01*
X248015000Y-78192380D01*
X248157857Y-78240000D01*
X248253095Y-78335238D01*
X248300714Y-78430476D01*
X248348333Y-78620952D01*
X248348333Y-78763809D01*
X248300714Y-78954285D01*
X248253095Y-79049523D01*
X248157857Y-79144761D01*
X248015000Y-79192380D01*
X247776904Y-79192380D01*
X246348333Y-76652380D02*
X246015000Y-76176190D01*
X245776904Y-76652380D02*
X245776904Y-75652380D01*
X246157857Y-75652380D01*
X246253095Y-75700000D01*
X246300714Y-75747619D01*
X246348333Y-75842857D01*
X246348333Y-75985714D01*
X246300714Y-76080952D01*
X246253095Y-76128571D01*
X246157857Y-76176190D01*
X245776904Y-76176190D01*
X246681666Y-75652380D02*
X247348333Y-76652380D01*
X247348333Y-75652380D02*
X246681666Y-76652380D01*
X247729285Y-76652380D02*
X247729285Y-75652380D01*
X247967380Y-75652380D01*
X248110238Y-75700000D01*
X248205476Y-75795238D01*
X248253095Y-75890476D01*
X248300714Y-76080952D01*
X248300714Y-76223809D01*
X248253095Y-76414285D01*
X248205476Y-76509523D01*
X248110238Y-76604761D01*
X247967380Y-76652380D01*
X247729285Y-76652380D01*
X245753095Y-73112380D02*
X246324523Y-73112380D01*
X246038809Y-74112380D02*
X246038809Y-73112380D01*
X246562619Y-73112380D02*
X247229285Y-74112380D01*
X247229285Y-73112380D02*
X246562619Y-74112380D01*
X247610238Y-74112380D02*
X247610238Y-73112380D01*
X247848333Y-73112380D01*
X247991190Y-73160000D01*
X248086428Y-73255238D01*
X248134047Y-73350476D01*
X248181666Y-73540952D01*
X248181666Y-73683809D01*
X248134047Y-73874285D01*
X248086428Y-73969523D01*
X247991190Y-74064761D01*
X247848333Y-74112380D01*
X247610238Y-74112380D01*
X246253095Y-103005000D02*
X246157857Y-102957380D01*
X246015000Y-102957380D01*
X245872142Y-103005000D01*
X245776904Y-103100238D01*
X245729285Y-103195476D01*
X245681666Y-103385952D01*
X245681666Y-103528809D01*
X245729285Y-103719285D01*
X245776904Y-103814523D01*
X245872142Y-103909761D01*
X246015000Y-103957380D01*
X246110238Y-103957380D01*
X246253095Y-103909761D01*
X246300714Y-103862142D01*
X246300714Y-103528809D01*
X246110238Y-103528809D01*
X246729285Y-103957380D02*
X246729285Y-102957380D01*
X247300714Y-103957380D01*
X247300714Y-102957380D01*
X247776904Y-103957380D02*
X247776904Y-102957380D01*
X248015000Y-102957380D01*
X248157857Y-103005000D01*
X248253095Y-103100238D01*
X248300714Y-103195476D01*
X248348333Y-103385952D01*
X248348333Y-103528809D01*
X248300714Y-103719285D01*
X248253095Y-103814523D01*
X248157857Y-103909761D01*
X248015000Y-103957380D01*
X247776904Y-103957380D01*
X246348333Y-101417380D02*
X246015000Y-100941190D01*
X245776904Y-101417380D02*
X245776904Y-100417380D01*
X246157857Y-100417380D01*
X246253095Y-100465000D01*
X246300714Y-100512619D01*
X246348333Y-100607857D01*
X246348333Y-100750714D01*
X246300714Y-100845952D01*
X246253095Y-100893571D01*
X246157857Y-100941190D01*
X245776904Y-100941190D01*
X246681666Y-100417380D02*
X247348333Y-101417380D01*
X247348333Y-100417380D02*
X246681666Y-101417380D01*
X247729285Y-101417380D02*
X247729285Y-100417380D01*
X247967380Y-100417380D01*
X248110238Y-100465000D01*
X248205476Y-100560238D01*
X248253095Y-100655476D01*
X248300714Y-100845952D01*
X248300714Y-100988809D01*
X248253095Y-101179285D01*
X248205476Y-101274523D01*
X248110238Y-101369761D01*
X247967380Y-101417380D01*
X247729285Y-101417380D01*
X245753095Y-97877380D02*
X246324523Y-97877380D01*
X246038809Y-98877380D02*
X246038809Y-97877380D01*
X246562619Y-97877380D02*
X247229285Y-98877380D01*
X247229285Y-97877380D02*
X246562619Y-98877380D01*
X247610238Y-98877380D02*
X247610238Y-97877380D01*
X247848333Y-97877380D01*
X247991190Y-97925000D01*
X248086428Y-98020238D01*
X248134047Y-98115476D01*
X248181666Y-98305952D01*
X248181666Y-98448809D01*
X248134047Y-98639285D01*
X248086428Y-98734523D01*
X247991190Y-98829761D01*
X247848333Y-98877380D01*
X247610238Y-98877380D01*
X227465000Y-112521904D02*
X227417380Y-112617142D01*
X227417380Y-112760000D01*
X227465000Y-112902857D01*
X227560238Y-112998095D01*
X227655476Y-113045714D01*
X227845952Y-113093333D01*
X227988809Y-113093333D01*
X228179285Y-113045714D01*
X228274523Y-112998095D01*
X228369761Y-112902857D01*
X228417380Y-112760000D01*
X228417380Y-112664761D01*
X228369761Y-112521904D01*
X228322142Y-112474285D01*
X227988809Y-112474285D01*
X227988809Y-112664761D01*
X228417380Y-112045714D02*
X227417380Y-112045714D01*
X228417380Y-111474285D01*
X227417380Y-111474285D01*
X228417380Y-110998095D02*
X227417380Y-110998095D01*
X227417380Y-110760000D01*
X227465000Y-110617142D01*
X227560238Y-110521904D01*
X227655476Y-110474285D01*
X227845952Y-110426666D01*
X227988809Y-110426666D01*
X228179285Y-110474285D01*
X228274523Y-110521904D01*
X228369761Y-110617142D01*
X228417380Y-110760000D01*
X228417380Y-110998095D01*
X227465000Y-87756904D02*
X227417380Y-87852142D01*
X227417380Y-87995000D01*
X227465000Y-88137857D01*
X227560238Y-88233095D01*
X227655476Y-88280714D01*
X227845952Y-88328333D01*
X227988809Y-88328333D01*
X228179285Y-88280714D01*
X228274523Y-88233095D01*
X228369761Y-88137857D01*
X228417380Y-87995000D01*
X228417380Y-87899761D01*
X228369761Y-87756904D01*
X228322142Y-87709285D01*
X227988809Y-87709285D01*
X227988809Y-87899761D01*
X228417380Y-87280714D02*
X227417380Y-87280714D01*
X228417380Y-86709285D01*
X227417380Y-86709285D01*
X228417380Y-86233095D02*
X227417380Y-86233095D01*
X227417380Y-85995000D01*
X227465000Y-85852142D01*
X227560238Y-85756904D01*
X227655476Y-85709285D01*
X227845952Y-85661666D01*
X227988809Y-85661666D01*
X228179285Y-85709285D01*
X228274523Y-85756904D01*
X228369761Y-85852142D01*
X228417380Y-85995000D01*
X228417380Y-86233095D01*
X246348333Y-126182380D02*
X246015000Y-125706190D01*
X245776904Y-126182380D02*
X245776904Y-125182380D01*
X246157857Y-125182380D01*
X246253095Y-125230000D01*
X246300714Y-125277619D01*
X246348333Y-125372857D01*
X246348333Y-125515714D01*
X246300714Y-125610952D01*
X246253095Y-125658571D01*
X246157857Y-125706190D01*
X245776904Y-125706190D01*
X246681666Y-125182380D02*
X247348333Y-126182380D01*
X247348333Y-125182380D02*
X246681666Y-126182380D01*
X247729285Y-126182380D02*
X247729285Y-125182380D01*
X247967380Y-125182380D01*
X248110238Y-125230000D01*
X248205476Y-125325238D01*
X248253095Y-125420476D01*
X248300714Y-125610952D01*
X248300714Y-125753809D01*
X248253095Y-125944285D01*
X248205476Y-126039523D01*
X248110238Y-126134761D01*
X247967380Y-126182380D01*
X247729285Y-126182380D01*
X246253095Y-127770000D02*
X246157857Y-127722380D01*
X246015000Y-127722380D01*
X245872142Y-127770000D01*
X245776904Y-127865238D01*
X245729285Y-127960476D01*
X245681666Y-128150952D01*
X245681666Y-128293809D01*
X245729285Y-128484285D01*
X245776904Y-128579523D01*
X245872142Y-128674761D01*
X246015000Y-128722380D01*
X246110238Y-128722380D01*
X246253095Y-128674761D01*
X246300714Y-128627142D01*
X246300714Y-128293809D01*
X246110238Y-128293809D01*
X246729285Y-128722380D02*
X246729285Y-127722380D01*
X247300714Y-128722380D01*
X247300714Y-127722380D01*
X247776904Y-128722380D02*
X247776904Y-127722380D01*
X248015000Y-127722380D01*
X248157857Y-127770000D01*
X248253095Y-127865238D01*
X248300714Y-127960476D01*
X248348333Y-128150952D01*
X248348333Y-128293809D01*
X248300714Y-128484285D01*
X248253095Y-128579523D01*
X248157857Y-128674761D01*
X248015000Y-128722380D01*
X247776904Y-128722380D01*
X245753095Y-122642380D02*
X246324523Y-122642380D01*
X246038809Y-123642380D02*
X246038809Y-122642380D01*
X246562619Y-122642380D02*
X247229285Y-123642380D01*
X247229285Y-122642380D02*
X246562619Y-123642380D01*
X247610238Y-123642380D02*
X247610238Y-122642380D01*
X247848333Y-122642380D01*
X247991190Y-122690000D01*
X248086428Y-122785238D01*
X248134047Y-122880476D01*
X248181666Y-123070952D01*
X248181666Y-123213809D01*
X248134047Y-123404285D01*
X248086428Y-123499523D01*
X247991190Y-123594761D01*
X247848333Y-123642380D01*
X247610238Y-123642380D01*
X227465000Y-137286904D02*
X227417380Y-137382142D01*
X227417380Y-137525000D01*
X227465000Y-137667857D01*
X227560238Y-137763095D01*
X227655476Y-137810714D01*
X227845952Y-137858333D01*
X227988809Y-137858333D01*
X228179285Y-137810714D01*
X228274523Y-137763095D01*
X228369761Y-137667857D01*
X228417380Y-137525000D01*
X228417380Y-137429761D01*
X228369761Y-137286904D01*
X228322142Y-137239285D01*
X227988809Y-137239285D01*
X227988809Y-137429761D01*
X228417380Y-136810714D02*
X227417380Y-136810714D01*
X228417380Y-136239285D01*
X227417380Y-136239285D01*
X228417380Y-135763095D02*
X227417380Y-135763095D01*
X227417380Y-135525000D01*
X227465000Y-135382142D01*
X227560238Y-135286904D01*
X227655476Y-135239285D01*
X227845952Y-135191666D01*
X227988809Y-135191666D01*
X228179285Y-135239285D01*
X228274523Y-135286904D01*
X228369761Y-135382142D01*
X228417380Y-135525000D01*
X228417380Y-135763095D01*
D12*
X57090000Y-117535000D02*
X57090000Y-116205000D01*
X58420000Y-117535000D02*
X57090000Y-117535000D01*
X59690000Y-117535000D02*
X59690000Y-114875000D01*
X59690000Y-114875000D02*
X59750000Y-114875000D01*
X59690000Y-117535000D02*
X59750000Y-117535000D01*
X59750000Y-117535000D02*
X59750000Y-114875000D01*
X229005000Y-53975000D02*
X229775000Y-53975000D01*
X237085000Y-53975000D02*
X236315000Y-53975000D01*
X229775000Y-55345000D02*
X236315000Y-55345000D01*
X229775000Y-52605000D02*
X229775000Y-55345000D01*
X236315000Y-52605000D02*
X229775000Y-52605000D01*
X236315000Y-55345000D02*
X236315000Y-52605000D01*
X229005000Y-48895000D02*
X229775000Y-48895000D01*
X237085000Y-48895000D02*
X236315000Y-48895000D01*
X229775000Y-50265000D02*
X236315000Y-50265000D01*
X229775000Y-47525000D02*
X229775000Y-50265000D01*
X236315000Y-47525000D02*
X229775000Y-47525000D01*
X236315000Y-50265000D02*
X236315000Y-47525000D01*
X229005000Y-78740000D02*
X229775000Y-78740000D01*
X237085000Y-78740000D02*
X236315000Y-78740000D01*
X229775000Y-80110000D02*
X236315000Y-80110000D01*
X229775000Y-77370000D02*
X229775000Y-80110000D01*
X236315000Y-77370000D02*
X229775000Y-77370000D01*
X236315000Y-80110000D02*
X236315000Y-77370000D01*
X229005000Y-73660000D02*
X229775000Y-73660000D01*
X237085000Y-73660000D02*
X236315000Y-73660000D01*
X229775000Y-75030000D02*
X236315000Y-75030000D01*
X229775000Y-72290000D02*
X229775000Y-75030000D01*
X236315000Y-72290000D02*
X229775000Y-72290000D01*
X236315000Y-75030000D02*
X236315000Y-72290000D01*
X229005000Y-103505000D02*
X229775000Y-103505000D01*
X237085000Y-103505000D02*
X236315000Y-103505000D01*
X229775000Y-104875000D02*
X236315000Y-104875000D01*
X229775000Y-102135000D02*
X229775000Y-104875000D01*
X236315000Y-102135000D02*
X229775000Y-102135000D01*
X236315000Y-104875000D02*
X236315000Y-102135000D01*
X229005000Y-98425000D02*
X229775000Y-98425000D01*
X237085000Y-98425000D02*
X236315000Y-98425000D01*
X229775000Y-99795000D02*
X236315000Y-99795000D01*
X229775000Y-97055000D02*
X229775000Y-99795000D01*
X236315000Y-97055000D02*
X229775000Y-97055000D01*
X236315000Y-99795000D02*
X236315000Y-97055000D01*
X229005000Y-128270000D02*
X229775000Y-128270000D01*
X237085000Y-128270000D02*
X236315000Y-128270000D01*
X229775000Y-129640000D02*
X236315000Y-129640000D01*
X229775000Y-126900000D02*
X229775000Y-129640000D01*
X236315000Y-126900000D02*
X229775000Y-126900000D01*
X236315000Y-129640000D02*
X236315000Y-126900000D01*
X229005000Y-123190000D02*
X229775000Y-123190000D01*
X237085000Y-123190000D02*
X236315000Y-123190000D01*
X229775000Y-124560000D02*
X236315000Y-124560000D01*
X229775000Y-121820000D02*
X229775000Y-124560000D01*
X236315000Y-121820000D02*
X229775000Y-121820000D01*
X236315000Y-124560000D02*
X236315000Y-121820000D01*
X241875000Y-47565000D02*
X243205000Y-47565000D01*
X241875000Y-48895000D02*
X241875000Y-47565000D01*
X241875000Y-50165000D02*
X244535000Y-50165000D01*
X244535000Y-50165000D02*
X244535000Y-55305000D01*
X241875000Y-50165000D02*
X241875000Y-55305000D01*
X241875000Y-55305000D02*
X244535000Y-55305000D01*
X241875000Y-72330000D02*
X243205000Y-72330000D01*
X241875000Y-73660000D02*
X241875000Y-72330000D01*
X241875000Y-74930000D02*
X244535000Y-74930000D01*
X244535000Y-74930000D02*
X244535000Y-80070000D01*
X241875000Y-74930000D02*
X241875000Y-80070000D01*
X241875000Y-80070000D02*
X244535000Y-80070000D01*
X241875000Y-97095000D02*
X243205000Y-97095000D01*
X241875000Y-98425000D02*
X241875000Y-97095000D01*
X241875000Y-99695000D02*
X244535000Y-99695000D01*
X244535000Y-99695000D02*
X244535000Y-104835000D01*
X241875000Y-99695000D02*
X241875000Y-104835000D01*
X241875000Y-104835000D02*
X244535000Y-104835000D01*
X241875000Y-121860000D02*
X243205000Y-121860000D01*
X241875000Y-123190000D02*
X241875000Y-121860000D01*
X241875000Y-124460000D02*
X244535000Y-124460000D01*
X244535000Y-124460000D02*
X244535000Y-129600000D01*
X241875000Y-124460000D02*
X241875000Y-129600000D01*
X241875000Y-129600000D02*
X244535000Y-129600000D01*
X147665000Y-114840000D02*
X147220000Y-114840000D01*
X149960000Y-114840000D02*
X149515000Y-114840000D01*
X147665000Y-108600000D02*
X147220000Y-108600000D01*
X149960000Y-108600000D02*
X149515000Y-108600000D01*
X147220000Y-108600000D02*
X147220000Y-114840000D01*
X149960000Y-108600000D02*
X149960000Y-114840000D01*
X165445000Y-114840000D02*
X165000000Y-114840000D01*
X167740000Y-114840000D02*
X167295000Y-114840000D01*
X165445000Y-108600000D02*
X165000000Y-108600000D01*
X167740000Y-108600000D02*
X167295000Y-108600000D01*
X165000000Y-108600000D02*
X165000000Y-114840000D01*
X167740000Y-108600000D02*
X167740000Y-114840000D01*
X149960000Y-59070000D02*
X149960000Y-65310000D01*
X147220000Y-59070000D02*
X147220000Y-65310000D01*
X149960000Y-59070000D02*
X149515000Y-59070000D01*
X147665000Y-59070000D02*
X147220000Y-59070000D01*
X149960000Y-65310000D02*
X149515000Y-65310000D01*
X147665000Y-65310000D02*
X147220000Y-65310000D01*
X165445000Y-65310000D02*
X165000000Y-65310000D01*
X167740000Y-65310000D02*
X167295000Y-65310000D01*
X165445000Y-59070000D02*
X165000000Y-59070000D01*
X167740000Y-59070000D02*
X167295000Y-59070000D01*
X165000000Y-59070000D02*
X165000000Y-65310000D01*
X167740000Y-59070000D02*
X167740000Y-65310000D01*
X72490000Y-108600000D02*
X72490000Y-114840000D01*
X69750000Y-108600000D02*
X69750000Y-114840000D01*
X72490000Y-108600000D02*
X72045000Y-108600000D01*
X70195000Y-108600000D02*
X69750000Y-108600000D01*
X72490000Y-114840000D02*
X72045000Y-114840000D01*
X70195000Y-114840000D02*
X69750000Y-114840000D01*
X87975000Y-114840000D02*
X87530000Y-114840000D01*
X90270000Y-114840000D02*
X89825000Y-114840000D01*
X87975000Y-108600000D02*
X87530000Y-108600000D01*
X90270000Y-108600000D02*
X89825000Y-108600000D01*
X87530000Y-108600000D02*
X87530000Y-114840000D01*
X90270000Y-108600000D02*
X90270000Y-114840000D01*
X72490000Y-59150000D02*
X72490000Y-65390000D01*
X69750000Y-59150000D02*
X69750000Y-65390000D01*
X72490000Y-59150000D02*
X72045000Y-59150000D01*
X70195000Y-59150000D02*
X69750000Y-59150000D01*
X72490000Y-65390000D02*
X72045000Y-65390000D01*
X70195000Y-65390000D02*
X69750000Y-65390000D01*
X87975000Y-65390000D02*
X87530000Y-65390000D01*
X90270000Y-65390000D02*
X89825000Y-65390000D01*
X87975000Y-59150000D02*
X87530000Y-59150000D01*
X90270000Y-59150000D02*
X89825000Y-59150000D01*
X87530000Y-59150000D02*
X87530000Y-65390000D01*
X90270000Y-59150000D02*
X90270000Y-65390000D01*
X45180000Y-66385000D02*
X45180000Y-65940000D01*
X45180000Y-68680000D02*
X45180000Y-68235000D01*
X51420000Y-66385000D02*
X51420000Y-65940000D01*
X51420000Y-68680000D02*
X51420000Y-68235000D01*
X51420000Y-65940000D02*
X45180000Y-65940000D01*
X51420000Y-68680000D02*
X45180000Y-68680000D01*
X45180000Y-94325000D02*
X45180000Y-93880000D01*
X45180000Y-96620000D02*
X45180000Y-96175000D01*
X51420000Y-94325000D02*
X51420000Y-93880000D01*
X51420000Y-96620000D02*
X51420000Y-96175000D01*
X51420000Y-93880000D02*
X45180000Y-93880000D01*
X51420000Y-96620000D02*
X45180000Y-96620000D01*
X198020000Y-130080000D02*
X198020000Y-123840000D01*
X200760000Y-130080000D02*
X200760000Y-123840000D01*
X198020000Y-130080000D02*
X198465000Y-130080000D01*
X200315000Y-130080000D02*
X200760000Y-130080000D01*
X198020000Y-123840000D02*
X198465000Y-123840000D01*
X200315000Y-123840000D02*
X200760000Y-123840000D01*
X198020000Y-80630000D02*
X198020000Y-74390000D01*
X200760000Y-80630000D02*
X200760000Y-74390000D01*
X198020000Y-80630000D02*
X198465000Y-80630000D01*
X200315000Y-80630000D02*
X200760000Y-80630000D01*
X198020000Y-74390000D02*
X198465000Y-74390000D01*
X200315000Y-74390000D02*
X200760000Y-74390000D01*
X120550000Y-130160000D02*
X120550000Y-123920000D01*
X123290000Y-130160000D02*
X123290000Y-123920000D01*
X120550000Y-130160000D02*
X120995000Y-130160000D01*
X122845000Y-130160000D02*
X123290000Y-130160000D01*
X120550000Y-123920000D02*
X120995000Y-123920000D01*
X122845000Y-123920000D02*
X123290000Y-123920000D01*
X120550000Y-80630000D02*
X120550000Y-74390000D01*
X123290000Y-80630000D02*
X123290000Y-74390000D01*
X120550000Y-80630000D02*
X120995000Y-80630000D01*
X122845000Y-80630000D02*
X123290000Y-80630000D01*
X120550000Y-74390000D02*
X120995000Y-74390000D01*
X122845000Y-74390000D02*
X123290000Y-74390000D01*
X22422000Y-57337000D02*
X31052000Y-57337000D01*
X22422000Y-57455095D02*
X31052000Y-57455095D01*
X22422000Y-57573190D02*
X31052000Y-57573190D01*
X22422000Y-57691285D02*
X31052000Y-57691285D01*
X22422000Y-57809380D02*
X31052000Y-57809380D01*
X22422000Y-57927475D02*
X31052000Y-57927475D01*
X22422000Y-58045570D02*
X31052000Y-58045570D01*
X22422000Y-58163665D02*
X31052000Y-58163665D01*
X22422000Y-58281760D02*
X31052000Y-58281760D01*
X22422000Y-58399855D02*
X31052000Y-58399855D01*
X22422000Y-58517950D02*
X31052000Y-58517950D01*
X22422000Y-58636045D02*
X31052000Y-58636045D01*
X22422000Y-58754140D02*
X31052000Y-58754140D01*
X22422000Y-58872235D02*
X31052000Y-58872235D01*
X22422000Y-58990330D02*
X31052000Y-58990330D01*
X22422000Y-59108425D02*
X31052000Y-59108425D01*
X22422000Y-59226520D02*
X31052000Y-59226520D01*
X22422000Y-59344615D02*
X31052000Y-59344615D01*
X22422000Y-59462710D02*
X31052000Y-59462710D01*
X22422000Y-59580805D02*
X31052000Y-59580805D01*
X22422000Y-59698900D02*
X31052000Y-59698900D01*
X31052000Y-58187000D02*
X31462000Y-58187000D01*
X33562000Y-58187000D02*
X33942000Y-58187000D01*
X31052000Y-58907000D02*
X31462000Y-58907000D01*
X33562000Y-58907000D02*
X33942000Y-58907000D01*
X31052000Y-60727000D02*
X31462000Y-60727000D01*
X33562000Y-60727000D02*
X34002000Y-60727000D01*
X31052000Y-61447000D02*
X31462000Y-61447000D01*
X33562000Y-61447000D02*
X34002000Y-61447000D01*
X31052000Y-63267000D02*
X31462000Y-63267000D01*
X33562000Y-63267000D02*
X34002000Y-63267000D01*
X31052000Y-63987000D02*
X31462000Y-63987000D01*
X33562000Y-63987000D02*
X34002000Y-63987000D01*
X31052000Y-65807000D02*
X31462000Y-65807000D01*
X33562000Y-65807000D02*
X34002000Y-65807000D01*
X31052000Y-66527000D02*
X31462000Y-66527000D01*
X33562000Y-66527000D02*
X34002000Y-66527000D01*
X31052000Y-68347000D02*
X31462000Y-68347000D01*
X33562000Y-68347000D02*
X34002000Y-68347000D01*
X31052000Y-69067000D02*
X31462000Y-69067000D01*
X33562000Y-69067000D02*
X34002000Y-69067000D01*
X31052000Y-70887000D02*
X31462000Y-70887000D01*
X33562000Y-70887000D02*
X34002000Y-70887000D01*
X31052000Y-71607000D02*
X31462000Y-71607000D01*
X33562000Y-71607000D02*
X34002000Y-71607000D01*
X31052000Y-73427000D02*
X31462000Y-73427000D01*
X33562000Y-73427000D02*
X34002000Y-73427000D01*
X31052000Y-74147000D02*
X31462000Y-74147000D01*
X33562000Y-74147000D02*
X34002000Y-74147000D01*
X31052000Y-75967000D02*
X31462000Y-75967000D01*
X33562000Y-75967000D02*
X34002000Y-75967000D01*
X31052000Y-76687000D02*
X31462000Y-76687000D01*
X33562000Y-76687000D02*
X34002000Y-76687000D01*
X31052000Y-78507000D02*
X31462000Y-78507000D01*
X33562000Y-78507000D02*
X34002000Y-78507000D01*
X31052000Y-79227000D02*
X31462000Y-79227000D01*
X33562000Y-79227000D02*
X34002000Y-79227000D01*
X31052000Y-81047000D02*
X31462000Y-81047000D01*
X33562000Y-81047000D02*
X34002000Y-81047000D01*
X31052000Y-81767000D02*
X31462000Y-81767000D01*
X33562000Y-81767000D02*
X34002000Y-81767000D01*
X31052000Y-83587000D02*
X31462000Y-83587000D01*
X33562000Y-83587000D02*
X34002000Y-83587000D01*
X31052000Y-84307000D02*
X31462000Y-84307000D01*
X33562000Y-84307000D02*
X34002000Y-84307000D01*
X31052000Y-86127000D02*
X31462000Y-86127000D01*
X33562000Y-86127000D02*
X34002000Y-86127000D01*
X31052000Y-86847000D02*
X31462000Y-86847000D01*
X33562000Y-86847000D02*
X34002000Y-86847000D01*
X31052000Y-88667000D02*
X31462000Y-88667000D01*
X33562000Y-88667000D02*
X34002000Y-88667000D01*
X31052000Y-89387000D02*
X31462000Y-89387000D01*
X33562000Y-89387000D02*
X34002000Y-89387000D01*
X31052000Y-91207000D02*
X31462000Y-91207000D01*
X33562000Y-91207000D02*
X34002000Y-91207000D01*
X31052000Y-91927000D02*
X31462000Y-91927000D01*
X33562000Y-91927000D02*
X34002000Y-91927000D01*
X31052000Y-93747000D02*
X31462000Y-93747000D01*
X33562000Y-93747000D02*
X34002000Y-93747000D01*
X31052000Y-94467000D02*
X31462000Y-94467000D01*
X33562000Y-94467000D02*
X34002000Y-94467000D01*
X31052000Y-96287000D02*
X31462000Y-96287000D01*
X33562000Y-96287000D02*
X34002000Y-96287000D01*
X31052000Y-97007000D02*
X31462000Y-97007000D01*
X33562000Y-97007000D02*
X34002000Y-97007000D01*
X31052000Y-98827000D02*
X31462000Y-98827000D01*
X33562000Y-98827000D02*
X34002000Y-98827000D01*
X31052000Y-99547000D02*
X31462000Y-99547000D01*
X33562000Y-99547000D02*
X34002000Y-99547000D01*
X31052000Y-101367000D02*
X31462000Y-101367000D01*
X33562000Y-101367000D02*
X34002000Y-101367000D01*
X31052000Y-102087000D02*
X31462000Y-102087000D01*
X33562000Y-102087000D02*
X34002000Y-102087000D01*
X31052000Y-103907000D02*
X31462000Y-103907000D01*
X33562000Y-103907000D02*
X34002000Y-103907000D01*
X31052000Y-104627000D02*
X31462000Y-104627000D01*
X33562000Y-104627000D02*
X34002000Y-104627000D01*
X31052000Y-106447000D02*
X31462000Y-106447000D01*
X33562000Y-106447000D02*
X34002000Y-106447000D01*
X31052000Y-107167000D02*
X31462000Y-107167000D01*
X33562000Y-107167000D02*
X34002000Y-107167000D01*
X31052000Y-108987000D02*
X31462000Y-108987000D01*
X33562000Y-108987000D02*
X34002000Y-108987000D01*
X31052000Y-109707000D02*
X31462000Y-109707000D01*
X33562000Y-109707000D02*
X34002000Y-109707000D01*
X31052000Y-111527000D02*
X31462000Y-111527000D01*
X33562000Y-111527000D02*
X34002000Y-111527000D01*
X31052000Y-112247000D02*
X31462000Y-112247000D01*
X33562000Y-112247000D02*
X34002000Y-112247000D01*
X31052000Y-114067000D02*
X31462000Y-114067000D01*
X33562000Y-114067000D02*
X34002000Y-114067000D01*
X31052000Y-114787000D02*
X31462000Y-114787000D01*
X33562000Y-114787000D02*
X34002000Y-114787000D01*
X31052000Y-116607000D02*
X31462000Y-116607000D01*
X33562000Y-116607000D02*
X34002000Y-116607000D01*
X31052000Y-117327000D02*
X31462000Y-117327000D01*
X33562000Y-117327000D02*
X34002000Y-117327000D01*
X31052000Y-119147000D02*
X31462000Y-119147000D01*
X33562000Y-119147000D02*
X34002000Y-119147000D01*
X31052000Y-119867000D02*
X31462000Y-119867000D01*
X33562000Y-119867000D02*
X34002000Y-119867000D01*
X31052000Y-121687000D02*
X31462000Y-121687000D01*
X33562000Y-121687000D02*
X34002000Y-121687000D01*
X31052000Y-122407000D02*
X31462000Y-122407000D01*
X33562000Y-122407000D02*
X34002000Y-122407000D01*
X31052000Y-124227000D02*
X31462000Y-124227000D01*
X33562000Y-124227000D02*
X34002000Y-124227000D01*
X31052000Y-124947000D02*
X31462000Y-124947000D01*
X33562000Y-124947000D02*
X34002000Y-124947000D01*
X31052000Y-126767000D02*
X31462000Y-126767000D01*
X33562000Y-126767000D02*
X34002000Y-126767000D01*
X31052000Y-127487000D02*
X31462000Y-127487000D01*
X33562000Y-127487000D02*
X34002000Y-127487000D01*
X31052000Y-129307000D02*
X31462000Y-129307000D01*
X33562000Y-129307000D02*
X34002000Y-129307000D01*
X31052000Y-130027000D02*
X31462000Y-130027000D01*
X33562000Y-130027000D02*
X34002000Y-130027000D01*
X31052000Y-131847000D02*
X31462000Y-131847000D01*
X33562000Y-131847000D02*
X34002000Y-131847000D01*
X31052000Y-132567000D02*
X31462000Y-132567000D01*
X33562000Y-132567000D02*
X34002000Y-132567000D01*
X22422000Y-59817000D02*
X31052000Y-59817000D01*
X22422000Y-62357000D02*
X31052000Y-62357000D01*
X22422000Y-64897000D02*
X31052000Y-64897000D01*
X22422000Y-67437000D02*
X31052000Y-67437000D01*
X22422000Y-69977000D02*
X31052000Y-69977000D01*
X22422000Y-72517000D02*
X31052000Y-72517000D01*
X22422000Y-75057000D02*
X31052000Y-75057000D01*
X22422000Y-77597000D02*
X31052000Y-77597000D01*
X22422000Y-80137000D02*
X31052000Y-80137000D01*
X22422000Y-82677000D02*
X31052000Y-82677000D01*
X22422000Y-85217000D02*
X31052000Y-85217000D01*
X22422000Y-87757000D02*
X31052000Y-87757000D01*
X22422000Y-90297000D02*
X31052000Y-90297000D01*
X22422000Y-92837000D02*
X31052000Y-92837000D01*
X22422000Y-95377000D02*
X31052000Y-95377000D01*
X22422000Y-97917000D02*
X31052000Y-97917000D01*
X22422000Y-100457000D02*
X31052000Y-100457000D01*
X22422000Y-102997000D02*
X31052000Y-102997000D01*
X22422000Y-105537000D02*
X31052000Y-105537000D01*
X22422000Y-108077000D02*
X31052000Y-108077000D01*
X22422000Y-110617000D02*
X31052000Y-110617000D01*
X22422000Y-113157000D02*
X31052000Y-113157000D01*
X22422000Y-115697000D02*
X31052000Y-115697000D01*
X22422000Y-118237000D02*
X31052000Y-118237000D01*
X22422000Y-120777000D02*
X31052000Y-120777000D01*
X22422000Y-123317000D02*
X31052000Y-123317000D01*
X22422000Y-125857000D02*
X31052000Y-125857000D01*
X22422000Y-128397000D02*
X31052000Y-128397000D01*
X22422000Y-130937000D02*
X31052000Y-130937000D01*
X22422000Y-57217000D02*
X31052000Y-57217000D01*
X31052000Y-57217000D02*
X31052000Y-133537000D01*
X22422000Y-133537000D02*
X31052000Y-133537000D01*
X22422000Y-57217000D02*
X22422000Y-133537000D01*
X36162000Y-57217000D02*
X36162000Y-58547000D01*
X35052000Y-57217000D02*
X36162000Y-57217000D01*
X243265000Y-134045000D02*
X243265000Y-131385000D01*
X230505000Y-134045000D02*
X243265000Y-134045000D01*
X230505000Y-131385000D02*
X243265000Y-131385000D01*
X230505000Y-134045000D02*
X230505000Y-131385000D01*
X229235000Y-134045000D02*
X227905000Y-134045000D01*
X227905000Y-134045000D02*
X227905000Y-132715000D01*
X243265000Y-109280000D02*
X243265000Y-106620000D01*
X230505000Y-109280000D02*
X243265000Y-109280000D01*
X230505000Y-106620000D02*
X243265000Y-106620000D01*
X230505000Y-109280000D02*
X230505000Y-106620000D01*
X229235000Y-109280000D02*
X227905000Y-109280000D01*
X227905000Y-109280000D02*
X227905000Y-107950000D01*
X227905000Y-84515000D02*
X227905000Y-83185000D01*
X229235000Y-84515000D02*
X227905000Y-84515000D01*
X230505000Y-84515000D02*
X230505000Y-81855000D01*
X230505000Y-81855000D02*
X243265000Y-81855000D01*
X230505000Y-84515000D02*
X243265000Y-84515000D01*
X243265000Y-84515000D02*
X243265000Y-81855000D01*
X227905000Y-59750000D02*
X227905000Y-58420000D01*
X229235000Y-59750000D02*
X227905000Y-59750000D01*
X230505000Y-59750000D02*
X230505000Y-57090000D01*
X230505000Y-57090000D02*
X243265000Y-57090000D01*
X230505000Y-59750000D02*
X243265000Y-59750000D01*
X243265000Y-59750000D02*
X243265000Y-57090000D01*
X132985000Y-106085000D02*
X132985000Y-103285000D01*
X132985000Y-103285000D02*
X134985000Y-103285000D01*
X134985000Y-103285000D02*
X134985000Y-106085000D01*
X134985000Y-106085000D02*
X132985000Y-106085000D01*
X132985000Y-98295000D02*
X134985000Y-98295000D01*
X132985000Y-101095000D02*
X132985000Y-98295000D01*
X134985000Y-101095000D02*
X132985000Y-101095000D01*
X134985000Y-98295000D02*
X134985000Y-101095000D01*
X127905000Y-106085000D02*
X127905000Y-103285000D01*
X127905000Y-103285000D02*
X129905000Y-103285000D01*
X129905000Y-103285000D02*
X129905000Y-106085000D01*
X129905000Y-106085000D02*
X127905000Y-106085000D01*
X127905000Y-98295000D02*
X129905000Y-98295000D01*
X127905000Y-101095000D02*
X127905000Y-98295000D01*
X129905000Y-101095000D02*
X127905000Y-101095000D01*
X129905000Y-98295000D02*
X129905000Y-101095000D01*
X233105000Y-136465000D02*
X230445000Y-136465000D01*
X233105000Y-139065000D02*
X233105000Y-136465000D01*
X230445000Y-139065000D02*
X230445000Y-136465000D01*
X233105000Y-139065000D02*
X230445000Y-139065000D01*
X233105000Y-140335000D02*
X233105000Y-141665000D01*
X233105000Y-141665000D02*
X231775000Y-141665000D01*
X235645000Y-141665000D02*
X234315000Y-141665000D01*
X235645000Y-140335000D02*
X235645000Y-141665000D01*
X235645000Y-139065000D02*
X232985000Y-139065000D01*
X232985000Y-139065000D02*
X232985000Y-136465000D01*
X235645000Y-139065000D02*
X235645000Y-136465000D01*
X235645000Y-136465000D02*
X232985000Y-136465000D01*
X238185000Y-141665000D02*
X236855000Y-141665000D01*
X238185000Y-140335000D02*
X238185000Y-141665000D01*
X238185000Y-139065000D02*
X235525000Y-139065000D01*
X235525000Y-139065000D02*
X235525000Y-136465000D01*
X238185000Y-139065000D02*
X238185000Y-136465000D01*
X238185000Y-136465000D02*
X235525000Y-136465000D01*
X240725000Y-141665000D02*
X239395000Y-141665000D01*
X240725000Y-140335000D02*
X240725000Y-141665000D01*
X240725000Y-139065000D02*
X238065000Y-139065000D01*
X238065000Y-139065000D02*
X238065000Y-136465000D01*
X240725000Y-139065000D02*
X240725000Y-136465000D01*
X240725000Y-136465000D02*
X238065000Y-136465000D01*
X243265000Y-136465000D02*
X240605000Y-136465000D01*
X243265000Y-139065000D02*
X243265000Y-136465000D01*
X240605000Y-139065000D02*
X240605000Y-136465000D01*
X243265000Y-139065000D02*
X240605000Y-139065000D01*
X243265000Y-140335000D02*
X243265000Y-141665000D01*
X243265000Y-141665000D02*
X241935000Y-141665000D01*
X233105000Y-115630000D02*
X231775000Y-115630000D01*
X233105000Y-114300000D02*
X233105000Y-115630000D01*
X233105000Y-113030000D02*
X230445000Y-113030000D01*
X230445000Y-113030000D02*
X230445000Y-110430000D01*
X233105000Y-113030000D02*
X233105000Y-110430000D01*
X233105000Y-110430000D02*
X230445000Y-110430000D01*
X235645000Y-110430000D02*
X232985000Y-110430000D01*
X235645000Y-113030000D02*
X235645000Y-110430000D01*
X232985000Y-113030000D02*
X232985000Y-110430000D01*
X235645000Y-113030000D02*
X232985000Y-113030000D01*
X235645000Y-114300000D02*
X235645000Y-115630000D01*
X235645000Y-115630000D02*
X234315000Y-115630000D01*
X238185000Y-115630000D02*
X236855000Y-115630000D01*
X238185000Y-114300000D02*
X238185000Y-115630000D01*
X238185000Y-113030000D02*
X235525000Y-113030000D01*
X235525000Y-113030000D02*
X235525000Y-110430000D01*
X238185000Y-113030000D02*
X238185000Y-110430000D01*
X238185000Y-110430000D02*
X235525000Y-110430000D01*
X240725000Y-110430000D02*
X238065000Y-110430000D01*
X240725000Y-113030000D02*
X240725000Y-110430000D01*
X238065000Y-113030000D02*
X238065000Y-110430000D01*
X240725000Y-113030000D02*
X238065000Y-113030000D01*
X240725000Y-114300000D02*
X240725000Y-115630000D01*
X240725000Y-115630000D02*
X239395000Y-115630000D01*
X243265000Y-115630000D02*
X241935000Y-115630000D01*
X243265000Y-114300000D02*
X243265000Y-115630000D01*
X243265000Y-113030000D02*
X240605000Y-113030000D01*
X240605000Y-113030000D02*
X240605000Y-110430000D01*
X243265000Y-113030000D02*
X243265000Y-110430000D01*
X243265000Y-110430000D02*
X240605000Y-110430000D01*
X233105000Y-85665000D02*
X230445000Y-85665000D01*
X233105000Y-88265000D02*
X233105000Y-85665000D01*
X230445000Y-88265000D02*
X230445000Y-85665000D01*
X233105000Y-88265000D02*
X230445000Y-88265000D01*
X233105000Y-89535000D02*
X233105000Y-90865000D01*
X233105000Y-90865000D02*
X231775000Y-90865000D01*
X235645000Y-90865000D02*
X234315000Y-90865000D01*
X235645000Y-89535000D02*
X235645000Y-90865000D01*
X235645000Y-88265000D02*
X232985000Y-88265000D01*
X232985000Y-88265000D02*
X232985000Y-85665000D01*
X235645000Y-88265000D02*
X235645000Y-85665000D01*
X235645000Y-85665000D02*
X232985000Y-85665000D01*
X238185000Y-85665000D02*
X235525000Y-85665000D01*
X238185000Y-88265000D02*
X238185000Y-85665000D01*
X235525000Y-88265000D02*
X235525000Y-85665000D01*
X238185000Y-88265000D02*
X235525000Y-88265000D01*
X238185000Y-89535000D02*
X238185000Y-90865000D01*
X238185000Y-90865000D02*
X236855000Y-90865000D01*
X240725000Y-90865000D02*
X239395000Y-90865000D01*
X240725000Y-89535000D02*
X240725000Y-90865000D01*
X240725000Y-88265000D02*
X238065000Y-88265000D01*
X238065000Y-88265000D02*
X238065000Y-85665000D01*
X240725000Y-88265000D02*
X240725000Y-85665000D01*
X240725000Y-85665000D02*
X238065000Y-85665000D01*
X243265000Y-90865000D02*
X241935000Y-90865000D01*
X243265000Y-89535000D02*
X243265000Y-90865000D01*
X243265000Y-88265000D02*
X240605000Y-88265000D01*
X240605000Y-88265000D02*
X240605000Y-85665000D01*
X243265000Y-88265000D02*
X243265000Y-85665000D01*
X243265000Y-85665000D02*
X240605000Y-85665000D01*
X233105000Y-60900000D02*
X230445000Y-60900000D01*
X233105000Y-63500000D02*
X233105000Y-60900000D01*
X230445000Y-63500000D02*
X230445000Y-60900000D01*
X233105000Y-63500000D02*
X230445000Y-63500000D01*
X233105000Y-64770000D02*
X233105000Y-66100000D01*
X233105000Y-66100000D02*
X231775000Y-66100000D01*
X235645000Y-60900000D02*
X232985000Y-60900000D01*
X235645000Y-63500000D02*
X235645000Y-60900000D01*
X232985000Y-63500000D02*
X232985000Y-60900000D01*
X235645000Y-63500000D02*
X232985000Y-63500000D01*
X235645000Y-64770000D02*
X235645000Y-66100000D01*
X235645000Y-66100000D02*
X234315000Y-66100000D01*
X238185000Y-60900000D02*
X235525000Y-60900000D01*
X238185000Y-63500000D02*
X238185000Y-60900000D01*
X235525000Y-63500000D02*
X235525000Y-60900000D01*
X238185000Y-63500000D02*
X235525000Y-63500000D01*
X238185000Y-64770000D02*
X238185000Y-66100000D01*
X238185000Y-66100000D02*
X236855000Y-66100000D01*
X240725000Y-66100000D02*
X239395000Y-66100000D01*
X240725000Y-64770000D02*
X240725000Y-66100000D01*
X240725000Y-63500000D02*
X238065000Y-63500000D01*
X238065000Y-63500000D02*
X238065000Y-60900000D01*
X240725000Y-63500000D02*
X240725000Y-60900000D01*
X240725000Y-60900000D02*
X238065000Y-60900000D01*
X243265000Y-66100000D02*
X241935000Y-66100000D01*
X243265000Y-64770000D02*
X243265000Y-66100000D01*
X243265000Y-63500000D02*
X240605000Y-63500000D01*
X240605000Y-63500000D02*
X240605000Y-60900000D01*
X243265000Y-63500000D02*
X243265000Y-60900000D01*
X243265000Y-60900000D02*
X240605000Y-60900000D01*
X161520000Y-114300000D02*
X160750000Y-114300000D01*
X153440000Y-114300000D02*
X154210000Y-114300000D01*
X160750000Y-112930000D02*
X154210000Y-112930000D01*
X160750000Y-115670000D02*
X160750000Y-112930000D01*
X154210000Y-115670000D02*
X160750000Y-115670000D01*
X154210000Y-112930000D02*
X154210000Y-115670000D01*
X154210000Y-63400000D02*
X154210000Y-66140000D01*
X154210000Y-66140000D02*
X160750000Y-66140000D01*
X160750000Y-66140000D02*
X160750000Y-63400000D01*
X160750000Y-63400000D02*
X154210000Y-63400000D01*
X153440000Y-64770000D02*
X154210000Y-64770000D01*
X161520000Y-64770000D02*
X160750000Y-64770000D01*
X84050000Y-114300000D02*
X83280000Y-114300000D01*
X75970000Y-114300000D02*
X76740000Y-114300000D01*
X83280000Y-112930000D02*
X76740000Y-112930000D01*
X83280000Y-115670000D02*
X83280000Y-112930000D01*
X76740000Y-115670000D02*
X83280000Y-115670000D01*
X76740000Y-112930000D02*
X76740000Y-115670000D01*
X76740000Y-63400000D02*
X76740000Y-66140000D01*
X76740000Y-66140000D02*
X83280000Y-66140000D01*
X83280000Y-66140000D02*
X83280000Y-63400000D01*
X83280000Y-63400000D02*
X76740000Y-63400000D01*
X75970000Y-64770000D02*
X76740000Y-64770000D01*
X84050000Y-64770000D02*
X83280000Y-64770000D01*
X49260000Y-99000000D02*
G75*
G02X47260000Y-99000000I-1000000J0D01*
G01*
X47260000Y-99000000D02*
X45610000Y-99000000D01*
X45610000Y-99000000D02*
X45610000Y-116900000D01*
X45610000Y-116900000D02*
X50910000Y-116900000D01*
X50910000Y-116900000D02*
X50910000Y-99000000D01*
X50910000Y-99000000D02*
X49260000Y-99000000D01*
X43120000Y-98940000D02*
X43120000Y-116960000D01*
X43120000Y-116960000D02*
X53400000Y-116960000D01*
X53400000Y-116960000D02*
X53400000Y-98940000D01*
X53400000Y-98940000D02*
X43120000Y-98940000D01*
X53400000Y-71000000D02*
X43120000Y-71000000D01*
X53400000Y-89020000D02*
X53400000Y-71000000D01*
X43120000Y-89020000D02*
X53400000Y-89020000D01*
X43120000Y-71000000D02*
X43120000Y-89020000D01*
X50910000Y-71060000D02*
X49260000Y-71060000D01*
X50910000Y-88960000D02*
X50910000Y-71060000D01*
X45610000Y-88960000D02*
X50910000Y-88960000D01*
X45610000Y-71060000D02*
X45610000Y-88960000D01*
X47260000Y-71060000D02*
X45610000Y-71060000D01*
X49260000Y-71060000D02*
G75*
G02X47260000Y-71060000I-1000000J0D01*
G01*
X195640000Y-128000000D02*
G75*
G02X195640000Y-126000000I0J1000000D01*
G01*
X195640000Y-126000000D02*
X195640000Y-120540000D01*
X195640000Y-120540000D02*
X144720000Y-120540000D01*
X144720000Y-120540000D02*
X144720000Y-133460000D01*
X144720000Y-133460000D02*
X195640000Y-133460000D01*
X195640000Y-133460000D02*
X195640000Y-128000000D01*
X195640000Y-83930000D02*
X195640000Y-78470000D01*
X144720000Y-83930000D02*
X195640000Y-83930000D01*
X144720000Y-71010000D02*
X144720000Y-83930000D01*
X195640000Y-71010000D02*
X144720000Y-71010000D01*
X195640000Y-76470000D02*
X195640000Y-71010000D01*
X195640000Y-78470000D02*
G75*
G02X195640000Y-76470000I0J1000000D01*
G01*
X118170000Y-133460000D02*
X118170000Y-128000000D01*
X67250000Y-133460000D02*
X118170000Y-133460000D01*
X67250000Y-120540000D02*
X67250000Y-133460000D01*
X118170000Y-120540000D02*
X67250000Y-120540000D01*
X118170000Y-126000000D02*
X118170000Y-120540000D01*
X118170000Y-128000000D02*
G75*
G02X118170000Y-126000000I0J1000000D01*
G01*
X118170000Y-78470000D02*
G75*
G02X118170000Y-76470000I0J1000000D01*
G01*
X118170000Y-76470000D02*
X118170000Y-71010000D01*
X118170000Y-71010000D02*
X67250000Y-71010000D01*
X67250000Y-71010000D02*
X67250000Y-83930000D01*
X67250000Y-83930000D02*
X118170000Y-83930000D01*
X118170000Y-83930000D02*
X118170000Y-78470000D01*
X154255000Y-105425000D02*
X160505000Y-105425000D01*
X154255000Y-110475000D02*
X160505000Y-110475000D01*
X154255000Y-110475000D02*
G75*
G02X154255000Y-105425000I0J2525000D01*
G01*
X160505000Y-110475000D02*
G75*
G03X160505000Y-105425000I0J2525000D01*
G01*
X160505000Y-60945000D02*
G75*
G03X160505000Y-55895000I0J2525000D01*
G01*
X154255000Y-60945000D02*
G75*
G02X154255000Y-55895000I0J2525000D01*
G01*
X154255000Y-60945000D02*
X160505000Y-60945000D01*
X154255000Y-55895000D02*
X160505000Y-55895000D01*
X76785000Y-105425000D02*
X83035000Y-105425000D01*
X76785000Y-110475000D02*
X83035000Y-110475000D01*
X76785000Y-110475000D02*
G75*
G02X76785000Y-105425000I0J2525000D01*
G01*
X83035000Y-110475000D02*
G75*
G03X83035000Y-105425000I0J2525000D01*
G01*
X83035000Y-60945000D02*
G75*
G03X83035000Y-55895000I0J2525000D01*
G01*
X76785000Y-60945000D02*
G75*
G02X76785000Y-55895000I0J2525000D01*
G01*
X76785000Y-60945000D02*
X83035000Y-60945000D01*
X76785000Y-55895000D02*
X83035000Y-55895000D01*
D11*
X55542380Y-117014523D02*
X56256666Y-117014523D01*
X56399523Y-117062142D01*
X56494761Y-117157380D01*
X56542380Y-117300238D01*
X56542380Y-117395476D01*
X56542380Y-116014523D02*
X56542380Y-116585952D01*
X56542380Y-116300238D02*
X55542380Y-116300238D01*
X55685238Y-116395476D01*
X55780476Y-116490714D01*
X55828095Y-116585952D01*
X55542380Y-115395476D02*
X55542380Y-115300238D01*
X55590000Y-115205000D01*
X55637619Y-115157380D01*
X55732857Y-115109761D01*
X55923333Y-115062142D01*
X56161428Y-115062142D01*
X56351904Y-115109761D01*
X56447142Y-115157380D01*
X56494761Y-115205000D01*
X56542380Y-115300238D01*
X56542380Y-115395476D01*
X56494761Y-115490714D01*
X56447142Y-115538333D01*
X56351904Y-115585952D01*
X56161428Y-115633571D01*
X55923333Y-115633571D01*
X55732857Y-115585952D01*
X55637619Y-115538333D01*
X55590000Y-115490714D01*
X55542380Y-115395476D01*
X232402142Y-54427380D02*
X232068809Y-53951190D01*
X231830714Y-54427380D02*
X231830714Y-53427380D01*
X232211666Y-53427380D01*
X232306904Y-53475000D01*
X232354523Y-53522619D01*
X232402142Y-53617857D01*
X232402142Y-53760714D01*
X232354523Y-53855952D01*
X232306904Y-53903571D01*
X232211666Y-53951190D01*
X231830714Y-53951190D01*
X233354523Y-54427380D02*
X232783095Y-54427380D01*
X233068809Y-54427380D02*
X233068809Y-53427380D01*
X232973571Y-53570238D01*
X232878333Y-53665476D01*
X232783095Y-53713095D01*
X233735476Y-53522619D02*
X233783095Y-53475000D01*
X233878333Y-53427380D01*
X234116428Y-53427380D01*
X234211666Y-53475000D01*
X234259285Y-53522619D01*
X234306904Y-53617857D01*
X234306904Y-53713095D01*
X234259285Y-53855952D01*
X233687857Y-54427380D01*
X234306904Y-54427380D01*
X232402142Y-49347380D02*
X232068809Y-48871190D01*
X231830714Y-49347380D02*
X231830714Y-48347380D01*
X232211666Y-48347380D01*
X232306904Y-48395000D01*
X232354523Y-48442619D01*
X232402142Y-48537857D01*
X232402142Y-48680714D01*
X232354523Y-48775952D01*
X232306904Y-48823571D01*
X232211666Y-48871190D01*
X231830714Y-48871190D01*
X233354523Y-49347380D02*
X232783095Y-49347380D01*
X233068809Y-49347380D02*
X233068809Y-48347380D01*
X232973571Y-48490238D01*
X232878333Y-48585476D01*
X232783095Y-48633095D01*
X234306904Y-49347380D02*
X233735476Y-49347380D01*
X234021190Y-49347380D02*
X234021190Y-48347380D01*
X233925952Y-48490238D01*
X233830714Y-48585476D01*
X233735476Y-48633095D01*
X232402142Y-79192380D02*
X232068809Y-78716190D01*
X231830714Y-79192380D02*
X231830714Y-78192380D01*
X232211666Y-78192380D01*
X232306904Y-78240000D01*
X232354523Y-78287619D01*
X232402142Y-78382857D01*
X232402142Y-78525714D01*
X232354523Y-78620952D01*
X232306904Y-78668571D01*
X232211666Y-78716190D01*
X231830714Y-78716190D01*
X233354523Y-79192380D02*
X232783095Y-79192380D01*
X233068809Y-79192380D02*
X233068809Y-78192380D01*
X232973571Y-78335238D01*
X232878333Y-78430476D01*
X232783095Y-78478095D01*
X233973571Y-78192380D02*
X234068809Y-78192380D01*
X234164047Y-78240000D01*
X234211666Y-78287619D01*
X234259285Y-78382857D01*
X234306904Y-78573333D01*
X234306904Y-78811428D01*
X234259285Y-79001904D01*
X234211666Y-79097142D01*
X234164047Y-79144761D01*
X234068809Y-79192380D01*
X233973571Y-79192380D01*
X233878333Y-79144761D01*
X233830714Y-79097142D01*
X233783095Y-79001904D01*
X233735476Y-78811428D01*
X233735476Y-78573333D01*
X233783095Y-78382857D01*
X233830714Y-78287619D01*
X233878333Y-78240000D01*
X233973571Y-78192380D01*
X232878333Y-74112380D02*
X232545000Y-73636190D01*
X232306904Y-74112380D02*
X232306904Y-73112380D01*
X232687857Y-73112380D01*
X232783095Y-73160000D01*
X232830714Y-73207619D01*
X232878333Y-73302857D01*
X232878333Y-73445714D01*
X232830714Y-73540952D01*
X232783095Y-73588571D01*
X232687857Y-73636190D01*
X232306904Y-73636190D01*
X233354523Y-74112380D02*
X233545000Y-74112380D01*
X233640238Y-74064761D01*
X233687857Y-74017142D01*
X233783095Y-73874285D01*
X233830714Y-73683809D01*
X233830714Y-73302857D01*
X233783095Y-73207619D01*
X233735476Y-73160000D01*
X233640238Y-73112380D01*
X233449761Y-73112380D01*
X233354523Y-73160000D01*
X233306904Y-73207619D01*
X233259285Y-73302857D01*
X233259285Y-73540952D01*
X233306904Y-73636190D01*
X233354523Y-73683809D01*
X233449761Y-73731428D01*
X233640238Y-73731428D01*
X233735476Y-73683809D01*
X233783095Y-73636190D01*
X233830714Y-73540952D01*
X232878333Y-103957380D02*
X232545000Y-103481190D01*
X232306904Y-103957380D02*
X232306904Y-102957380D01*
X232687857Y-102957380D01*
X232783095Y-103005000D01*
X232830714Y-103052619D01*
X232878333Y-103147857D01*
X232878333Y-103290714D01*
X232830714Y-103385952D01*
X232783095Y-103433571D01*
X232687857Y-103481190D01*
X232306904Y-103481190D01*
X233449761Y-103385952D02*
X233354523Y-103338333D01*
X233306904Y-103290714D01*
X233259285Y-103195476D01*
X233259285Y-103147857D01*
X233306904Y-103052619D01*
X233354523Y-103005000D01*
X233449761Y-102957380D01*
X233640238Y-102957380D01*
X233735476Y-103005000D01*
X233783095Y-103052619D01*
X233830714Y-103147857D01*
X233830714Y-103195476D01*
X233783095Y-103290714D01*
X233735476Y-103338333D01*
X233640238Y-103385952D01*
X233449761Y-103385952D01*
X233354523Y-103433571D01*
X233306904Y-103481190D01*
X233259285Y-103576428D01*
X233259285Y-103766904D01*
X233306904Y-103862142D01*
X233354523Y-103909761D01*
X233449761Y-103957380D01*
X233640238Y-103957380D01*
X233735476Y-103909761D01*
X233783095Y-103862142D01*
X233830714Y-103766904D01*
X233830714Y-103576428D01*
X233783095Y-103481190D01*
X233735476Y-103433571D01*
X233640238Y-103385952D01*
X232878333Y-98877380D02*
X232545000Y-98401190D01*
X232306904Y-98877380D02*
X232306904Y-97877380D01*
X232687857Y-97877380D01*
X232783095Y-97925000D01*
X232830714Y-97972619D01*
X232878333Y-98067857D01*
X232878333Y-98210714D01*
X232830714Y-98305952D01*
X232783095Y-98353571D01*
X232687857Y-98401190D01*
X232306904Y-98401190D01*
X233211666Y-97877380D02*
X233878333Y-97877380D01*
X233449761Y-98877380D01*
X232878333Y-128722380D02*
X232545000Y-128246190D01*
X232306904Y-128722380D02*
X232306904Y-127722380D01*
X232687857Y-127722380D01*
X232783095Y-127770000D01*
X232830714Y-127817619D01*
X232878333Y-127912857D01*
X232878333Y-128055714D01*
X232830714Y-128150952D01*
X232783095Y-128198571D01*
X232687857Y-128246190D01*
X232306904Y-128246190D01*
X233735476Y-127722380D02*
X233545000Y-127722380D01*
X233449761Y-127770000D01*
X233402142Y-127817619D01*
X233306904Y-127960476D01*
X233259285Y-128150952D01*
X233259285Y-128531904D01*
X233306904Y-128627142D01*
X233354523Y-128674761D01*
X233449761Y-128722380D01*
X233640238Y-128722380D01*
X233735476Y-128674761D01*
X233783095Y-128627142D01*
X233830714Y-128531904D01*
X233830714Y-128293809D01*
X233783095Y-128198571D01*
X233735476Y-128150952D01*
X233640238Y-128103333D01*
X233449761Y-128103333D01*
X233354523Y-128150952D01*
X233306904Y-128198571D01*
X233259285Y-128293809D01*
X232878333Y-123642380D02*
X232545000Y-123166190D01*
X232306904Y-123642380D02*
X232306904Y-122642380D01*
X232687857Y-122642380D01*
X232783095Y-122690000D01*
X232830714Y-122737619D01*
X232878333Y-122832857D01*
X232878333Y-122975714D01*
X232830714Y-123070952D01*
X232783095Y-123118571D01*
X232687857Y-123166190D01*
X232306904Y-123166190D01*
X233783095Y-122642380D02*
X233306904Y-122642380D01*
X233259285Y-123118571D01*
X233306904Y-123070952D01*
X233402142Y-123023333D01*
X233640238Y-123023333D01*
X233735476Y-123070952D01*
X233783095Y-123118571D01*
X233830714Y-123213809D01*
X233830714Y-123451904D01*
X233783095Y-123547142D01*
X233735476Y-123594761D01*
X233640238Y-123642380D01*
X233402142Y-123642380D01*
X233306904Y-123594761D01*
X233259285Y-123547142D01*
X242871666Y-46017380D02*
X242871666Y-46731666D01*
X242824047Y-46874523D01*
X242728809Y-46969761D01*
X242585952Y-47017380D01*
X242490714Y-47017380D01*
X243395476Y-47017380D02*
X243585952Y-47017380D01*
X243681190Y-46969761D01*
X243728809Y-46922142D01*
X243824047Y-46779285D01*
X243871666Y-46588809D01*
X243871666Y-46207857D01*
X243824047Y-46112619D01*
X243776428Y-46065000D01*
X243681190Y-46017380D01*
X243490714Y-46017380D01*
X243395476Y-46065000D01*
X243347857Y-46112619D01*
X243300238Y-46207857D01*
X243300238Y-46445952D01*
X243347857Y-46541190D01*
X243395476Y-46588809D01*
X243490714Y-46636428D01*
X243681190Y-46636428D01*
X243776428Y-46588809D01*
X243824047Y-46541190D01*
X243871666Y-46445952D01*
X242871666Y-70782380D02*
X242871666Y-71496666D01*
X242824047Y-71639523D01*
X242728809Y-71734761D01*
X242585952Y-71782380D01*
X242490714Y-71782380D01*
X243490714Y-71210952D02*
X243395476Y-71163333D01*
X243347857Y-71115714D01*
X243300238Y-71020476D01*
X243300238Y-70972857D01*
X243347857Y-70877619D01*
X243395476Y-70830000D01*
X243490714Y-70782380D01*
X243681190Y-70782380D01*
X243776428Y-70830000D01*
X243824047Y-70877619D01*
X243871666Y-70972857D01*
X243871666Y-71020476D01*
X243824047Y-71115714D01*
X243776428Y-71163333D01*
X243681190Y-71210952D01*
X243490714Y-71210952D01*
X243395476Y-71258571D01*
X243347857Y-71306190D01*
X243300238Y-71401428D01*
X243300238Y-71591904D01*
X243347857Y-71687142D01*
X243395476Y-71734761D01*
X243490714Y-71782380D01*
X243681190Y-71782380D01*
X243776428Y-71734761D01*
X243824047Y-71687142D01*
X243871666Y-71591904D01*
X243871666Y-71401428D01*
X243824047Y-71306190D01*
X243776428Y-71258571D01*
X243681190Y-71210952D01*
X242871666Y-95547380D02*
X242871666Y-96261666D01*
X242824047Y-96404523D01*
X242728809Y-96499761D01*
X242585952Y-96547380D01*
X242490714Y-96547380D01*
X243252619Y-95547380D02*
X243919285Y-95547380D01*
X243490714Y-96547380D01*
X242871666Y-120312380D02*
X242871666Y-121026666D01*
X242824047Y-121169523D01*
X242728809Y-121264761D01*
X242585952Y-121312380D01*
X242490714Y-121312380D01*
X243776428Y-120312380D02*
X243585952Y-120312380D01*
X243490714Y-120360000D01*
X243443095Y-120407619D01*
X243347857Y-120550476D01*
X243300238Y-120740952D01*
X243300238Y-121121904D01*
X243347857Y-121217142D01*
X243395476Y-121264761D01*
X243490714Y-121312380D01*
X243681190Y-121312380D01*
X243776428Y-121264761D01*
X243824047Y-121217142D01*
X243871666Y-121121904D01*
X243871666Y-120883809D01*
X243824047Y-120788571D01*
X243776428Y-120740952D01*
X243681190Y-120693333D01*
X243490714Y-120693333D01*
X243395476Y-120740952D01*
X243347857Y-120788571D01*
X243300238Y-120883809D01*
X151447142Y-111886666D02*
X151494761Y-111934285D01*
X151542380Y-112077142D01*
X151542380Y-112172380D01*
X151494761Y-112315238D01*
X151399523Y-112410476D01*
X151304285Y-112458095D01*
X151113809Y-112505714D01*
X150970952Y-112505714D01*
X150780476Y-112458095D01*
X150685238Y-112410476D01*
X150590000Y-112315238D01*
X150542380Y-112172380D01*
X150542380Y-112077142D01*
X150590000Y-111934285D01*
X150637619Y-111886666D01*
X151542380Y-110934285D02*
X151542380Y-111505714D01*
X151542380Y-111220000D02*
X150542380Y-111220000D01*
X150685238Y-111315238D01*
X150780476Y-111410476D01*
X150828095Y-111505714D01*
X169227142Y-111886666D02*
X169274761Y-111934285D01*
X169322380Y-112077142D01*
X169322380Y-112172380D01*
X169274761Y-112315238D01*
X169179523Y-112410476D01*
X169084285Y-112458095D01*
X168893809Y-112505714D01*
X168750952Y-112505714D01*
X168560476Y-112458095D01*
X168465238Y-112410476D01*
X168370000Y-112315238D01*
X168322380Y-112172380D01*
X168322380Y-112077142D01*
X168370000Y-111934285D01*
X168417619Y-111886666D01*
X168417619Y-111505714D02*
X168370000Y-111458095D01*
X168322380Y-111362857D01*
X168322380Y-111124761D01*
X168370000Y-111029523D01*
X168417619Y-110981904D01*
X168512857Y-110934285D01*
X168608095Y-110934285D01*
X168750952Y-110981904D01*
X169322380Y-111553333D01*
X169322380Y-110934285D01*
X151447142Y-62356666D02*
X151494761Y-62404285D01*
X151542380Y-62547142D01*
X151542380Y-62642380D01*
X151494761Y-62785238D01*
X151399523Y-62880476D01*
X151304285Y-62928095D01*
X151113809Y-62975714D01*
X150970952Y-62975714D01*
X150780476Y-62928095D01*
X150685238Y-62880476D01*
X150590000Y-62785238D01*
X150542380Y-62642380D01*
X150542380Y-62547142D01*
X150590000Y-62404285D01*
X150637619Y-62356666D01*
X150542380Y-62023333D02*
X150542380Y-61404285D01*
X150923333Y-61737619D01*
X150923333Y-61594761D01*
X150970952Y-61499523D01*
X151018571Y-61451904D01*
X151113809Y-61404285D01*
X151351904Y-61404285D01*
X151447142Y-61451904D01*
X151494761Y-61499523D01*
X151542380Y-61594761D01*
X151542380Y-61880476D01*
X151494761Y-61975714D01*
X151447142Y-62023333D01*
X169227142Y-62356666D02*
X169274761Y-62404285D01*
X169322380Y-62547142D01*
X169322380Y-62642380D01*
X169274761Y-62785238D01*
X169179523Y-62880476D01*
X169084285Y-62928095D01*
X168893809Y-62975714D01*
X168750952Y-62975714D01*
X168560476Y-62928095D01*
X168465238Y-62880476D01*
X168370000Y-62785238D01*
X168322380Y-62642380D01*
X168322380Y-62547142D01*
X168370000Y-62404285D01*
X168417619Y-62356666D01*
X168655714Y-61499523D02*
X169322380Y-61499523D01*
X168274761Y-61737619D02*
X168989047Y-61975714D01*
X168989047Y-61356666D01*
X73977142Y-111886666D02*
X74024761Y-111934285D01*
X74072380Y-112077142D01*
X74072380Y-112172380D01*
X74024761Y-112315238D01*
X73929523Y-112410476D01*
X73834285Y-112458095D01*
X73643809Y-112505714D01*
X73500952Y-112505714D01*
X73310476Y-112458095D01*
X73215238Y-112410476D01*
X73120000Y-112315238D01*
X73072380Y-112172380D01*
X73072380Y-112077142D01*
X73120000Y-111934285D01*
X73167619Y-111886666D01*
X73072380Y-110981904D02*
X73072380Y-111458095D01*
X73548571Y-111505714D01*
X73500952Y-111458095D01*
X73453333Y-111362857D01*
X73453333Y-111124761D01*
X73500952Y-111029523D01*
X73548571Y-110981904D01*
X73643809Y-110934285D01*
X73881904Y-110934285D01*
X73977142Y-110981904D01*
X74024761Y-111029523D01*
X74072380Y-111124761D01*
X74072380Y-111362857D01*
X74024761Y-111458095D01*
X73977142Y-111505714D01*
X91757142Y-111886666D02*
X91804761Y-111934285D01*
X91852380Y-112077142D01*
X91852380Y-112172380D01*
X91804761Y-112315238D01*
X91709523Y-112410476D01*
X91614285Y-112458095D01*
X91423809Y-112505714D01*
X91280952Y-112505714D01*
X91090476Y-112458095D01*
X90995238Y-112410476D01*
X90900000Y-112315238D01*
X90852380Y-112172380D01*
X90852380Y-112077142D01*
X90900000Y-111934285D01*
X90947619Y-111886666D01*
X90852380Y-111029523D02*
X90852380Y-111220000D01*
X90900000Y-111315238D01*
X90947619Y-111362857D01*
X91090476Y-111458095D01*
X91280952Y-111505714D01*
X91661904Y-111505714D01*
X91757142Y-111458095D01*
X91804761Y-111410476D01*
X91852380Y-111315238D01*
X91852380Y-111124761D01*
X91804761Y-111029523D01*
X91757142Y-110981904D01*
X91661904Y-110934285D01*
X91423809Y-110934285D01*
X91328571Y-110981904D01*
X91280952Y-111029523D01*
X91233333Y-111124761D01*
X91233333Y-111315238D01*
X91280952Y-111410476D01*
X91328571Y-111458095D01*
X91423809Y-111505714D01*
X73977142Y-62436666D02*
X74024761Y-62484285D01*
X74072380Y-62627142D01*
X74072380Y-62722380D01*
X74024761Y-62865238D01*
X73929523Y-62960476D01*
X73834285Y-63008095D01*
X73643809Y-63055714D01*
X73500952Y-63055714D01*
X73310476Y-63008095D01*
X73215238Y-62960476D01*
X73120000Y-62865238D01*
X73072380Y-62722380D01*
X73072380Y-62627142D01*
X73120000Y-62484285D01*
X73167619Y-62436666D01*
X73072380Y-62103333D02*
X73072380Y-61436666D01*
X74072380Y-61865238D01*
X91757142Y-62436666D02*
X91804761Y-62484285D01*
X91852380Y-62627142D01*
X91852380Y-62722380D01*
X91804761Y-62865238D01*
X91709523Y-62960476D01*
X91614285Y-63008095D01*
X91423809Y-63055714D01*
X91280952Y-63055714D01*
X91090476Y-63008095D01*
X90995238Y-62960476D01*
X90900000Y-62865238D01*
X90852380Y-62722380D01*
X90852380Y-62627142D01*
X90900000Y-62484285D01*
X90947619Y-62436666D01*
X91280952Y-61865238D02*
X91233333Y-61960476D01*
X91185714Y-62008095D01*
X91090476Y-62055714D01*
X91042857Y-62055714D01*
X90947619Y-62008095D01*
X90900000Y-61960476D01*
X90852380Y-61865238D01*
X90852380Y-61674761D01*
X90900000Y-61579523D01*
X90947619Y-61531904D01*
X91042857Y-61484285D01*
X91090476Y-61484285D01*
X91185714Y-61531904D01*
X91233333Y-61579523D01*
X91280952Y-61674761D01*
X91280952Y-61865238D01*
X91328571Y-61960476D01*
X91376190Y-62008095D01*
X91471428Y-62055714D01*
X91661904Y-62055714D01*
X91757142Y-62008095D01*
X91804761Y-61960476D01*
X91852380Y-61865238D01*
X91852380Y-61674761D01*
X91804761Y-61579523D01*
X91757142Y-61531904D01*
X91661904Y-61484285D01*
X91471428Y-61484285D01*
X91376190Y-61531904D01*
X91328571Y-61579523D01*
X91280952Y-61674761D01*
X48093333Y-65127142D02*
X48045714Y-65174761D01*
X47902857Y-65222380D01*
X47807619Y-65222380D01*
X47664761Y-65174761D01*
X47569523Y-65079523D01*
X47521904Y-64984285D01*
X47474285Y-64793809D01*
X47474285Y-64650952D01*
X47521904Y-64460476D01*
X47569523Y-64365238D01*
X47664761Y-64270000D01*
X47807619Y-64222380D01*
X47902857Y-64222380D01*
X48045714Y-64270000D01*
X48093333Y-64317619D01*
X48569523Y-65222380D02*
X48760000Y-65222380D01*
X48855238Y-65174761D01*
X48902857Y-65127142D01*
X48998095Y-64984285D01*
X49045714Y-64793809D01*
X49045714Y-64412857D01*
X48998095Y-64317619D01*
X48950476Y-64270000D01*
X48855238Y-64222380D01*
X48664761Y-64222380D01*
X48569523Y-64270000D01*
X48521904Y-64317619D01*
X48474285Y-64412857D01*
X48474285Y-64650952D01*
X48521904Y-64746190D01*
X48569523Y-64793809D01*
X48664761Y-64841428D01*
X48855238Y-64841428D01*
X48950476Y-64793809D01*
X48998095Y-64746190D01*
X49045714Y-64650952D01*
X47617142Y-93067142D02*
X47569523Y-93114761D01*
X47426666Y-93162380D01*
X47331428Y-93162380D01*
X47188571Y-93114761D01*
X47093333Y-93019523D01*
X47045714Y-92924285D01*
X46998095Y-92733809D01*
X46998095Y-92590952D01*
X47045714Y-92400476D01*
X47093333Y-92305238D01*
X47188571Y-92210000D01*
X47331428Y-92162380D01*
X47426666Y-92162380D01*
X47569523Y-92210000D01*
X47617142Y-92257619D01*
X48569523Y-93162380D02*
X47998095Y-93162380D01*
X48283809Y-93162380D02*
X48283809Y-92162380D01*
X48188571Y-92305238D01*
X48093333Y-92400476D01*
X47998095Y-92448095D01*
X49188571Y-92162380D02*
X49283809Y-92162380D01*
X49379047Y-92210000D01*
X49426666Y-92257619D01*
X49474285Y-92352857D01*
X49521904Y-92543333D01*
X49521904Y-92781428D01*
X49474285Y-92971904D01*
X49426666Y-93067142D01*
X49379047Y-93114761D01*
X49283809Y-93162380D01*
X49188571Y-93162380D01*
X49093333Y-93114761D01*
X49045714Y-93067142D01*
X48998095Y-92971904D01*
X48950476Y-92781428D01*
X48950476Y-92543333D01*
X48998095Y-92352857D01*
X49045714Y-92257619D01*
X49093333Y-92210000D01*
X49188571Y-92162380D01*
X202287142Y-127562857D02*
X202334761Y-127610476D01*
X202382380Y-127753333D01*
X202382380Y-127848571D01*
X202334761Y-127991428D01*
X202239523Y-128086666D01*
X202144285Y-128134285D01*
X201953809Y-128181904D01*
X201810952Y-128181904D01*
X201620476Y-128134285D01*
X201525238Y-128086666D01*
X201430000Y-127991428D01*
X201382380Y-127848571D01*
X201382380Y-127753333D01*
X201430000Y-127610476D01*
X201477619Y-127562857D01*
X202382380Y-126610476D02*
X202382380Y-127181904D01*
X202382380Y-126896190D02*
X201382380Y-126896190D01*
X201525238Y-126991428D01*
X201620476Y-127086666D01*
X201668095Y-127181904D01*
X202382380Y-125658095D02*
X202382380Y-126229523D01*
X202382380Y-125943809D02*
X201382380Y-125943809D01*
X201525238Y-126039047D01*
X201620476Y-126134285D01*
X201668095Y-126229523D01*
X202287142Y-78112857D02*
X202334761Y-78160476D01*
X202382380Y-78303333D01*
X202382380Y-78398571D01*
X202334761Y-78541428D01*
X202239523Y-78636666D01*
X202144285Y-78684285D01*
X201953809Y-78731904D01*
X201810952Y-78731904D01*
X201620476Y-78684285D01*
X201525238Y-78636666D01*
X201430000Y-78541428D01*
X201382380Y-78398571D01*
X201382380Y-78303333D01*
X201430000Y-78160476D01*
X201477619Y-78112857D01*
X202382380Y-77160476D02*
X202382380Y-77731904D01*
X202382380Y-77446190D02*
X201382380Y-77446190D01*
X201525238Y-77541428D01*
X201620476Y-77636666D01*
X201668095Y-77731904D01*
X201477619Y-76779523D02*
X201430000Y-76731904D01*
X201382380Y-76636666D01*
X201382380Y-76398571D01*
X201430000Y-76303333D01*
X201477619Y-76255714D01*
X201572857Y-76208095D01*
X201668095Y-76208095D01*
X201810952Y-76255714D01*
X202382380Y-76827142D01*
X202382380Y-76208095D01*
X124817142Y-127682857D02*
X124864761Y-127730476D01*
X124912380Y-127873333D01*
X124912380Y-127968571D01*
X124864761Y-128111428D01*
X124769523Y-128206666D01*
X124674285Y-128254285D01*
X124483809Y-128301904D01*
X124340952Y-128301904D01*
X124150476Y-128254285D01*
X124055238Y-128206666D01*
X123960000Y-128111428D01*
X123912380Y-127968571D01*
X123912380Y-127873333D01*
X123960000Y-127730476D01*
X124007619Y-127682857D01*
X124912380Y-126730476D02*
X124912380Y-127301904D01*
X124912380Y-127016190D02*
X123912380Y-127016190D01*
X124055238Y-127111428D01*
X124150476Y-127206666D01*
X124198095Y-127301904D01*
X123912380Y-126397142D02*
X123912380Y-125778095D01*
X124293333Y-126111428D01*
X124293333Y-125968571D01*
X124340952Y-125873333D01*
X124388571Y-125825714D01*
X124483809Y-125778095D01*
X124721904Y-125778095D01*
X124817142Y-125825714D01*
X124864761Y-125873333D01*
X124912380Y-125968571D01*
X124912380Y-126254285D01*
X124864761Y-126349523D01*
X124817142Y-126397142D01*
X124817142Y-78152857D02*
X124864761Y-78200476D01*
X124912380Y-78343333D01*
X124912380Y-78438571D01*
X124864761Y-78581428D01*
X124769523Y-78676666D01*
X124674285Y-78724285D01*
X124483809Y-78771904D01*
X124340952Y-78771904D01*
X124150476Y-78724285D01*
X124055238Y-78676666D01*
X123960000Y-78581428D01*
X123912380Y-78438571D01*
X123912380Y-78343333D01*
X123960000Y-78200476D01*
X124007619Y-78152857D01*
X124912380Y-77200476D02*
X124912380Y-77771904D01*
X124912380Y-77486190D02*
X123912380Y-77486190D01*
X124055238Y-77581428D01*
X124150476Y-77676666D01*
X124198095Y-77771904D01*
X124245714Y-76343333D02*
X124912380Y-76343333D01*
X123864761Y-76581428D02*
X124579047Y-76819523D01*
X124579047Y-76200476D01*
X29068666Y-55229380D02*
X29068666Y-55943666D01*
X29021047Y-56086523D01*
X28925809Y-56181761D01*
X28782952Y-56229380D01*
X28687714Y-56229380D01*
X30068666Y-56229380D02*
X29497238Y-56229380D01*
X29782952Y-56229380D02*
X29782952Y-55229380D01*
X29687714Y-55372238D01*
X29592476Y-55467476D01*
X29497238Y-55515095D01*
X226357380Y-133048333D02*
X227071666Y-133048333D01*
X227214523Y-133095952D01*
X227309761Y-133191190D01*
X227357380Y-133334047D01*
X227357380Y-133429285D01*
X226452619Y-132619761D02*
X226405000Y-132572142D01*
X226357380Y-132476904D01*
X226357380Y-132238809D01*
X226405000Y-132143571D01*
X226452619Y-132095952D01*
X226547857Y-132048333D01*
X226643095Y-132048333D01*
X226785952Y-132095952D01*
X227357380Y-132667380D01*
X227357380Y-132048333D01*
X226357380Y-108283333D02*
X227071666Y-108283333D01*
X227214523Y-108330952D01*
X227309761Y-108426190D01*
X227357380Y-108569047D01*
X227357380Y-108664285D01*
X226357380Y-107902380D02*
X226357380Y-107283333D01*
X226738333Y-107616666D01*
X226738333Y-107473809D01*
X226785952Y-107378571D01*
X226833571Y-107330952D01*
X226928809Y-107283333D01*
X227166904Y-107283333D01*
X227262142Y-107330952D01*
X227309761Y-107378571D01*
X227357380Y-107473809D01*
X227357380Y-107759523D01*
X227309761Y-107854761D01*
X227262142Y-107902380D01*
X226357380Y-83518333D02*
X227071666Y-83518333D01*
X227214523Y-83565952D01*
X227309761Y-83661190D01*
X227357380Y-83804047D01*
X227357380Y-83899285D01*
X226690714Y-82613571D02*
X227357380Y-82613571D01*
X226309761Y-82851666D02*
X227024047Y-83089761D01*
X227024047Y-82470714D01*
X226357380Y-58753333D02*
X227071666Y-58753333D01*
X227214523Y-58800952D01*
X227309761Y-58896190D01*
X227357380Y-59039047D01*
X227357380Y-59134285D01*
X226357380Y-57800952D02*
X226357380Y-58277142D01*
X226833571Y-58324761D01*
X226785952Y-58277142D01*
X226738333Y-58181904D01*
X226738333Y-57943809D01*
X226785952Y-57848571D01*
X226833571Y-57800952D01*
X226928809Y-57753333D01*
X227166904Y-57753333D01*
X227262142Y-57800952D01*
X227309761Y-57848571D01*
X227357380Y-57943809D01*
X227357380Y-58181904D01*
X227309761Y-58277142D01*
X227262142Y-58324761D01*
X135342380Y-105518333D02*
X136056666Y-105518333D01*
X136199523Y-105565952D01*
X136294761Y-105661190D01*
X136342380Y-105804047D01*
X136342380Y-105899285D01*
X136342380Y-105042142D02*
X135342380Y-105042142D01*
X135342380Y-104661190D01*
X135390000Y-104565952D01*
X135437619Y-104518333D01*
X135532857Y-104470714D01*
X135675714Y-104470714D01*
X135770952Y-104518333D01*
X135818571Y-104565952D01*
X135866190Y-104661190D01*
X135866190Y-105042142D01*
X136342380Y-103518333D02*
X136342380Y-104089761D01*
X136342380Y-103804047D02*
X135342380Y-103804047D01*
X135485238Y-103899285D01*
X135580476Y-103994523D01*
X135628095Y-104089761D01*
X135237380Y-100528333D02*
X135951666Y-100528333D01*
X136094523Y-100575952D01*
X136189761Y-100671190D01*
X136237380Y-100814047D01*
X136237380Y-100909285D01*
X136237380Y-100052142D02*
X135237380Y-100052142D01*
X135237380Y-99671190D01*
X135285000Y-99575952D01*
X135332619Y-99528333D01*
X135427857Y-99480714D01*
X135570714Y-99480714D01*
X135665952Y-99528333D01*
X135713571Y-99575952D01*
X135761190Y-99671190D01*
X135761190Y-100052142D01*
X135332619Y-99099761D02*
X135285000Y-99052142D01*
X135237380Y-98956904D01*
X135237380Y-98718809D01*
X135285000Y-98623571D01*
X135332619Y-98575952D01*
X135427857Y-98528333D01*
X135523095Y-98528333D01*
X135665952Y-98575952D01*
X136237380Y-99147380D01*
X136237380Y-98528333D01*
X130262380Y-105608333D02*
X130976666Y-105608333D01*
X131119523Y-105655952D01*
X131214761Y-105751190D01*
X131262380Y-105894047D01*
X131262380Y-105989285D01*
X131262380Y-105132142D02*
X130262380Y-105132142D01*
X130262380Y-104751190D01*
X130310000Y-104655952D01*
X130357619Y-104608333D01*
X130452857Y-104560714D01*
X130595714Y-104560714D01*
X130690952Y-104608333D01*
X130738571Y-104655952D01*
X130786190Y-104751190D01*
X130786190Y-105132142D01*
X130262380Y-104227380D02*
X130262380Y-103608333D01*
X130643333Y-103941666D01*
X130643333Y-103798809D01*
X130690952Y-103703571D01*
X130738571Y-103655952D01*
X130833809Y-103608333D01*
X131071904Y-103608333D01*
X131167142Y-103655952D01*
X131214761Y-103703571D01*
X131262380Y-103798809D01*
X131262380Y-104084523D01*
X131214761Y-104179761D01*
X131167142Y-104227380D01*
X130157380Y-100528333D02*
X130871666Y-100528333D01*
X131014523Y-100575952D01*
X131109761Y-100671190D01*
X131157380Y-100814047D01*
X131157380Y-100909285D01*
X131157380Y-100052142D02*
X130157380Y-100052142D01*
X130157380Y-99671190D01*
X130205000Y-99575952D01*
X130252619Y-99528333D01*
X130347857Y-99480714D01*
X130490714Y-99480714D01*
X130585952Y-99528333D01*
X130633571Y-99575952D01*
X130681190Y-99671190D01*
X130681190Y-100052142D01*
X130490714Y-98623571D02*
X131157380Y-98623571D01*
X130109761Y-98861666D02*
X130824047Y-99099761D01*
X130824047Y-98480714D01*
X230860000Y-145502142D02*
X230860000Y-144502142D01*
X232132142Y-144692619D02*
X232179761Y-144740238D01*
X232227380Y-144883095D01*
X232227380Y-144978333D01*
X232179761Y-145121190D01*
X232084523Y-145216428D01*
X231989285Y-145264047D01*
X231798809Y-145311666D01*
X231655952Y-145311666D01*
X231465476Y-145264047D01*
X231370238Y-145216428D01*
X231275000Y-145121190D01*
X231227380Y-144978333D01*
X231227380Y-144883095D01*
X231275000Y-144740238D01*
X231322619Y-144692619D01*
X230860000Y-144502142D02*
X230860000Y-143740238D01*
X231227380Y-144406904D02*
X231227380Y-143835476D01*
X232227380Y-144121190D02*
X231227380Y-144121190D01*
X230860000Y-143740238D02*
X230860000Y-142787857D01*
X232179761Y-143549761D02*
X232227380Y-143406904D01*
X232227380Y-143168809D01*
X232179761Y-143073571D01*
X232132142Y-143025952D01*
X232036904Y-142978333D01*
X231941666Y-142978333D01*
X231846428Y-143025952D01*
X231798809Y-143073571D01*
X231751190Y-143168809D01*
X231703571Y-143359285D01*
X231655952Y-143454523D01*
X231608333Y-143502142D01*
X231513095Y-143549761D01*
X231417857Y-143549761D01*
X231322619Y-143502142D01*
X231275000Y-143454523D01*
X231227380Y-143359285D01*
X231227380Y-143121190D01*
X231275000Y-142978333D01*
X233767380Y-145478333D02*
X234767380Y-145145000D01*
X233767380Y-144811666D01*
X234672142Y-143906904D02*
X234719761Y-143954523D01*
X234767380Y-144097380D01*
X234767380Y-144192619D01*
X234719761Y-144335476D01*
X234624523Y-144430714D01*
X234529285Y-144478333D01*
X234338809Y-144525952D01*
X234195952Y-144525952D01*
X234005476Y-144478333D01*
X233910238Y-144430714D01*
X233815000Y-144335476D01*
X233767380Y-144192619D01*
X233767380Y-144097380D01*
X233815000Y-143954523D01*
X233862619Y-143906904D01*
X234672142Y-142906904D02*
X234719761Y-142954523D01*
X234767380Y-143097380D01*
X234767380Y-143192619D01*
X234719761Y-143335476D01*
X234624523Y-143430714D01*
X234529285Y-143478333D01*
X234338809Y-143525952D01*
X234195952Y-143525952D01*
X234005476Y-143478333D01*
X233910238Y-143430714D01*
X233815000Y-143335476D01*
X233767380Y-143192619D01*
X233767380Y-143097380D01*
X233815000Y-142954523D01*
X233862619Y-142906904D01*
X237307380Y-144811666D02*
X236831190Y-145145000D01*
X237307380Y-145383095D02*
X236307380Y-145383095D01*
X236307380Y-145002142D01*
X236355000Y-144906904D01*
X236402619Y-144859285D01*
X236497857Y-144811666D01*
X236640714Y-144811666D01*
X236735952Y-144859285D01*
X236783571Y-144906904D01*
X236831190Y-145002142D01*
X236831190Y-145383095D01*
X236307380Y-144478333D02*
X237307380Y-143811666D01*
X236307380Y-143811666D02*
X237307380Y-144478333D01*
X237307380Y-143430714D02*
X236307380Y-143430714D01*
X236307380Y-143192619D01*
X236355000Y-143049761D01*
X236450238Y-142954523D01*
X236545476Y-142906904D01*
X236735952Y-142859285D01*
X236878809Y-142859285D01*
X237069285Y-142906904D01*
X237164523Y-142954523D01*
X237259761Y-143049761D01*
X237307380Y-143192619D01*
X237307380Y-143430714D01*
X238847380Y-145406904D02*
X238847380Y-144835476D01*
X239847380Y-145121190D02*
X238847380Y-145121190D01*
X238847380Y-144597380D02*
X239847380Y-143930714D01*
X238847380Y-143930714D02*
X239847380Y-144597380D01*
X239847380Y-143549761D02*
X238847380Y-143549761D01*
X238847380Y-143311666D01*
X238895000Y-143168809D01*
X238990238Y-143073571D01*
X239085476Y-143025952D01*
X239275952Y-142978333D01*
X239418809Y-142978333D01*
X239609285Y-143025952D01*
X239704523Y-143073571D01*
X239799761Y-143168809D01*
X239847380Y-143311666D01*
X239847380Y-143549761D01*
X241020000Y-145502142D02*
X241020000Y-144502142D01*
X242387380Y-144692619D02*
X241911190Y-145025952D01*
X242387380Y-145264047D02*
X241387380Y-145264047D01*
X241387380Y-144883095D01*
X241435000Y-144787857D01*
X241482619Y-144740238D01*
X241577857Y-144692619D01*
X241720714Y-144692619D01*
X241815952Y-144740238D01*
X241863571Y-144787857D01*
X241911190Y-144883095D01*
X241911190Y-145264047D01*
X241020000Y-144502142D02*
X241020000Y-143740238D01*
X241387380Y-144406904D02*
X241387380Y-143835476D01*
X242387380Y-144121190D02*
X241387380Y-144121190D01*
X241020000Y-143740238D02*
X241020000Y-142787857D01*
X242339761Y-143549761D02*
X242387380Y-143406904D01*
X242387380Y-143168809D01*
X242339761Y-143073571D01*
X242292142Y-143025952D01*
X242196904Y-142978333D01*
X242101666Y-142978333D01*
X242006428Y-143025952D01*
X241958809Y-143073571D01*
X241911190Y-143168809D01*
X241863571Y-143359285D01*
X241815952Y-143454523D01*
X241768333Y-143502142D01*
X241673095Y-143549761D01*
X241577857Y-143549761D01*
X241482619Y-143502142D01*
X241435000Y-143454523D01*
X241387380Y-143359285D01*
X241387380Y-143121190D01*
X241435000Y-142978333D01*
X230860000Y-119467142D02*
X230860000Y-118467142D01*
X232132142Y-118657619D02*
X232179761Y-118705238D01*
X232227380Y-118848095D01*
X232227380Y-118943333D01*
X232179761Y-119086190D01*
X232084523Y-119181428D01*
X231989285Y-119229047D01*
X231798809Y-119276666D01*
X231655952Y-119276666D01*
X231465476Y-119229047D01*
X231370238Y-119181428D01*
X231275000Y-119086190D01*
X231227380Y-118943333D01*
X231227380Y-118848095D01*
X231275000Y-118705238D01*
X231322619Y-118657619D01*
X230860000Y-118467142D02*
X230860000Y-117705238D01*
X231227380Y-118371904D02*
X231227380Y-117800476D01*
X232227380Y-118086190D02*
X231227380Y-118086190D01*
X230860000Y-117705238D02*
X230860000Y-116752857D01*
X232179761Y-117514761D02*
X232227380Y-117371904D01*
X232227380Y-117133809D01*
X232179761Y-117038571D01*
X232132142Y-116990952D01*
X232036904Y-116943333D01*
X231941666Y-116943333D01*
X231846428Y-116990952D01*
X231798809Y-117038571D01*
X231751190Y-117133809D01*
X231703571Y-117324285D01*
X231655952Y-117419523D01*
X231608333Y-117467142D01*
X231513095Y-117514761D01*
X231417857Y-117514761D01*
X231322619Y-117467142D01*
X231275000Y-117419523D01*
X231227380Y-117324285D01*
X231227380Y-117086190D01*
X231275000Y-116943333D01*
X233767380Y-119443333D02*
X234767380Y-119110000D01*
X233767380Y-118776666D01*
X234672142Y-117871904D02*
X234719761Y-117919523D01*
X234767380Y-118062380D01*
X234767380Y-118157619D01*
X234719761Y-118300476D01*
X234624523Y-118395714D01*
X234529285Y-118443333D01*
X234338809Y-118490952D01*
X234195952Y-118490952D01*
X234005476Y-118443333D01*
X233910238Y-118395714D01*
X233815000Y-118300476D01*
X233767380Y-118157619D01*
X233767380Y-118062380D01*
X233815000Y-117919523D01*
X233862619Y-117871904D01*
X234672142Y-116871904D02*
X234719761Y-116919523D01*
X234767380Y-117062380D01*
X234767380Y-117157619D01*
X234719761Y-117300476D01*
X234624523Y-117395714D01*
X234529285Y-117443333D01*
X234338809Y-117490952D01*
X234195952Y-117490952D01*
X234005476Y-117443333D01*
X233910238Y-117395714D01*
X233815000Y-117300476D01*
X233767380Y-117157619D01*
X233767380Y-117062380D01*
X233815000Y-116919523D01*
X233862619Y-116871904D01*
X237307380Y-118776666D02*
X236831190Y-119110000D01*
X237307380Y-119348095D02*
X236307380Y-119348095D01*
X236307380Y-118967142D01*
X236355000Y-118871904D01*
X236402619Y-118824285D01*
X236497857Y-118776666D01*
X236640714Y-118776666D01*
X236735952Y-118824285D01*
X236783571Y-118871904D01*
X236831190Y-118967142D01*
X236831190Y-119348095D01*
X236307380Y-118443333D02*
X237307380Y-117776666D01*
X236307380Y-117776666D02*
X237307380Y-118443333D01*
X237307380Y-117395714D02*
X236307380Y-117395714D01*
X236307380Y-117157619D01*
X236355000Y-117014761D01*
X236450238Y-116919523D01*
X236545476Y-116871904D01*
X236735952Y-116824285D01*
X236878809Y-116824285D01*
X237069285Y-116871904D01*
X237164523Y-116919523D01*
X237259761Y-117014761D01*
X237307380Y-117157619D01*
X237307380Y-117395714D01*
X238847380Y-119371904D02*
X238847380Y-118800476D01*
X239847380Y-119086190D02*
X238847380Y-119086190D01*
X238847380Y-118562380D02*
X239847380Y-117895714D01*
X238847380Y-117895714D02*
X239847380Y-118562380D01*
X239847380Y-117514761D02*
X238847380Y-117514761D01*
X238847380Y-117276666D01*
X238895000Y-117133809D01*
X238990238Y-117038571D01*
X239085476Y-116990952D01*
X239275952Y-116943333D01*
X239418809Y-116943333D01*
X239609285Y-116990952D01*
X239704523Y-117038571D01*
X239799761Y-117133809D01*
X239847380Y-117276666D01*
X239847380Y-117514761D01*
X241020000Y-119467142D02*
X241020000Y-118467142D01*
X242387380Y-118657619D02*
X241911190Y-118990952D01*
X242387380Y-119229047D02*
X241387380Y-119229047D01*
X241387380Y-118848095D01*
X241435000Y-118752857D01*
X241482619Y-118705238D01*
X241577857Y-118657619D01*
X241720714Y-118657619D01*
X241815952Y-118705238D01*
X241863571Y-118752857D01*
X241911190Y-118848095D01*
X241911190Y-119229047D01*
X241020000Y-118467142D02*
X241020000Y-117705238D01*
X241387380Y-118371904D02*
X241387380Y-117800476D01*
X242387380Y-118086190D02*
X241387380Y-118086190D01*
X241020000Y-117705238D02*
X241020000Y-116752857D01*
X242339761Y-117514761D02*
X242387380Y-117371904D01*
X242387380Y-117133809D01*
X242339761Y-117038571D01*
X242292142Y-116990952D01*
X242196904Y-116943333D01*
X242101666Y-116943333D01*
X242006428Y-116990952D01*
X241958809Y-117038571D01*
X241911190Y-117133809D01*
X241863571Y-117324285D01*
X241815952Y-117419523D01*
X241768333Y-117467142D01*
X241673095Y-117514761D01*
X241577857Y-117514761D01*
X241482619Y-117467142D01*
X241435000Y-117419523D01*
X241387380Y-117324285D01*
X241387380Y-117086190D01*
X241435000Y-116943333D01*
X230860000Y-94702142D02*
X230860000Y-93702142D01*
X232132142Y-93892619D02*
X232179761Y-93940238D01*
X232227380Y-94083095D01*
X232227380Y-94178333D01*
X232179761Y-94321190D01*
X232084523Y-94416428D01*
X231989285Y-94464047D01*
X231798809Y-94511666D01*
X231655952Y-94511666D01*
X231465476Y-94464047D01*
X231370238Y-94416428D01*
X231275000Y-94321190D01*
X231227380Y-94178333D01*
X231227380Y-94083095D01*
X231275000Y-93940238D01*
X231322619Y-93892619D01*
X230860000Y-93702142D02*
X230860000Y-92940238D01*
X231227380Y-93606904D02*
X231227380Y-93035476D01*
X232227380Y-93321190D02*
X231227380Y-93321190D01*
X230860000Y-92940238D02*
X230860000Y-91987857D01*
X232179761Y-92749761D02*
X232227380Y-92606904D01*
X232227380Y-92368809D01*
X232179761Y-92273571D01*
X232132142Y-92225952D01*
X232036904Y-92178333D01*
X231941666Y-92178333D01*
X231846428Y-92225952D01*
X231798809Y-92273571D01*
X231751190Y-92368809D01*
X231703571Y-92559285D01*
X231655952Y-92654523D01*
X231608333Y-92702142D01*
X231513095Y-92749761D01*
X231417857Y-92749761D01*
X231322619Y-92702142D01*
X231275000Y-92654523D01*
X231227380Y-92559285D01*
X231227380Y-92321190D01*
X231275000Y-92178333D01*
X233767380Y-94678333D02*
X234767380Y-94345000D01*
X233767380Y-94011666D01*
X234672142Y-93106904D02*
X234719761Y-93154523D01*
X234767380Y-93297380D01*
X234767380Y-93392619D01*
X234719761Y-93535476D01*
X234624523Y-93630714D01*
X234529285Y-93678333D01*
X234338809Y-93725952D01*
X234195952Y-93725952D01*
X234005476Y-93678333D01*
X233910238Y-93630714D01*
X233815000Y-93535476D01*
X233767380Y-93392619D01*
X233767380Y-93297380D01*
X233815000Y-93154523D01*
X233862619Y-93106904D01*
X234672142Y-92106904D02*
X234719761Y-92154523D01*
X234767380Y-92297380D01*
X234767380Y-92392619D01*
X234719761Y-92535476D01*
X234624523Y-92630714D01*
X234529285Y-92678333D01*
X234338809Y-92725952D01*
X234195952Y-92725952D01*
X234005476Y-92678333D01*
X233910238Y-92630714D01*
X233815000Y-92535476D01*
X233767380Y-92392619D01*
X233767380Y-92297380D01*
X233815000Y-92154523D01*
X233862619Y-92106904D01*
X237307380Y-94011666D02*
X236831190Y-94345000D01*
X237307380Y-94583095D02*
X236307380Y-94583095D01*
X236307380Y-94202142D01*
X236355000Y-94106904D01*
X236402619Y-94059285D01*
X236497857Y-94011666D01*
X236640714Y-94011666D01*
X236735952Y-94059285D01*
X236783571Y-94106904D01*
X236831190Y-94202142D01*
X236831190Y-94583095D01*
X236307380Y-93678333D02*
X237307380Y-93011666D01*
X236307380Y-93011666D02*
X237307380Y-93678333D01*
X237307380Y-92630714D02*
X236307380Y-92630714D01*
X236307380Y-92392619D01*
X236355000Y-92249761D01*
X236450238Y-92154523D01*
X236545476Y-92106904D01*
X236735952Y-92059285D01*
X236878809Y-92059285D01*
X237069285Y-92106904D01*
X237164523Y-92154523D01*
X237259761Y-92249761D01*
X237307380Y-92392619D01*
X237307380Y-92630714D01*
X238847380Y-94606904D02*
X238847380Y-94035476D01*
X239847380Y-94321190D02*
X238847380Y-94321190D01*
X238847380Y-93797380D02*
X239847380Y-93130714D01*
X238847380Y-93130714D02*
X239847380Y-93797380D01*
X239847380Y-92749761D02*
X238847380Y-92749761D01*
X238847380Y-92511666D01*
X238895000Y-92368809D01*
X238990238Y-92273571D01*
X239085476Y-92225952D01*
X239275952Y-92178333D01*
X239418809Y-92178333D01*
X239609285Y-92225952D01*
X239704523Y-92273571D01*
X239799761Y-92368809D01*
X239847380Y-92511666D01*
X239847380Y-92749761D01*
X241020000Y-94702142D02*
X241020000Y-93702142D01*
X242387380Y-93892619D02*
X241911190Y-94225952D01*
X242387380Y-94464047D02*
X241387380Y-94464047D01*
X241387380Y-94083095D01*
X241435000Y-93987857D01*
X241482619Y-93940238D01*
X241577857Y-93892619D01*
X241720714Y-93892619D01*
X241815952Y-93940238D01*
X241863571Y-93987857D01*
X241911190Y-94083095D01*
X241911190Y-94464047D01*
X241020000Y-93702142D02*
X241020000Y-92940238D01*
X241387380Y-93606904D02*
X241387380Y-93035476D01*
X242387380Y-93321190D02*
X241387380Y-93321190D01*
X241020000Y-92940238D02*
X241020000Y-91987857D01*
X242339761Y-92749761D02*
X242387380Y-92606904D01*
X242387380Y-92368809D01*
X242339761Y-92273571D01*
X242292142Y-92225952D01*
X242196904Y-92178333D01*
X242101666Y-92178333D01*
X242006428Y-92225952D01*
X241958809Y-92273571D01*
X241911190Y-92368809D01*
X241863571Y-92559285D01*
X241815952Y-92654523D01*
X241768333Y-92702142D01*
X241673095Y-92749761D01*
X241577857Y-92749761D01*
X241482619Y-92702142D01*
X241435000Y-92654523D01*
X241387380Y-92559285D01*
X241387380Y-92321190D01*
X241435000Y-92178333D01*
X230860000Y-69937142D02*
X230860000Y-68937142D01*
X232132142Y-69127619D02*
X232179761Y-69175238D01*
X232227380Y-69318095D01*
X232227380Y-69413333D01*
X232179761Y-69556190D01*
X232084523Y-69651428D01*
X231989285Y-69699047D01*
X231798809Y-69746666D01*
X231655952Y-69746666D01*
X231465476Y-69699047D01*
X231370238Y-69651428D01*
X231275000Y-69556190D01*
X231227380Y-69413333D01*
X231227380Y-69318095D01*
X231275000Y-69175238D01*
X231322619Y-69127619D01*
X230860000Y-68937142D02*
X230860000Y-68175238D01*
X231227380Y-68841904D02*
X231227380Y-68270476D01*
X232227380Y-68556190D02*
X231227380Y-68556190D01*
X230860000Y-68175238D02*
X230860000Y-67222857D01*
X232179761Y-67984761D02*
X232227380Y-67841904D01*
X232227380Y-67603809D01*
X232179761Y-67508571D01*
X232132142Y-67460952D01*
X232036904Y-67413333D01*
X231941666Y-67413333D01*
X231846428Y-67460952D01*
X231798809Y-67508571D01*
X231751190Y-67603809D01*
X231703571Y-67794285D01*
X231655952Y-67889523D01*
X231608333Y-67937142D01*
X231513095Y-67984761D01*
X231417857Y-67984761D01*
X231322619Y-67937142D01*
X231275000Y-67889523D01*
X231227380Y-67794285D01*
X231227380Y-67556190D01*
X231275000Y-67413333D01*
X233767380Y-69913333D02*
X234767380Y-69580000D01*
X233767380Y-69246666D01*
X234672142Y-68341904D02*
X234719761Y-68389523D01*
X234767380Y-68532380D01*
X234767380Y-68627619D01*
X234719761Y-68770476D01*
X234624523Y-68865714D01*
X234529285Y-68913333D01*
X234338809Y-68960952D01*
X234195952Y-68960952D01*
X234005476Y-68913333D01*
X233910238Y-68865714D01*
X233815000Y-68770476D01*
X233767380Y-68627619D01*
X233767380Y-68532380D01*
X233815000Y-68389523D01*
X233862619Y-68341904D01*
X234672142Y-67341904D02*
X234719761Y-67389523D01*
X234767380Y-67532380D01*
X234767380Y-67627619D01*
X234719761Y-67770476D01*
X234624523Y-67865714D01*
X234529285Y-67913333D01*
X234338809Y-67960952D01*
X234195952Y-67960952D01*
X234005476Y-67913333D01*
X233910238Y-67865714D01*
X233815000Y-67770476D01*
X233767380Y-67627619D01*
X233767380Y-67532380D01*
X233815000Y-67389523D01*
X233862619Y-67341904D01*
X237307380Y-69246666D02*
X236831190Y-69580000D01*
X237307380Y-69818095D02*
X236307380Y-69818095D01*
X236307380Y-69437142D01*
X236355000Y-69341904D01*
X236402619Y-69294285D01*
X236497857Y-69246666D01*
X236640714Y-69246666D01*
X236735952Y-69294285D01*
X236783571Y-69341904D01*
X236831190Y-69437142D01*
X236831190Y-69818095D01*
X236307380Y-68913333D02*
X237307380Y-68246666D01*
X236307380Y-68246666D02*
X237307380Y-68913333D01*
X237307380Y-67865714D02*
X236307380Y-67865714D01*
X236307380Y-67627619D01*
X236355000Y-67484761D01*
X236450238Y-67389523D01*
X236545476Y-67341904D01*
X236735952Y-67294285D01*
X236878809Y-67294285D01*
X237069285Y-67341904D01*
X237164523Y-67389523D01*
X237259761Y-67484761D01*
X237307380Y-67627619D01*
X237307380Y-67865714D01*
X238847380Y-69841904D02*
X238847380Y-69270476D01*
X239847380Y-69556190D02*
X238847380Y-69556190D01*
X238847380Y-69032380D02*
X239847380Y-68365714D01*
X238847380Y-68365714D02*
X239847380Y-69032380D01*
X239847380Y-67984761D02*
X238847380Y-67984761D01*
X238847380Y-67746666D01*
X238895000Y-67603809D01*
X238990238Y-67508571D01*
X239085476Y-67460952D01*
X239275952Y-67413333D01*
X239418809Y-67413333D01*
X239609285Y-67460952D01*
X239704523Y-67508571D01*
X239799761Y-67603809D01*
X239847380Y-67746666D01*
X239847380Y-67984761D01*
X241020000Y-69937142D02*
X241020000Y-68937142D01*
X242387380Y-69127619D02*
X241911190Y-69460952D01*
X242387380Y-69699047D02*
X241387380Y-69699047D01*
X241387380Y-69318095D01*
X241435000Y-69222857D01*
X241482619Y-69175238D01*
X241577857Y-69127619D01*
X241720714Y-69127619D01*
X241815952Y-69175238D01*
X241863571Y-69222857D01*
X241911190Y-69318095D01*
X241911190Y-69699047D01*
X241020000Y-68937142D02*
X241020000Y-68175238D01*
X241387380Y-68841904D02*
X241387380Y-68270476D01*
X242387380Y-68556190D02*
X241387380Y-68556190D01*
X241020000Y-68175238D02*
X241020000Y-67222857D01*
X242339761Y-67984761D02*
X242387380Y-67841904D01*
X242387380Y-67603809D01*
X242339761Y-67508571D01*
X242292142Y-67460952D01*
X242196904Y-67413333D01*
X242101666Y-67413333D01*
X242006428Y-67460952D01*
X241958809Y-67508571D01*
X241911190Y-67603809D01*
X241863571Y-67794285D01*
X241815952Y-67889523D01*
X241768333Y-67937142D01*
X241673095Y-67984761D01*
X241577857Y-67984761D01*
X241482619Y-67937142D01*
X241435000Y-67889523D01*
X241387380Y-67794285D01*
X241387380Y-67556190D01*
X241435000Y-67413333D01*
X157313333Y-112382380D02*
X156980000Y-111906190D01*
X156741904Y-112382380D02*
X156741904Y-111382380D01*
X157122857Y-111382380D01*
X157218095Y-111430000D01*
X157265714Y-111477619D01*
X157313333Y-111572857D01*
X157313333Y-111715714D01*
X157265714Y-111810952D01*
X157218095Y-111858571D01*
X157122857Y-111906190D01*
X156741904Y-111906190D01*
X158265714Y-112382380D02*
X157694285Y-112382380D01*
X157980000Y-112382380D02*
X157980000Y-111382380D01*
X157884761Y-111525238D01*
X157789523Y-111620476D01*
X157694285Y-111668095D01*
X157313333Y-62852380D02*
X156980000Y-62376190D01*
X156741904Y-62852380D02*
X156741904Y-61852380D01*
X157122857Y-61852380D01*
X157218095Y-61900000D01*
X157265714Y-61947619D01*
X157313333Y-62042857D01*
X157313333Y-62185714D01*
X157265714Y-62280952D01*
X157218095Y-62328571D01*
X157122857Y-62376190D01*
X156741904Y-62376190D01*
X157694285Y-61947619D02*
X157741904Y-61900000D01*
X157837142Y-61852380D01*
X158075238Y-61852380D01*
X158170476Y-61900000D01*
X158218095Y-61947619D01*
X158265714Y-62042857D01*
X158265714Y-62138095D01*
X158218095Y-62280952D01*
X157646666Y-62852380D01*
X158265714Y-62852380D01*
X79843333Y-112382380D02*
X79510000Y-111906190D01*
X79271904Y-112382380D02*
X79271904Y-111382380D01*
X79652857Y-111382380D01*
X79748095Y-111430000D01*
X79795714Y-111477619D01*
X79843333Y-111572857D01*
X79843333Y-111715714D01*
X79795714Y-111810952D01*
X79748095Y-111858571D01*
X79652857Y-111906190D01*
X79271904Y-111906190D01*
X80176666Y-111382380D02*
X80795714Y-111382380D01*
X80462380Y-111763333D01*
X80605238Y-111763333D01*
X80700476Y-111810952D01*
X80748095Y-111858571D01*
X80795714Y-111953809D01*
X80795714Y-112191904D01*
X80748095Y-112287142D01*
X80700476Y-112334761D01*
X80605238Y-112382380D01*
X80319523Y-112382380D01*
X80224285Y-112334761D01*
X80176666Y-112287142D01*
X79843333Y-62852380D02*
X79510000Y-62376190D01*
X79271904Y-62852380D02*
X79271904Y-61852380D01*
X79652857Y-61852380D01*
X79748095Y-61900000D01*
X79795714Y-61947619D01*
X79843333Y-62042857D01*
X79843333Y-62185714D01*
X79795714Y-62280952D01*
X79748095Y-62328571D01*
X79652857Y-62376190D01*
X79271904Y-62376190D01*
X80700476Y-62185714D02*
X80700476Y-62852380D01*
X80462380Y-61804761D02*
X80224285Y-62519047D01*
X80843333Y-62519047D01*
X47498095Y-97452380D02*
X47498095Y-98261904D01*
X47545714Y-98357142D01*
X47593333Y-98404761D01*
X47688571Y-98452380D01*
X47879047Y-98452380D01*
X47974285Y-98404761D01*
X48021904Y-98357142D01*
X48069523Y-98261904D01*
X48069523Y-97452380D01*
X49069523Y-98452380D02*
X48498095Y-98452380D01*
X48783809Y-98452380D02*
X48783809Y-97452380D01*
X48688571Y-97595238D01*
X48593333Y-97690476D01*
X48498095Y-97738095D01*
X47498095Y-69512380D02*
X47498095Y-70321904D01*
X47545714Y-70417142D01*
X47593333Y-70464761D01*
X47688571Y-70512380D01*
X47879047Y-70512380D01*
X47974285Y-70464761D01*
X48021904Y-70417142D01*
X48069523Y-70321904D01*
X48069523Y-69512380D01*
X48498095Y-69607619D02*
X48545714Y-69560000D01*
X48640952Y-69512380D01*
X48879047Y-69512380D01*
X48974285Y-69560000D01*
X49021904Y-69607619D01*
X49069523Y-69702857D01*
X49069523Y-69798095D01*
X49021904Y-69940952D01*
X48450476Y-70512380D01*
X49069523Y-70512380D01*
X196092380Y-127761904D02*
X196901904Y-127761904D01*
X196997142Y-127714285D01*
X197044761Y-127666666D01*
X197092380Y-127571428D01*
X197092380Y-127380952D01*
X197044761Y-127285714D01*
X196997142Y-127238095D01*
X196901904Y-127190476D01*
X196092380Y-127190476D01*
X196092380Y-126809523D02*
X196092380Y-126190476D01*
X196473333Y-126523809D01*
X196473333Y-126380952D01*
X196520952Y-126285714D01*
X196568571Y-126238095D01*
X196663809Y-126190476D01*
X196901904Y-126190476D01*
X196997142Y-126238095D01*
X197044761Y-126285714D01*
X197092380Y-126380952D01*
X197092380Y-126666666D01*
X197044761Y-126761904D01*
X196997142Y-126809523D01*
X196092380Y-78231904D02*
X196901904Y-78231904D01*
X196997142Y-78184285D01*
X197044761Y-78136666D01*
X197092380Y-78041428D01*
X197092380Y-77850952D01*
X197044761Y-77755714D01*
X196997142Y-77708095D01*
X196901904Y-77660476D01*
X196092380Y-77660476D01*
X196425714Y-76755714D02*
X197092380Y-76755714D01*
X196044761Y-76993809D02*
X196759047Y-77231904D01*
X196759047Y-76612857D01*
X118622380Y-127761904D02*
X119431904Y-127761904D01*
X119527142Y-127714285D01*
X119574761Y-127666666D01*
X119622380Y-127571428D01*
X119622380Y-127380952D01*
X119574761Y-127285714D01*
X119527142Y-127238095D01*
X119431904Y-127190476D01*
X118622380Y-127190476D01*
X118622380Y-126238095D02*
X118622380Y-126714285D01*
X119098571Y-126761904D01*
X119050952Y-126714285D01*
X119003333Y-126619047D01*
X119003333Y-126380952D01*
X119050952Y-126285714D01*
X119098571Y-126238095D01*
X119193809Y-126190476D01*
X119431904Y-126190476D01*
X119527142Y-126238095D01*
X119574761Y-126285714D01*
X119622380Y-126380952D01*
X119622380Y-126619047D01*
X119574761Y-126714285D01*
X119527142Y-126761904D01*
X118622380Y-78231904D02*
X119431904Y-78231904D01*
X119527142Y-78184285D01*
X119574761Y-78136666D01*
X119622380Y-78041428D01*
X119622380Y-77850952D01*
X119574761Y-77755714D01*
X119527142Y-77708095D01*
X119431904Y-77660476D01*
X118622380Y-77660476D01*
X118622380Y-76755714D02*
X118622380Y-76946190D01*
X118670000Y-77041428D01*
X118717619Y-77089047D01*
X118860476Y-77184285D01*
X119050952Y-77231904D01*
X119431904Y-77231904D01*
X119527142Y-77184285D01*
X119574761Y-77136666D01*
X119622380Y-77041428D01*
X119622380Y-76850952D01*
X119574761Y-76755714D01*
X119527142Y-76708095D01*
X119431904Y-76660476D01*
X119193809Y-76660476D01*
X119098571Y-76708095D01*
X119050952Y-76755714D01*
X119003333Y-76850952D01*
X119003333Y-77041428D01*
X119050952Y-77136666D01*
X119098571Y-77184285D01*
X119193809Y-77231904D01*
X156903809Y-104401190D02*
X156903809Y-104877380D01*
X156570476Y-103877380D02*
X156903809Y-104401190D01*
X157237142Y-103877380D01*
X158094285Y-104877380D02*
X157522857Y-104877380D01*
X157808571Y-104877380D02*
X157808571Y-103877380D01*
X157713333Y-104020238D01*
X157618095Y-104115476D01*
X157522857Y-104163095D01*
X156903809Y-54871190D02*
X156903809Y-55347380D01*
X156570476Y-54347380D02*
X156903809Y-54871190D01*
X157237142Y-54347380D01*
X157522857Y-54442619D02*
X157570476Y-54395000D01*
X157665714Y-54347380D01*
X157903809Y-54347380D01*
X157999047Y-54395000D01*
X158046666Y-54442619D01*
X158094285Y-54537857D01*
X158094285Y-54633095D01*
X158046666Y-54775952D01*
X157475238Y-55347380D01*
X158094285Y-55347380D01*
X79433809Y-104401190D02*
X79433809Y-104877380D01*
X79100476Y-103877380D02*
X79433809Y-104401190D01*
X79767142Y-103877380D01*
X80005238Y-103877380D02*
X80624285Y-103877380D01*
X80290952Y-104258333D01*
X80433809Y-104258333D01*
X80529047Y-104305952D01*
X80576666Y-104353571D01*
X80624285Y-104448809D01*
X80624285Y-104686904D01*
X80576666Y-104782142D01*
X80529047Y-104829761D01*
X80433809Y-104877380D01*
X80148095Y-104877380D01*
X80052857Y-104829761D01*
X80005238Y-104782142D01*
X79433809Y-54871190D02*
X79433809Y-55347380D01*
X79100476Y-54347380D02*
X79433809Y-54871190D01*
X79767142Y-54347380D01*
X80529047Y-54680714D02*
X80529047Y-55347380D01*
X80290952Y-54299761D02*
X80052857Y-55014047D01*
X80671904Y-55014047D01*
M02*
