<?xml version="1.0" encoding="UTF-8" standalone="no"?>
<!-- Created with Inkscape (http://www.inkscape.org/) -->

<svg
   xmlns:dc="http://purl.org/dc/elements/1.1/"
   xmlns:cc="http://creativecommons.org/ns#"
   xmlns:rdf="http://www.w3.org/1999/02/22-rdf-syntax-ns#"
   xmlns:svg="http://www.w3.org/2000/svg"
   xmlns="http://www.w3.org/2000/svg"
   xmlns:sodipodi="http://sodipodi.sourceforge.net/DTD/sodipodi-0.dtd"
   xmlns:inkscape="http://www.inkscape.org/namespaces/inkscape"
   sodipodi:docname="serial-panel.svg"
   inkscape:version="0.92.5 (2060ec1f9f, 2020-04-08)"
   id="svg8"
   version="1.1"
   viewBox="0 0 210 297"
   height="297mm"
   width="210mm">
  <defs
     id="defs2" />
  <sodipodi:namedview
     id="base"
     pagecolor="#ffffff"
     bordercolor="#666666"
     borderopacity="1.0"
     inkscape:pageopacity="0.0"
     inkscape:pageshadow="2"
     inkscape:zoom="3.3781145"
     inkscape:cx="270.66576"
     inkscape:cy="12.874463"
     inkscape:document-units="mm"
     inkscape:current-layer="layer1"
     showgrid="false"
     inkscape:window-width="3768"
     inkscape:window-height="2089"
     inkscape:window-x="72"
     inkscape:window-y="34"
     inkscape:window-maximized="1" />
  <metadata
     id="metadata5">
    <rdf:RDF>
      <cc:Work
         rdf:about="">
        <dc:format>image/svg+xml</dc:format>
        <dc:type
           rdf:resource="http://purl.org/dc/dcmitype/StillImage" />
        <dc:title></dc:title>
      </cc:Work>
    </rdf:RDF>
  </metadata>
  <g
     inkscape:label="Layer 1"
     inkscape:groupmode="layer"
     id="layer1">
    <path
       inkscape:connector-curvature="0"
       d=""
       style="fill:none;stroke:#000000;stroke-width:1;stroke-miterlimit:4;stroke-dasharray:none"
       id="path919" />
    <path
       style="fill:none;stroke:#000000;stroke-width:0.26458332px;stroke-linecap:butt;stroke-linejoin:miter;stroke-opacity:1"
       d="M 15,297 V 287 H 0 v -29 h 150 v 29 h -15 v 10 z"
       id="path863"
       inkscape:connector-curvature="0"
       sodipodi:nodetypes="ccccccccc" />
    <circle
       style="opacity:1;fill:none;fill-opacity:1;stroke:#000000;stroke-width:0.15653923;stroke-miterlimit:4;stroke-dasharray:none;stroke-opacity:1"
       id="path865"
       cx="31.184999"
       cy="292"
       r="2.9217303" />
    <circle
       style="opacity:1;fill:none;fill-opacity:1;stroke:#000000;stroke-width:0.15653923;stroke-miterlimit:4;stroke-dasharray:none;stroke-opacity:1"
       id="path865-3"
       cx="118.815"
       cy="292"
       r="2.9217303" />
    <path
       inkscape:connector-curvature="0"
       d="m 67.753505,290.44264 -0.415296,-0.41529 -0.622943,-0.20765 h -0.83059 l -0.622943,0.20765 -0.415296,0.41529 v 0.4153 l 0.207648,0.41529 0.207648,0.20765 0.415295,0.20765 1.245886,0.41529 0.415295,0.20765 0.207648,0.20765 0.207648,0.41529 v 0.62295 l -0.415296,0.41529 -0.622943,0.20765 h -0.83059 l -0.622943,-0.20765 -0.415296,-0.41529"
       style="fill:none;stroke:#000000;stroke-width:0.5;stroke-miterlimit:4;stroke-dasharray:none"
       id="path1392" />
    <path
       inkscape:connector-curvature="0"
       d="m 69.207038,289.8197 v 4.3606 m 0,-4.3606 h 2.69942 m -2.69942,2.07647 h 1.661181 m -1.661181,2.28413 h 2.69942"
       style="fill:none;stroke:#000000;stroke-width:0.5;stroke-miterlimit:4;stroke-dasharray:none"
       id="path1394" />
    <path
       inkscape:connector-curvature="0"
       d="m 73.152343,289.8197 v 4.3606 m 0,-4.3606 h 1.868829 l 0.622943,0.20765 0.207648,0.20764 0.207648,0.4153 v 0.41529 l -0.207648,0.4153 -0.207648,0.20765 -0.622943,0.20764 h -1.868829 m 1.453534,0 1.453534,2.28413"
       style="fill:none;stroke:#000000;stroke-width:0.5;stroke-miterlimit:4;stroke-dasharray:none"
       id="path1396" />
    <path
       inkscape:connector-curvature="0"
       d="m 77.512944,289.8197 v 4.3606"
       style="fill:none;stroke:#000000;stroke-width:0.5;stroke-miterlimit:4;stroke-dasharray:none"
       id="path1398" />
    <path
       inkscape:connector-curvature="0"
       d="m 80.212364,289.8197 -1.661181,4.3606 m 1.661181,-4.3606 1.661181,4.3606 m -2.699419,-1.45353 h 2.076476"
       style="fill:none;stroke:#000000;stroke-width:0.5;stroke-miterlimit:4;stroke-dasharray:none"
       id="path1400" />
    <path
       inkscape:connector-curvature="0"
       d="m 82.911783,289.8197 v 4.3606 m 0,0 h 2.491772"
       style="fill:none;stroke:#000000;stroke-width:0.5;stroke-miterlimit:4;stroke-dasharray:none"
       id="path1402" />
    <path
       inkscape:connector-curvature="0"
       d="m 60.438774,260.79926 0.393701,-0.19685 0.59055,-0.59055 v 4.13385"
       style="fill:none;stroke:#000000;stroke-width:0.5;stroke-miterlimit:4;stroke-dasharray:none"
       id="path1767" />
    <path
       inkscape:connector-curvature="0"
       d="m 88.082114,260.68234 v -0.19902 l 0.199029,-0.39806 0.19903,-0.19903 0.398058,-0.19903 h 0.796118 l 0.398058,0.19903 0.19903,0.19903 0.199029,0.39806 v 0.39805 l -0.199029,0.39806 -0.398059,0.59709 -1.990294,1.99029 h 2.786412"
       style="fill:none;stroke:#000000;stroke-width:0.5;stroke-miterlimit:4;stroke-dasharray:none"
       id="path1890" />
    <path
       inkscape:connector-curvature="0"
       d="m 115.9713,259.69917 h 2.17679 l -1.18734,1.58311 h 0.59367 l 0.39578,0.19789 0.19789,0.19789 0.19789,0.59367 v 0.39578 l -0.19789,0.59367 -0.39578,0.39578 -0.59367,0.19789 h -0.59367 l -0.59367,-0.19789 -0.19789,-0.19789 -0.19789,-0.39578"
       style="fill:none;stroke:#000000;stroke-width:0.5;stroke-miterlimit:4;stroke-dasharray:none"
       id="path2015" />
    <path
       inkscape:connector-curvature="0"
       d="m 32.812096,259.80401 -0.563712,0.18791 -0.375808,0.56371 -0.187904,0.93952 v 0.56371 l 0.187904,0.93952 0.375808,0.56371 0.563712,0.18791 h 0.375808 l 0.563712,-0.18791 0.375808,-0.56371 0.187904,-0.93952 v -0.56371 l -0.187904,-0.93952 -0.375808,-0.56371 -0.563712,-0.18791 h -0.375808"
       style="fill:none;stroke:#000000;stroke-width:0.5;stroke-miterlimit:4;stroke-dasharray:none"
       id="path2221" />
    <circle
       style="opacity:1;fill:#ff0000;fill-opacity:1;stroke:#000000;stroke-width:0.6013841;stroke-miterlimit:4;stroke-dasharray:none;stroke-opacity:1"
       id="path6607-78"
       cx="28"
       cy="273"
       r="2.4493079" />
    <circle
       style="opacity:1;fill:#ff0000;fill-opacity:1;stroke:#000000;stroke-width:0.6013841;stroke-miterlimit:4;stroke-dasharray:none;stroke-opacity:1"
       id="path6607-6-4"
       cx="38"
       cy="273"
       r="2.4493079" />
    <path
       inkscape:connector-curvature="0"
       d="m 35.353509,266.0662 v 3.29513 m 0,-3.29513 h 1.412198 l 0.470732,0.15691 0.156911,0.15691 0.156911,0.31382 v 0.31382 l -0.156911,0.31383 -0.156911,0.15691 -0.470732,0.15691 h -1.412198 m 1.098376,0 1.098376,1.72602"
       style="fill:none;stroke:#000000;stroke-width:0.5;stroke-miterlimit:4;stroke-dasharray:none"
       id="path1522" />
    <path
       inkscape:connector-curvature="0"
       d="m 38.491727,266.0662 2.196752,3.29513 m 0,-3.29513 -2.196752,3.29513"
       style="fill:none;stroke:#000000;stroke-width:0.5;stroke-miterlimit:4;stroke-dasharray:none"
       id="path1524" />
    <path
       inkscape:connector-curvature="0"
       d="m 26.487858,266.07094 v 3.28565 m -1.095217,-3.28565 h 2.190434"
       style="fill:none;stroke:#000000;stroke-width:0.5;stroke-miterlimit:4;stroke-dasharray:none"
       id="path1643" />
    <path
       inkscape:connector-curvature="0"
       d="m 28.208912,266.07094 2.190434,3.28565 m 0,-3.28565 -2.190434,3.28565"
       style="fill:none;stroke:#000000;stroke-width:0.5;stroke-miterlimit:4;stroke-dasharray:none"
       id="path1645" />
    <path
       style="fill:none;stroke:#000000;stroke-width:0.5;stroke-linecap:butt;stroke-linejoin:miter;stroke-miterlimit:4;stroke-dasharray:none;stroke-opacity:1"
       d="m 25.558187,285.77824 1.21115,9.2e-4 -0.59416,-0.97568 z"
       id="path2186"
       inkscape:connector-curvature="0"
       sodipodi:nodetypes="cccc" />
    <rect
       style="opacity:1;fill:none;fill-opacity:1;stroke:#c0c0c0;stroke-width:0.43611002;stroke-miterlimit:4;stroke-dasharray:none;stroke-opacity:1"
       id="rect2229"
       width="18.063889"
       height="5.06389"
       x="23.968056"
       y="278.46805" />
    <circle
       style="opacity:1;fill:#ff0000;fill-opacity:1;stroke:#000000;stroke-width:0.6013841;stroke-miterlimit:4;stroke-dasharray:none;stroke-opacity:1"
       id="path6607-78-9"
       cx="55.999992"
       cy="273"
       r="2.4493079" />
    <circle
       style="opacity:1;fill:#ff0000;fill-opacity:1;stroke:#000000;stroke-width:0.6013841;stroke-miterlimit:4;stroke-dasharray:none;stroke-opacity:1"
       id="path6607-6-4-3"
       cx="65.999992"
       cy="273"
       r="2.4493079" />
    <path
       inkscape:connector-curvature="0"
       d="m 63.353505,266.0662 v 3.29513 m 0,-3.29513 h 1.412198 l 0.470732,0.15691 0.156911,0.15691 0.156911,0.31382 v 0.31382 l -0.156911,0.31383 -0.156911,0.15691 -0.470732,0.15691 h -1.412198 m 1.098376,0 1.098376,1.72602"
       style="fill:none;stroke:#000000;stroke-width:0.5;stroke-miterlimit:4;stroke-dasharray:none"
       id="path1522-9" />
    <path
       inkscape:connector-curvature="0"
       d="m 66.491723,266.0662 2.196752,3.29513 m 0,-3.29513 -2.196752,3.29513"
       style="fill:none;stroke:#000000;stroke-width:0.5;stroke-miterlimit:4;stroke-dasharray:none"
       id="path1524-4" />
    <path
       inkscape:connector-curvature="0"
       d="m 54.487854,266.07094 v 3.28565 m -1.095217,-3.28565 h 2.190434"
       style="fill:none;stroke:#000000;stroke-width:0.5;stroke-miterlimit:4;stroke-dasharray:none"
       id="path1643-8" />
    <path
       inkscape:connector-curvature="0"
       d="m 56.208908,266.07094 2.190434,3.28565 m 0,-3.28565 -2.190434,3.28565"
       style="fill:none;stroke:#000000;stroke-width:0.5;stroke-miterlimit:4;stroke-dasharray:none"
       id="path1645-4" />
    <path
       style="fill:none;stroke:#000000;stroke-width:0.5;stroke-linecap:butt;stroke-linejoin:miter;stroke-miterlimit:4;stroke-dasharray:none;stroke-opacity:1"
       d="m 53.558184,285.77824 1.21115,9.2e-4 -0.594161,-0.97568 z"
       id="path2186-5"
       inkscape:connector-curvature="0"
       sodipodi:nodetypes="cccc" />
    <rect
       style="opacity:1;fill:none;fill-opacity:1;stroke:#c0c0c0;stroke-width:0.43611002;stroke-miterlimit:4;stroke-dasharray:none;stroke-opacity:1"
       id="rect2229-6"
       width="18.063889"
       height="5.06389"
       x="51.968052"
       y="278.46805" />
    <circle
       style="opacity:1;fill:#ff0000;fill-opacity:1;stroke:#000000;stroke-width:0.6013841;stroke-miterlimit:4;stroke-dasharray:none;stroke-opacity:1"
       id="path6607-78-0"
       cx="84"
       cy="273"
       r="2.4493079" />
    <circle
       style="opacity:1;fill:#ff0000;fill-opacity:1;stroke:#000000;stroke-width:0.6013841;stroke-miterlimit:4;stroke-dasharray:none;stroke-opacity:1"
       id="path6607-6-4-6"
       cx="94"
       cy="273"
       r="2.4493079" />
    <path
       inkscape:connector-curvature="0"
       d="m 91.353503,266.0662 v 3.29513 m 0,-3.29513 h 1.412198 l 0.470732,0.15691 0.156911,0.15691 0.156911,0.31382 v 0.31382 l -0.156911,0.31383 -0.156911,0.15691 -0.470732,0.15691 h -1.412198 m 1.098376,0 1.098376,1.72602"
       style="fill:none;stroke:#000000;stroke-width:0.5;stroke-miterlimit:4;stroke-dasharray:none"
       id="path1522-2" />
    <path
       inkscape:connector-curvature="0"
       d="m 94.491721,266.0662 2.196752,3.29513 m 0,-3.29513 -2.196752,3.29513"
       style="fill:none;stroke:#000000;stroke-width:0.5;stroke-miterlimit:4;stroke-dasharray:none"
       id="path1524-0" />
    <path
       inkscape:connector-curvature="0"
       d="m 82.487853,266.07094 v 3.28565 m -1.095217,-3.28565 h 2.190434"
       style="fill:none;stroke:#000000;stroke-width:0.5;stroke-miterlimit:4;stroke-dasharray:none"
       id="path1643-1" />
    <path
       inkscape:connector-curvature="0"
       d="m 84.208907,266.07094 2.190434,3.28565 m 0,-3.28565 -2.190434,3.28565"
       style="fill:none;stroke:#000000;stroke-width:0.5;stroke-miterlimit:4;stroke-dasharray:none"
       id="path1645-5" />
    <path
       style="fill:none;stroke:#000000;stroke-width:0.5;stroke-linecap:butt;stroke-linejoin:miter;stroke-miterlimit:4;stroke-dasharray:none;stroke-opacity:1"
       d="m 81.558182,285.77824 1.21115,9.2e-4 -0.59416,-0.97568 z"
       id="path2186-54"
       inkscape:connector-curvature="0"
       sodipodi:nodetypes="cccc" />
    <rect
       style="opacity:1;fill:none;fill-opacity:1;stroke:#c0c0c0;stroke-width:0.43611002;stroke-miterlimit:4;stroke-dasharray:none;stroke-opacity:1"
       id="rect2229-5"
       width="18.063889"
       height="5.06389"
       x="79.968056"
       y="278.46805" />
    <circle
       style="opacity:1;fill:#ff0000;fill-opacity:1;stroke:#000000;stroke-width:0.6013841;stroke-miterlimit:4;stroke-dasharray:none;stroke-opacity:1"
       id="path6607-78-93"
       cx="112"
       cy="273"
       r="2.4493079" />
    <circle
       style="opacity:1;fill:#ff0000;fill-opacity:1;stroke:#000000;stroke-width:0.6013841;stroke-miterlimit:4;stroke-dasharray:none;stroke-opacity:1"
       id="path6607-6-4-7"
       cx="121.99999"
       cy="273"
       r="2.4493079" />
    <path
       inkscape:connector-curvature="0"
       d="m 119.3535,266.0662 v 3.29513 m 0,-3.29513 h 1.4122 l 0.47073,0.15691 0.15692,0.15691 0.15691,0.31382 v 0.31382 l -0.15691,0.31383 -0.15692,0.15691 -0.47073,0.15691 h -1.4122 m 1.09838,0 1.09838,1.72602"
       style="fill:none;stroke:#000000;stroke-width:0.5;stroke-miterlimit:4;stroke-dasharray:none"
       id="path1522-5" />
    <path
       inkscape:connector-curvature="0"
       d="m 122.49172,266.0662 2.19676,3.29513 m 0,-3.29513 -2.19676,3.29513"
       style="fill:none;stroke:#000000;stroke-width:0.5;stroke-miterlimit:4;stroke-dasharray:none"
       id="path1524-2" />
    <path
       inkscape:connector-curvature="0"
       d="m 110.48786,266.07094 v 3.28565 m -1.09522,-3.28565 h 2.19044"
       style="fill:none;stroke:#000000;stroke-width:0.5;stroke-miterlimit:4;stroke-dasharray:none"
       id="path1643-4" />
    <path
       inkscape:connector-curvature="0"
       d="m 112.20891,266.07094 2.19044,3.28565 m 0,-3.28565 -2.19044,3.28565"
       style="fill:none;stroke:#000000;stroke-width:0.5;stroke-miterlimit:4;stroke-dasharray:none"
       id="path1645-7" />
    <path
       style="fill:none;stroke:#000000;stroke-width:0.5;stroke-linecap:butt;stroke-linejoin:miter;stroke-miterlimit:4;stroke-dasharray:none;stroke-opacity:1"
       d="m 109.55819,285.77824 1.21115,9.2e-4 -0.59416,-0.97568 z"
       id="path2186-4"
       inkscape:connector-curvature="0"
       sodipodi:nodetypes="cccc" />
    <rect
       style="opacity:1;fill:none;fill-opacity:1;stroke:#c0c0c0;stroke-width:0.43611002;stroke-miterlimit:4;stroke-dasharray:none;stroke-opacity:1"
       id="rect2229-7"
       width="18.063889"
       height="5.06389"
       x="107.96806"
       y="278.46805" />
    <path
       style="fill:none;stroke:#000000;stroke-width:0.26458332px;stroke-linecap:butt;stroke-linejoin:miter;stroke-opacity:1"
       d="m 46.999996,260.61364 v 14.56562"
       id="path2795"
       inkscape:connector-curvature="0" />
    <path
       style="fill:none;stroke:#000000;stroke-width:0.26458332px;stroke-linecap:butt;stroke-linejoin:miter;stroke-opacity:1"
       d="m 75,260.61364 v 14.56562"
       id="path2795-8"
       inkscape:connector-curvature="0" />
    <path
       style="fill:none;stroke:#000000;stroke-width:0.26458332px;stroke-linecap:butt;stroke-linejoin:miter;stroke-opacity:1"
       d="m 102.99999,260.61364 v 14.56562"
       id="path2795-6"
       inkscape:connector-curvature="0" />
  </g>
</svg>
