M48
; DRILL file {KiCad 5.1.5+dfsg1-2build2} date Thu 11 Feb 2021 11:00:22 GMT
; FORMAT={3:3/ absolute / metric / suppress leading zeros}
; #@! TF.CreationDate,2021-02-11T11:00:22+00:00
; #@! TF.GenerationSoftware,Kicad,Pcbnew,5.1.5+dfsg1-2build2
; #@! TF.FileFunction,Plated,1,2,PTH
FMAT,2
METRIC,TZ
T1C0.400
T2C0.800
T3C1.000
%
G90
G05
T1
X33020Y-91530
X33500Y-98000
X33745Y-93500
X34000Y-86500
X35500Y-85000
X35500Y-87000
X35500Y-93500
X35560Y-90170
X36000Y-49500
X36518Y-84225
X36775Y-95482
X37500Y-85000
X37500Y-103000
X38225Y-101690
X38500Y-43000
X38500Y-90000
X38546Y-85825
X39000Y-73000
X39500Y-98225
X40500Y-41500
X40500Y-100000
X40775Y-60487
X41000Y-69000
X41000Y-90500
X41500Y-42500
X42000Y-52500
X42000Y-96000
X42253Y-94360
X42500Y-64500
X42500Y-88500
X42500Y-107000
X43496Y-95496
X43500Y-42725
X44000Y-87725
X44500Y-43000
X44500Y-69500
X45225Y-43725
X45225Y-65500
X45500Y-72500
X46000Y-67000
X46275Y-43725
X47000Y-40500
X47000Y-70500
X47000Y-116500
X47451Y-85075
X47500Y-95500
X47500Y-103000
X47715Y-91500
X47715Y-97500
X48000Y-57000
X48500Y-104000
X48500Y-111500
X48500Y-116000
X49000Y-55500
X49225Y-99701
X50000Y-101500
X50288Y-85125
X50500Y-96500
X50500Y-112500
X51000Y-72500
X51000Y-115000
X53000Y-62000
X53281Y-117407
X54000Y-102000
X54500Y-98000
X54798Y-86725
X55000Y-105000
X55000Y-114000
X55410Y-55120
X55880Y-102870
X55880Y-109220
X56000Y-61000
X56000Y-64000
X56500Y-59500
X56500Y-120000
X56605Y-104000
X57225Y-115725
X57330Y-109298
X57500Y-117500
X57500Y-126455
X58725Y-100018
X58725Y-116018
X59000Y-96500
X59500Y-94000
X60748Y-70540
X61275Y-65982
X61500Y-53500
X63006Y-66822
X64000Y-131000
X64500Y-106500
X65000Y-72000
X65000Y-128000
X65518Y-113225
X66500Y-39500
X67000Y-53500
X67000Y-86500
X67000Y-125000
X68500Y-58500
X69000Y-85500
X69500Y-47000
X70130Y-110770
X70500Y-49500
X70500Y-59500
X71120Y-101600
X71120Y-110490
X71500Y-116000
X72500Y-104000
X72500Y-112000
X72500Y-118000
X72513Y-70540
X73660Y-96520
X73660Y-109220
X74000Y-91500
X74000Y-95000
X74385Y-107805
X74500Y-48500
X75500Y-38750
X75500Y-65000
X76000Y-84500
X76200Y-114300
X76230Y-42520
X76500Y-58500
X77000Y-39200
X77000Y-53000
X77500Y-56500
X77500Y-61500
X77500Y-64000
X77500Y-137875
X77691Y-41877
X77758Y-80375
X78500Y-101500
X78668Y-42970
X79000Y-99500
X79000Y-112500
X79175Y-66500
X79308Y-80375
X79500Y-127000
X79564Y-40675
X79725Y-110500
X80000Y-71000
X80500Y-96500
X80500Y-111500
X80928Y-106572
X81000Y-118500
X81280Y-109220
X81500Y-105500
X81513Y-134040
X82544Y-67775
X82635Y-114140
X83000Y-41000
X83095Y-116000
X83725Y-43500
X84340Y-53340
X84500Y-48500
X84500Y-66000
X84545Y-111000
X84565Y-42958
X84812Y-112997
X85275Y-60987
X86000Y-42500
X86000Y-53500
X86000Y-58500
X86000Y-63500
X86000Y-68500
X86000Y-87500
X86000Y-103000
X86500Y-46000
X86500Y-48500
X86725Y-55500
X87000Y-44000
X87500Y-98000
X87500Y-121340
X88000Y-100500
X88113Y-105058
X88225Y-119518
X88500Y-101500
X89500Y-114500
X89775Y-103985
X89775Y-108982
X89875Y-99650
X90500Y-116500
X90750Y-97000
X91000Y-124500
X91500Y-51000
X91554Y-80619
X92000Y-71000
X93000Y-58000
X93500Y-42500
X94275Y-113775
X94275Y-129500
X95500Y-72000
X95500Y-131500
X96000Y-119500
X96225Y-125482
X96500Y-128000
X96987Y-44487
X97000Y-114500
X97341Y-79190
X98000Y-109500
X98000Y-130500
X98500Y-47500
X98943Y-106492
X99000Y-46000
X99000Y-52000
X99500Y-43225
X100000Y-62000
X100500Y-41500
X101500Y-118000
X104000Y-113000
X105000Y-123000
X105335Y-67165
X105495Y-57005
X105500Y-44500
X105500Y-63500
X106428Y-81675
X106500Y-45500
X106500Y-48000
X106500Y-66000
X106500Y-102500
X106558Y-78290
X107500Y-102325
X111500Y-100000
X112500Y-48500
X112500Y-48500
X112500Y-53500
X112500Y-58500
X112500Y-63500
X114500Y-46000
X115500Y-137000
X115523Y-85125
X116295Y-107500
X118260Y-77925
X118848Y-77116
X119500Y-100500
X119741Y-76666
X120500Y-68000
X120500Y-98500
X121275Y-65500
X121546Y-78825
X121707Y-76225
X122000Y-50500
X122500Y-44500
X123000Y-72000
X123500Y-59000
X125000Y-106000
X125500Y-75500
X126175Y-95500
X126500Y-72500
X126500Y-87000
X128000Y-47000
X128500Y-60500
X128500Y-76000
X130000Y-49000
X130000Y-88500
X131000Y-89500
X131500Y-71000
X131500Y-111000
X132000Y-90000
X132500Y-77500
X133500Y-41500
X134000Y-60725
X137500Y-52000
X137500Y-77500
X137500Y-86500
X137500Y-116000
X140000Y-66225
X140000Y-71000
X141769Y-91731
X141769Y-138330
X142000Y-76860
X142500Y-50000
X142500Y-52500
X142846Y-85207
X143000Y-67500
X143339Y-139275
X144272Y-82775
X144500Y-86000
X144500Y-140000
X145000Y-44725
X145000Y-49000
X145000Y-55000
X145000Y-71000
X145500Y-111500
X145500Y-138000
X145505Y-76500
X146000Y-56000
X146000Y-58000
X146500Y-76000
X146627Y-40175
X147500Y-57725
X148500Y-77500
X149715Y-91295
X150013Y-41513
X152133Y-42025
X152513Y-58775
X153000Y-72000
X153500Y-131000
X155000Y-44000
X156000Y-98000
X157000Y-97000
X157500Y-56000
X158000Y-43225
X158503Y-107370
X159500Y-117500
X160000Y-60225
X160000Y-86225
X160000Y-129000
X160500Y-42500
X160725Y-103415
X161500Y-102500
X162000Y-57000
X163013Y-79275
X163321Y-102965
X164500Y-78000
X166000Y-136000
X167500Y-81500
X168000Y-89000
X168062Y-103415
X168272Y-84135
X169673Y-83685
X170500Y-68000
X171500Y-94500
X173500Y-80500
X173961Y-120465
X174000Y-101500
X174000Y-110500
X174500Y-94000
X175000Y-86725
X175500Y-73500
X178000Y-117000
X178000Y-133500
X178725Y-83685
X180500Y-84000
X181860Y-113230
X184500Y-92020
X185000Y-101500
X185500Y-80500
X186000Y-99000
X186500Y-115500
X186690Y-119380
X186690Y-129540
X187000Y-125500
X187500Y-91985
X187500Y-100275
X189000Y-106500
X189000Y-115500
X190000Y-76500
X192000Y-81000
X192500Y-104000
X193000Y-76500
X193000Y-79000
X194712Y-86193
X194987Y-79285
X196881Y-101775
X197500Y-78500
X197500Y-106000
X198500Y-105000
X200000Y-47000
X200000Y-120000
X200660Y-121920
X200725Y-49500
X200725Y-118110
X200737Y-66135
X201000Y-113000
X201000Y-125000
X201000Y-129500
X202000Y-82150
X202000Y-110500
X202000Y-116500
X202182Y-84365
X203500Y-82500
X203500Y-97275
X203500Y-107000
X204487Y-98513
X204500Y-111180
X205000Y-88000
X206000Y-99000
X208500Y-78500
X209000Y-51500
X210000Y-52500
X210500Y-102500
X210936Y-77048
X211000Y-58000
X211000Y-85000
X211500Y-65000
X212000Y-93000
X212500Y-57500
X212500Y-63500
X212775Y-73986
X213000Y-87500
X213208Y-72150
X214500Y-100000
X216000Y-90000
X216000Y-107500
X216500Y-97500
X216500Y-116500
X217000Y-133500
X217225Y-91500
X217500Y-67500
X217500Y-106500
X218000Y-105500
X218000Y-122500
X218275Y-90018
X218275Y-91018
X218500Y-65000
X219000Y-62000
X219000Y-84500
X219000Y-124500
X219665Y-60241
X220000Y-57000
X220000Y-105000
X220225Y-89349
X220500Y-101000
X220962Y-88556
X221000Y-54000
X221000Y-59500
X221000Y-125225
X221518Y-87725
X222000Y-52500
X222500Y-93500
X222500Y-103500
X222987Y-72465
X223000Y-65000
X223383Y-82358
X223500Y-50000
X223500Y-55000
X223500Y-56500
X223500Y-83500
X223500Y-102000
X223833Y-71700
X224000Y-62000
X224000Y-78500
X224000Y-90500
X225000Y-85815
X226500Y-86275
X227684Y-39725
X227775Y-94000
X228500Y-102000
X229366Y-38775
X230000Y-104000
X230046Y-40675
X231000Y-39000
X231500Y-125500
X238678Y-92110
X239500Y-119000
X239724Y-92131
X240500Y-60000
X240500Y-75500
X240500Y-87500
X240500Y-97000
X240500Y-114000
X240775Y-63000
X240775Y-72844
X241000Y-111500
X241451Y-90107
X241500Y-58000
X242000Y-77500
X242131Y-88738
X242435Y-90503
X242500Y-68500
X242500Y-136000
X242708Y-87921
X243000Y-65000
X243500Y-80000
X245000Y-136000
X245500Y-39500
X247000Y-41000
X248000Y-42000
T2
X207010Y-109220
X209510Y-109220
X245110Y-114300
X252730Y-114300
X95250Y-45720
X95250Y-48260
X95250Y-50800
X95250Y-53340
X95250Y-55880
X95250Y-58420
X95250Y-60960
X95250Y-63500
X95250Y-66040
X95250Y-68580
X102870Y-45720
X102870Y-48260
X102870Y-50800
X102870Y-53340
X102870Y-55880
X102870Y-58420
X102870Y-60960
X102870Y-63500
X102870Y-66040
X102870Y-68580
X60960Y-101600
X60960Y-104140
X60960Y-106680
X60960Y-109220
X60960Y-111760
X60960Y-114300
X60960Y-116840
X60960Y-119380
X60960Y-121920
X60960Y-124460
X68580Y-101600
X68580Y-104140
X68580Y-106680
X68580Y-109220
X68580Y-111760
X68580Y-114300
X68580Y-116840
X68580Y-119380
X68580Y-121920
X68580Y-124460
X148590Y-113030
X148590Y-115570
X148590Y-118110
X148590Y-120650
X148590Y-123190
X148590Y-125730
X148590Y-128270
X156210Y-113030
X156210Y-115570
X156210Y-118110
X156210Y-120650
X156210Y-123190
X156210Y-125730
X156210Y-128270
X226060Y-46990
X233680Y-46990
X76200Y-91440
X76200Y-93980
X76200Y-96520
X76200Y-99060
X76200Y-101600
X76200Y-104140
X76200Y-106680
X76200Y-109220
X83820Y-91440
X83820Y-93980
X83820Y-96520
X83820Y-99060
X83820Y-101600
X83820Y-104140
X83820Y-106680
X83820Y-109220
X245110Y-57150
X252730Y-57150
X226060Y-52070
X233680Y-52070
X207010Y-80010
X207010Y-82550
X207010Y-85090
X207010Y-87630
X207010Y-90170
X207010Y-92710
X207010Y-95250
X207010Y-97790
X214630Y-80010
X214630Y-82550
X214630Y-85090
X214630Y-87630
X214630Y-90170
X214630Y-92710
X214630Y-95250
X214630Y-97790
X95290Y-97790
X97790Y-97790
X245110Y-64770
X252730Y-64770
X245110Y-54610
X252730Y-54610
X245110Y-119380
X252730Y-119380
X226060Y-49530
X233680Y-49530
X245110Y-88900
X252730Y-88900
X226060Y-67310
X233680Y-67310
X245110Y-111760
X252730Y-111760
X209550Y-48260
X212050Y-48260
X226060Y-119380
X233680Y-119380
X132080Y-128270
X132080Y-130770
X226060Y-106680
X233680Y-106680
X226060Y-82550
X233680Y-82550
X53340Y-72390
X55840Y-72390
X176530Y-113030
X176530Y-115570
X176530Y-118110
X176530Y-120650
X176530Y-123190
X176530Y-125730
X176530Y-128270
X184150Y-113030
X184150Y-115570
X184150Y-118110
X184150Y-120650
X184150Y-123190
X184150Y-125730
X184150Y-128270
X50800Y-45720
X50800Y-48260
X50800Y-50800
X50800Y-53340
X50800Y-55880
X50800Y-58420
X50800Y-60960
X50800Y-63500
X50800Y-66040
X50800Y-68580
X58420Y-45720
X58420Y-48260
X58420Y-50800
X58420Y-53340
X58420Y-55880
X58420Y-58420
X58420Y-60960
X58420Y-63500
X58420Y-66040
X58420Y-68580
X92710Y-101600
X92710Y-104140
X92710Y-106680
X92710Y-109220
X92710Y-111760
X92710Y-114300
X92710Y-116840
X92710Y-119380
X92710Y-121920
X92710Y-124460
X100330Y-101600
X100330Y-104140
X100330Y-106680
X100330Y-109220
X100330Y-111760
X100330Y-114300
X100330Y-116840
X100330Y-119380
X100330Y-121920
X100330Y-124460
X209550Y-76200
X212050Y-76200
X245110Y-93980
X252730Y-93980
X226060Y-57150
X233680Y-57150
X162560Y-113030
X162560Y-115570
X162560Y-118110
X162560Y-120650
X162560Y-123190
X162560Y-125730
X162560Y-128270
X170180Y-113030
X170180Y-115570
X170180Y-118110
X170180Y-120650
X170180Y-123190
X170180Y-125730
X170180Y-128270
X245110Y-91440
X252730Y-91440
X245110Y-59690
X252730Y-59690
X245110Y-109220
X252730Y-109220
X46990Y-114300
X49490Y-114300
X190500Y-113030
X190500Y-115570
X190500Y-118110
X190500Y-120650
X190500Y-123190
X190500Y-125730
X190500Y-128270
X198120Y-113030
X198120Y-115570
X198120Y-118110
X198120Y-120650
X198120Y-123190
X198120Y-125730
X198120Y-128270
X245110Y-104140
X252730Y-104140
X226060Y-101600
X233680Y-101600
X226060Y-104140
X233680Y-104140
X245110Y-121920
X252730Y-121920
X76200Y-118110
X76200Y-120650
X76200Y-123190
X76200Y-125730
X76200Y-128270
X76200Y-130810
X76200Y-133350
X76200Y-135890
X83820Y-118110
X83820Y-120650
X83820Y-123190
X83820Y-125730
X83820Y-128270
X83820Y-130810
X83820Y-133350
X83820Y-135890
X97790Y-72390
X100290Y-72390
X137160Y-46990
X137160Y-62230
X139700Y-46990
X139700Y-62230
X142240Y-46990
X142240Y-62230
X144780Y-46990
X144780Y-62230
X147320Y-46990
X147320Y-62230
X149860Y-46990
X149860Y-62230
X152400Y-46990
X152400Y-62230
X154940Y-46990
X154940Y-62230
X157480Y-46990
X157480Y-62230
X160020Y-46990
X160020Y-62230
X162560Y-46990
X162560Y-62230
X165100Y-46990
X165100Y-62230
X179070Y-109220
X181570Y-109220
X111800Y-72390
X114300Y-72390
X226060Y-59690
X233680Y-59690
X193080Y-109220
X195580Y-109220
X226060Y-64770
X233680Y-64770
X151130Y-109220
X153630Y-109220
X245110Y-101600
X252730Y-101600
X137160Y-73660
X137160Y-88900
X139700Y-73660
X139700Y-88900
X142240Y-73660
X142240Y-88900
X144780Y-73660
X144780Y-88900
X147320Y-73660
X147320Y-88900
X149860Y-73660
X149860Y-88900
X152400Y-73660
X152400Y-88900
X154940Y-73660
X154940Y-88900
X157480Y-73660
X157480Y-88900
X160020Y-73660
X160020Y-88900
X162560Y-73660
X162560Y-88900
X165100Y-73660
X165100Y-88900
X226060Y-116840
X233680Y-116840
X81280Y-45720
X81280Y-48260
X81280Y-50800
X81280Y-53340
X81280Y-55880
X81280Y-58420
X81280Y-60960
X81280Y-63500
X81280Y-66040
X81280Y-68580
X88900Y-45720
X88900Y-48260
X88900Y-50800
X88900Y-53340
X88900Y-55880
X88900Y-58420
X88900Y-60960
X88900Y-63500
X88900Y-66040
X88900Y-68580
X226060Y-109220
X233680Y-109220
X63500Y-97790
X66000Y-97790
X226060Y-69850
X233680Y-69850
X113030Y-125730
X113030Y-133350
X115570Y-125730
X115570Y-133350
X118110Y-125730
X118110Y-133350
X120650Y-125730
X120650Y-133350
X123190Y-125730
X123190Y-133350
X125730Y-125730
X125730Y-133350
X128270Y-125730
X128270Y-133350
X44450Y-118110
X44450Y-120650
X44450Y-123190
X44450Y-125730
X44450Y-128270
X44450Y-130810
X44450Y-133350
X44450Y-135890
X52070Y-118110
X52070Y-120650
X52070Y-123190
X52070Y-125730
X52070Y-128270
X52070Y-130810
X52070Y-133350
X52070Y-135890
X245110Y-116840
X252730Y-116840
X245110Y-67310
X252730Y-67310
X182880Y-53340
X182880Y-55840
X226060Y-93980
X233680Y-93980
X226060Y-121920
X233680Y-121920
X165100Y-109220
X167600Y-109220
X78740Y-114300
X81240Y-114300
X245110Y-106680
X252730Y-106680
X226060Y-124460
X233680Y-124460
X46990Y-87630
X49490Y-87630
X64770Y-45720
X64770Y-48260
X64770Y-50800
X64770Y-53340
X64770Y-55880
X64770Y-58420
X64770Y-60960
X64770Y-63500
X64770Y-66040
X64770Y-68580
X72390Y-45720
X72390Y-48260
X72390Y-50800
X72390Y-53340
X72390Y-55880
X72390Y-58420
X72390Y-60960
X72390Y-63500
X72390Y-66040
X72390Y-68580
X207010Y-52070
X207010Y-54610
X207010Y-57150
X207010Y-59690
X207010Y-62230
X207010Y-64770
X207010Y-67310
X207010Y-69850
X214630Y-52070
X214630Y-54610
X214630Y-57150
X214630Y-59690
X214630Y-62230
X214630Y-64770
X214630Y-67310
X214630Y-69850
X226060Y-99060
X233680Y-99060
X226060Y-54610
X233680Y-54610
X44450Y-91440
X44450Y-93980
X44450Y-96520
X44450Y-99060
X44450Y-101600
X44450Y-104140
X44450Y-106680
X44450Y-109220
X52070Y-91440
X52070Y-93980
X52070Y-96520
X52070Y-99060
X52070Y-101600
X52070Y-104140
X52070Y-106680
X52070Y-109220
X245110Y-69850
X252730Y-69850
X134620Y-115570
X134620Y-118070
X226060Y-44450
X233680Y-44450
X204470Y-113030
X204470Y-115570
X204470Y-118110
X204470Y-120650
X204470Y-123190
X204470Y-125730
X204470Y-128270
X212090Y-113030
X212090Y-115570
X212090Y-118110
X212090Y-120650
X212090Y-123190
X212090Y-125730
X212090Y-128270
X226060Y-96520
X233680Y-96520
X67350Y-72390
X69850Y-72390
X226060Y-80010
X233680Y-80010
X226060Y-114300
X233680Y-114300
X182880Y-80010
X182880Y-82510
X226060Y-72390
X233680Y-72390
X245110Y-96520
X252730Y-96520
X78780Y-87630
X81280Y-87630
X226060Y-111760
X233680Y-111760
X226060Y-127000
X233680Y-127000
X226060Y-129540
X233680Y-129540
X226060Y-62230
X233680Y-62230
X113030Y-113030
X113030Y-120650
X115570Y-113030
X115570Y-120650
X118110Y-113030
X118110Y-120650
X120650Y-113030
X120650Y-120650
X123190Y-113030
X123190Y-120650
X125730Y-113030
X125730Y-120650
X128270Y-113030
X128270Y-120650
X130810Y-113030
X130810Y-120650
X226060Y-132080
X233680Y-132080
X226060Y-74930
X233680Y-74930
X109220Y-45720
X109220Y-48260
X109220Y-50800
X109220Y-53340
X109220Y-55880
X109220Y-58420
X109220Y-60960
X109220Y-63500
X109220Y-66040
X109220Y-68580
X116840Y-45720
X116840Y-48260
X116840Y-50800
X116840Y-53340
X116840Y-55880
X116840Y-58420
X116840Y-60960
X116840Y-63500
X116840Y-66040
X116840Y-68580
X245110Y-72390
X252730Y-72390
X245110Y-74930
X252730Y-74930
X245110Y-99060
X252730Y-99060
X226060Y-77470
X233680Y-77470
X83820Y-72390
X86320Y-72390
X245110Y-62230
X252730Y-62230
T3
X39370Y-78740
X39370Y-81280
X50800Y-78740
X50800Y-81280
X237490Y-44450
X237490Y-46990
X237490Y-49530
X237490Y-52070
X237490Y-54610
X237490Y-57150
X237490Y-59690
X237490Y-62230
X237490Y-64770
X237490Y-67310
X237490Y-69850
X237490Y-72390
X237490Y-74930
X237490Y-77470
X237490Y-80010
X237490Y-82550
X237490Y-85090
X35560Y-78740
X35560Y-81280
X54610Y-78740
X54610Y-81280
X237490Y-93980
X237490Y-96520
X237490Y-99060
X237490Y-101600
X237490Y-104140
X237490Y-106680
X237490Y-109220
X237490Y-111760
X237490Y-114300
X237490Y-116840
X237490Y-119380
X237490Y-121920
X237490Y-124460
X237490Y-127000
X237490Y-129540
X237490Y-132080
X237490Y-134620
X46990Y-78740
X46990Y-81280
X27940Y-52705
X27940Y-55245
X27940Y-57785
X27940Y-60325
X27940Y-62865
X27940Y-65405
X27940Y-67945
X27940Y-70485
X27940Y-73025
X27940Y-75565
X27940Y-78105
X27940Y-80645
X27940Y-83185
X27940Y-85725
X27940Y-88265
X27940Y-90805
X27940Y-93345
X27940Y-95885
X27940Y-98425
X27940Y-100965
X27940Y-103505
X27940Y-106045
X27940Y-108585
X27940Y-111125
X27940Y-113665
X27940Y-116205
X27940Y-118745
X27940Y-121285
X27940Y-123825
X27940Y-126365
X30480Y-52705
X30480Y-55245
X30480Y-57785
X30480Y-60325
X30480Y-62865
X30480Y-65405
X30480Y-67945
X30480Y-70485
X30480Y-73025
X30480Y-75565
X30480Y-78105
X30480Y-80645
X30480Y-83185
X30480Y-85725
X30480Y-88265
X30480Y-90805
X30480Y-93345
X30480Y-95885
X30480Y-98425
X30480Y-100965
X30480Y-103505
X30480Y-106045
X30480Y-108585
X30480Y-111125
X30480Y-113665
X30480Y-116205
X30480Y-118745
X30480Y-121285
X30480Y-123825
X30480Y-126365
X256540Y-54610
X256540Y-57150
X256540Y-59690
X256540Y-62230
X256540Y-64770
X256540Y-67310
X256540Y-69850
X256540Y-72390
X256540Y-74930
X256540Y-77470
X256540Y-88900
X256540Y-91440
X256540Y-93980
X256540Y-96520
X256540Y-99060
X256540Y-101600
X256540Y-104140
X256540Y-106680
X256540Y-109220
X256540Y-111760
X256540Y-114300
X256540Y-116840
X256540Y-119380
X256540Y-121920
X256540Y-124460
X43180Y-78740
X43180Y-81280
T0
M30
