G04 #@! TF.GenerationSoftware,KiCad,Pcbnew,5.1.5+dfsg1-2build2*
G04 #@! TF.CreationDate,2021-02-11T10:51:17+00:00*
G04 #@! TF.ProjectId,alu,616c752e-6b69-4636-9164-5f7063625858,rev?*
G04 #@! TF.SameCoordinates,Original*
G04 #@! TF.FileFunction,Legend,Top*
G04 #@! TF.FilePolarity,Positive*
%FSLAX46Y46*%
G04 Gerber Fmt 4.6, Leading zero omitted, Abs format (unit mm)*
G04 Created by KiCad (PCBNEW 5.1.5+dfsg1-2build2) date 2021-02-11 10:51:17*
%MOMM*%
%LPD*%
G04 APERTURE LIST*
%ADD10C,0.150000*%
%ADD11C,0.120000*%
%ADD12C,0.300000*%
G04 APERTURE END LIST*
D10*
X68500000Y-63261904D02*
X68452380Y-63357142D01*
X68452380Y-63500000D01*
X68500000Y-63642857D01*
X68595238Y-63738095D01*
X68690476Y-63785714D01*
X68880952Y-63833333D01*
X69023809Y-63833333D01*
X69214285Y-63785714D01*
X69309523Y-63738095D01*
X69404761Y-63642857D01*
X69452380Y-63500000D01*
X69452380Y-63404761D01*
X69404761Y-63261904D01*
X69357142Y-63214285D01*
X69023809Y-63214285D01*
X69023809Y-63404761D01*
X69452380Y-62785714D02*
X68452380Y-62785714D01*
X69452380Y-62214285D01*
X68452380Y-62214285D01*
X69452380Y-61738095D02*
X68452380Y-61738095D01*
X68452380Y-61500000D01*
X68500000Y-61357142D01*
X68595238Y-61261904D01*
X68690476Y-61214285D01*
X68880952Y-61166666D01*
X69023809Y-61166666D01*
X69214285Y-61214285D01*
X69309523Y-61261904D01*
X69404761Y-61357142D01*
X69452380Y-61500000D01*
X69452380Y-61738095D01*
X74952380Y-66452380D02*
X73952380Y-66452380D01*
X74285714Y-65976190D02*
X74952380Y-65976190D01*
X74380952Y-65976190D02*
X74333333Y-65928571D01*
X74285714Y-65833333D01*
X74285714Y-65690476D01*
X74333333Y-65595238D01*
X74428571Y-65547619D01*
X74952380Y-65547619D01*
X69404761Y-67714285D02*
X69452380Y-67809523D01*
X69452380Y-68000000D01*
X69404761Y-68095238D01*
X69357142Y-68142857D01*
X69261904Y-68190476D01*
X68976190Y-68190476D01*
X68880952Y-68142857D01*
X68833333Y-68095238D01*
X68785714Y-68000000D01*
X68785714Y-67809523D01*
X68833333Y-67714285D01*
X69452380Y-66857142D02*
X68928571Y-66857142D01*
X68833333Y-66904761D01*
X68785714Y-67000000D01*
X68785714Y-67190476D01*
X68833333Y-67285714D01*
X69404761Y-66857142D02*
X69452380Y-66952380D01*
X69452380Y-67190476D01*
X69404761Y-67285714D01*
X69309523Y-67333333D01*
X69214285Y-67333333D01*
X69119047Y-67285714D01*
X69071428Y-67190476D01*
X69071428Y-66952380D01*
X69023809Y-66857142D01*
X69452380Y-66380952D02*
X68785714Y-66380952D01*
X68976190Y-66380952D02*
X68880952Y-66333333D01*
X68833333Y-66285714D01*
X68785714Y-66190476D01*
X68785714Y-66095238D01*
X69452380Y-65761904D02*
X68785714Y-65761904D01*
X68976190Y-65761904D02*
X68880952Y-65714285D01*
X68833333Y-65666666D01*
X68785714Y-65571428D01*
X68785714Y-65476190D01*
X68785714Y-65238095D02*
X69452380Y-65000000D01*
X68785714Y-64761904D02*
X69452380Y-65000000D01*
X69690476Y-65095238D01*
X69738095Y-65142857D01*
X69785714Y-65238095D01*
X68785714Y-71119047D02*
X69452380Y-71119047D01*
X68880952Y-71119047D02*
X68833333Y-71071428D01*
X68785714Y-70976190D01*
X68785714Y-70833333D01*
X68833333Y-70738095D01*
X68928571Y-70690476D01*
X69452380Y-70690476D01*
X68785714Y-70309523D02*
X68785714Y-69785714D01*
X69452380Y-70309523D01*
X69452380Y-69785714D01*
D11*
X44450000Y-139700000D02*
X71120000Y-139700000D01*
X44450000Y-139700000D02*
X44450000Y-88900000D01*
X71120000Y-88900000D02*
X71120000Y-139700000D01*
X44450000Y-88900000D02*
X71120000Y-88900000D01*
D10*
X40814761Y-125014285D02*
X40814761Y-123680952D01*
X42814761Y-125014285D01*
X42814761Y-123680952D01*
X42719523Y-122157142D02*
X42814761Y-122347619D01*
X42814761Y-122728571D01*
X42719523Y-122919047D01*
X42529047Y-123014285D01*
X41767142Y-123014285D01*
X41576666Y-122919047D01*
X41481428Y-122728571D01*
X41481428Y-122347619D01*
X41576666Y-122157142D01*
X41767142Y-122061904D01*
X41957619Y-122061904D01*
X42148095Y-123014285D01*
X42814761Y-121204761D02*
X41481428Y-121204761D01*
X41862380Y-121204761D02*
X41671904Y-121109523D01*
X41576666Y-121014285D01*
X41481428Y-120823809D01*
X41481428Y-120633333D01*
X42814761Y-119680952D02*
X42719523Y-119871428D01*
X42624285Y-119966666D01*
X42433809Y-120061904D01*
X41862380Y-120061904D01*
X41671904Y-119966666D01*
X41576666Y-119871428D01*
X41481428Y-119680952D01*
X41481428Y-119395238D01*
X41576666Y-119204761D01*
X41671904Y-119109523D01*
X41862380Y-119014285D01*
X42433809Y-119014285D01*
X42624285Y-119109523D01*
X42719523Y-119204761D01*
X42814761Y-119395238D01*
X42814761Y-119680952D01*
X42814761Y-115776190D02*
X40814761Y-115776190D01*
X42719523Y-115776190D02*
X42814761Y-115966666D01*
X42814761Y-116347619D01*
X42719523Y-116538095D01*
X42624285Y-116633333D01*
X42433809Y-116728571D01*
X41862380Y-116728571D01*
X41671904Y-116633333D01*
X41576666Y-116538095D01*
X41481428Y-116347619D01*
X41481428Y-115966666D01*
X41576666Y-115776190D01*
X42719523Y-114061904D02*
X42814761Y-114252380D01*
X42814761Y-114633333D01*
X42719523Y-114823809D01*
X42529047Y-114919047D01*
X41767142Y-114919047D01*
X41576666Y-114823809D01*
X41481428Y-114633333D01*
X41481428Y-114252380D01*
X41576666Y-114061904D01*
X41767142Y-113966666D01*
X41957619Y-113966666D01*
X42148095Y-114919047D01*
X41481428Y-113395238D02*
X41481428Y-112633333D01*
X40814761Y-113109523D02*
X42529047Y-113109523D01*
X42719523Y-113014285D01*
X42814761Y-112823809D01*
X42814761Y-112633333D01*
X42719523Y-111204761D02*
X42814761Y-111395238D01*
X42814761Y-111776190D01*
X42719523Y-111966666D01*
X42529047Y-112061904D01*
X41767142Y-112061904D01*
X41576666Y-111966666D01*
X41481428Y-111776190D01*
X41481428Y-111395238D01*
X41576666Y-111204761D01*
X41767142Y-111109523D01*
X41957619Y-111109523D01*
X42148095Y-112061904D01*
X42719523Y-109395238D02*
X42814761Y-109585714D01*
X42814761Y-109966666D01*
X42719523Y-110157142D01*
X42624285Y-110252380D01*
X42433809Y-110347619D01*
X41862380Y-110347619D01*
X41671904Y-110252380D01*
X41576666Y-110157142D01*
X41481428Y-109966666D01*
X41481428Y-109585714D01*
X41576666Y-109395238D01*
X41481428Y-108823809D02*
X41481428Y-108061904D01*
X40814761Y-108538095D02*
X42529047Y-108538095D01*
X42719523Y-108442857D01*
X42814761Y-108252380D01*
X42814761Y-108061904D01*
X42814761Y-107395238D02*
X41481428Y-107395238D01*
X40814761Y-107395238D02*
X40910000Y-107490476D01*
X41005238Y-107395238D01*
X40910000Y-107300000D01*
X40814761Y-107395238D01*
X41005238Y-107395238D01*
X42814761Y-106157142D02*
X42719523Y-106347619D01*
X42624285Y-106442857D01*
X42433809Y-106538095D01*
X41862380Y-106538095D01*
X41671904Y-106442857D01*
X41576666Y-106347619D01*
X41481428Y-106157142D01*
X41481428Y-105871428D01*
X41576666Y-105680952D01*
X41671904Y-105585714D01*
X41862380Y-105490476D01*
X42433809Y-105490476D01*
X42624285Y-105585714D01*
X42719523Y-105680952D01*
X42814761Y-105871428D01*
X42814761Y-106157142D01*
X41481428Y-104633333D02*
X42814761Y-104633333D01*
X41671904Y-104633333D02*
X41576666Y-104538095D01*
X41481428Y-104347619D01*
X41481428Y-104061904D01*
X41576666Y-103871428D01*
X41767142Y-103776190D01*
X42814761Y-103776190D01*
X167497142Y-102980952D02*
X167497142Y-102314285D01*
X168544761Y-102028571D02*
X168544761Y-102980952D01*
X166544761Y-102980952D01*
X166544761Y-102028571D01*
X166544761Y-101361904D02*
X168544761Y-100028571D01*
X166544761Y-100028571D02*
X168544761Y-101361904D01*
X89804761Y-120490952D02*
X87804761Y-120490952D01*
X89233333Y-119824285D01*
X87804761Y-119157619D01*
X89804761Y-119157619D01*
X88471428Y-117348095D02*
X89804761Y-117348095D01*
X88471428Y-118205238D02*
X89519047Y-118205238D01*
X89709523Y-118110000D01*
X89804761Y-117919523D01*
X89804761Y-117633809D01*
X89709523Y-117443333D01*
X89614285Y-117348095D01*
X89804761Y-116586190D02*
X88471428Y-115538571D01*
X88471428Y-116586190D02*
X89804761Y-115538571D01*
X92344761Y-103219047D02*
X90344761Y-103219047D01*
X92344761Y-102076190D01*
X90344761Y-102076190D01*
X90344761Y-100742857D02*
X90344761Y-100361904D01*
X90440000Y-100171428D01*
X90630476Y-99980952D01*
X91011428Y-99885714D01*
X91678095Y-99885714D01*
X92059047Y-99980952D01*
X92249523Y-100171428D01*
X92344761Y-100361904D01*
X92344761Y-100742857D01*
X92249523Y-100933333D01*
X92059047Y-101123809D01*
X91678095Y-101219047D01*
X91011428Y-101219047D01*
X90630476Y-101123809D01*
X90440000Y-100933333D01*
X90344761Y-100742857D01*
X168544761Y-136048571D02*
X166544761Y-136048571D01*
X168544761Y-134905714D01*
X166544761Y-134905714D01*
X167592380Y-133572380D02*
X168544761Y-133572380D01*
X166544761Y-134239047D02*
X167592380Y-133572380D01*
X166544761Y-132905714D01*
X89233333Y-138381904D02*
X89233333Y-137429523D01*
X89804761Y-138572380D02*
X87804761Y-137905714D01*
X89804761Y-137239047D01*
X89804761Y-135715238D02*
X87804761Y-135715238D01*
X89709523Y-135715238D02*
X89804761Y-135905714D01*
X89804761Y-136286666D01*
X89709523Y-136477142D01*
X89614285Y-136572380D01*
X89423809Y-136667619D01*
X88852380Y-136667619D01*
X88661904Y-136572380D01*
X88566666Y-136477142D01*
X88471428Y-136286666D01*
X88471428Y-135905714D01*
X88566666Y-135715238D01*
X89804761Y-133905714D02*
X87804761Y-133905714D01*
X89709523Y-133905714D02*
X89804761Y-134096190D01*
X89804761Y-134477142D01*
X89709523Y-134667619D01*
X89614285Y-134762857D01*
X89423809Y-134858095D01*
X88852380Y-134858095D01*
X88661904Y-134762857D01*
X88566666Y-134667619D01*
X88471428Y-134477142D01*
X88471428Y-134096190D01*
X88566666Y-133905714D01*
X89709523Y-132191428D02*
X89804761Y-132381904D01*
X89804761Y-132762857D01*
X89709523Y-132953333D01*
X89519047Y-133048571D01*
X88757142Y-133048571D01*
X88566666Y-132953333D01*
X88471428Y-132762857D01*
X88471428Y-132381904D01*
X88566666Y-132191428D01*
X88757142Y-132096190D01*
X88947619Y-132096190D01*
X89138095Y-133048571D01*
X89804761Y-131239047D02*
X88471428Y-131239047D01*
X88852380Y-131239047D02*
X88661904Y-131143809D01*
X88566666Y-131048571D01*
X88471428Y-130858095D01*
X88471428Y-130667619D01*
X131143333Y-129285714D02*
X131143333Y-128333333D01*
X131714761Y-129476190D02*
X129714761Y-128809523D01*
X131714761Y-128142857D01*
X130381428Y-127476190D02*
X131714761Y-127476190D01*
X130571904Y-127476190D02*
X130476666Y-127380952D01*
X130381428Y-127190476D01*
X130381428Y-126904761D01*
X130476666Y-126714285D01*
X130667142Y-126619047D01*
X131714761Y-126619047D01*
X131714761Y-124809523D02*
X129714761Y-124809523D01*
X131619523Y-124809523D02*
X131714761Y-125000000D01*
X131714761Y-125380952D01*
X131619523Y-125571428D01*
X131524285Y-125666666D01*
X131333809Y-125761904D01*
X130762380Y-125761904D01*
X130571904Y-125666666D01*
X130476666Y-125571428D01*
X130381428Y-125380952D01*
X130381428Y-125000000D01*
X130476666Y-124809523D01*
X131714761Y-109473809D02*
X129714761Y-109473809D01*
X131714761Y-108330952D01*
X129714761Y-108330952D01*
X129714761Y-107569047D02*
X131714761Y-106235714D01*
X129714761Y-106235714D02*
X131714761Y-107569047D01*
X84724761Y-128792380D02*
X82724761Y-128792380D01*
X83677142Y-128792380D02*
X83677142Y-127649523D01*
X84724761Y-127649523D02*
X82724761Y-127649523D01*
X84724761Y-126697142D02*
X83391428Y-126697142D01*
X82724761Y-126697142D02*
X82820000Y-126792380D01*
X82915238Y-126697142D01*
X82820000Y-126601904D01*
X82724761Y-126697142D01*
X82915238Y-126697142D01*
X83391428Y-124887619D02*
X85010476Y-124887619D01*
X85200952Y-124982857D01*
X85296190Y-125078095D01*
X85391428Y-125268571D01*
X85391428Y-125554285D01*
X85296190Y-125744761D01*
X84629523Y-124887619D02*
X84724761Y-125078095D01*
X84724761Y-125459047D01*
X84629523Y-125649523D01*
X84534285Y-125744761D01*
X84343809Y-125840000D01*
X83772380Y-125840000D01*
X83581904Y-125744761D01*
X83486666Y-125649523D01*
X83391428Y-125459047D01*
X83391428Y-125078095D01*
X83486666Y-124887619D01*
X84724761Y-123935238D02*
X82724761Y-123935238D01*
X84724761Y-123078095D02*
X83677142Y-123078095D01*
X83486666Y-123173333D01*
X83391428Y-123363809D01*
X83391428Y-123649523D01*
X83486666Y-123840000D01*
X83581904Y-123935238D01*
X83391428Y-120601904D02*
X84724761Y-120601904D01*
X83581904Y-120601904D02*
X83486666Y-120506666D01*
X83391428Y-120316190D01*
X83391428Y-120030476D01*
X83486666Y-119840000D01*
X83677142Y-119744761D01*
X84724761Y-119744761D01*
X83391428Y-118982857D02*
X84724761Y-118506666D01*
X83391428Y-118030476D02*
X84724761Y-118506666D01*
X85200952Y-118697142D01*
X85296190Y-118792380D01*
X85391428Y-118982857D01*
X84724761Y-117268571D02*
X82724761Y-117268571D01*
X83486666Y-117268571D02*
X83391428Y-117078095D01*
X83391428Y-116697142D01*
X83486666Y-116506666D01*
X83581904Y-116411428D01*
X83772380Y-116316190D01*
X84343809Y-116316190D01*
X84534285Y-116411428D01*
X84629523Y-116506666D01*
X84724761Y-116697142D01*
X84724761Y-117078095D01*
X84629523Y-117268571D01*
X84724761Y-115459047D02*
X82724761Y-115459047D01*
X83486666Y-115459047D02*
X83391428Y-115268571D01*
X83391428Y-114887619D01*
X83486666Y-114697142D01*
X83581904Y-114601904D01*
X83772380Y-114506666D01*
X84343809Y-114506666D01*
X84534285Y-114601904D01*
X84629523Y-114697142D01*
X84724761Y-114887619D01*
X84724761Y-115268571D01*
X84629523Y-115459047D01*
X84724761Y-113363809D02*
X84629523Y-113554285D01*
X84439047Y-113649523D01*
X82724761Y-113649523D01*
X84629523Y-111840000D02*
X84724761Y-112030476D01*
X84724761Y-112411428D01*
X84629523Y-112601904D01*
X84439047Y-112697142D01*
X83677142Y-112697142D01*
X83486666Y-112601904D01*
X83391428Y-112411428D01*
X83391428Y-112030476D01*
X83486666Y-111840000D01*
X83677142Y-111744761D01*
X83867619Y-111744761D01*
X84058095Y-112697142D01*
X84153333Y-109459047D02*
X84153333Y-108506666D01*
X84724761Y-109649523D02*
X82724761Y-108982857D01*
X84724761Y-108316190D01*
X84724761Y-106697142D02*
X84724761Y-107649523D01*
X82724761Y-107649523D01*
X82724761Y-106030476D02*
X84343809Y-106030476D01*
X84534285Y-105935238D01*
X84629523Y-105840000D01*
X84724761Y-105649523D01*
X84724761Y-105268571D01*
X84629523Y-105078095D01*
X84534285Y-104982857D01*
X84343809Y-104887619D01*
X82724761Y-104887619D01*
X167497142Y-119395714D02*
X167497142Y-118729047D01*
X168544761Y-118443333D02*
X168544761Y-119395714D01*
X166544761Y-119395714D01*
X166544761Y-118443333D01*
X167592380Y-117205238D02*
X168544761Y-117205238D01*
X166544761Y-117871904D02*
X167592380Y-117205238D01*
X166544761Y-116538571D01*
X84724761Y-77738571D02*
X84724761Y-78690952D01*
X82724761Y-78690952D01*
X84724761Y-76786190D02*
X84629523Y-76976666D01*
X84534285Y-77071904D01*
X84343809Y-77167142D01*
X83772380Y-77167142D01*
X83581904Y-77071904D01*
X83486666Y-76976666D01*
X83391428Y-76786190D01*
X83391428Y-76500476D01*
X83486666Y-76310000D01*
X83581904Y-76214761D01*
X83772380Y-76119523D01*
X84343809Y-76119523D01*
X84534285Y-76214761D01*
X84629523Y-76310000D01*
X84724761Y-76500476D01*
X84724761Y-76786190D01*
X83391428Y-75452857D02*
X84724761Y-75071904D01*
X83772380Y-74690952D01*
X84724761Y-74310000D01*
X83391428Y-73929047D01*
X83391428Y-71643333D02*
X84724761Y-71643333D01*
X83581904Y-71643333D02*
X83486666Y-71548095D01*
X83391428Y-71357619D01*
X83391428Y-71071904D01*
X83486666Y-70881428D01*
X83677142Y-70786190D01*
X84724761Y-70786190D01*
X83391428Y-70024285D02*
X84724761Y-69548095D01*
X83391428Y-69071904D02*
X84724761Y-69548095D01*
X85200952Y-69738571D01*
X85296190Y-69833809D01*
X85391428Y-70024285D01*
X84724761Y-68310000D02*
X82724761Y-68310000D01*
X83486666Y-68310000D02*
X83391428Y-68119523D01*
X83391428Y-67738571D01*
X83486666Y-67548095D01*
X83581904Y-67452857D01*
X83772380Y-67357619D01*
X84343809Y-67357619D01*
X84534285Y-67452857D01*
X84629523Y-67548095D01*
X84724761Y-67738571D01*
X84724761Y-68119523D01*
X84629523Y-68310000D01*
X84724761Y-66500476D02*
X82724761Y-66500476D01*
X83486666Y-66500476D02*
X83391428Y-66310000D01*
X83391428Y-65929047D01*
X83486666Y-65738571D01*
X83581904Y-65643333D01*
X83772380Y-65548095D01*
X84343809Y-65548095D01*
X84534285Y-65643333D01*
X84629523Y-65738571D01*
X84724761Y-65929047D01*
X84724761Y-66310000D01*
X84629523Y-66500476D01*
X84724761Y-64405238D02*
X84629523Y-64595714D01*
X84439047Y-64690952D01*
X82724761Y-64690952D01*
X84629523Y-62881428D02*
X84724761Y-63071904D01*
X84724761Y-63452857D01*
X84629523Y-63643333D01*
X84439047Y-63738571D01*
X83677142Y-63738571D01*
X83486666Y-63643333D01*
X83391428Y-63452857D01*
X83391428Y-63071904D01*
X83486666Y-62881428D01*
X83677142Y-62786190D01*
X83867619Y-62786190D01*
X84058095Y-63738571D01*
X84153333Y-60500476D02*
X84153333Y-59548095D01*
X84724761Y-60690952D02*
X82724761Y-60024285D01*
X84724761Y-59357619D01*
X84724761Y-57738571D02*
X84724761Y-58690952D01*
X82724761Y-58690952D01*
X82724761Y-57071904D02*
X84343809Y-57071904D01*
X84534285Y-56976666D01*
X84629523Y-56881428D01*
X84724761Y-56690952D01*
X84724761Y-56310000D01*
X84629523Y-56119523D01*
X84534285Y-56024285D01*
X84343809Y-55929047D01*
X82724761Y-55929047D01*
X131143333Y-79755714D02*
X131143333Y-78803333D01*
X131714761Y-79946190D02*
X129714761Y-79279523D01*
X131714761Y-78612857D01*
X130381428Y-77946190D02*
X131714761Y-77946190D01*
X130571904Y-77946190D02*
X130476666Y-77850952D01*
X130381428Y-77660476D01*
X130381428Y-77374761D01*
X130476666Y-77184285D01*
X130667142Y-77089047D01*
X131714761Y-77089047D01*
X131714761Y-75279523D02*
X129714761Y-75279523D01*
X131619523Y-75279523D02*
X131714761Y-75470000D01*
X131714761Y-75850952D01*
X131619523Y-76041428D01*
X131524285Y-76136666D01*
X131333809Y-76231904D01*
X130762380Y-76231904D01*
X130571904Y-76136666D01*
X130476666Y-76041428D01*
X130381428Y-75850952D01*
X130381428Y-75470000D01*
X130476666Y-75279523D01*
X89233333Y-88851904D02*
X89233333Y-87899523D01*
X89804761Y-89042380D02*
X87804761Y-88375714D01*
X89804761Y-87709047D01*
X89804761Y-86185238D02*
X87804761Y-86185238D01*
X89709523Y-86185238D02*
X89804761Y-86375714D01*
X89804761Y-86756666D01*
X89709523Y-86947142D01*
X89614285Y-87042380D01*
X89423809Y-87137619D01*
X88852380Y-87137619D01*
X88661904Y-87042380D01*
X88566666Y-86947142D01*
X88471428Y-86756666D01*
X88471428Y-86375714D01*
X88566666Y-86185238D01*
X89804761Y-84375714D02*
X87804761Y-84375714D01*
X89709523Y-84375714D02*
X89804761Y-84566190D01*
X89804761Y-84947142D01*
X89709523Y-85137619D01*
X89614285Y-85232857D01*
X89423809Y-85328095D01*
X88852380Y-85328095D01*
X88661904Y-85232857D01*
X88566666Y-85137619D01*
X88471428Y-84947142D01*
X88471428Y-84566190D01*
X88566666Y-84375714D01*
X89709523Y-82661428D02*
X89804761Y-82851904D01*
X89804761Y-83232857D01*
X89709523Y-83423333D01*
X89519047Y-83518571D01*
X88757142Y-83518571D01*
X88566666Y-83423333D01*
X88471428Y-83232857D01*
X88471428Y-82851904D01*
X88566666Y-82661428D01*
X88757142Y-82566190D01*
X88947619Y-82566190D01*
X89138095Y-83518571D01*
X89804761Y-81709047D02*
X88471428Y-81709047D01*
X88852380Y-81709047D02*
X88661904Y-81613809D01*
X88566666Y-81518571D01*
X88471428Y-81328095D01*
X88471428Y-81137619D01*
X89804761Y-70960952D02*
X87804761Y-70960952D01*
X89233333Y-70294285D01*
X87804761Y-69627619D01*
X89804761Y-69627619D01*
X88471428Y-67818095D02*
X89804761Y-67818095D01*
X88471428Y-68675238D02*
X89519047Y-68675238D01*
X89709523Y-68580000D01*
X89804761Y-68389523D01*
X89804761Y-68103809D01*
X89709523Y-67913333D01*
X89614285Y-67818095D01*
X89804761Y-67056190D02*
X88471428Y-66008571D01*
X88471428Y-67056190D02*
X89804761Y-66008571D01*
X92344761Y-53689047D02*
X90344761Y-53689047D01*
X92344761Y-52546190D01*
X90344761Y-52546190D01*
X90344761Y-51212857D02*
X90344761Y-50831904D01*
X90440000Y-50641428D01*
X90630476Y-50450952D01*
X91011428Y-50355714D01*
X91678095Y-50355714D01*
X92059047Y-50450952D01*
X92249523Y-50641428D01*
X92344761Y-50831904D01*
X92344761Y-51212857D01*
X92249523Y-51403333D01*
X92059047Y-51593809D01*
X91678095Y-51689047D01*
X91011428Y-51689047D01*
X90630476Y-51593809D01*
X90440000Y-51403333D01*
X90344761Y-51212857D01*
X131714761Y-59943809D02*
X129714761Y-59943809D01*
X131714761Y-58800952D01*
X129714761Y-58800952D01*
X129714761Y-58039047D02*
X131714761Y-56705714D01*
X129714761Y-56705714D02*
X131714761Y-58039047D01*
X168544761Y-86518571D02*
X166544761Y-86518571D01*
X168544761Y-85375714D01*
X166544761Y-85375714D01*
X167592380Y-84042380D02*
X168544761Y-84042380D01*
X166544761Y-84709047D02*
X167592380Y-84042380D01*
X166544761Y-83375714D01*
X167497142Y-69865714D02*
X167497142Y-69199047D01*
X168544761Y-68913333D02*
X168544761Y-69865714D01*
X166544761Y-69865714D01*
X166544761Y-68913333D01*
X167592380Y-67675238D02*
X168544761Y-67675238D01*
X166544761Y-68341904D02*
X167592380Y-67675238D01*
X166544761Y-67008571D01*
X167497142Y-53450952D02*
X167497142Y-52784285D01*
X168544761Y-52498571D02*
X168544761Y-53450952D01*
X166544761Y-53450952D01*
X166544761Y-52498571D01*
X166544761Y-51831904D02*
X168544761Y-50498571D01*
X166544761Y-50498571D02*
X168544761Y-51831904D01*
D11*
X86360000Y-95250000D02*
X195580000Y-95250000D01*
X86360000Y-140970000D02*
X86360000Y-95250000D01*
X195580000Y-140970000D02*
X86360000Y-140970000D01*
X195580000Y-95250000D02*
X195580000Y-140970000D01*
X86360000Y-91440000D02*
X86360000Y-45720000D01*
X195580000Y-91440000D02*
X86360000Y-91440000D01*
X195580000Y-45720000D02*
X195580000Y-91440000D01*
X86360000Y-45720000D02*
X195580000Y-45720000D01*
D10*
X204022142Y-133667142D02*
X204022142Y-134333809D01*
X205069761Y-134333809D02*
X203069761Y-134333809D01*
X203069761Y-133381428D01*
X205069761Y-132333809D02*
X204974523Y-132524285D01*
X204784047Y-132619523D01*
X203069761Y-132619523D01*
X205069761Y-130714761D02*
X204022142Y-130714761D01*
X203831666Y-130810000D01*
X203736428Y-131000476D01*
X203736428Y-131381428D01*
X203831666Y-131571904D01*
X204974523Y-130714761D02*
X205069761Y-130905238D01*
X205069761Y-131381428D01*
X204974523Y-131571904D01*
X204784047Y-131667142D01*
X204593571Y-131667142D01*
X204403095Y-131571904D01*
X204307857Y-131381428D01*
X204307857Y-130905238D01*
X204212619Y-130714761D01*
X203736428Y-128905238D02*
X205355476Y-128905238D01*
X205545952Y-129000476D01*
X205641190Y-129095714D01*
X205736428Y-129286190D01*
X205736428Y-129571904D01*
X205641190Y-129762380D01*
X204974523Y-128905238D02*
X205069761Y-129095714D01*
X205069761Y-129476666D01*
X204974523Y-129667142D01*
X204879285Y-129762380D01*
X204688809Y-129857619D01*
X204117380Y-129857619D01*
X203926904Y-129762380D01*
X203831666Y-129667142D01*
X203736428Y-129476666D01*
X203736428Y-129095714D01*
X203831666Y-128905238D01*
X204974523Y-128048095D02*
X205069761Y-127857619D01*
X205069761Y-127476666D01*
X204974523Y-127286190D01*
X204784047Y-127190952D01*
X204688809Y-127190952D01*
X204498333Y-127286190D01*
X204403095Y-127476666D01*
X204403095Y-127762380D01*
X204307857Y-127952857D01*
X204117380Y-128048095D01*
X204022142Y-128048095D01*
X203831666Y-127952857D01*
X203736428Y-127762380D01*
X203736428Y-127476666D01*
X203831666Y-127286190D01*
X208219761Y-136048095D02*
X206886428Y-136048095D01*
X207267380Y-136048095D02*
X207076904Y-135952857D01*
X206981666Y-135857619D01*
X206886428Y-135667142D01*
X206886428Y-135476666D01*
X208124523Y-134048095D02*
X208219761Y-134238571D01*
X208219761Y-134619523D01*
X208124523Y-134810000D01*
X207934047Y-134905238D01*
X207172142Y-134905238D01*
X206981666Y-134810000D01*
X206886428Y-134619523D01*
X206886428Y-134238571D01*
X206981666Y-134048095D01*
X207172142Y-133952857D01*
X207362619Y-133952857D01*
X207553095Y-134905238D01*
X206886428Y-132238571D02*
X208505476Y-132238571D01*
X208695952Y-132333809D01*
X208791190Y-132429047D01*
X208886428Y-132619523D01*
X208886428Y-132905238D01*
X208791190Y-133095714D01*
X208124523Y-132238571D02*
X208219761Y-132429047D01*
X208219761Y-132810000D01*
X208124523Y-133000476D01*
X208029285Y-133095714D01*
X207838809Y-133190952D01*
X207267380Y-133190952D01*
X207076904Y-133095714D01*
X206981666Y-133000476D01*
X206886428Y-132810000D01*
X206886428Y-132429047D01*
X206981666Y-132238571D01*
X208219761Y-131286190D02*
X206886428Y-131286190D01*
X206219761Y-131286190D02*
X206315000Y-131381428D01*
X206410238Y-131286190D01*
X206315000Y-131190952D01*
X206219761Y-131286190D01*
X206410238Y-131286190D01*
X208124523Y-130429047D02*
X208219761Y-130238571D01*
X208219761Y-129857619D01*
X208124523Y-129667142D01*
X207934047Y-129571904D01*
X207838809Y-129571904D01*
X207648333Y-129667142D01*
X207553095Y-129857619D01*
X207553095Y-130143333D01*
X207457857Y-130333809D01*
X207267380Y-130429047D01*
X207172142Y-130429047D01*
X206981666Y-130333809D01*
X206886428Y-130143333D01*
X206886428Y-129857619D01*
X206981666Y-129667142D01*
X206886428Y-129000476D02*
X206886428Y-128238571D01*
X206219761Y-128714761D02*
X207934047Y-128714761D01*
X208124523Y-128619523D01*
X208219761Y-128429047D01*
X208219761Y-128238571D01*
X208124523Y-126810000D02*
X208219761Y-127000476D01*
X208219761Y-127381428D01*
X208124523Y-127571904D01*
X207934047Y-127667142D01*
X207172142Y-127667142D01*
X206981666Y-127571904D01*
X206886428Y-127381428D01*
X206886428Y-127000476D01*
X206981666Y-126810000D01*
X207172142Y-126714761D01*
X207362619Y-126714761D01*
X207553095Y-127667142D01*
X208219761Y-125857619D02*
X206886428Y-125857619D01*
X207267380Y-125857619D02*
X207076904Y-125762380D01*
X206981666Y-125667142D01*
X206886428Y-125476666D01*
X206886428Y-125286190D01*
X207914761Y-114918095D02*
X206962380Y-115584761D01*
X207914761Y-116060952D02*
X205914761Y-116060952D01*
X205914761Y-115299047D01*
X206010000Y-115108571D01*
X206105238Y-115013333D01*
X206295714Y-114918095D01*
X206581428Y-114918095D01*
X206771904Y-115013333D01*
X206867142Y-115108571D01*
X206962380Y-115299047D01*
X206962380Y-116060952D01*
X207819523Y-113299047D02*
X207914761Y-113489523D01*
X207914761Y-113870476D01*
X207819523Y-114060952D01*
X207629047Y-114156190D01*
X206867142Y-114156190D01*
X206676666Y-114060952D01*
X206581428Y-113870476D01*
X206581428Y-113489523D01*
X206676666Y-113299047D01*
X206867142Y-113203809D01*
X207057619Y-113203809D01*
X207248095Y-114156190D01*
X207819523Y-112441904D02*
X207914761Y-112251428D01*
X207914761Y-111870476D01*
X207819523Y-111680000D01*
X207629047Y-111584761D01*
X207533809Y-111584761D01*
X207343333Y-111680000D01*
X207248095Y-111870476D01*
X207248095Y-112156190D01*
X207152857Y-112346666D01*
X206962380Y-112441904D01*
X206867142Y-112441904D01*
X206676666Y-112346666D01*
X206581428Y-112156190D01*
X206581428Y-111870476D01*
X206676666Y-111680000D01*
X206581428Y-109870476D02*
X207914761Y-109870476D01*
X206581428Y-110727619D02*
X207629047Y-110727619D01*
X207819523Y-110632380D01*
X207914761Y-110441904D01*
X207914761Y-110156190D01*
X207819523Y-109965714D01*
X207724285Y-109870476D01*
X207914761Y-108632380D02*
X207819523Y-108822857D01*
X207629047Y-108918095D01*
X205914761Y-108918095D01*
X206581428Y-108156190D02*
X206581428Y-107394285D01*
X205914761Y-107870476D02*
X207629047Y-107870476D01*
X207819523Y-107775238D01*
X207914761Y-107584761D01*
X207914761Y-107394285D01*
X207914761Y-105203809D02*
X205914761Y-105203809D01*
X206676666Y-105203809D02*
X206581428Y-105013333D01*
X206581428Y-104632380D01*
X206676666Y-104441904D01*
X206771904Y-104346666D01*
X206962380Y-104251428D01*
X207533809Y-104251428D01*
X207724285Y-104346666D01*
X207819523Y-104441904D01*
X207914761Y-104632380D01*
X207914761Y-105013333D01*
X207819523Y-105203809D01*
X206581428Y-102537142D02*
X207914761Y-102537142D01*
X206581428Y-103394285D02*
X207629047Y-103394285D01*
X207819523Y-103299047D01*
X207914761Y-103108571D01*
X207914761Y-102822857D01*
X207819523Y-102632380D01*
X207724285Y-102537142D01*
X206581428Y-101870476D02*
X206581428Y-101108571D01*
X207914761Y-101584761D02*
X206200476Y-101584761D01*
X206010000Y-101489523D01*
X205914761Y-101299047D01*
X205914761Y-101108571D01*
X206581428Y-100727619D02*
X206581428Y-99965714D01*
X207914761Y-100441904D02*
X206200476Y-100441904D01*
X206010000Y-100346666D01*
X205914761Y-100156190D01*
X205914761Y-99965714D01*
X207819523Y-98537142D02*
X207914761Y-98727619D01*
X207914761Y-99108571D01*
X207819523Y-99299047D01*
X207629047Y-99394285D01*
X206867142Y-99394285D01*
X206676666Y-99299047D01*
X206581428Y-99108571D01*
X206581428Y-98727619D01*
X206676666Y-98537142D01*
X206867142Y-98441904D01*
X207057619Y-98441904D01*
X207248095Y-99394285D01*
X207914761Y-97584761D02*
X206581428Y-97584761D01*
X206962380Y-97584761D02*
X206771904Y-97489523D01*
X206676666Y-97394285D01*
X206581428Y-97203809D01*
X206581428Y-97013333D01*
X206962380Y-89026190D02*
X207914761Y-89026190D01*
X205914761Y-89692857D02*
X206962380Y-89026190D01*
X205914761Y-88359523D01*
X207914761Y-86169047D02*
X206581428Y-86169047D01*
X206962380Y-86169047D02*
X206771904Y-86073809D01*
X206676666Y-85978571D01*
X206581428Y-85788095D01*
X206581428Y-85597619D01*
X207819523Y-84169047D02*
X207914761Y-84359523D01*
X207914761Y-84740476D01*
X207819523Y-84930952D01*
X207629047Y-85026190D01*
X206867142Y-85026190D01*
X206676666Y-84930952D01*
X206581428Y-84740476D01*
X206581428Y-84359523D01*
X206676666Y-84169047D01*
X206867142Y-84073809D01*
X207057619Y-84073809D01*
X207248095Y-85026190D01*
X206581428Y-82359523D02*
X208200476Y-82359523D01*
X208390952Y-82454761D01*
X208486190Y-82550000D01*
X208581428Y-82740476D01*
X208581428Y-83026190D01*
X208486190Y-83216666D01*
X207819523Y-82359523D02*
X207914761Y-82550000D01*
X207914761Y-82930952D01*
X207819523Y-83121428D01*
X207724285Y-83216666D01*
X207533809Y-83311904D01*
X206962380Y-83311904D01*
X206771904Y-83216666D01*
X206676666Y-83121428D01*
X206581428Y-82930952D01*
X206581428Y-82550000D01*
X206676666Y-82359523D01*
X207914761Y-81407142D02*
X206581428Y-81407142D01*
X205914761Y-81407142D02*
X206010000Y-81502380D01*
X206105238Y-81407142D01*
X206010000Y-81311904D01*
X205914761Y-81407142D01*
X206105238Y-81407142D01*
X207819523Y-80550000D02*
X207914761Y-80359523D01*
X207914761Y-79978571D01*
X207819523Y-79788095D01*
X207629047Y-79692857D01*
X207533809Y-79692857D01*
X207343333Y-79788095D01*
X207248095Y-79978571D01*
X207248095Y-80264285D01*
X207152857Y-80454761D01*
X206962380Y-80550000D01*
X206867142Y-80550000D01*
X206676666Y-80454761D01*
X206581428Y-80264285D01*
X206581428Y-79978571D01*
X206676666Y-79788095D01*
X206581428Y-79121428D02*
X206581428Y-78359523D01*
X205914761Y-78835714D02*
X207629047Y-78835714D01*
X207819523Y-78740476D01*
X207914761Y-78550000D01*
X207914761Y-78359523D01*
X207819523Y-76930952D02*
X207914761Y-77121428D01*
X207914761Y-77502380D01*
X207819523Y-77692857D01*
X207629047Y-77788095D01*
X206867142Y-77788095D01*
X206676666Y-77692857D01*
X206581428Y-77502380D01*
X206581428Y-77121428D01*
X206676666Y-76930952D01*
X206867142Y-76835714D01*
X207057619Y-76835714D01*
X207248095Y-77788095D01*
X207914761Y-75978571D02*
X206581428Y-75978571D01*
X206962380Y-75978571D02*
X206771904Y-75883333D01*
X206676666Y-75788095D01*
X206581428Y-75597619D01*
X206581428Y-75407142D01*
X205914761Y-65562857D02*
X207914761Y-64229523D01*
X205914761Y-64229523D02*
X207914761Y-65562857D01*
X207914761Y-61943809D02*
X206581428Y-61943809D01*
X206962380Y-61943809D02*
X206771904Y-61848571D01*
X206676666Y-61753333D01*
X206581428Y-61562857D01*
X206581428Y-61372380D01*
X207819523Y-59943809D02*
X207914761Y-60134285D01*
X207914761Y-60515238D01*
X207819523Y-60705714D01*
X207629047Y-60800952D01*
X206867142Y-60800952D01*
X206676666Y-60705714D01*
X206581428Y-60515238D01*
X206581428Y-60134285D01*
X206676666Y-59943809D01*
X206867142Y-59848571D01*
X207057619Y-59848571D01*
X207248095Y-60800952D01*
X206581428Y-58134285D02*
X208200476Y-58134285D01*
X208390952Y-58229523D01*
X208486190Y-58324761D01*
X208581428Y-58515238D01*
X208581428Y-58800952D01*
X208486190Y-58991428D01*
X207819523Y-58134285D02*
X207914761Y-58324761D01*
X207914761Y-58705714D01*
X207819523Y-58896190D01*
X207724285Y-58991428D01*
X207533809Y-59086666D01*
X206962380Y-59086666D01*
X206771904Y-58991428D01*
X206676666Y-58896190D01*
X206581428Y-58705714D01*
X206581428Y-58324761D01*
X206676666Y-58134285D01*
X207914761Y-57181904D02*
X206581428Y-57181904D01*
X205914761Y-57181904D02*
X206010000Y-57277142D01*
X206105238Y-57181904D01*
X206010000Y-57086666D01*
X205914761Y-57181904D01*
X206105238Y-57181904D01*
X207819523Y-56324761D02*
X207914761Y-56134285D01*
X207914761Y-55753333D01*
X207819523Y-55562857D01*
X207629047Y-55467619D01*
X207533809Y-55467619D01*
X207343333Y-55562857D01*
X207248095Y-55753333D01*
X207248095Y-56039047D01*
X207152857Y-56229523D01*
X206962380Y-56324761D01*
X206867142Y-56324761D01*
X206676666Y-56229523D01*
X206581428Y-56039047D01*
X206581428Y-55753333D01*
X206676666Y-55562857D01*
X206581428Y-54896190D02*
X206581428Y-54134285D01*
X205914761Y-54610476D02*
X207629047Y-54610476D01*
X207819523Y-54515238D01*
X207914761Y-54324761D01*
X207914761Y-54134285D01*
X207819523Y-52705714D02*
X207914761Y-52896190D01*
X207914761Y-53277142D01*
X207819523Y-53467619D01*
X207629047Y-53562857D01*
X206867142Y-53562857D01*
X206676666Y-53467619D01*
X206581428Y-53277142D01*
X206581428Y-52896190D01*
X206676666Y-52705714D01*
X206867142Y-52610476D01*
X207057619Y-52610476D01*
X207248095Y-53562857D01*
X207914761Y-51753333D02*
X206581428Y-51753333D01*
X206962380Y-51753333D02*
X206771904Y-51658095D01*
X206676666Y-51562857D01*
X206581428Y-51372380D01*
X206581428Y-51181904D01*
X40695714Y-81097380D02*
X40695714Y-80097380D01*
X40933809Y-80097380D01*
X41076666Y-80145000D01*
X41171904Y-80240238D01*
X41219523Y-80335476D01*
X41267142Y-80525952D01*
X41267142Y-80668809D01*
X41219523Y-80859285D01*
X41171904Y-80954523D01*
X41076666Y-81049761D01*
X40933809Y-81097380D01*
X40695714Y-81097380D01*
X42219523Y-81097380D02*
X41648095Y-81097380D01*
X41933809Y-81097380D02*
X41933809Y-80097380D01*
X41838571Y-80240238D01*
X41743333Y-80335476D01*
X41648095Y-80383095D01*
X43076666Y-80430714D02*
X43076666Y-81097380D01*
X42838571Y-80049761D02*
X42600476Y-80764047D01*
X43219523Y-80764047D01*
X41171904Y-77287380D02*
X41171904Y-76287380D01*
X41410000Y-76287380D01*
X41552857Y-76335000D01*
X41648095Y-76430238D01*
X41695714Y-76525476D01*
X41743333Y-76715952D01*
X41743333Y-76858809D01*
X41695714Y-77049285D01*
X41648095Y-77144523D01*
X41552857Y-77239761D01*
X41410000Y-77287380D01*
X41171904Y-77287380D01*
X42600476Y-76287380D02*
X42410000Y-76287380D01*
X42314761Y-76335000D01*
X42267142Y-76382619D01*
X42171904Y-76525476D01*
X42124285Y-76715952D01*
X42124285Y-77096904D01*
X42171904Y-77192142D01*
X42219523Y-77239761D01*
X42314761Y-77287380D01*
X42505238Y-77287380D01*
X42600476Y-77239761D01*
X42648095Y-77192142D01*
X42695714Y-77096904D01*
X42695714Y-76858809D01*
X42648095Y-76763571D01*
X42600476Y-76715952D01*
X42505238Y-76668333D01*
X42314761Y-76668333D01*
X42219523Y-76715952D01*
X42171904Y-76763571D01*
X42124285Y-76858809D01*
X40695714Y-73477380D02*
X40695714Y-72477380D01*
X40933809Y-72477380D01*
X41076666Y-72525000D01*
X41171904Y-72620238D01*
X41219523Y-72715476D01*
X41267142Y-72905952D01*
X41267142Y-73048809D01*
X41219523Y-73239285D01*
X41171904Y-73334523D01*
X41076666Y-73429761D01*
X40933809Y-73477380D01*
X40695714Y-73477380D01*
X42219523Y-73477380D02*
X41648095Y-73477380D01*
X41933809Y-73477380D02*
X41933809Y-72477380D01*
X41838571Y-72620238D01*
X41743333Y-72715476D01*
X41648095Y-72763095D01*
X42600476Y-72572619D02*
X42648095Y-72525000D01*
X42743333Y-72477380D01*
X42981428Y-72477380D01*
X43076666Y-72525000D01*
X43124285Y-72572619D01*
X43171904Y-72667857D01*
X43171904Y-72763095D01*
X43124285Y-72905952D01*
X42552857Y-73477380D01*
X43171904Y-73477380D01*
X41171904Y-69667380D02*
X41171904Y-68667380D01*
X41410000Y-68667380D01*
X41552857Y-68715000D01*
X41648095Y-68810238D01*
X41695714Y-68905476D01*
X41743333Y-69095952D01*
X41743333Y-69238809D01*
X41695714Y-69429285D01*
X41648095Y-69524523D01*
X41552857Y-69619761D01*
X41410000Y-69667380D01*
X41171904Y-69667380D01*
X42600476Y-69000714D02*
X42600476Y-69667380D01*
X42362380Y-68619761D02*
X42124285Y-69334047D01*
X42743333Y-69334047D01*
X40695714Y-65857380D02*
X40695714Y-64857380D01*
X40933809Y-64857380D01*
X41076666Y-64905000D01*
X41171904Y-65000238D01*
X41219523Y-65095476D01*
X41267142Y-65285952D01*
X41267142Y-65428809D01*
X41219523Y-65619285D01*
X41171904Y-65714523D01*
X41076666Y-65809761D01*
X40933809Y-65857380D01*
X40695714Y-65857380D01*
X42219523Y-65857380D02*
X41648095Y-65857380D01*
X41933809Y-65857380D02*
X41933809Y-64857380D01*
X41838571Y-65000238D01*
X41743333Y-65095476D01*
X41648095Y-65143095D01*
X42838571Y-64857380D02*
X42933809Y-64857380D01*
X43029047Y-64905000D01*
X43076666Y-64952619D01*
X43124285Y-65047857D01*
X43171904Y-65238333D01*
X43171904Y-65476428D01*
X43124285Y-65666904D01*
X43076666Y-65762142D01*
X43029047Y-65809761D01*
X42933809Y-65857380D01*
X42838571Y-65857380D01*
X42743333Y-65809761D01*
X42695714Y-65762142D01*
X42648095Y-65666904D01*
X42600476Y-65476428D01*
X42600476Y-65238333D01*
X42648095Y-65047857D01*
X42695714Y-64952619D01*
X42743333Y-64905000D01*
X42838571Y-64857380D01*
X41171904Y-62047380D02*
X41171904Y-61047380D01*
X41410000Y-61047380D01*
X41552857Y-61095000D01*
X41648095Y-61190238D01*
X41695714Y-61285476D01*
X41743333Y-61475952D01*
X41743333Y-61618809D01*
X41695714Y-61809285D01*
X41648095Y-61904523D01*
X41552857Y-61999761D01*
X41410000Y-62047380D01*
X41171904Y-62047380D01*
X42124285Y-61142619D02*
X42171904Y-61095000D01*
X42267142Y-61047380D01*
X42505238Y-61047380D01*
X42600476Y-61095000D01*
X42648095Y-61142619D01*
X42695714Y-61237857D01*
X42695714Y-61333095D01*
X42648095Y-61475952D01*
X42076666Y-62047380D01*
X42695714Y-62047380D01*
X41171904Y-58237380D02*
X41171904Y-57237380D01*
X41410000Y-57237380D01*
X41552857Y-57285000D01*
X41648095Y-57380238D01*
X41695714Y-57475476D01*
X41743333Y-57665952D01*
X41743333Y-57808809D01*
X41695714Y-57999285D01*
X41648095Y-58094523D01*
X41552857Y-58189761D01*
X41410000Y-58237380D01*
X41171904Y-58237380D01*
X42314761Y-57665952D02*
X42219523Y-57618333D01*
X42171904Y-57570714D01*
X42124285Y-57475476D01*
X42124285Y-57427857D01*
X42171904Y-57332619D01*
X42219523Y-57285000D01*
X42314761Y-57237380D01*
X42505238Y-57237380D01*
X42600476Y-57285000D01*
X42648095Y-57332619D01*
X42695714Y-57427857D01*
X42695714Y-57475476D01*
X42648095Y-57570714D01*
X42600476Y-57618333D01*
X42505238Y-57665952D01*
X42314761Y-57665952D01*
X42219523Y-57713571D01*
X42171904Y-57761190D01*
X42124285Y-57856428D01*
X42124285Y-58046904D01*
X42171904Y-58142142D01*
X42219523Y-58189761D01*
X42314761Y-58237380D01*
X42505238Y-58237380D01*
X42600476Y-58189761D01*
X42648095Y-58142142D01*
X42695714Y-58046904D01*
X42695714Y-57856428D01*
X42648095Y-57761190D01*
X42600476Y-57713571D01*
X42505238Y-57665952D01*
X41171904Y-54427380D02*
X41171904Y-53427380D01*
X41410000Y-53427380D01*
X41552857Y-53475000D01*
X41648095Y-53570238D01*
X41695714Y-53665476D01*
X41743333Y-53855952D01*
X41743333Y-53998809D01*
X41695714Y-54189285D01*
X41648095Y-54284523D01*
X41552857Y-54379761D01*
X41410000Y-54427380D01*
X41171904Y-54427380D01*
X42362380Y-53427380D02*
X42457619Y-53427380D01*
X42552857Y-53475000D01*
X42600476Y-53522619D01*
X42648095Y-53617857D01*
X42695714Y-53808333D01*
X42695714Y-54046428D01*
X42648095Y-54236904D01*
X42600476Y-54332142D01*
X42552857Y-54379761D01*
X42457619Y-54427380D01*
X42362380Y-54427380D01*
X42267142Y-54379761D01*
X42219523Y-54332142D01*
X42171904Y-54236904D01*
X42124285Y-54046428D01*
X42124285Y-53808333D01*
X42171904Y-53617857D01*
X42219523Y-53522619D01*
X42267142Y-53475000D01*
X42362380Y-53427380D01*
X53125714Y-69199047D02*
X53792380Y-69199047D01*
X53220952Y-69199047D02*
X53173333Y-69151428D01*
X53125714Y-69056190D01*
X53125714Y-68913333D01*
X53173333Y-68818095D01*
X53268571Y-68770476D01*
X53792380Y-68770476D01*
X53125714Y-68389523D02*
X53125714Y-67865714D01*
X53792380Y-68389523D01*
X53792380Y-67865714D01*
X53744761Y-64714285D02*
X53792380Y-64809523D01*
X53792380Y-65000000D01*
X53744761Y-65095238D01*
X53697142Y-65142857D01*
X53601904Y-65190476D01*
X53316190Y-65190476D01*
X53220952Y-65142857D01*
X53173333Y-65095238D01*
X53125714Y-65000000D01*
X53125714Y-64809523D01*
X53173333Y-64714285D01*
X53792380Y-63857142D02*
X53268571Y-63857142D01*
X53173333Y-63904761D01*
X53125714Y-64000000D01*
X53125714Y-64190476D01*
X53173333Y-64285714D01*
X53744761Y-63857142D02*
X53792380Y-63952380D01*
X53792380Y-64190476D01*
X53744761Y-64285714D01*
X53649523Y-64333333D01*
X53554285Y-64333333D01*
X53459047Y-64285714D01*
X53411428Y-64190476D01*
X53411428Y-63952380D01*
X53363809Y-63857142D01*
X53792380Y-63380952D02*
X53125714Y-63380952D01*
X53316190Y-63380952D02*
X53220952Y-63333333D01*
X53173333Y-63285714D01*
X53125714Y-63190476D01*
X53125714Y-63095238D01*
X53792380Y-62761904D02*
X53125714Y-62761904D01*
X53316190Y-62761904D02*
X53220952Y-62714285D01*
X53173333Y-62666666D01*
X53125714Y-62571428D01*
X53125714Y-62476190D01*
X53125714Y-62238095D02*
X53792380Y-62000000D01*
X53125714Y-61761904D02*
X53792380Y-62000000D01*
X54030476Y-62095238D01*
X54078095Y-62142857D01*
X54125714Y-62238095D01*
X57872380Y-66873333D02*
X57872380Y-66682857D01*
X57920000Y-66587619D01*
X58015238Y-66492380D01*
X58205714Y-66444761D01*
X58539047Y-66444761D01*
X58729523Y-66492380D01*
X58824761Y-66587619D01*
X58872380Y-66682857D01*
X58872380Y-66873333D01*
X58824761Y-66968571D01*
X58729523Y-67063809D01*
X58539047Y-67111428D01*
X58205714Y-67111428D01*
X58015238Y-67063809D01*
X57920000Y-66968571D01*
X57872380Y-66873333D01*
X58205714Y-65587619D02*
X58872380Y-65587619D01*
X58205714Y-66016190D02*
X58729523Y-66016190D01*
X58824761Y-65968571D01*
X58872380Y-65873333D01*
X58872380Y-65730476D01*
X58824761Y-65635238D01*
X58777142Y-65587619D01*
X58205714Y-65254285D02*
X58205714Y-64873333D01*
X57872380Y-65111428D02*
X58729523Y-65111428D01*
X58824761Y-65063809D01*
X58872380Y-64968571D01*
X58872380Y-64873333D01*
X258262380Y-129611428D02*
X258262380Y-130087619D01*
X257262380Y-130087619D01*
X257262380Y-129420952D02*
X257262380Y-128849523D01*
X258262380Y-129135238D02*
X257262380Y-129135238D01*
X257262380Y-127333333D02*
X257262380Y-126666666D01*
X258262380Y-127333333D01*
X258262380Y-126666666D01*
X258262380Y-105663809D02*
X257786190Y-105997142D01*
X258262380Y-106235238D02*
X257262380Y-106235238D01*
X257262380Y-105854285D01*
X257310000Y-105759047D01*
X257357619Y-105711428D01*
X257452857Y-105663809D01*
X257595714Y-105663809D01*
X257690952Y-105711428D01*
X257738571Y-105759047D01*
X257786190Y-105854285D01*
X257786190Y-106235238D01*
X258214761Y-104854285D02*
X258262380Y-104949523D01*
X258262380Y-105140000D01*
X258214761Y-105235238D01*
X258119523Y-105282857D01*
X257738571Y-105282857D01*
X257643333Y-105235238D01*
X257595714Y-105140000D01*
X257595714Y-104949523D01*
X257643333Y-104854285D01*
X257738571Y-104806666D01*
X257833809Y-104806666D01*
X257929047Y-105282857D01*
X258214761Y-104425714D02*
X258262380Y-104330476D01*
X258262380Y-104140000D01*
X258214761Y-104044761D01*
X258119523Y-103997142D01*
X258071904Y-103997142D01*
X257976666Y-104044761D01*
X257929047Y-104140000D01*
X257929047Y-104282857D01*
X257881428Y-104378095D01*
X257786190Y-104425714D01*
X257738571Y-104425714D01*
X257643333Y-104378095D01*
X257595714Y-104282857D01*
X257595714Y-104140000D01*
X257643333Y-104044761D01*
X257595714Y-103140000D02*
X258262380Y-103140000D01*
X257595714Y-103568571D02*
X258119523Y-103568571D01*
X258214761Y-103520952D01*
X258262380Y-103425714D01*
X258262380Y-103282857D01*
X258214761Y-103187619D01*
X258167142Y-103140000D01*
X258262380Y-102520952D02*
X258214761Y-102616190D01*
X258119523Y-102663809D01*
X257262380Y-102663809D01*
X257595714Y-102282857D02*
X257595714Y-101901904D01*
X257262380Y-102140000D02*
X258119523Y-102140000D01*
X258214761Y-102092380D01*
X258262380Y-101997142D01*
X258262380Y-101901904D01*
X257786190Y-84518095D02*
X258262380Y-84518095D01*
X257262380Y-84851428D02*
X257786190Y-84518095D01*
X257262380Y-84184761D01*
X258262380Y-83089523D02*
X257595714Y-83089523D01*
X257786190Y-83089523D02*
X257690952Y-83041904D01*
X257643333Y-82994285D01*
X257595714Y-82899047D01*
X257595714Y-82803809D01*
X258214761Y-82089523D02*
X258262380Y-82184761D01*
X258262380Y-82375238D01*
X258214761Y-82470476D01*
X258119523Y-82518095D01*
X257738571Y-82518095D01*
X257643333Y-82470476D01*
X257595714Y-82375238D01*
X257595714Y-82184761D01*
X257643333Y-82089523D01*
X257738571Y-82041904D01*
X257833809Y-82041904D01*
X257929047Y-82518095D01*
X257595714Y-81184761D02*
X258405238Y-81184761D01*
X258500476Y-81232380D01*
X258548095Y-81280000D01*
X258595714Y-81375238D01*
X258595714Y-81518095D01*
X258548095Y-81613333D01*
X258214761Y-81184761D02*
X258262380Y-81280000D01*
X258262380Y-81470476D01*
X258214761Y-81565714D01*
X258167142Y-81613333D01*
X258071904Y-81660952D01*
X257786190Y-81660952D01*
X257690952Y-81613333D01*
X257643333Y-81565714D01*
X257595714Y-81470476D01*
X257595714Y-81280000D01*
X257643333Y-81184761D01*
X258262380Y-80708571D02*
X257595714Y-80708571D01*
X257262380Y-80708571D02*
X257310000Y-80756190D01*
X257357619Y-80708571D01*
X257310000Y-80660952D01*
X257262380Y-80708571D01*
X257357619Y-80708571D01*
X258214761Y-80280000D02*
X258262380Y-80184761D01*
X258262380Y-79994285D01*
X258214761Y-79899047D01*
X258119523Y-79851428D01*
X258071904Y-79851428D01*
X257976666Y-79899047D01*
X257929047Y-79994285D01*
X257929047Y-80137142D01*
X257881428Y-80232380D01*
X257786190Y-80280000D01*
X257738571Y-80280000D01*
X257643333Y-80232380D01*
X257595714Y-80137142D01*
X257595714Y-79994285D01*
X257643333Y-79899047D01*
X257595714Y-79565714D02*
X257595714Y-79184761D01*
X257262380Y-79422857D02*
X258119523Y-79422857D01*
X258214761Y-79375238D01*
X258262380Y-79280000D01*
X258262380Y-79184761D01*
X258214761Y-78470476D02*
X258262380Y-78565714D01*
X258262380Y-78756190D01*
X258214761Y-78851428D01*
X258119523Y-78899047D01*
X257738571Y-78899047D01*
X257643333Y-78851428D01*
X257595714Y-78756190D01*
X257595714Y-78565714D01*
X257643333Y-78470476D01*
X257738571Y-78422857D01*
X257833809Y-78422857D01*
X257929047Y-78899047D01*
X258262380Y-77994285D02*
X257595714Y-77994285D01*
X257786190Y-77994285D02*
X257690952Y-77946666D01*
X257643333Y-77899047D01*
X257595714Y-77803809D01*
X257595714Y-77708571D01*
X257262380Y-60721428D02*
X258262380Y-60054761D01*
X257262380Y-60054761D02*
X258262380Y-60721428D01*
X258262380Y-58911904D02*
X257595714Y-58911904D01*
X257786190Y-58911904D02*
X257690952Y-58864285D01*
X257643333Y-58816666D01*
X257595714Y-58721428D01*
X257595714Y-58626190D01*
X258214761Y-57911904D02*
X258262380Y-58007142D01*
X258262380Y-58197619D01*
X258214761Y-58292857D01*
X258119523Y-58340476D01*
X257738571Y-58340476D01*
X257643333Y-58292857D01*
X257595714Y-58197619D01*
X257595714Y-58007142D01*
X257643333Y-57911904D01*
X257738571Y-57864285D01*
X257833809Y-57864285D01*
X257929047Y-58340476D01*
X257595714Y-57007142D02*
X258405238Y-57007142D01*
X258500476Y-57054761D01*
X258548095Y-57102380D01*
X258595714Y-57197619D01*
X258595714Y-57340476D01*
X258548095Y-57435714D01*
X258214761Y-57007142D02*
X258262380Y-57102380D01*
X258262380Y-57292857D01*
X258214761Y-57388095D01*
X258167142Y-57435714D01*
X258071904Y-57483333D01*
X257786190Y-57483333D01*
X257690952Y-57435714D01*
X257643333Y-57388095D01*
X257595714Y-57292857D01*
X257595714Y-57102380D01*
X257643333Y-57007142D01*
X258262380Y-56530952D02*
X257595714Y-56530952D01*
X257262380Y-56530952D02*
X257310000Y-56578571D01*
X257357619Y-56530952D01*
X257310000Y-56483333D01*
X257262380Y-56530952D01*
X257357619Y-56530952D01*
X258214761Y-56102380D02*
X258262380Y-56007142D01*
X258262380Y-55816666D01*
X258214761Y-55721428D01*
X258119523Y-55673809D01*
X258071904Y-55673809D01*
X257976666Y-55721428D01*
X257929047Y-55816666D01*
X257929047Y-55959523D01*
X257881428Y-56054761D01*
X257786190Y-56102380D01*
X257738571Y-56102380D01*
X257643333Y-56054761D01*
X257595714Y-55959523D01*
X257595714Y-55816666D01*
X257643333Y-55721428D01*
X257595714Y-55388095D02*
X257595714Y-55007142D01*
X257262380Y-55245238D02*
X258119523Y-55245238D01*
X258214761Y-55197619D01*
X258262380Y-55102380D01*
X258262380Y-55007142D01*
X258214761Y-54292857D02*
X258262380Y-54388095D01*
X258262380Y-54578571D01*
X258214761Y-54673809D01*
X258119523Y-54721428D01*
X257738571Y-54721428D01*
X257643333Y-54673809D01*
X257595714Y-54578571D01*
X257595714Y-54388095D01*
X257643333Y-54292857D01*
X257738571Y-54245238D01*
X257833809Y-54245238D01*
X257929047Y-54721428D01*
X258262380Y-53816666D02*
X257595714Y-53816666D01*
X257786190Y-53816666D02*
X257690952Y-53769047D01*
X257643333Y-53721428D01*
X257595714Y-53626190D01*
X257595714Y-53530952D01*
D12*
X260957142Y-105888571D02*
X261028571Y-105674285D01*
X261028571Y-105317142D01*
X260957142Y-105174285D01*
X260885714Y-105102857D01*
X260742857Y-105031428D01*
X260600000Y-105031428D01*
X260457142Y-105102857D01*
X260385714Y-105174285D01*
X260314285Y-105317142D01*
X260242857Y-105602857D01*
X260171428Y-105745714D01*
X260100000Y-105817142D01*
X259957142Y-105888571D01*
X259814285Y-105888571D01*
X259671428Y-105817142D01*
X259600000Y-105745714D01*
X259528571Y-105602857D01*
X259528571Y-105245714D01*
X259600000Y-105031428D01*
X260885714Y-103531428D02*
X260957142Y-103602857D01*
X261028571Y-103817142D01*
X261028571Y-103960000D01*
X260957142Y-104174285D01*
X260814285Y-104317142D01*
X260671428Y-104388571D01*
X260385714Y-104460000D01*
X260171428Y-104460000D01*
X259885714Y-104388571D01*
X259742857Y-104317142D01*
X259600000Y-104174285D01*
X259528571Y-103960000D01*
X259528571Y-103817142D01*
X259600000Y-103602857D01*
X259671428Y-103531428D01*
X260600000Y-102960000D02*
X260600000Y-102245714D01*
X261028571Y-103102857D02*
X259528571Y-102602857D01*
X261028571Y-102102857D01*
X261028571Y-101602857D02*
X259528571Y-101602857D01*
X260600000Y-101102857D01*
X259528571Y-100602857D01*
X261028571Y-100602857D01*
X261028571Y-99888571D02*
X259528571Y-99888571D01*
X259528571Y-99317142D01*
X259600000Y-99174285D01*
X259671428Y-99102857D01*
X259814285Y-99031428D01*
X260028571Y-99031428D01*
X260171428Y-99102857D01*
X260242857Y-99174285D01*
X260314285Y-99317142D01*
X260314285Y-99888571D01*
X260600000Y-97317142D02*
X260600000Y-96602857D01*
X261028571Y-97460000D02*
X259528571Y-96960000D01*
X261028571Y-96460000D01*
X261028571Y-95245714D02*
X261028571Y-95960000D01*
X259528571Y-95960000D01*
X259528571Y-94745714D02*
X260742857Y-94745714D01*
X260885714Y-94674285D01*
X260957142Y-94602857D01*
X261028571Y-94460000D01*
X261028571Y-94174285D01*
X260957142Y-94031428D01*
X260885714Y-93960000D01*
X260742857Y-93888571D01*
X259528571Y-93888571D01*
X260885714Y-91174285D02*
X260957142Y-91245714D01*
X261028571Y-91460000D01*
X261028571Y-91602857D01*
X260957142Y-91817142D01*
X260814285Y-91960000D01*
X260671428Y-92031428D01*
X260385714Y-92102857D01*
X260171428Y-92102857D01*
X259885714Y-92031428D01*
X259742857Y-91960000D01*
X259600000Y-91817142D01*
X259528571Y-91602857D01*
X259528571Y-91460000D01*
X259600000Y-91245714D01*
X259671428Y-91174285D01*
X261028571Y-89888571D02*
X260242857Y-89888571D01*
X260100000Y-89960000D01*
X260028571Y-90102857D01*
X260028571Y-90388571D01*
X260100000Y-90531428D01*
X260957142Y-89888571D02*
X261028571Y-90031428D01*
X261028571Y-90388571D01*
X260957142Y-90531428D01*
X260814285Y-90602857D01*
X260671428Y-90602857D01*
X260528571Y-90531428D01*
X260457142Y-90388571D01*
X260457142Y-90031428D01*
X260385714Y-89888571D01*
X261028571Y-89174285D02*
X260028571Y-89174285D01*
X260314285Y-89174285D02*
X260171428Y-89102857D01*
X260100000Y-89031428D01*
X260028571Y-88888571D01*
X260028571Y-88745714D01*
X261028571Y-87602857D02*
X259528571Y-87602857D01*
X260957142Y-87602857D02*
X261028571Y-87745714D01*
X261028571Y-88031428D01*
X260957142Y-88174285D01*
X260885714Y-88245714D01*
X260742857Y-88317142D01*
X260314285Y-88317142D01*
X260171428Y-88245714D01*
X260100000Y-88174285D01*
X260028571Y-88031428D01*
X260028571Y-87745714D01*
X260100000Y-87602857D01*
X261028571Y-85745714D02*
X259528571Y-85745714D01*
X260100000Y-85745714D02*
X260028571Y-85602857D01*
X260028571Y-85317142D01*
X260100000Y-85174285D01*
X260171428Y-85102857D01*
X260314285Y-85031428D01*
X260742857Y-85031428D01*
X260885714Y-85102857D01*
X260957142Y-85174285D01*
X261028571Y-85317142D01*
X261028571Y-85602857D01*
X260957142Y-85745714D01*
X260028571Y-84531428D02*
X261028571Y-84174285D01*
X260028571Y-83817142D02*
X261028571Y-84174285D01*
X261385714Y-84317142D01*
X261457142Y-84388571D01*
X261528571Y-84531428D01*
X260028571Y-82102857D02*
X261314285Y-82102857D01*
X261457142Y-82174285D01*
X261528571Y-82317142D01*
X261528571Y-82388571D01*
X259528571Y-82102857D02*
X259600000Y-82174285D01*
X259671428Y-82102857D01*
X259600000Y-82031428D01*
X259528571Y-82102857D01*
X259671428Y-82102857D01*
X260957142Y-80817142D02*
X261028571Y-80960000D01*
X261028571Y-81245714D01*
X260957142Y-81388571D01*
X260814285Y-81460000D01*
X260242857Y-81460000D01*
X260100000Y-81388571D01*
X260028571Y-81245714D01*
X260028571Y-80960000D01*
X260100000Y-80817142D01*
X260242857Y-80745714D01*
X260385714Y-80745714D01*
X260528571Y-81460000D01*
X260957142Y-80174285D02*
X261028571Y-80031428D01*
X261028571Y-79745714D01*
X260957142Y-79602857D01*
X260814285Y-79531428D01*
X260742857Y-79531428D01*
X260600000Y-79602857D01*
X260528571Y-79745714D01*
X260528571Y-79960000D01*
X260457142Y-80102857D01*
X260314285Y-80174285D01*
X260242857Y-80174285D01*
X260100000Y-80102857D01*
X260028571Y-79960000D01*
X260028571Y-79745714D01*
X260100000Y-79602857D01*
D11*
X114130000Y-99130000D02*
X116870000Y-99130000D01*
X114130000Y-104370000D02*
X116870000Y-104370000D01*
X116870000Y-104370000D02*
X116870000Y-99130000D01*
X114130000Y-104370000D02*
X114130000Y-99130000D01*
X116940000Y-120750000D02*
X114200000Y-120750000D01*
X116940000Y-115510000D02*
X114200000Y-115510000D01*
X114200000Y-115510000D02*
X114200000Y-120750000D01*
X116940000Y-115510000D02*
X116940000Y-120750000D01*
X240130000Y-55820000D02*
X240130000Y-61060000D01*
X237390000Y-55820000D02*
X237390000Y-61060000D01*
X240130000Y-55820000D02*
X237390000Y-55820000D01*
X240130000Y-61060000D02*
X237390000Y-61060000D01*
X237390000Y-79950000D02*
X240130000Y-79950000D01*
X237390000Y-85190000D02*
X240130000Y-85190000D01*
X240130000Y-85190000D02*
X240130000Y-79950000D01*
X237390000Y-85190000D02*
X237390000Y-79950000D01*
X240130000Y-104080000D02*
X240130000Y-109320000D01*
X237390000Y-104080000D02*
X237390000Y-109320000D01*
X240130000Y-104080000D02*
X237390000Y-104080000D01*
X240130000Y-109320000D02*
X237390000Y-109320000D01*
X240130000Y-128170000D02*
X240130000Y-133410000D01*
X237390000Y-128170000D02*
X237390000Y-133410000D01*
X240130000Y-128170000D02*
X237390000Y-128170000D01*
X240130000Y-133410000D02*
X237390000Y-133410000D01*
X68680000Y-116940000D02*
X65940000Y-116940000D01*
X68680000Y-111700000D02*
X65940000Y-111700000D01*
X65940000Y-111700000D02*
X65940000Y-116940000D01*
X68680000Y-111700000D02*
X68680000Y-116940000D01*
X68680000Y-130750000D02*
X68680000Y-135990000D01*
X65940000Y-130750000D02*
X65940000Y-135990000D01*
X68680000Y-130750000D02*
X65940000Y-130750000D01*
X68680000Y-135990000D02*
X65940000Y-135990000D01*
X193140000Y-54710000D02*
X190400000Y-54710000D01*
X193140000Y-49470000D02*
X190400000Y-49470000D01*
X190400000Y-49470000D02*
X190400000Y-54710000D01*
X193140000Y-49470000D02*
X193140000Y-54710000D01*
X193140000Y-71180000D02*
X190400000Y-71180000D01*
X193140000Y-65940000D02*
X190400000Y-65940000D01*
X190400000Y-65940000D02*
X190400000Y-71180000D01*
X193140000Y-65940000D02*
X193140000Y-71180000D01*
X156310000Y-74830000D02*
X156310000Y-80070000D01*
X153570000Y-74830000D02*
X153570000Y-80070000D01*
X156310000Y-74830000D02*
X153570000Y-74830000D01*
X156310000Y-80070000D02*
X153570000Y-80070000D01*
X65940000Y-92650000D02*
X68680000Y-92650000D01*
X65940000Y-97890000D02*
X68680000Y-97890000D01*
X68680000Y-97890000D02*
X68680000Y-92650000D01*
X65940000Y-97890000D02*
X65940000Y-92650000D01*
X114200000Y-87730000D02*
X114200000Y-82490000D01*
X116940000Y-87730000D02*
X116940000Y-82490000D01*
X114200000Y-87730000D02*
X116940000Y-87730000D01*
X114200000Y-82490000D02*
X116940000Y-82490000D01*
X116940000Y-71220000D02*
X114200000Y-71220000D01*
X116940000Y-65980000D02*
X114200000Y-65980000D01*
X114200000Y-65980000D02*
X114200000Y-71220000D01*
X116940000Y-65980000D02*
X116940000Y-71220000D01*
X156310000Y-55820000D02*
X156310000Y-61060000D01*
X153570000Y-55820000D02*
X153570000Y-61060000D01*
X156310000Y-55820000D02*
X153570000Y-55820000D01*
X156310000Y-61060000D02*
X153570000Y-61060000D01*
X193140000Y-82490000D02*
X193140000Y-87730000D01*
X190400000Y-82490000D02*
X190400000Y-87730000D01*
X193140000Y-82490000D02*
X190400000Y-82490000D01*
X193140000Y-87730000D02*
X190400000Y-87730000D01*
X116940000Y-54670000D02*
X114200000Y-54670000D01*
X116940000Y-49430000D02*
X114200000Y-49430000D01*
X114200000Y-49430000D02*
X114200000Y-54670000D01*
X116940000Y-49430000D02*
X116940000Y-54670000D01*
X193140000Y-99000000D02*
X193140000Y-104240000D01*
X190400000Y-99000000D02*
X190400000Y-104240000D01*
X193140000Y-99000000D02*
X190400000Y-99000000D01*
X193140000Y-104240000D02*
X190400000Y-104240000D01*
X193140000Y-120710000D02*
X190400000Y-120710000D01*
X193140000Y-115470000D02*
X190400000Y-115470000D01*
X190400000Y-115470000D02*
X190400000Y-120710000D01*
X193140000Y-115470000D02*
X193140000Y-120710000D01*
X156310000Y-105310000D02*
X156310000Y-110550000D01*
X153570000Y-105310000D02*
X153570000Y-110550000D01*
X156310000Y-105310000D02*
X153570000Y-105310000D01*
X156310000Y-110550000D02*
X153570000Y-110550000D01*
X193140000Y-137220000D02*
X190400000Y-137220000D01*
X193140000Y-131980000D02*
X190400000Y-131980000D01*
X190400000Y-131980000D02*
X190400000Y-137220000D01*
X193140000Y-131980000D02*
X193140000Y-137220000D01*
X153570000Y-125670000D02*
X156310000Y-125670000D01*
X153570000Y-130910000D02*
X156310000Y-130910000D01*
X156310000Y-130910000D02*
X156310000Y-125670000D01*
X153570000Y-130910000D02*
X153570000Y-125670000D01*
X114200000Y-136870000D02*
X114200000Y-131630000D01*
X116940000Y-136870000D02*
X116940000Y-131630000D01*
X114200000Y-136870000D02*
X116940000Y-136870000D01*
X114200000Y-131630000D02*
X116940000Y-131630000D01*
X21660000Y-55305000D02*
X30290000Y-55305000D01*
X21660000Y-55423095D02*
X30290000Y-55423095D01*
X21660000Y-55541190D02*
X30290000Y-55541190D01*
X21660000Y-55659285D02*
X30290000Y-55659285D01*
X21660000Y-55777380D02*
X30290000Y-55777380D01*
X21660000Y-55895475D02*
X30290000Y-55895475D01*
X21660000Y-56013570D02*
X30290000Y-56013570D01*
X21660000Y-56131665D02*
X30290000Y-56131665D01*
X21660000Y-56249760D02*
X30290000Y-56249760D01*
X21660000Y-56367855D02*
X30290000Y-56367855D01*
X21660000Y-56485950D02*
X30290000Y-56485950D01*
X21660000Y-56604045D02*
X30290000Y-56604045D01*
X21660000Y-56722140D02*
X30290000Y-56722140D01*
X21660000Y-56840235D02*
X30290000Y-56840235D01*
X21660000Y-56958330D02*
X30290000Y-56958330D01*
X21660000Y-57076425D02*
X30290000Y-57076425D01*
X21660000Y-57194520D02*
X30290000Y-57194520D01*
X21660000Y-57312615D02*
X30290000Y-57312615D01*
X21660000Y-57430710D02*
X30290000Y-57430710D01*
X21660000Y-57548805D02*
X30290000Y-57548805D01*
X21660000Y-57666900D02*
X30290000Y-57666900D01*
X30290000Y-56155000D02*
X30700000Y-56155000D01*
X32800000Y-56155000D02*
X33180000Y-56155000D01*
X30290000Y-56875000D02*
X30700000Y-56875000D01*
X32800000Y-56875000D02*
X33180000Y-56875000D01*
X30290000Y-58695000D02*
X30700000Y-58695000D01*
X32800000Y-58695000D02*
X33240000Y-58695000D01*
X30290000Y-59415000D02*
X30700000Y-59415000D01*
X32800000Y-59415000D02*
X33240000Y-59415000D01*
X30290000Y-61235000D02*
X30700000Y-61235000D01*
X32800000Y-61235000D02*
X33240000Y-61235000D01*
X30290000Y-61955000D02*
X30700000Y-61955000D01*
X32800000Y-61955000D02*
X33240000Y-61955000D01*
X30290000Y-63775000D02*
X30700000Y-63775000D01*
X32800000Y-63775000D02*
X33240000Y-63775000D01*
X30290000Y-64495000D02*
X30700000Y-64495000D01*
X32800000Y-64495000D02*
X33240000Y-64495000D01*
X30290000Y-66315000D02*
X30700000Y-66315000D01*
X32800000Y-66315000D02*
X33240000Y-66315000D01*
X30290000Y-67035000D02*
X30700000Y-67035000D01*
X32800000Y-67035000D02*
X33240000Y-67035000D01*
X30290000Y-68855000D02*
X30700000Y-68855000D01*
X32800000Y-68855000D02*
X33240000Y-68855000D01*
X30290000Y-69575000D02*
X30700000Y-69575000D01*
X32800000Y-69575000D02*
X33240000Y-69575000D01*
X30290000Y-71395000D02*
X30700000Y-71395000D01*
X32800000Y-71395000D02*
X33240000Y-71395000D01*
X30290000Y-72115000D02*
X30700000Y-72115000D01*
X32800000Y-72115000D02*
X33240000Y-72115000D01*
X30290000Y-73935000D02*
X30700000Y-73935000D01*
X32800000Y-73935000D02*
X33240000Y-73935000D01*
X30290000Y-74655000D02*
X30700000Y-74655000D01*
X32800000Y-74655000D02*
X33240000Y-74655000D01*
X30290000Y-76475000D02*
X30700000Y-76475000D01*
X32800000Y-76475000D02*
X33240000Y-76475000D01*
X30290000Y-77195000D02*
X30700000Y-77195000D01*
X32800000Y-77195000D02*
X33240000Y-77195000D01*
X30290000Y-79015000D02*
X30700000Y-79015000D01*
X32800000Y-79015000D02*
X33240000Y-79015000D01*
X30290000Y-79735000D02*
X30700000Y-79735000D01*
X32800000Y-79735000D02*
X33240000Y-79735000D01*
X30290000Y-81555000D02*
X30700000Y-81555000D01*
X32800000Y-81555000D02*
X33240000Y-81555000D01*
X30290000Y-82275000D02*
X30700000Y-82275000D01*
X32800000Y-82275000D02*
X33240000Y-82275000D01*
X30290000Y-84095000D02*
X30700000Y-84095000D01*
X32800000Y-84095000D02*
X33240000Y-84095000D01*
X30290000Y-84815000D02*
X30700000Y-84815000D01*
X32800000Y-84815000D02*
X33240000Y-84815000D01*
X30290000Y-86635000D02*
X30700000Y-86635000D01*
X32800000Y-86635000D02*
X33240000Y-86635000D01*
X30290000Y-87355000D02*
X30700000Y-87355000D01*
X32800000Y-87355000D02*
X33240000Y-87355000D01*
X30290000Y-89175000D02*
X30700000Y-89175000D01*
X32800000Y-89175000D02*
X33240000Y-89175000D01*
X30290000Y-89895000D02*
X30700000Y-89895000D01*
X32800000Y-89895000D02*
X33240000Y-89895000D01*
X30290000Y-91715000D02*
X30700000Y-91715000D01*
X32800000Y-91715000D02*
X33240000Y-91715000D01*
X30290000Y-92435000D02*
X30700000Y-92435000D01*
X32800000Y-92435000D02*
X33240000Y-92435000D01*
X30290000Y-94255000D02*
X30700000Y-94255000D01*
X32800000Y-94255000D02*
X33240000Y-94255000D01*
X30290000Y-94975000D02*
X30700000Y-94975000D01*
X32800000Y-94975000D02*
X33240000Y-94975000D01*
X30290000Y-96795000D02*
X30700000Y-96795000D01*
X32800000Y-96795000D02*
X33240000Y-96795000D01*
X30290000Y-97515000D02*
X30700000Y-97515000D01*
X32800000Y-97515000D02*
X33240000Y-97515000D01*
X30290000Y-99335000D02*
X30700000Y-99335000D01*
X32800000Y-99335000D02*
X33240000Y-99335000D01*
X30290000Y-100055000D02*
X30700000Y-100055000D01*
X32800000Y-100055000D02*
X33240000Y-100055000D01*
X30290000Y-101875000D02*
X30700000Y-101875000D01*
X32800000Y-101875000D02*
X33240000Y-101875000D01*
X30290000Y-102595000D02*
X30700000Y-102595000D01*
X32800000Y-102595000D02*
X33240000Y-102595000D01*
X30290000Y-104415000D02*
X30700000Y-104415000D01*
X32800000Y-104415000D02*
X33240000Y-104415000D01*
X30290000Y-105135000D02*
X30700000Y-105135000D01*
X32800000Y-105135000D02*
X33240000Y-105135000D01*
X30290000Y-106955000D02*
X30700000Y-106955000D01*
X32800000Y-106955000D02*
X33240000Y-106955000D01*
X30290000Y-107675000D02*
X30700000Y-107675000D01*
X32800000Y-107675000D02*
X33240000Y-107675000D01*
X30290000Y-109495000D02*
X30700000Y-109495000D01*
X32800000Y-109495000D02*
X33240000Y-109495000D01*
X30290000Y-110215000D02*
X30700000Y-110215000D01*
X32800000Y-110215000D02*
X33240000Y-110215000D01*
X30290000Y-112035000D02*
X30700000Y-112035000D01*
X32800000Y-112035000D02*
X33240000Y-112035000D01*
X30290000Y-112755000D02*
X30700000Y-112755000D01*
X32800000Y-112755000D02*
X33240000Y-112755000D01*
X30290000Y-114575000D02*
X30700000Y-114575000D01*
X32800000Y-114575000D02*
X33240000Y-114575000D01*
X30290000Y-115295000D02*
X30700000Y-115295000D01*
X32800000Y-115295000D02*
X33240000Y-115295000D01*
X30290000Y-117115000D02*
X30700000Y-117115000D01*
X32800000Y-117115000D02*
X33240000Y-117115000D01*
X30290000Y-117835000D02*
X30700000Y-117835000D01*
X32800000Y-117835000D02*
X33240000Y-117835000D01*
X30290000Y-119655000D02*
X30700000Y-119655000D01*
X32800000Y-119655000D02*
X33240000Y-119655000D01*
X30290000Y-120375000D02*
X30700000Y-120375000D01*
X32800000Y-120375000D02*
X33240000Y-120375000D01*
X30290000Y-122195000D02*
X30700000Y-122195000D01*
X32800000Y-122195000D02*
X33240000Y-122195000D01*
X30290000Y-122915000D02*
X30700000Y-122915000D01*
X32800000Y-122915000D02*
X33240000Y-122915000D01*
X30290000Y-124735000D02*
X30700000Y-124735000D01*
X32800000Y-124735000D02*
X33240000Y-124735000D01*
X30290000Y-125455000D02*
X30700000Y-125455000D01*
X32800000Y-125455000D02*
X33240000Y-125455000D01*
X30290000Y-127275000D02*
X30700000Y-127275000D01*
X32800000Y-127275000D02*
X33240000Y-127275000D01*
X30290000Y-127995000D02*
X30700000Y-127995000D01*
X32800000Y-127995000D02*
X33240000Y-127995000D01*
X30290000Y-129815000D02*
X30700000Y-129815000D01*
X32800000Y-129815000D02*
X33240000Y-129815000D01*
X30290000Y-130535000D02*
X30700000Y-130535000D01*
X32800000Y-130535000D02*
X33240000Y-130535000D01*
X21660000Y-57785000D02*
X30290000Y-57785000D01*
X21660000Y-60325000D02*
X30290000Y-60325000D01*
X21660000Y-62865000D02*
X30290000Y-62865000D01*
X21660000Y-65405000D02*
X30290000Y-65405000D01*
X21660000Y-67945000D02*
X30290000Y-67945000D01*
X21660000Y-70485000D02*
X30290000Y-70485000D01*
X21660000Y-73025000D02*
X30290000Y-73025000D01*
X21660000Y-75565000D02*
X30290000Y-75565000D01*
X21660000Y-78105000D02*
X30290000Y-78105000D01*
X21660000Y-80645000D02*
X30290000Y-80645000D01*
X21660000Y-83185000D02*
X30290000Y-83185000D01*
X21660000Y-85725000D02*
X30290000Y-85725000D01*
X21660000Y-88265000D02*
X30290000Y-88265000D01*
X21660000Y-90805000D02*
X30290000Y-90805000D01*
X21660000Y-93345000D02*
X30290000Y-93345000D01*
X21660000Y-95885000D02*
X30290000Y-95885000D01*
X21660000Y-98425000D02*
X30290000Y-98425000D01*
X21660000Y-100965000D02*
X30290000Y-100965000D01*
X21660000Y-103505000D02*
X30290000Y-103505000D01*
X21660000Y-106045000D02*
X30290000Y-106045000D01*
X21660000Y-108585000D02*
X30290000Y-108585000D01*
X21660000Y-111125000D02*
X30290000Y-111125000D01*
X21660000Y-113665000D02*
X30290000Y-113665000D01*
X21660000Y-116205000D02*
X30290000Y-116205000D01*
X21660000Y-118745000D02*
X30290000Y-118745000D01*
X21660000Y-121285000D02*
X30290000Y-121285000D01*
X21660000Y-123825000D02*
X30290000Y-123825000D01*
X21660000Y-126365000D02*
X30290000Y-126365000D01*
X21660000Y-128905000D02*
X30290000Y-128905000D01*
X21660000Y-55185000D02*
X30290000Y-55185000D01*
X30290000Y-55185000D02*
X30290000Y-131505000D01*
X21660000Y-131505000D02*
X30290000Y-131505000D01*
X21660000Y-55185000D02*
X21660000Y-131505000D01*
X35400000Y-55185000D02*
X35400000Y-56515000D01*
X34290000Y-55185000D02*
X35400000Y-55185000D01*
X253940000Y-76260000D02*
X256600000Y-76260000D01*
X253940000Y-55880000D02*
X253940000Y-76260000D01*
X256600000Y-55880000D02*
X256600000Y-76260000D01*
X253940000Y-55880000D02*
X256600000Y-55880000D01*
X253940000Y-54610000D02*
X253940000Y-53280000D01*
X253940000Y-53280000D02*
X255270000Y-53280000D01*
X253940000Y-101540000D02*
X255270000Y-101540000D01*
X253940000Y-102870000D02*
X253940000Y-101540000D01*
X253940000Y-104140000D02*
X256600000Y-104140000D01*
X256600000Y-104140000D02*
X256600000Y-124520000D01*
X253940000Y-104140000D02*
X253940000Y-124520000D01*
X253940000Y-124520000D02*
X256600000Y-124520000D01*
X253940000Y-100390000D02*
X256600000Y-100390000D01*
X253940000Y-80010000D02*
X253940000Y-100390000D01*
X256600000Y-80010000D02*
X256600000Y-100390000D01*
X253940000Y-80010000D02*
X256600000Y-80010000D01*
X253940000Y-78740000D02*
X253940000Y-77410000D01*
X253940000Y-77410000D02*
X255270000Y-77410000D01*
X253940000Y-125670000D02*
X255270000Y-125670000D01*
X253940000Y-127000000D02*
X253940000Y-125670000D01*
X253940000Y-128270000D02*
X256600000Y-128270000D01*
X256600000Y-128270000D02*
X256600000Y-133410000D01*
X253940000Y-128270000D02*
X253940000Y-133410000D01*
X253940000Y-133410000D02*
X256600000Y-133410000D01*
X54550000Y-68640000D02*
X57210000Y-68640000D01*
X54550000Y-66040000D02*
X54550000Y-68640000D01*
X57210000Y-66040000D02*
X57210000Y-68640000D01*
X54550000Y-66040000D02*
X57210000Y-66040000D01*
X54550000Y-64770000D02*
X54550000Y-63440000D01*
X54550000Y-63440000D02*
X55880000Y-63440000D01*
X42950000Y-54850000D02*
X43250000Y-54550000D01*
X42950000Y-54250000D02*
X42950000Y-54850000D01*
X43250000Y-54550000D02*
X42950000Y-54250000D01*
X43500000Y-53200000D02*
X45450000Y-53200000D01*
X43500000Y-58700000D02*
X43500000Y-53200000D01*
X45450000Y-58700000D02*
X43500000Y-58700000D01*
X45450000Y-53200000D02*
X45450000Y-58700000D01*
X42950000Y-62400000D02*
X43250000Y-62100000D01*
X42950000Y-61800000D02*
X42950000Y-62400000D01*
X43250000Y-62100000D02*
X42950000Y-61800000D01*
X43500000Y-60750000D02*
X45450000Y-60750000D01*
X43500000Y-66250000D02*
X43500000Y-60750000D01*
X45450000Y-66250000D02*
X43500000Y-66250000D01*
X45450000Y-60750000D02*
X45450000Y-66250000D01*
X42950000Y-70020000D02*
X43250000Y-69720000D01*
X42950000Y-69420000D02*
X42950000Y-70020000D01*
X43250000Y-69720000D02*
X42950000Y-69420000D01*
X43500000Y-68370000D02*
X45450000Y-68370000D01*
X43500000Y-73870000D02*
X43500000Y-68370000D01*
X45450000Y-73870000D02*
X43500000Y-73870000D01*
X45450000Y-68370000D02*
X45450000Y-73870000D01*
X42950000Y-77640000D02*
X43250000Y-77340000D01*
X42950000Y-77040000D02*
X42950000Y-77640000D01*
X43250000Y-77340000D02*
X42950000Y-77040000D01*
X43500000Y-75990000D02*
X45450000Y-75990000D01*
X43500000Y-81490000D02*
X43500000Y-75990000D01*
X45450000Y-81490000D02*
X43500000Y-81490000D01*
X45450000Y-75990000D02*
X45450000Y-81490000D01*
X250920000Y-55980000D02*
X250920000Y-55650000D01*
X244380000Y-55980000D02*
X250920000Y-55980000D01*
X244380000Y-55650000D02*
X244380000Y-55980000D01*
X250920000Y-53240000D02*
X250920000Y-53570000D01*
X244380000Y-53240000D02*
X250920000Y-53240000D01*
X244380000Y-53570000D02*
X244380000Y-53240000D01*
X244380000Y-56110000D02*
X244380000Y-55780000D01*
X244380000Y-55780000D02*
X250920000Y-55780000D01*
X250920000Y-55780000D02*
X250920000Y-56110000D01*
X244380000Y-58190000D02*
X244380000Y-58520000D01*
X244380000Y-58520000D02*
X250920000Y-58520000D01*
X250920000Y-58520000D02*
X250920000Y-58190000D01*
X250920000Y-61060000D02*
X250920000Y-60730000D01*
X244380000Y-61060000D02*
X250920000Y-61060000D01*
X244380000Y-60730000D02*
X244380000Y-61060000D01*
X250920000Y-58320000D02*
X250920000Y-58650000D01*
X244380000Y-58320000D02*
X250920000Y-58320000D01*
X244380000Y-58650000D02*
X244380000Y-58320000D01*
X244380000Y-61190000D02*
X244380000Y-60860000D01*
X244380000Y-60860000D02*
X250920000Y-60860000D01*
X250920000Y-60860000D02*
X250920000Y-61190000D01*
X244380000Y-63270000D02*
X244380000Y-63600000D01*
X244380000Y-63600000D02*
X250920000Y-63600000D01*
X250920000Y-63600000D02*
X250920000Y-63270000D01*
X250920000Y-66140000D02*
X250920000Y-65810000D01*
X244380000Y-66140000D02*
X250920000Y-66140000D01*
X244380000Y-65810000D02*
X244380000Y-66140000D01*
X250920000Y-63400000D02*
X250920000Y-63730000D01*
X244380000Y-63400000D02*
X250920000Y-63400000D01*
X244380000Y-63730000D02*
X244380000Y-63400000D01*
X244380000Y-66270000D02*
X244380000Y-65940000D01*
X244380000Y-65940000D02*
X250920000Y-65940000D01*
X250920000Y-65940000D02*
X250920000Y-66270000D01*
X244380000Y-68350000D02*
X244380000Y-68680000D01*
X244380000Y-68680000D02*
X250920000Y-68680000D01*
X250920000Y-68680000D02*
X250920000Y-68350000D01*
X250920000Y-71220000D02*
X250920000Y-70890000D01*
X244380000Y-71220000D02*
X250920000Y-71220000D01*
X244380000Y-70890000D02*
X244380000Y-71220000D01*
X250920000Y-68480000D02*
X250920000Y-68810000D01*
X244380000Y-68480000D02*
X250920000Y-68480000D01*
X244380000Y-68810000D02*
X244380000Y-68480000D01*
X244380000Y-71350000D02*
X244380000Y-71020000D01*
X244380000Y-71020000D02*
X250920000Y-71020000D01*
X250920000Y-71020000D02*
X250920000Y-71350000D01*
X244380000Y-73430000D02*
X244380000Y-73760000D01*
X244380000Y-73760000D02*
X250920000Y-73760000D01*
X250920000Y-73760000D02*
X250920000Y-73430000D01*
X244380000Y-77700000D02*
X244380000Y-77370000D01*
X244380000Y-77370000D02*
X250920000Y-77370000D01*
X250920000Y-77370000D02*
X250920000Y-77700000D01*
X244380000Y-79780000D02*
X244380000Y-80110000D01*
X244380000Y-80110000D02*
X250920000Y-80110000D01*
X250920000Y-80110000D02*
X250920000Y-79780000D01*
X250920000Y-82650000D02*
X250920000Y-82320000D01*
X244380000Y-82650000D02*
X250920000Y-82650000D01*
X244380000Y-82320000D02*
X244380000Y-82650000D01*
X250920000Y-79910000D02*
X250920000Y-80240000D01*
X244380000Y-79910000D02*
X250920000Y-79910000D01*
X244380000Y-80240000D02*
X244380000Y-79910000D01*
X244380000Y-82780000D02*
X244380000Y-82450000D01*
X244380000Y-82450000D02*
X250920000Y-82450000D01*
X250920000Y-82450000D02*
X250920000Y-82780000D01*
X244380000Y-84860000D02*
X244380000Y-85190000D01*
X244380000Y-85190000D02*
X250920000Y-85190000D01*
X250920000Y-85190000D02*
X250920000Y-84860000D01*
X250920000Y-87730000D02*
X250920000Y-87400000D01*
X244380000Y-87730000D02*
X250920000Y-87730000D01*
X244380000Y-87400000D02*
X244380000Y-87730000D01*
X250920000Y-84990000D02*
X250920000Y-85320000D01*
X244380000Y-84990000D02*
X250920000Y-84990000D01*
X244380000Y-85320000D02*
X244380000Y-84990000D01*
X244380000Y-87860000D02*
X244380000Y-87530000D01*
X244380000Y-87530000D02*
X250920000Y-87530000D01*
X250920000Y-87530000D02*
X250920000Y-87860000D01*
X244380000Y-89940000D02*
X244380000Y-90270000D01*
X244380000Y-90270000D02*
X250920000Y-90270000D01*
X250920000Y-90270000D02*
X250920000Y-89940000D01*
X250920000Y-92810000D02*
X250920000Y-92480000D01*
X244380000Y-92810000D02*
X250920000Y-92810000D01*
X244380000Y-92480000D02*
X244380000Y-92810000D01*
X250920000Y-90070000D02*
X250920000Y-90400000D01*
X244380000Y-90070000D02*
X250920000Y-90070000D01*
X244380000Y-90400000D02*
X244380000Y-90070000D01*
X244380000Y-92940000D02*
X244380000Y-92610000D01*
X244380000Y-92610000D02*
X250920000Y-92610000D01*
X250920000Y-92610000D02*
X250920000Y-92940000D01*
X244380000Y-95020000D02*
X244380000Y-95350000D01*
X244380000Y-95350000D02*
X250920000Y-95350000D01*
X250920000Y-95350000D02*
X250920000Y-95020000D01*
X250920000Y-97890000D02*
X250920000Y-97560000D01*
X244380000Y-97890000D02*
X250920000Y-97890000D01*
X244380000Y-97560000D02*
X244380000Y-97890000D01*
X250920000Y-95150000D02*
X250920000Y-95480000D01*
X244380000Y-95150000D02*
X250920000Y-95150000D01*
X244380000Y-95480000D02*
X244380000Y-95150000D01*
X244380000Y-101830000D02*
X244380000Y-101500000D01*
X244380000Y-101500000D02*
X250920000Y-101500000D01*
X250920000Y-101500000D02*
X250920000Y-101830000D01*
X244380000Y-103910000D02*
X244380000Y-104240000D01*
X244380000Y-104240000D02*
X250920000Y-104240000D01*
X250920000Y-104240000D02*
X250920000Y-103910000D01*
X250920000Y-106780000D02*
X250920000Y-106450000D01*
X244380000Y-106780000D02*
X250920000Y-106780000D01*
X244380000Y-106450000D02*
X244380000Y-106780000D01*
X250920000Y-104040000D02*
X250920000Y-104370000D01*
X244380000Y-104040000D02*
X250920000Y-104040000D01*
X244380000Y-104370000D02*
X244380000Y-104040000D01*
X244380000Y-106910000D02*
X244380000Y-106580000D01*
X244380000Y-106580000D02*
X250920000Y-106580000D01*
X250920000Y-106580000D02*
X250920000Y-106910000D01*
X244380000Y-108990000D02*
X244380000Y-109320000D01*
X244380000Y-109320000D02*
X250920000Y-109320000D01*
X250920000Y-109320000D02*
X250920000Y-108990000D01*
X250920000Y-111860000D02*
X250920000Y-111530000D01*
X244380000Y-111860000D02*
X250920000Y-111860000D01*
X244380000Y-111530000D02*
X244380000Y-111860000D01*
X250920000Y-109120000D02*
X250920000Y-109450000D01*
X244380000Y-109120000D02*
X250920000Y-109120000D01*
X244380000Y-109450000D02*
X244380000Y-109120000D01*
X244380000Y-111990000D02*
X244380000Y-111660000D01*
X244380000Y-111660000D02*
X250920000Y-111660000D01*
X250920000Y-111660000D02*
X250920000Y-111990000D01*
X244380000Y-114070000D02*
X244380000Y-114400000D01*
X244380000Y-114400000D02*
X250920000Y-114400000D01*
X250920000Y-114400000D02*
X250920000Y-114070000D01*
X250920000Y-116940000D02*
X250920000Y-116610000D01*
X244380000Y-116940000D02*
X250920000Y-116940000D01*
X244380000Y-116610000D02*
X244380000Y-116940000D01*
X250920000Y-114200000D02*
X250920000Y-114530000D01*
X244380000Y-114200000D02*
X250920000Y-114200000D01*
X244380000Y-114530000D02*
X244380000Y-114200000D01*
X244380000Y-117070000D02*
X244380000Y-116740000D01*
X244380000Y-116740000D02*
X250920000Y-116740000D01*
X250920000Y-116740000D02*
X250920000Y-117070000D01*
X244380000Y-119150000D02*
X244380000Y-119480000D01*
X244380000Y-119480000D02*
X250920000Y-119480000D01*
X250920000Y-119480000D02*
X250920000Y-119150000D01*
X244380000Y-119610000D02*
X244380000Y-119280000D01*
X244380000Y-119280000D02*
X250920000Y-119280000D01*
X250920000Y-119280000D02*
X250920000Y-119610000D01*
X244380000Y-121690000D02*
X244380000Y-122020000D01*
X244380000Y-122020000D02*
X250920000Y-122020000D01*
X250920000Y-122020000D02*
X250920000Y-121690000D01*
X250920000Y-128370000D02*
X250920000Y-128040000D01*
X244380000Y-128370000D02*
X250920000Y-128370000D01*
X244380000Y-128040000D02*
X244380000Y-128370000D01*
X250920000Y-125630000D02*
X250920000Y-125960000D01*
X244380000Y-125630000D02*
X250920000Y-125630000D01*
X244380000Y-125960000D02*
X244380000Y-125630000D01*
X244380000Y-128500000D02*
X244380000Y-128170000D01*
X244380000Y-128170000D02*
X250920000Y-128170000D01*
X250920000Y-128170000D02*
X250920000Y-128500000D01*
X244380000Y-130580000D02*
X244380000Y-130910000D01*
X244380000Y-130910000D02*
X250920000Y-130910000D01*
X250920000Y-130910000D02*
X250920000Y-130580000D01*
X236280000Y-59420000D02*
G75*
G02X236280000Y-57420000I0J1000000D01*
G01*
X236280000Y-57420000D02*
X236280000Y-55770000D01*
X236280000Y-55770000D02*
X210760000Y-55770000D01*
X210760000Y-55770000D02*
X210760000Y-61070000D01*
X210760000Y-61070000D02*
X236280000Y-61070000D01*
X236280000Y-61070000D02*
X236280000Y-59420000D01*
X236340000Y-53280000D02*
X210700000Y-53280000D01*
X210700000Y-53280000D02*
X210700000Y-63560000D01*
X210700000Y-63560000D02*
X236340000Y-63560000D01*
X236340000Y-63560000D02*
X236340000Y-53280000D01*
X236280000Y-83550000D02*
G75*
G02X236280000Y-81550000I0J1000000D01*
G01*
X236280000Y-81550000D02*
X236280000Y-79900000D01*
X236280000Y-79900000D02*
X210760000Y-79900000D01*
X210760000Y-79900000D02*
X210760000Y-85200000D01*
X210760000Y-85200000D02*
X236280000Y-85200000D01*
X236280000Y-85200000D02*
X236280000Y-83550000D01*
X236340000Y-77410000D02*
X210700000Y-77410000D01*
X210700000Y-77410000D02*
X210700000Y-87690000D01*
X210700000Y-87690000D02*
X236340000Y-87690000D01*
X236340000Y-87690000D02*
X236340000Y-77410000D01*
X236280000Y-107680000D02*
G75*
G02X236280000Y-105680000I0J1000000D01*
G01*
X236280000Y-105680000D02*
X236280000Y-104030000D01*
X236280000Y-104030000D02*
X210760000Y-104030000D01*
X210760000Y-104030000D02*
X210760000Y-109330000D01*
X210760000Y-109330000D02*
X236280000Y-109330000D01*
X236280000Y-109330000D02*
X236280000Y-107680000D01*
X236340000Y-101540000D02*
X210700000Y-101540000D01*
X210700000Y-101540000D02*
X210700000Y-111820000D01*
X210700000Y-111820000D02*
X236340000Y-111820000D01*
X236340000Y-111820000D02*
X236340000Y-101540000D01*
X236340000Y-135950000D02*
X236340000Y-125670000D01*
X210700000Y-135950000D02*
X236340000Y-135950000D01*
X210700000Y-125670000D02*
X210700000Y-135950000D01*
X236340000Y-125670000D02*
X210700000Y-125670000D01*
X236280000Y-133460000D02*
X236280000Y-131810000D01*
X210760000Y-133460000D02*
X236280000Y-133460000D01*
X210760000Y-128160000D02*
X210760000Y-133460000D01*
X236280000Y-128160000D02*
X210760000Y-128160000D01*
X236280000Y-129810000D02*
X236280000Y-128160000D01*
X236280000Y-131810000D02*
G75*
G02X236280000Y-129810000I0J1000000D01*
G01*
X64830000Y-115300000D02*
G75*
G02X64830000Y-113300000I0J1000000D01*
G01*
X64830000Y-113300000D02*
X64830000Y-111650000D01*
X64830000Y-111650000D02*
X46930000Y-111650000D01*
X46930000Y-111650000D02*
X46930000Y-116950000D01*
X46930000Y-116950000D02*
X64830000Y-116950000D01*
X64830000Y-116950000D02*
X64830000Y-115300000D01*
X64890000Y-109160000D02*
X46870000Y-109160000D01*
X46870000Y-109160000D02*
X46870000Y-119440000D01*
X46870000Y-119440000D02*
X64890000Y-119440000D01*
X64890000Y-119440000D02*
X64890000Y-109160000D01*
X64830000Y-134350000D02*
G75*
G02X64830000Y-132350000I0J1000000D01*
G01*
X64830000Y-132350000D02*
X64830000Y-130700000D01*
X64830000Y-130700000D02*
X46930000Y-130700000D01*
X46930000Y-130700000D02*
X46930000Y-136000000D01*
X46930000Y-136000000D02*
X64830000Y-136000000D01*
X64830000Y-136000000D02*
X64830000Y-134350000D01*
X64890000Y-128210000D02*
X46870000Y-128210000D01*
X46870000Y-128210000D02*
X46870000Y-138490000D01*
X46870000Y-138490000D02*
X64890000Y-138490000D01*
X64890000Y-138490000D02*
X64890000Y-128210000D01*
X189350000Y-57210000D02*
X189350000Y-46930000D01*
X171330000Y-57210000D02*
X189350000Y-57210000D01*
X171330000Y-46930000D02*
X171330000Y-57210000D01*
X189350000Y-46930000D02*
X171330000Y-46930000D01*
X189290000Y-54720000D02*
X189290000Y-53070000D01*
X171390000Y-54720000D02*
X189290000Y-54720000D01*
X171390000Y-49420000D02*
X171390000Y-54720000D01*
X189290000Y-49420000D02*
X171390000Y-49420000D01*
X189290000Y-51070000D02*
X189290000Y-49420000D01*
X189290000Y-53070000D02*
G75*
G02X189290000Y-51070000I0J1000000D01*
G01*
X189290000Y-69580000D02*
G75*
G02X189290000Y-67580000I0J1000000D01*
G01*
X189290000Y-67580000D02*
X189290000Y-65930000D01*
X189290000Y-65930000D02*
X171390000Y-65930000D01*
X171390000Y-65930000D02*
X171390000Y-71230000D01*
X171390000Y-71230000D02*
X189290000Y-71230000D01*
X189290000Y-71230000D02*
X189290000Y-69580000D01*
X189350000Y-63440000D02*
X171330000Y-63440000D01*
X171330000Y-63440000D02*
X171330000Y-73720000D01*
X171330000Y-73720000D02*
X189350000Y-73720000D01*
X189350000Y-73720000D02*
X189350000Y-63440000D01*
X152520000Y-82610000D02*
X152520000Y-72330000D01*
X134500000Y-82610000D02*
X152520000Y-82610000D01*
X134500000Y-72330000D02*
X134500000Y-82610000D01*
X152520000Y-72330000D02*
X134500000Y-72330000D01*
X152460000Y-80120000D02*
X152460000Y-78470000D01*
X134560000Y-80120000D02*
X152460000Y-80120000D01*
X134560000Y-74820000D02*
X134560000Y-80120000D01*
X152460000Y-74820000D02*
X134560000Y-74820000D01*
X152460000Y-76470000D02*
X152460000Y-74820000D01*
X152460000Y-78470000D02*
G75*
G02X152460000Y-76470000I0J1000000D01*
G01*
X64830000Y-96250000D02*
G75*
G02X64830000Y-94250000I0J1000000D01*
G01*
X64830000Y-94250000D02*
X64830000Y-92600000D01*
X64830000Y-92600000D02*
X46930000Y-92600000D01*
X46930000Y-92600000D02*
X46930000Y-97900000D01*
X46930000Y-97900000D02*
X64830000Y-97900000D01*
X64830000Y-97900000D02*
X64830000Y-96250000D01*
X64890000Y-90110000D02*
X46870000Y-90110000D01*
X46870000Y-90110000D02*
X46870000Y-100390000D01*
X46870000Y-100390000D02*
X64890000Y-100390000D01*
X64890000Y-100390000D02*
X64890000Y-90110000D01*
X113150000Y-90230000D02*
X113150000Y-79950000D01*
X92590000Y-90230000D02*
X113150000Y-90230000D01*
X92590000Y-79950000D02*
X92590000Y-90230000D01*
X113150000Y-79950000D02*
X92590000Y-79950000D01*
X113090000Y-87740000D02*
X113090000Y-86090000D01*
X92650000Y-87740000D02*
X113090000Y-87740000D01*
X92650000Y-82440000D02*
X92650000Y-87740000D01*
X113090000Y-82440000D02*
X92650000Y-82440000D01*
X113090000Y-84090000D02*
X113090000Y-82440000D01*
X113090000Y-86090000D02*
G75*
G02X113090000Y-84090000I0J1000000D01*
G01*
X113090000Y-69580000D02*
G75*
G02X113090000Y-67580000I0J1000000D01*
G01*
X113090000Y-67580000D02*
X113090000Y-65930000D01*
X113090000Y-65930000D02*
X92650000Y-65930000D01*
X92650000Y-65930000D02*
X92650000Y-71230000D01*
X92650000Y-71230000D02*
X113090000Y-71230000D01*
X113090000Y-71230000D02*
X113090000Y-69580000D01*
X113150000Y-63440000D02*
X92590000Y-63440000D01*
X92590000Y-63440000D02*
X92590000Y-73720000D01*
X92590000Y-73720000D02*
X113150000Y-73720000D01*
X113150000Y-73720000D02*
X113150000Y-63440000D01*
X152460000Y-59420000D02*
G75*
G02X152460000Y-57420000I0J1000000D01*
G01*
X152460000Y-57420000D02*
X152460000Y-55770000D01*
X152460000Y-55770000D02*
X134560000Y-55770000D01*
X134560000Y-55770000D02*
X134560000Y-61070000D01*
X134560000Y-61070000D02*
X152460000Y-61070000D01*
X152460000Y-61070000D02*
X152460000Y-59420000D01*
X152520000Y-53280000D02*
X134500000Y-53280000D01*
X134500000Y-53280000D02*
X134500000Y-63560000D01*
X134500000Y-63560000D02*
X152520000Y-63560000D01*
X152520000Y-63560000D02*
X152520000Y-53280000D01*
X189350000Y-90230000D02*
X189350000Y-79950000D01*
X171330000Y-90230000D02*
X189350000Y-90230000D01*
X171330000Y-79950000D02*
X171330000Y-90230000D01*
X189350000Y-79950000D02*
X171330000Y-79950000D01*
X189290000Y-87740000D02*
X189290000Y-86090000D01*
X171390000Y-87740000D02*
X189290000Y-87740000D01*
X171390000Y-82440000D02*
X171390000Y-87740000D01*
X189290000Y-82440000D02*
X171390000Y-82440000D01*
X189290000Y-84090000D02*
X189290000Y-82440000D01*
X189290000Y-86090000D02*
G75*
G02X189290000Y-84090000I0J1000000D01*
G01*
X113090000Y-53070000D02*
G75*
G02X113090000Y-51070000I0J1000000D01*
G01*
X113090000Y-51070000D02*
X113090000Y-49420000D01*
X113090000Y-49420000D02*
X95190000Y-49420000D01*
X95190000Y-49420000D02*
X95190000Y-54720000D01*
X95190000Y-54720000D02*
X113090000Y-54720000D01*
X113090000Y-54720000D02*
X113090000Y-53070000D01*
X113150000Y-46930000D02*
X95130000Y-46930000D01*
X95130000Y-46930000D02*
X95130000Y-57210000D01*
X95130000Y-57210000D02*
X113150000Y-57210000D01*
X113150000Y-57210000D02*
X113150000Y-46930000D01*
X189350000Y-106740000D02*
X189350000Y-96460000D01*
X171330000Y-106740000D02*
X189350000Y-106740000D01*
X171330000Y-96460000D02*
X171330000Y-106740000D01*
X189350000Y-96460000D02*
X171330000Y-96460000D01*
X189290000Y-104250000D02*
X189290000Y-102600000D01*
X171390000Y-104250000D02*
X189290000Y-104250000D01*
X171390000Y-98950000D02*
X171390000Y-104250000D01*
X189290000Y-98950000D02*
X171390000Y-98950000D01*
X189290000Y-100600000D02*
X189290000Y-98950000D01*
X189290000Y-102600000D02*
G75*
G02X189290000Y-100600000I0J1000000D01*
G01*
X189290000Y-119110000D02*
G75*
G02X189290000Y-117110000I0J1000000D01*
G01*
X189290000Y-117110000D02*
X189290000Y-115460000D01*
X189290000Y-115460000D02*
X171390000Y-115460000D01*
X171390000Y-115460000D02*
X171390000Y-120760000D01*
X171390000Y-120760000D02*
X189290000Y-120760000D01*
X189290000Y-120760000D02*
X189290000Y-119110000D01*
X189350000Y-112970000D02*
X171330000Y-112970000D01*
X171330000Y-112970000D02*
X171330000Y-123250000D01*
X171330000Y-123250000D02*
X189350000Y-123250000D01*
X189350000Y-123250000D02*
X189350000Y-112970000D01*
X152520000Y-113090000D02*
X152520000Y-102810000D01*
X134500000Y-113090000D02*
X152520000Y-113090000D01*
X134500000Y-102810000D02*
X134500000Y-113090000D01*
X152520000Y-102810000D02*
X134500000Y-102810000D01*
X152460000Y-110600000D02*
X152460000Y-108950000D01*
X134560000Y-110600000D02*
X152460000Y-110600000D01*
X134560000Y-105300000D02*
X134560000Y-110600000D01*
X152460000Y-105300000D02*
X134560000Y-105300000D01*
X152460000Y-106950000D02*
X152460000Y-105300000D01*
X152460000Y-108950000D02*
G75*
G02X152460000Y-106950000I0J1000000D01*
G01*
X189350000Y-139760000D02*
X189350000Y-129480000D01*
X171330000Y-139760000D02*
X189350000Y-139760000D01*
X171330000Y-129480000D02*
X171330000Y-139760000D01*
X189350000Y-129480000D02*
X171330000Y-129480000D01*
X189290000Y-137270000D02*
X189290000Y-135620000D01*
X171390000Y-137270000D02*
X189290000Y-137270000D01*
X171390000Y-131970000D02*
X171390000Y-137270000D01*
X189290000Y-131970000D02*
X171390000Y-131970000D01*
X189290000Y-133620000D02*
X189290000Y-131970000D01*
X189290000Y-135620000D02*
G75*
G02X189290000Y-133620000I0J1000000D01*
G01*
X152460000Y-129270000D02*
G75*
G02X152460000Y-127270000I0J1000000D01*
G01*
X152460000Y-127270000D02*
X152460000Y-125620000D01*
X152460000Y-125620000D02*
X134560000Y-125620000D01*
X134560000Y-125620000D02*
X134560000Y-130920000D01*
X134560000Y-130920000D02*
X152460000Y-130920000D01*
X152460000Y-130920000D02*
X152460000Y-129270000D01*
X152520000Y-123130000D02*
X134500000Y-123130000D01*
X134500000Y-123130000D02*
X134500000Y-133410000D01*
X134500000Y-133410000D02*
X152520000Y-133410000D01*
X152520000Y-133410000D02*
X152520000Y-123130000D01*
X113150000Y-139760000D02*
X113150000Y-129480000D01*
X92590000Y-139760000D02*
X113150000Y-139760000D01*
X92590000Y-129480000D02*
X92590000Y-139760000D01*
X113150000Y-129480000D02*
X92590000Y-129480000D01*
X113090000Y-137270000D02*
X113090000Y-135620000D01*
X92650000Y-137270000D02*
X113090000Y-137270000D01*
X92650000Y-131970000D02*
X92650000Y-137270000D01*
X113090000Y-131970000D02*
X92650000Y-131970000D01*
X113090000Y-133620000D02*
X113090000Y-131970000D01*
X113090000Y-135620000D02*
G75*
G02X113090000Y-133620000I0J1000000D01*
G01*
X113090000Y-119110000D02*
G75*
G02X113090000Y-117110000I0J1000000D01*
G01*
X113090000Y-117110000D02*
X113090000Y-115460000D01*
X113090000Y-115460000D02*
X92650000Y-115460000D01*
X92650000Y-115460000D02*
X92650000Y-120760000D01*
X92650000Y-120760000D02*
X113090000Y-120760000D01*
X113090000Y-120760000D02*
X113090000Y-119110000D01*
X113150000Y-112970000D02*
X92590000Y-112970000D01*
X92590000Y-112970000D02*
X92590000Y-123250000D01*
X92590000Y-123250000D02*
X113150000Y-123250000D01*
X113150000Y-123250000D02*
X113150000Y-112970000D01*
X113150000Y-106740000D02*
X113150000Y-96460000D01*
X95130000Y-106740000D02*
X113150000Y-106740000D01*
X95130000Y-96460000D02*
X95130000Y-106740000D01*
X113150000Y-96460000D02*
X95130000Y-96460000D01*
X113090000Y-104250000D02*
X113090000Y-102600000D01*
X95190000Y-104250000D02*
X113090000Y-104250000D01*
X95190000Y-98950000D02*
X95190000Y-104250000D01*
X113090000Y-98950000D02*
X95190000Y-98950000D01*
X113090000Y-100600000D02*
X113090000Y-98950000D01*
X113090000Y-102600000D02*
G75*
G02X113090000Y-100600000I0J1000000D01*
G01*
D10*
X118357142Y-102392857D02*
X118404761Y-102440476D01*
X118452380Y-102583333D01*
X118452380Y-102678571D01*
X118404761Y-102821428D01*
X118309523Y-102916666D01*
X118214285Y-102964285D01*
X118023809Y-103011904D01*
X117880952Y-103011904D01*
X117690476Y-102964285D01*
X117595238Y-102916666D01*
X117500000Y-102821428D01*
X117452380Y-102678571D01*
X117452380Y-102583333D01*
X117500000Y-102440476D01*
X117547619Y-102392857D01*
X117547619Y-102011904D02*
X117500000Y-101964285D01*
X117452380Y-101869047D01*
X117452380Y-101630952D01*
X117500000Y-101535714D01*
X117547619Y-101488095D01*
X117642857Y-101440476D01*
X117738095Y-101440476D01*
X117880952Y-101488095D01*
X118452380Y-102059523D01*
X118452380Y-101440476D01*
X117452380Y-101107142D02*
X117452380Y-100488095D01*
X117833333Y-100821428D01*
X117833333Y-100678571D01*
X117880952Y-100583333D01*
X117928571Y-100535714D01*
X118023809Y-100488095D01*
X118261904Y-100488095D01*
X118357142Y-100535714D01*
X118404761Y-100583333D01*
X118452380Y-100678571D01*
X118452380Y-100964285D01*
X118404761Y-101059523D01*
X118357142Y-101107142D01*
X118427142Y-118772857D02*
X118474761Y-118820476D01*
X118522380Y-118963333D01*
X118522380Y-119058571D01*
X118474761Y-119201428D01*
X118379523Y-119296666D01*
X118284285Y-119344285D01*
X118093809Y-119391904D01*
X117950952Y-119391904D01*
X117760476Y-119344285D01*
X117665238Y-119296666D01*
X117570000Y-119201428D01*
X117522380Y-119058571D01*
X117522380Y-118963333D01*
X117570000Y-118820476D01*
X117617619Y-118772857D01*
X117617619Y-118391904D02*
X117570000Y-118344285D01*
X117522380Y-118249047D01*
X117522380Y-118010952D01*
X117570000Y-117915714D01*
X117617619Y-117868095D01*
X117712857Y-117820476D01*
X117808095Y-117820476D01*
X117950952Y-117868095D01*
X118522380Y-118439523D01*
X118522380Y-117820476D01*
X117617619Y-117439523D02*
X117570000Y-117391904D01*
X117522380Y-117296666D01*
X117522380Y-117058571D01*
X117570000Y-116963333D01*
X117617619Y-116915714D01*
X117712857Y-116868095D01*
X117808095Y-116868095D01*
X117950952Y-116915714D01*
X118522380Y-117487142D01*
X118522380Y-116868095D01*
X241617142Y-58606666D02*
X241664761Y-58654285D01*
X241712380Y-58797142D01*
X241712380Y-58892380D01*
X241664761Y-59035238D01*
X241569523Y-59130476D01*
X241474285Y-59178095D01*
X241283809Y-59225714D01*
X241140952Y-59225714D01*
X240950476Y-59178095D01*
X240855238Y-59130476D01*
X240760000Y-59035238D01*
X240712380Y-58892380D01*
X240712380Y-58797142D01*
X240760000Y-58654285D01*
X240807619Y-58606666D01*
X241712380Y-57654285D02*
X241712380Y-58225714D01*
X241712380Y-57940000D02*
X240712380Y-57940000D01*
X240855238Y-58035238D01*
X240950476Y-58130476D01*
X240998095Y-58225714D01*
X241133333Y-82927142D02*
X241085714Y-82974761D01*
X240942857Y-83022380D01*
X240847619Y-83022380D01*
X240704761Y-82974761D01*
X240609523Y-82879523D01*
X240561904Y-82784285D01*
X240514285Y-82593809D01*
X240514285Y-82450952D01*
X240561904Y-82260476D01*
X240609523Y-82165238D01*
X240704761Y-82070000D01*
X240847619Y-82022380D01*
X240942857Y-82022380D01*
X241085714Y-82070000D01*
X241133333Y-82117619D01*
X241514285Y-82117619D02*
X241561904Y-82070000D01*
X241657142Y-82022380D01*
X241895238Y-82022380D01*
X241990476Y-82070000D01*
X242038095Y-82117619D01*
X242085714Y-82212857D01*
X242085714Y-82308095D01*
X242038095Y-82450952D01*
X241466666Y-83022380D01*
X242085714Y-83022380D01*
X241617142Y-106866666D02*
X241664761Y-106914285D01*
X241712380Y-107057142D01*
X241712380Y-107152380D01*
X241664761Y-107295238D01*
X241569523Y-107390476D01*
X241474285Y-107438095D01*
X241283809Y-107485714D01*
X241140952Y-107485714D01*
X240950476Y-107438095D01*
X240855238Y-107390476D01*
X240760000Y-107295238D01*
X240712380Y-107152380D01*
X240712380Y-107057142D01*
X240760000Y-106914285D01*
X240807619Y-106866666D01*
X240712380Y-106533333D02*
X240712380Y-105914285D01*
X241093333Y-106247619D01*
X241093333Y-106104761D01*
X241140952Y-106009523D01*
X241188571Y-105961904D01*
X241283809Y-105914285D01*
X241521904Y-105914285D01*
X241617142Y-105961904D01*
X241664761Y-106009523D01*
X241712380Y-106104761D01*
X241712380Y-106390476D01*
X241664761Y-106485714D01*
X241617142Y-106533333D01*
X241617142Y-130956666D02*
X241664761Y-131004285D01*
X241712380Y-131147142D01*
X241712380Y-131242380D01*
X241664761Y-131385238D01*
X241569523Y-131480476D01*
X241474285Y-131528095D01*
X241283809Y-131575714D01*
X241140952Y-131575714D01*
X240950476Y-131528095D01*
X240855238Y-131480476D01*
X240760000Y-131385238D01*
X240712380Y-131242380D01*
X240712380Y-131147142D01*
X240760000Y-131004285D01*
X240807619Y-130956666D01*
X241045714Y-130099523D02*
X241712380Y-130099523D01*
X240664761Y-130337619D02*
X241379047Y-130575714D01*
X241379047Y-129956666D01*
X70167142Y-114486666D02*
X70214761Y-114534285D01*
X70262380Y-114677142D01*
X70262380Y-114772380D01*
X70214761Y-114915238D01*
X70119523Y-115010476D01*
X70024285Y-115058095D01*
X69833809Y-115105714D01*
X69690952Y-115105714D01*
X69500476Y-115058095D01*
X69405238Y-115010476D01*
X69310000Y-114915238D01*
X69262380Y-114772380D01*
X69262380Y-114677142D01*
X69310000Y-114534285D01*
X69357619Y-114486666D01*
X69262380Y-113581904D02*
X69262380Y-114058095D01*
X69738571Y-114105714D01*
X69690952Y-114058095D01*
X69643333Y-113962857D01*
X69643333Y-113724761D01*
X69690952Y-113629523D01*
X69738571Y-113581904D01*
X69833809Y-113534285D01*
X70071904Y-113534285D01*
X70167142Y-113581904D01*
X70214761Y-113629523D01*
X70262380Y-113724761D01*
X70262380Y-113962857D01*
X70214761Y-114058095D01*
X70167142Y-114105714D01*
X70167142Y-133536666D02*
X70214761Y-133584285D01*
X70262380Y-133727142D01*
X70262380Y-133822380D01*
X70214761Y-133965238D01*
X70119523Y-134060476D01*
X70024285Y-134108095D01*
X69833809Y-134155714D01*
X69690952Y-134155714D01*
X69500476Y-134108095D01*
X69405238Y-134060476D01*
X69310000Y-133965238D01*
X69262380Y-133822380D01*
X69262380Y-133727142D01*
X69310000Y-133584285D01*
X69357619Y-133536666D01*
X69262380Y-132679523D02*
X69262380Y-132870000D01*
X69310000Y-132965238D01*
X69357619Y-133012857D01*
X69500476Y-133108095D01*
X69690952Y-133155714D01*
X70071904Y-133155714D01*
X70167142Y-133108095D01*
X70214761Y-133060476D01*
X70262380Y-132965238D01*
X70262380Y-132774761D01*
X70214761Y-132679523D01*
X70167142Y-132631904D01*
X70071904Y-132584285D01*
X69833809Y-132584285D01*
X69738571Y-132631904D01*
X69690952Y-132679523D01*
X69643333Y-132774761D01*
X69643333Y-132965238D01*
X69690952Y-133060476D01*
X69738571Y-133108095D01*
X69833809Y-133155714D01*
X194627142Y-52256666D02*
X194674761Y-52304285D01*
X194722380Y-52447142D01*
X194722380Y-52542380D01*
X194674761Y-52685238D01*
X194579523Y-52780476D01*
X194484285Y-52828095D01*
X194293809Y-52875714D01*
X194150952Y-52875714D01*
X193960476Y-52828095D01*
X193865238Y-52780476D01*
X193770000Y-52685238D01*
X193722380Y-52542380D01*
X193722380Y-52447142D01*
X193770000Y-52304285D01*
X193817619Y-52256666D01*
X193722380Y-51923333D02*
X193722380Y-51256666D01*
X194722380Y-51685238D01*
X194627142Y-68726666D02*
X194674761Y-68774285D01*
X194722380Y-68917142D01*
X194722380Y-69012380D01*
X194674761Y-69155238D01*
X194579523Y-69250476D01*
X194484285Y-69298095D01*
X194293809Y-69345714D01*
X194150952Y-69345714D01*
X193960476Y-69298095D01*
X193865238Y-69250476D01*
X193770000Y-69155238D01*
X193722380Y-69012380D01*
X193722380Y-68917142D01*
X193770000Y-68774285D01*
X193817619Y-68726666D01*
X194150952Y-68155238D02*
X194103333Y-68250476D01*
X194055714Y-68298095D01*
X193960476Y-68345714D01*
X193912857Y-68345714D01*
X193817619Y-68298095D01*
X193770000Y-68250476D01*
X193722380Y-68155238D01*
X193722380Y-67964761D01*
X193770000Y-67869523D01*
X193817619Y-67821904D01*
X193912857Y-67774285D01*
X193960476Y-67774285D01*
X194055714Y-67821904D01*
X194103333Y-67869523D01*
X194150952Y-67964761D01*
X194150952Y-68155238D01*
X194198571Y-68250476D01*
X194246190Y-68298095D01*
X194341428Y-68345714D01*
X194531904Y-68345714D01*
X194627142Y-68298095D01*
X194674761Y-68250476D01*
X194722380Y-68155238D01*
X194722380Y-67964761D01*
X194674761Y-67869523D01*
X194627142Y-67821904D01*
X194531904Y-67774285D01*
X194341428Y-67774285D01*
X194246190Y-67821904D01*
X194198571Y-67869523D01*
X194150952Y-67964761D01*
X157797142Y-77616666D02*
X157844761Y-77664285D01*
X157892380Y-77807142D01*
X157892380Y-77902380D01*
X157844761Y-78045238D01*
X157749523Y-78140476D01*
X157654285Y-78188095D01*
X157463809Y-78235714D01*
X157320952Y-78235714D01*
X157130476Y-78188095D01*
X157035238Y-78140476D01*
X156940000Y-78045238D01*
X156892380Y-77902380D01*
X156892380Y-77807142D01*
X156940000Y-77664285D01*
X156987619Y-77616666D01*
X157892380Y-77140476D02*
X157892380Y-76950000D01*
X157844761Y-76854761D01*
X157797142Y-76807142D01*
X157654285Y-76711904D01*
X157463809Y-76664285D01*
X157082857Y-76664285D01*
X156987619Y-76711904D01*
X156940000Y-76759523D01*
X156892380Y-76854761D01*
X156892380Y-77045238D01*
X156940000Y-77140476D01*
X156987619Y-77188095D01*
X157082857Y-77235714D01*
X157320952Y-77235714D01*
X157416190Y-77188095D01*
X157463809Y-77140476D01*
X157511428Y-77045238D01*
X157511428Y-76854761D01*
X157463809Y-76759523D01*
X157416190Y-76711904D01*
X157320952Y-76664285D01*
X70207142Y-95912857D02*
X70254761Y-95960476D01*
X70302380Y-96103333D01*
X70302380Y-96198571D01*
X70254761Y-96341428D01*
X70159523Y-96436666D01*
X70064285Y-96484285D01*
X69873809Y-96531904D01*
X69730952Y-96531904D01*
X69540476Y-96484285D01*
X69445238Y-96436666D01*
X69350000Y-96341428D01*
X69302380Y-96198571D01*
X69302380Y-96103333D01*
X69350000Y-95960476D01*
X69397619Y-95912857D01*
X70302380Y-94960476D02*
X70302380Y-95531904D01*
X70302380Y-95246190D02*
X69302380Y-95246190D01*
X69445238Y-95341428D01*
X69540476Y-95436666D01*
X69588095Y-95531904D01*
X69302380Y-94341428D02*
X69302380Y-94246190D01*
X69350000Y-94150952D01*
X69397619Y-94103333D01*
X69492857Y-94055714D01*
X69683333Y-94008095D01*
X69921428Y-94008095D01*
X70111904Y-94055714D01*
X70207142Y-94103333D01*
X70254761Y-94150952D01*
X70302380Y-94246190D01*
X70302380Y-94341428D01*
X70254761Y-94436666D01*
X70207142Y-94484285D01*
X70111904Y-94531904D01*
X69921428Y-94579523D01*
X69683333Y-94579523D01*
X69492857Y-94531904D01*
X69397619Y-94484285D01*
X69350000Y-94436666D01*
X69302380Y-94341428D01*
X118467142Y-85752857D02*
X118514761Y-85800476D01*
X118562380Y-85943333D01*
X118562380Y-86038571D01*
X118514761Y-86181428D01*
X118419523Y-86276666D01*
X118324285Y-86324285D01*
X118133809Y-86371904D01*
X117990952Y-86371904D01*
X117800476Y-86324285D01*
X117705238Y-86276666D01*
X117610000Y-86181428D01*
X117562380Y-86038571D01*
X117562380Y-85943333D01*
X117610000Y-85800476D01*
X117657619Y-85752857D01*
X118562380Y-84800476D02*
X118562380Y-85371904D01*
X118562380Y-85086190D02*
X117562380Y-85086190D01*
X117705238Y-85181428D01*
X117800476Y-85276666D01*
X117848095Y-85371904D01*
X118562380Y-83848095D02*
X118562380Y-84419523D01*
X118562380Y-84133809D02*
X117562380Y-84133809D01*
X117705238Y-84229047D01*
X117800476Y-84324285D01*
X117848095Y-84419523D01*
X118427142Y-69242857D02*
X118474761Y-69290476D01*
X118522380Y-69433333D01*
X118522380Y-69528571D01*
X118474761Y-69671428D01*
X118379523Y-69766666D01*
X118284285Y-69814285D01*
X118093809Y-69861904D01*
X117950952Y-69861904D01*
X117760476Y-69814285D01*
X117665238Y-69766666D01*
X117570000Y-69671428D01*
X117522380Y-69528571D01*
X117522380Y-69433333D01*
X117570000Y-69290476D01*
X117617619Y-69242857D01*
X118522380Y-68290476D02*
X118522380Y-68861904D01*
X118522380Y-68576190D02*
X117522380Y-68576190D01*
X117665238Y-68671428D01*
X117760476Y-68766666D01*
X117808095Y-68861904D01*
X117617619Y-67909523D02*
X117570000Y-67861904D01*
X117522380Y-67766666D01*
X117522380Y-67528571D01*
X117570000Y-67433333D01*
X117617619Y-67385714D01*
X117712857Y-67338095D01*
X117808095Y-67338095D01*
X117950952Y-67385714D01*
X118522380Y-67957142D01*
X118522380Y-67338095D01*
X157797142Y-59082857D02*
X157844761Y-59130476D01*
X157892380Y-59273333D01*
X157892380Y-59368571D01*
X157844761Y-59511428D01*
X157749523Y-59606666D01*
X157654285Y-59654285D01*
X157463809Y-59701904D01*
X157320952Y-59701904D01*
X157130476Y-59654285D01*
X157035238Y-59606666D01*
X156940000Y-59511428D01*
X156892380Y-59368571D01*
X156892380Y-59273333D01*
X156940000Y-59130476D01*
X156987619Y-59082857D01*
X157892380Y-58130476D02*
X157892380Y-58701904D01*
X157892380Y-58416190D02*
X156892380Y-58416190D01*
X157035238Y-58511428D01*
X157130476Y-58606666D01*
X157178095Y-58701904D01*
X156892380Y-57797142D02*
X156892380Y-57178095D01*
X157273333Y-57511428D01*
X157273333Y-57368571D01*
X157320952Y-57273333D01*
X157368571Y-57225714D01*
X157463809Y-57178095D01*
X157701904Y-57178095D01*
X157797142Y-57225714D01*
X157844761Y-57273333D01*
X157892380Y-57368571D01*
X157892380Y-57654285D01*
X157844761Y-57749523D01*
X157797142Y-57797142D01*
X194627142Y-85752857D02*
X194674761Y-85800476D01*
X194722380Y-85943333D01*
X194722380Y-86038571D01*
X194674761Y-86181428D01*
X194579523Y-86276666D01*
X194484285Y-86324285D01*
X194293809Y-86371904D01*
X194150952Y-86371904D01*
X193960476Y-86324285D01*
X193865238Y-86276666D01*
X193770000Y-86181428D01*
X193722380Y-86038571D01*
X193722380Y-85943333D01*
X193770000Y-85800476D01*
X193817619Y-85752857D01*
X194722380Y-84800476D02*
X194722380Y-85371904D01*
X194722380Y-85086190D02*
X193722380Y-85086190D01*
X193865238Y-85181428D01*
X193960476Y-85276666D01*
X194008095Y-85371904D01*
X194055714Y-83943333D02*
X194722380Y-83943333D01*
X193674761Y-84181428D02*
X194389047Y-84419523D01*
X194389047Y-83800476D01*
X118427142Y-52692857D02*
X118474761Y-52740476D01*
X118522380Y-52883333D01*
X118522380Y-52978571D01*
X118474761Y-53121428D01*
X118379523Y-53216666D01*
X118284285Y-53264285D01*
X118093809Y-53311904D01*
X117950952Y-53311904D01*
X117760476Y-53264285D01*
X117665238Y-53216666D01*
X117570000Y-53121428D01*
X117522380Y-52978571D01*
X117522380Y-52883333D01*
X117570000Y-52740476D01*
X117617619Y-52692857D01*
X118522380Y-51740476D02*
X118522380Y-52311904D01*
X118522380Y-52026190D02*
X117522380Y-52026190D01*
X117665238Y-52121428D01*
X117760476Y-52216666D01*
X117808095Y-52311904D01*
X117522380Y-50835714D02*
X117522380Y-51311904D01*
X117998571Y-51359523D01*
X117950952Y-51311904D01*
X117903333Y-51216666D01*
X117903333Y-50978571D01*
X117950952Y-50883333D01*
X117998571Y-50835714D01*
X118093809Y-50788095D01*
X118331904Y-50788095D01*
X118427142Y-50835714D01*
X118474761Y-50883333D01*
X118522380Y-50978571D01*
X118522380Y-51216666D01*
X118474761Y-51311904D01*
X118427142Y-51359523D01*
X194627142Y-102262857D02*
X194674761Y-102310476D01*
X194722380Y-102453333D01*
X194722380Y-102548571D01*
X194674761Y-102691428D01*
X194579523Y-102786666D01*
X194484285Y-102834285D01*
X194293809Y-102881904D01*
X194150952Y-102881904D01*
X193960476Y-102834285D01*
X193865238Y-102786666D01*
X193770000Y-102691428D01*
X193722380Y-102548571D01*
X193722380Y-102453333D01*
X193770000Y-102310476D01*
X193817619Y-102262857D01*
X194722380Y-101310476D02*
X194722380Y-101881904D01*
X194722380Y-101596190D02*
X193722380Y-101596190D01*
X193865238Y-101691428D01*
X193960476Y-101786666D01*
X194008095Y-101881904D01*
X193722380Y-100453333D02*
X193722380Y-100643809D01*
X193770000Y-100739047D01*
X193817619Y-100786666D01*
X193960476Y-100881904D01*
X194150952Y-100929523D01*
X194531904Y-100929523D01*
X194627142Y-100881904D01*
X194674761Y-100834285D01*
X194722380Y-100739047D01*
X194722380Y-100548571D01*
X194674761Y-100453333D01*
X194627142Y-100405714D01*
X194531904Y-100358095D01*
X194293809Y-100358095D01*
X194198571Y-100405714D01*
X194150952Y-100453333D01*
X194103333Y-100548571D01*
X194103333Y-100739047D01*
X194150952Y-100834285D01*
X194198571Y-100881904D01*
X194293809Y-100929523D01*
X194627142Y-118732857D02*
X194674761Y-118780476D01*
X194722380Y-118923333D01*
X194722380Y-119018571D01*
X194674761Y-119161428D01*
X194579523Y-119256666D01*
X194484285Y-119304285D01*
X194293809Y-119351904D01*
X194150952Y-119351904D01*
X193960476Y-119304285D01*
X193865238Y-119256666D01*
X193770000Y-119161428D01*
X193722380Y-119018571D01*
X193722380Y-118923333D01*
X193770000Y-118780476D01*
X193817619Y-118732857D01*
X194722380Y-117780476D02*
X194722380Y-118351904D01*
X194722380Y-118066190D02*
X193722380Y-118066190D01*
X193865238Y-118161428D01*
X193960476Y-118256666D01*
X194008095Y-118351904D01*
X193722380Y-117447142D02*
X193722380Y-116780476D01*
X194722380Y-117209047D01*
X152757142Y-108592857D02*
X152804761Y-108640476D01*
X152852380Y-108783333D01*
X152852380Y-108878571D01*
X152804761Y-109021428D01*
X152709523Y-109116666D01*
X152614285Y-109164285D01*
X152423809Y-109211904D01*
X152280952Y-109211904D01*
X152090476Y-109164285D01*
X151995238Y-109116666D01*
X151900000Y-109021428D01*
X151852380Y-108878571D01*
X151852380Y-108783333D01*
X151900000Y-108640476D01*
X151947619Y-108592857D01*
X152852380Y-107640476D02*
X152852380Y-108211904D01*
X152852380Y-107926190D02*
X151852380Y-107926190D01*
X151995238Y-108021428D01*
X152090476Y-108116666D01*
X152138095Y-108211904D01*
X152280952Y-107069047D02*
X152233333Y-107164285D01*
X152185714Y-107211904D01*
X152090476Y-107259523D01*
X152042857Y-107259523D01*
X151947619Y-107211904D01*
X151900000Y-107164285D01*
X151852380Y-107069047D01*
X151852380Y-106878571D01*
X151900000Y-106783333D01*
X151947619Y-106735714D01*
X152042857Y-106688095D01*
X152090476Y-106688095D01*
X152185714Y-106735714D01*
X152233333Y-106783333D01*
X152280952Y-106878571D01*
X152280952Y-107069047D01*
X152328571Y-107164285D01*
X152376190Y-107211904D01*
X152471428Y-107259523D01*
X152661904Y-107259523D01*
X152757142Y-107211904D01*
X152804761Y-107164285D01*
X152852380Y-107069047D01*
X152852380Y-106878571D01*
X152804761Y-106783333D01*
X152757142Y-106735714D01*
X152661904Y-106688095D01*
X152471428Y-106688095D01*
X152376190Y-106735714D01*
X152328571Y-106783333D01*
X152280952Y-106878571D01*
X194627142Y-135242857D02*
X194674761Y-135290476D01*
X194722380Y-135433333D01*
X194722380Y-135528571D01*
X194674761Y-135671428D01*
X194579523Y-135766666D01*
X194484285Y-135814285D01*
X194293809Y-135861904D01*
X194150952Y-135861904D01*
X193960476Y-135814285D01*
X193865238Y-135766666D01*
X193770000Y-135671428D01*
X193722380Y-135528571D01*
X193722380Y-135433333D01*
X193770000Y-135290476D01*
X193817619Y-135242857D01*
X194722380Y-134290476D02*
X194722380Y-134861904D01*
X194722380Y-134576190D02*
X193722380Y-134576190D01*
X193865238Y-134671428D01*
X193960476Y-134766666D01*
X194008095Y-134861904D01*
X194722380Y-133814285D02*
X194722380Y-133623809D01*
X194674761Y-133528571D01*
X194627142Y-133480952D01*
X194484285Y-133385714D01*
X194293809Y-133338095D01*
X193912857Y-133338095D01*
X193817619Y-133385714D01*
X193770000Y-133433333D01*
X193722380Y-133528571D01*
X193722380Y-133719047D01*
X193770000Y-133814285D01*
X193817619Y-133861904D01*
X193912857Y-133909523D01*
X194150952Y-133909523D01*
X194246190Y-133861904D01*
X194293809Y-133814285D01*
X194341428Y-133719047D01*
X194341428Y-133528571D01*
X194293809Y-133433333D01*
X194246190Y-133385714D01*
X194150952Y-133338095D01*
X157797142Y-128932857D02*
X157844761Y-128980476D01*
X157892380Y-129123333D01*
X157892380Y-129218571D01*
X157844761Y-129361428D01*
X157749523Y-129456666D01*
X157654285Y-129504285D01*
X157463809Y-129551904D01*
X157320952Y-129551904D01*
X157130476Y-129504285D01*
X157035238Y-129456666D01*
X156940000Y-129361428D01*
X156892380Y-129218571D01*
X156892380Y-129123333D01*
X156940000Y-128980476D01*
X156987619Y-128932857D01*
X156987619Y-128551904D02*
X156940000Y-128504285D01*
X156892380Y-128409047D01*
X156892380Y-128170952D01*
X156940000Y-128075714D01*
X156987619Y-128028095D01*
X157082857Y-127980476D01*
X157178095Y-127980476D01*
X157320952Y-128028095D01*
X157892380Y-128599523D01*
X157892380Y-127980476D01*
X156892380Y-127361428D02*
X156892380Y-127266190D01*
X156940000Y-127170952D01*
X156987619Y-127123333D01*
X157082857Y-127075714D01*
X157273333Y-127028095D01*
X157511428Y-127028095D01*
X157701904Y-127075714D01*
X157797142Y-127123333D01*
X157844761Y-127170952D01*
X157892380Y-127266190D01*
X157892380Y-127361428D01*
X157844761Y-127456666D01*
X157797142Y-127504285D01*
X157701904Y-127551904D01*
X157511428Y-127599523D01*
X157273333Y-127599523D01*
X157082857Y-127551904D01*
X156987619Y-127504285D01*
X156940000Y-127456666D01*
X156892380Y-127361428D01*
X118357142Y-134892857D02*
X118404761Y-134940476D01*
X118452380Y-135083333D01*
X118452380Y-135178571D01*
X118404761Y-135321428D01*
X118309523Y-135416666D01*
X118214285Y-135464285D01*
X118023809Y-135511904D01*
X117880952Y-135511904D01*
X117690476Y-135464285D01*
X117595238Y-135416666D01*
X117500000Y-135321428D01*
X117452380Y-135178571D01*
X117452380Y-135083333D01*
X117500000Y-134940476D01*
X117547619Y-134892857D01*
X117547619Y-134511904D02*
X117500000Y-134464285D01*
X117452380Y-134369047D01*
X117452380Y-134130952D01*
X117500000Y-134035714D01*
X117547619Y-133988095D01*
X117642857Y-133940476D01*
X117738095Y-133940476D01*
X117880952Y-133988095D01*
X118452380Y-134559523D01*
X118452380Y-133940476D01*
X118452380Y-132988095D02*
X118452380Y-133559523D01*
X118452380Y-133273809D02*
X117452380Y-133273809D01*
X117595238Y-133369047D01*
X117690476Y-133464285D01*
X117738095Y-133559523D01*
X32686666Y-53197380D02*
X32686666Y-53911666D01*
X32639047Y-54054523D01*
X32543809Y-54149761D01*
X32400952Y-54197380D01*
X32305714Y-54197380D01*
X33686666Y-54197380D02*
X33115238Y-54197380D01*
X33400952Y-54197380D02*
X33400952Y-53197380D01*
X33305714Y-53340238D01*
X33210476Y-53435476D01*
X33115238Y-53483095D01*
X257262380Y-65103333D02*
X257976666Y-65103333D01*
X258119523Y-65150952D01*
X258214761Y-65246190D01*
X258262380Y-65389047D01*
X258262380Y-65484285D01*
X257357619Y-64674761D02*
X257310000Y-64627142D01*
X257262380Y-64531904D01*
X257262380Y-64293809D01*
X257310000Y-64198571D01*
X257357619Y-64150952D01*
X257452857Y-64103333D01*
X257548095Y-64103333D01*
X257690952Y-64150952D01*
X258262380Y-64722380D01*
X258262380Y-64103333D01*
X257262380Y-113363333D02*
X257976666Y-113363333D01*
X258119523Y-113410952D01*
X258214761Y-113506190D01*
X258262380Y-113649047D01*
X258262380Y-113744285D01*
X257262380Y-112982380D02*
X257262380Y-112363333D01*
X257643333Y-112696666D01*
X257643333Y-112553809D01*
X257690952Y-112458571D01*
X257738571Y-112410952D01*
X257833809Y-112363333D01*
X258071904Y-112363333D01*
X258167142Y-112410952D01*
X258214761Y-112458571D01*
X258262380Y-112553809D01*
X258262380Y-112839523D01*
X258214761Y-112934761D01*
X258167142Y-112982380D01*
X257262380Y-89233333D02*
X257976666Y-89233333D01*
X258119523Y-89280952D01*
X258214761Y-89376190D01*
X258262380Y-89519047D01*
X258262380Y-89614285D01*
X257595714Y-88328571D02*
X258262380Y-88328571D01*
X257214761Y-88566666D02*
X257929047Y-88804761D01*
X257929047Y-88185714D01*
X254936666Y-134072380D02*
X254936666Y-134786666D01*
X254889047Y-134929523D01*
X254793809Y-135024761D01*
X254650952Y-135072380D01*
X254555714Y-135072380D01*
X255889047Y-134072380D02*
X255412857Y-134072380D01*
X255365238Y-134548571D01*
X255412857Y-134500952D01*
X255508095Y-134453333D01*
X255746190Y-134453333D01*
X255841428Y-134500952D01*
X255889047Y-134548571D01*
X255936666Y-134643809D01*
X255936666Y-134881904D01*
X255889047Y-134977142D01*
X255841428Y-135024761D01*
X255746190Y-135072380D01*
X255508095Y-135072380D01*
X255412857Y-135024761D01*
X255365238Y-134977142D01*
X55546666Y-61892380D02*
X55546666Y-62606666D01*
X55499047Y-62749523D01*
X55403809Y-62844761D01*
X55260952Y-62892380D01*
X55165714Y-62892380D01*
X55927619Y-61892380D02*
X56594285Y-61892380D01*
X56165714Y-62892380D01*
X45677380Y-57508333D02*
X46391666Y-57508333D01*
X46534523Y-57555952D01*
X46629761Y-57651190D01*
X46677380Y-57794047D01*
X46677380Y-57889285D01*
X46677380Y-57032142D02*
X45677380Y-57032142D01*
X45677380Y-56651190D01*
X45725000Y-56555952D01*
X45772619Y-56508333D01*
X45867857Y-56460714D01*
X46010714Y-56460714D01*
X46105952Y-56508333D01*
X46153571Y-56555952D01*
X46201190Y-56651190D01*
X46201190Y-57032142D01*
X46677380Y-55508333D02*
X46677380Y-56079761D01*
X46677380Y-55794047D02*
X45677380Y-55794047D01*
X45820238Y-55889285D01*
X45915476Y-55984523D01*
X45963095Y-56079761D01*
X45677380Y-65058333D02*
X46391666Y-65058333D01*
X46534523Y-65105952D01*
X46629761Y-65201190D01*
X46677380Y-65344047D01*
X46677380Y-65439285D01*
X46677380Y-64582142D02*
X45677380Y-64582142D01*
X45677380Y-64201190D01*
X45725000Y-64105952D01*
X45772619Y-64058333D01*
X45867857Y-64010714D01*
X46010714Y-64010714D01*
X46105952Y-64058333D01*
X46153571Y-64105952D01*
X46201190Y-64201190D01*
X46201190Y-64582142D01*
X45677380Y-63677380D02*
X45677380Y-63058333D01*
X46058333Y-63391666D01*
X46058333Y-63248809D01*
X46105952Y-63153571D01*
X46153571Y-63105952D01*
X46248809Y-63058333D01*
X46486904Y-63058333D01*
X46582142Y-63105952D01*
X46629761Y-63153571D01*
X46677380Y-63248809D01*
X46677380Y-63534523D01*
X46629761Y-63629761D01*
X46582142Y-63677380D01*
X45677380Y-72678333D02*
X46391666Y-72678333D01*
X46534523Y-72725952D01*
X46629761Y-72821190D01*
X46677380Y-72964047D01*
X46677380Y-73059285D01*
X46677380Y-72202142D02*
X45677380Y-72202142D01*
X45677380Y-71821190D01*
X45725000Y-71725952D01*
X45772619Y-71678333D01*
X45867857Y-71630714D01*
X46010714Y-71630714D01*
X46105952Y-71678333D01*
X46153571Y-71725952D01*
X46201190Y-71821190D01*
X46201190Y-72202142D01*
X45677380Y-70725952D02*
X45677380Y-71202142D01*
X46153571Y-71249761D01*
X46105952Y-71202142D01*
X46058333Y-71106904D01*
X46058333Y-70868809D01*
X46105952Y-70773571D01*
X46153571Y-70725952D01*
X46248809Y-70678333D01*
X46486904Y-70678333D01*
X46582142Y-70725952D01*
X46629761Y-70773571D01*
X46677380Y-70868809D01*
X46677380Y-71106904D01*
X46629761Y-71202142D01*
X46582142Y-71249761D01*
X45677380Y-80298333D02*
X46391666Y-80298333D01*
X46534523Y-80345952D01*
X46629761Y-80441190D01*
X46677380Y-80584047D01*
X46677380Y-80679285D01*
X46677380Y-79822142D02*
X45677380Y-79822142D01*
X45677380Y-79441190D01*
X45725000Y-79345952D01*
X45772619Y-79298333D01*
X45867857Y-79250714D01*
X46010714Y-79250714D01*
X46105952Y-79298333D01*
X46153571Y-79345952D01*
X46201190Y-79441190D01*
X46201190Y-79822142D01*
X45677380Y-78917380D02*
X45677380Y-78250714D01*
X46677380Y-78679285D01*
X247483333Y-55232380D02*
X247150000Y-54756190D01*
X246911904Y-55232380D02*
X246911904Y-54232380D01*
X247292857Y-54232380D01*
X247388095Y-54280000D01*
X247435714Y-54327619D01*
X247483333Y-54422857D01*
X247483333Y-54565714D01*
X247435714Y-54660952D01*
X247388095Y-54708571D01*
X247292857Y-54756190D01*
X246911904Y-54756190D01*
X248435714Y-55232380D02*
X247864285Y-55232380D01*
X248150000Y-55232380D02*
X248150000Y-54232380D01*
X248054761Y-54375238D01*
X247959523Y-54470476D01*
X247864285Y-54518095D01*
X247483333Y-57772380D02*
X247150000Y-57296190D01*
X246911904Y-57772380D02*
X246911904Y-56772380D01*
X247292857Y-56772380D01*
X247388095Y-56820000D01*
X247435714Y-56867619D01*
X247483333Y-56962857D01*
X247483333Y-57105714D01*
X247435714Y-57200952D01*
X247388095Y-57248571D01*
X247292857Y-57296190D01*
X246911904Y-57296190D01*
X247864285Y-56867619D02*
X247911904Y-56820000D01*
X248007142Y-56772380D01*
X248245238Y-56772380D01*
X248340476Y-56820000D01*
X248388095Y-56867619D01*
X248435714Y-56962857D01*
X248435714Y-57058095D01*
X248388095Y-57200952D01*
X247816666Y-57772380D01*
X248435714Y-57772380D01*
X247483333Y-60312380D02*
X247150000Y-59836190D01*
X246911904Y-60312380D02*
X246911904Y-59312380D01*
X247292857Y-59312380D01*
X247388095Y-59360000D01*
X247435714Y-59407619D01*
X247483333Y-59502857D01*
X247483333Y-59645714D01*
X247435714Y-59740952D01*
X247388095Y-59788571D01*
X247292857Y-59836190D01*
X246911904Y-59836190D01*
X247816666Y-59312380D02*
X248435714Y-59312380D01*
X248102380Y-59693333D01*
X248245238Y-59693333D01*
X248340476Y-59740952D01*
X248388095Y-59788571D01*
X248435714Y-59883809D01*
X248435714Y-60121904D01*
X248388095Y-60217142D01*
X248340476Y-60264761D01*
X248245238Y-60312380D01*
X247959523Y-60312380D01*
X247864285Y-60264761D01*
X247816666Y-60217142D01*
X247483333Y-62852380D02*
X247150000Y-62376190D01*
X246911904Y-62852380D02*
X246911904Y-61852380D01*
X247292857Y-61852380D01*
X247388095Y-61900000D01*
X247435714Y-61947619D01*
X247483333Y-62042857D01*
X247483333Y-62185714D01*
X247435714Y-62280952D01*
X247388095Y-62328571D01*
X247292857Y-62376190D01*
X246911904Y-62376190D01*
X248340476Y-62185714D02*
X248340476Y-62852380D01*
X248102380Y-61804761D02*
X247864285Y-62519047D01*
X248483333Y-62519047D01*
X247483333Y-65392380D02*
X247150000Y-64916190D01*
X246911904Y-65392380D02*
X246911904Y-64392380D01*
X247292857Y-64392380D01*
X247388095Y-64440000D01*
X247435714Y-64487619D01*
X247483333Y-64582857D01*
X247483333Y-64725714D01*
X247435714Y-64820952D01*
X247388095Y-64868571D01*
X247292857Y-64916190D01*
X246911904Y-64916190D01*
X248388095Y-64392380D02*
X247911904Y-64392380D01*
X247864285Y-64868571D01*
X247911904Y-64820952D01*
X248007142Y-64773333D01*
X248245238Y-64773333D01*
X248340476Y-64820952D01*
X248388095Y-64868571D01*
X248435714Y-64963809D01*
X248435714Y-65201904D01*
X248388095Y-65297142D01*
X248340476Y-65344761D01*
X248245238Y-65392380D01*
X248007142Y-65392380D01*
X247911904Y-65344761D01*
X247864285Y-65297142D01*
X247483333Y-67932380D02*
X247150000Y-67456190D01*
X246911904Y-67932380D02*
X246911904Y-66932380D01*
X247292857Y-66932380D01*
X247388095Y-66980000D01*
X247435714Y-67027619D01*
X247483333Y-67122857D01*
X247483333Y-67265714D01*
X247435714Y-67360952D01*
X247388095Y-67408571D01*
X247292857Y-67456190D01*
X246911904Y-67456190D01*
X248340476Y-66932380D02*
X248150000Y-66932380D01*
X248054761Y-66980000D01*
X248007142Y-67027619D01*
X247911904Y-67170476D01*
X247864285Y-67360952D01*
X247864285Y-67741904D01*
X247911904Y-67837142D01*
X247959523Y-67884761D01*
X248054761Y-67932380D01*
X248245238Y-67932380D01*
X248340476Y-67884761D01*
X248388095Y-67837142D01*
X248435714Y-67741904D01*
X248435714Y-67503809D01*
X248388095Y-67408571D01*
X248340476Y-67360952D01*
X248245238Y-67313333D01*
X248054761Y-67313333D01*
X247959523Y-67360952D01*
X247911904Y-67408571D01*
X247864285Y-67503809D01*
X247483333Y-70472380D02*
X247150000Y-69996190D01*
X246911904Y-70472380D02*
X246911904Y-69472380D01*
X247292857Y-69472380D01*
X247388095Y-69520000D01*
X247435714Y-69567619D01*
X247483333Y-69662857D01*
X247483333Y-69805714D01*
X247435714Y-69900952D01*
X247388095Y-69948571D01*
X247292857Y-69996190D01*
X246911904Y-69996190D01*
X247816666Y-69472380D02*
X248483333Y-69472380D01*
X248054761Y-70472380D01*
X247483333Y-73012380D02*
X247150000Y-72536190D01*
X246911904Y-73012380D02*
X246911904Y-72012380D01*
X247292857Y-72012380D01*
X247388095Y-72060000D01*
X247435714Y-72107619D01*
X247483333Y-72202857D01*
X247483333Y-72345714D01*
X247435714Y-72440952D01*
X247388095Y-72488571D01*
X247292857Y-72536190D01*
X246911904Y-72536190D01*
X248054761Y-72440952D02*
X247959523Y-72393333D01*
X247911904Y-72345714D01*
X247864285Y-72250476D01*
X247864285Y-72202857D01*
X247911904Y-72107619D01*
X247959523Y-72060000D01*
X248054761Y-72012380D01*
X248245238Y-72012380D01*
X248340476Y-72060000D01*
X248388095Y-72107619D01*
X248435714Y-72202857D01*
X248435714Y-72250476D01*
X248388095Y-72345714D01*
X248340476Y-72393333D01*
X248245238Y-72440952D01*
X248054761Y-72440952D01*
X247959523Y-72488571D01*
X247911904Y-72536190D01*
X247864285Y-72631428D01*
X247864285Y-72821904D01*
X247911904Y-72917142D01*
X247959523Y-72964761D01*
X248054761Y-73012380D01*
X248245238Y-73012380D01*
X248340476Y-72964761D01*
X248388095Y-72917142D01*
X248435714Y-72821904D01*
X248435714Y-72631428D01*
X248388095Y-72536190D01*
X248340476Y-72488571D01*
X248245238Y-72440952D01*
X247007142Y-79362380D02*
X246673809Y-78886190D01*
X246435714Y-79362380D02*
X246435714Y-78362380D01*
X246816666Y-78362380D01*
X246911904Y-78410000D01*
X246959523Y-78457619D01*
X247007142Y-78552857D01*
X247007142Y-78695714D01*
X246959523Y-78790952D01*
X246911904Y-78838571D01*
X246816666Y-78886190D01*
X246435714Y-78886190D01*
X247959523Y-79362380D02*
X247388095Y-79362380D01*
X247673809Y-79362380D02*
X247673809Y-78362380D01*
X247578571Y-78505238D01*
X247483333Y-78600476D01*
X247388095Y-78648095D01*
X248578571Y-78362380D02*
X248673809Y-78362380D01*
X248769047Y-78410000D01*
X248816666Y-78457619D01*
X248864285Y-78552857D01*
X248911904Y-78743333D01*
X248911904Y-78981428D01*
X248864285Y-79171904D01*
X248816666Y-79267142D01*
X248769047Y-79314761D01*
X248673809Y-79362380D01*
X248578571Y-79362380D01*
X248483333Y-79314761D01*
X248435714Y-79267142D01*
X248388095Y-79171904D01*
X248340476Y-78981428D01*
X248340476Y-78743333D01*
X248388095Y-78552857D01*
X248435714Y-78457619D01*
X248483333Y-78410000D01*
X248578571Y-78362380D01*
X247007142Y-81902380D02*
X246673809Y-81426190D01*
X246435714Y-81902380D02*
X246435714Y-80902380D01*
X246816666Y-80902380D01*
X246911904Y-80950000D01*
X246959523Y-80997619D01*
X247007142Y-81092857D01*
X247007142Y-81235714D01*
X246959523Y-81330952D01*
X246911904Y-81378571D01*
X246816666Y-81426190D01*
X246435714Y-81426190D01*
X247959523Y-81902380D02*
X247388095Y-81902380D01*
X247673809Y-81902380D02*
X247673809Y-80902380D01*
X247578571Y-81045238D01*
X247483333Y-81140476D01*
X247388095Y-81188095D01*
X248911904Y-81902380D02*
X248340476Y-81902380D01*
X248626190Y-81902380D02*
X248626190Y-80902380D01*
X248530952Y-81045238D01*
X248435714Y-81140476D01*
X248340476Y-81188095D01*
X247007142Y-84442380D02*
X246673809Y-83966190D01*
X246435714Y-84442380D02*
X246435714Y-83442380D01*
X246816666Y-83442380D01*
X246911904Y-83490000D01*
X246959523Y-83537619D01*
X247007142Y-83632857D01*
X247007142Y-83775714D01*
X246959523Y-83870952D01*
X246911904Y-83918571D01*
X246816666Y-83966190D01*
X246435714Y-83966190D01*
X247959523Y-84442380D02*
X247388095Y-84442380D01*
X247673809Y-84442380D02*
X247673809Y-83442380D01*
X247578571Y-83585238D01*
X247483333Y-83680476D01*
X247388095Y-83728095D01*
X248340476Y-83537619D02*
X248388095Y-83490000D01*
X248483333Y-83442380D01*
X248721428Y-83442380D01*
X248816666Y-83490000D01*
X248864285Y-83537619D01*
X248911904Y-83632857D01*
X248911904Y-83728095D01*
X248864285Y-83870952D01*
X248292857Y-84442380D01*
X248911904Y-84442380D01*
X247007142Y-86982380D02*
X246673809Y-86506190D01*
X246435714Y-86982380D02*
X246435714Y-85982380D01*
X246816666Y-85982380D01*
X246911904Y-86030000D01*
X246959523Y-86077619D01*
X247007142Y-86172857D01*
X247007142Y-86315714D01*
X246959523Y-86410952D01*
X246911904Y-86458571D01*
X246816666Y-86506190D01*
X246435714Y-86506190D01*
X247959523Y-86982380D02*
X247388095Y-86982380D01*
X247673809Y-86982380D02*
X247673809Y-85982380D01*
X247578571Y-86125238D01*
X247483333Y-86220476D01*
X247388095Y-86268095D01*
X248292857Y-85982380D02*
X248911904Y-85982380D01*
X248578571Y-86363333D01*
X248721428Y-86363333D01*
X248816666Y-86410952D01*
X248864285Y-86458571D01*
X248911904Y-86553809D01*
X248911904Y-86791904D01*
X248864285Y-86887142D01*
X248816666Y-86934761D01*
X248721428Y-86982380D01*
X248435714Y-86982380D01*
X248340476Y-86934761D01*
X248292857Y-86887142D01*
X247007142Y-89522380D02*
X246673809Y-89046190D01*
X246435714Y-89522380D02*
X246435714Y-88522380D01*
X246816666Y-88522380D01*
X246911904Y-88570000D01*
X246959523Y-88617619D01*
X247007142Y-88712857D01*
X247007142Y-88855714D01*
X246959523Y-88950952D01*
X246911904Y-88998571D01*
X246816666Y-89046190D01*
X246435714Y-89046190D01*
X247959523Y-89522380D02*
X247388095Y-89522380D01*
X247673809Y-89522380D02*
X247673809Y-88522380D01*
X247578571Y-88665238D01*
X247483333Y-88760476D01*
X247388095Y-88808095D01*
X248816666Y-88855714D02*
X248816666Y-89522380D01*
X248578571Y-88474761D02*
X248340476Y-89189047D01*
X248959523Y-89189047D01*
X247007142Y-92062380D02*
X246673809Y-91586190D01*
X246435714Y-92062380D02*
X246435714Y-91062380D01*
X246816666Y-91062380D01*
X246911904Y-91110000D01*
X246959523Y-91157619D01*
X247007142Y-91252857D01*
X247007142Y-91395714D01*
X246959523Y-91490952D01*
X246911904Y-91538571D01*
X246816666Y-91586190D01*
X246435714Y-91586190D01*
X247959523Y-92062380D02*
X247388095Y-92062380D01*
X247673809Y-92062380D02*
X247673809Y-91062380D01*
X247578571Y-91205238D01*
X247483333Y-91300476D01*
X247388095Y-91348095D01*
X248864285Y-91062380D02*
X248388095Y-91062380D01*
X248340476Y-91538571D01*
X248388095Y-91490952D01*
X248483333Y-91443333D01*
X248721428Y-91443333D01*
X248816666Y-91490952D01*
X248864285Y-91538571D01*
X248911904Y-91633809D01*
X248911904Y-91871904D01*
X248864285Y-91967142D01*
X248816666Y-92014761D01*
X248721428Y-92062380D01*
X248483333Y-92062380D01*
X248388095Y-92014761D01*
X248340476Y-91967142D01*
X247007142Y-94602380D02*
X246673809Y-94126190D01*
X246435714Y-94602380D02*
X246435714Y-93602380D01*
X246816666Y-93602380D01*
X246911904Y-93650000D01*
X246959523Y-93697619D01*
X247007142Y-93792857D01*
X247007142Y-93935714D01*
X246959523Y-94030952D01*
X246911904Y-94078571D01*
X246816666Y-94126190D01*
X246435714Y-94126190D01*
X247959523Y-94602380D02*
X247388095Y-94602380D01*
X247673809Y-94602380D02*
X247673809Y-93602380D01*
X247578571Y-93745238D01*
X247483333Y-93840476D01*
X247388095Y-93888095D01*
X248816666Y-93602380D02*
X248626190Y-93602380D01*
X248530952Y-93650000D01*
X248483333Y-93697619D01*
X248388095Y-93840476D01*
X248340476Y-94030952D01*
X248340476Y-94411904D01*
X248388095Y-94507142D01*
X248435714Y-94554761D01*
X248530952Y-94602380D01*
X248721428Y-94602380D01*
X248816666Y-94554761D01*
X248864285Y-94507142D01*
X248911904Y-94411904D01*
X248911904Y-94173809D01*
X248864285Y-94078571D01*
X248816666Y-94030952D01*
X248721428Y-93983333D01*
X248530952Y-93983333D01*
X248435714Y-94030952D01*
X248388095Y-94078571D01*
X248340476Y-94173809D01*
X247007142Y-97142380D02*
X246673809Y-96666190D01*
X246435714Y-97142380D02*
X246435714Y-96142380D01*
X246816666Y-96142380D01*
X246911904Y-96190000D01*
X246959523Y-96237619D01*
X247007142Y-96332857D01*
X247007142Y-96475714D01*
X246959523Y-96570952D01*
X246911904Y-96618571D01*
X246816666Y-96666190D01*
X246435714Y-96666190D01*
X247959523Y-97142380D02*
X247388095Y-97142380D01*
X247673809Y-97142380D02*
X247673809Y-96142380D01*
X247578571Y-96285238D01*
X247483333Y-96380476D01*
X247388095Y-96428095D01*
X248292857Y-96142380D02*
X248959523Y-96142380D01*
X248530952Y-97142380D01*
X247007142Y-103492380D02*
X246673809Y-103016190D01*
X246435714Y-103492380D02*
X246435714Y-102492380D01*
X246816666Y-102492380D01*
X246911904Y-102540000D01*
X246959523Y-102587619D01*
X247007142Y-102682857D01*
X247007142Y-102825714D01*
X246959523Y-102920952D01*
X246911904Y-102968571D01*
X246816666Y-103016190D01*
X246435714Y-103016190D01*
X247959523Y-103492380D02*
X247388095Y-103492380D01*
X247673809Y-103492380D02*
X247673809Y-102492380D01*
X247578571Y-102635238D01*
X247483333Y-102730476D01*
X247388095Y-102778095D01*
X248435714Y-103492380D02*
X248626190Y-103492380D01*
X248721428Y-103444761D01*
X248769047Y-103397142D01*
X248864285Y-103254285D01*
X248911904Y-103063809D01*
X248911904Y-102682857D01*
X248864285Y-102587619D01*
X248816666Y-102540000D01*
X248721428Y-102492380D01*
X248530952Y-102492380D01*
X248435714Y-102540000D01*
X248388095Y-102587619D01*
X248340476Y-102682857D01*
X248340476Y-102920952D01*
X248388095Y-103016190D01*
X248435714Y-103063809D01*
X248530952Y-103111428D01*
X248721428Y-103111428D01*
X248816666Y-103063809D01*
X248864285Y-103016190D01*
X248911904Y-102920952D01*
X247007142Y-106032380D02*
X246673809Y-105556190D01*
X246435714Y-106032380D02*
X246435714Y-105032380D01*
X246816666Y-105032380D01*
X246911904Y-105080000D01*
X246959523Y-105127619D01*
X247007142Y-105222857D01*
X247007142Y-105365714D01*
X246959523Y-105460952D01*
X246911904Y-105508571D01*
X246816666Y-105556190D01*
X246435714Y-105556190D01*
X247388095Y-105127619D02*
X247435714Y-105080000D01*
X247530952Y-105032380D01*
X247769047Y-105032380D01*
X247864285Y-105080000D01*
X247911904Y-105127619D01*
X247959523Y-105222857D01*
X247959523Y-105318095D01*
X247911904Y-105460952D01*
X247340476Y-106032380D01*
X247959523Y-106032380D01*
X248578571Y-105032380D02*
X248673809Y-105032380D01*
X248769047Y-105080000D01*
X248816666Y-105127619D01*
X248864285Y-105222857D01*
X248911904Y-105413333D01*
X248911904Y-105651428D01*
X248864285Y-105841904D01*
X248816666Y-105937142D01*
X248769047Y-105984761D01*
X248673809Y-106032380D01*
X248578571Y-106032380D01*
X248483333Y-105984761D01*
X248435714Y-105937142D01*
X248388095Y-105841904D01*
X248340476Y-105651428D01*
X248340476Y-105413333D01*
X248388095Y-105222857D01*
X248435714Y-105127619D01*
X248483333Y-105080000D01*
X248578571Y-105032380D01*
X247007142Y-108572380D02*
X246673809Y-108096190D01*
X246435714Y-108572380D02*
X246435714Y-107572380D01*
X246816666Y-107572380D01*
X246911904Y-107620000D01*
X246959523Y-107667619D01*
X247007142Y-107762857D01*
X247007142Y-107905714D01*
X246959523Y-108000952D01*
X246911904Y-108048571D01*
X246816666Y-108096190D01*
X246435714Y-108096190D01*
X247388095Y-107667619D02*
X247435714Y-107620000D01*
X247530952Y-107572380D01*
X247769047Y-107572380D01*
X247864285Y-107620000D01*
X247911904Y-107667619D01*
X247959523Y-107762857D01*
X247959523Y-107858095D01*
X247911904Y-108000952D01*
X247340476Y-108572380D01*
X247959523Y-108572380D01*
X248911904Y-108572380D02*
X248340476Y-108572380D01*
X248626190Y-108572380D02*
X248626190Y-107572380D01*
X248530952Y-107715238D01*
X248435714Y-107810476D01*
X248340476Y-107858095D01*
X247007142Y-111112380D02*
X246673809Y-110636190D01*
X246435714Y-111112380D02*
X246435714Y-110112380D01*
X246816666Y-110112380D01*
X246911904Y-110160000D01*
X246959523Y-110207619D01*
X247007142Y-110302857D01*
X247007142Y-110445714D01*
X246959523Y-110540952D01*
X246911904Y-110588571D01*
X246816666Y-110636190D01*
X246435714Y-110636190D01*
X247388095Y-110207619D02*
X247435714Y-110160000D01*
X247530952Y-110112380D01*
X247769047Y-110112380D01*
X247864285Y-110160000D01*
X247911904Y-110207619D01*
X247959523Y-110302857D01*
X247959523Y-110398095D01*
X247911904Y-110540952D01*
X247340476Y-111112380D01*
X247959523Y-111112380D01*
X248340476Y-110207619D02*
X248388095Y-110160000D01*
X248483333Y-110112380D01*
X248721428Y-110112380D01*
X248816666Y-110160000D01*
X248864285Y-110207619D01*
X248911904Y-110302857D01*
X248911904Y-110398095D01*
X248864285Y-110540952D01*
X248292857Y-111112380D01*
X248911904Y-111112380D01*
X247007142Y-113652380D02*
X246673809Y-113176190D01*
X246435714Y-113652380D02*
X246435714Y-112652380D01*
X246816666Y-112652380D01*
X246911904Y-112700000D01*
X246959523Y-112747619D01*
X247007142Y-112842857D01*
X247007142Y-112985714D01*
X246959523Y-113080952D01*
X246911904Y-113128571D01*
X246816666Y-113176190D01*
X246435714Y-113176190D01*
X247388095Y-112747619D02*
X247435714Y-112700000D01*
X247530952Y-112652380D01*
X247769047Y-112652380D01*
X247864285Y-112700000D01*
X247911904Y-112747619D01*
X247959523Y-112842857D01*
X247959523Y-112938095D01*
X247911904Y-113080952D01*
X247340476Y-113652380D01*
X247959523Y-113652380D01*
X248292857Y-112652380D02*
X248911904Y-112652380D01*
X248578571Y-113033333D01*
X248721428Y-113033333D01*
X248816666Y-113080952D01*
X248864285Y-113128571D01*
X248911904Y-113223809D01*
X248911904Y-113461904D01*
X248864285Y-113557142D01*
X248816666Y-113604761D01*
X248721428Y-113652380D01*
X248435714Y-113652380D01*
X248340476Y-113604761D01*
X248292857Y-113557142D01*
X247007142Y-116192380D02*
X246673809Y-115716190D01*
X246435714Y-116192380D02*
X246435714Y-115192380D01*
X246816666Y-115192380D01*
X246911904Y-115240000D01*
X246959523Y-115287619D01*
X247007142Y-115382857D01*
X247007142Y-115525714D01*
X246959523Y-115620952D01*
X246911904Y-115668571D01*
X246816666Y-115716190D01*
X246435714Y-115716190D01*
X247388095Y-115287619D02*
X247435714Y-115240000D01*
X247530952Y-115192380D01*
X247769047Y-115192380D01*
X247864285Y-115240000D01*
X247911904Y-115287619D01*
X247959523Y-115382857D01*
X247959523Y-115478095D01*
X247911904Y-115620952D01*
X247340476Y-116192380D01*
X247959523Y-116192380D01*
X248816666Y-115525714D02*
X248816666Y-116192380D01*
X248578571Y-115144761D02*
X248340476Y-115859047D01*
X248959523Y-115859047D01*
X247007142Y-118732380D02*
X246673809Y-118256190D01*
X246435714Y-118732380D02*
X246435714Y-117732380D01*
X246816666Y-117732380D01*
X246911904Y-117780000D01*
X246959523Y-117827619D01*
X247007142Y-117922857D01*
X247007142Y-118065714D01*
X246959523Y-118160952D01*
X246911904Y-118208571D01*
X246816666Y-118256190D01*
X246435714Y-118256190D01*
X247388095Y-117827619D02*
X247435714Y-117780000D01*
X247530952Y-117732380D01*
X247769047Y-117732380D01*
X247864285Y-117780000D01*
X247911904Y-117827619D01*
X247959523Y-117922857D01*
X247959523Y-118018095D01*
X247911904Y-118160952D01*
X247340476Y-118732380D01*
X247959523Y-118732380D01*
X248864285Y-117732380D02*
X248388095Y-117732380D01*
X248340476Y-118208571D01*
X248388095Y-118160952D01*
X248483333Y-118113333D01*
X248721428Y-118113333D01*
X248816666Y-118160952D01*
X248864285Y-118208571D01*
X248911904Y-118303809D01*
X248911904Y-118541904D01*
X248864285Y-118637142D01*
X248816666Y-118684761D01*
X248721428Y-118732380D01*
X248483333Y-118732380D01*
X248388095Y-118684761D01*
X248340476Y-118637142D01*
X247007142Y-121272380D02*
X246673809Y-120796190D01*
X246435714Y-121272380D02*
X246435714Y-120272380D01*
X246816666Y-120272380D01*
X246911904Y-120320000D01*
X246959523Y-120367619D01*
X247007142Y-120462857D01*
X247007142Y-120605714D01*
X246959523Y-120700952D01*
X246911904Y-120748571D01*
X246816666Y-120796190D01*
X246435714Y-120796190D01*
X247388095Y-120367619D02*
X247435714Y-120320000D01*
X247530952Y-120272380D01*
X247769047Y-120272380D01*
X247864285Y-120320000D01*
X247911904Y-120367619D01*
X247959523Y-120462857D01*
X247959523Y-120558095D01*
X247911904Y-120700952D01*
X247340476Y-121272380D01*
X247959523Y-121272380D01*
X248816666Y-120272380D02*
X248626190Y-120272380D01*
X248530952Y-120320000D01*
X248483333Y-120367619D01*
X248388095Y-120510476D01*
X248340476Y-120700952D01*
X248340476Y-121081904D01*
X248388095Y-121177142D01*
X248435714Y-121224761D01*
X248530952Y-121272380D01*
X248721428Y-121272380D01*
X248816666Y-121224761D01*
X248864285Y-121177142D01*
X248911904Y-121081904D01*
X248911904Y-120843809D01*
X248864285Y-120748571D01*
X248816666Y-120700952D01*
X248721428Y-120653333D01*
X248530952Y-120653333D01*
X248435714Y-120700952D01*
X248388095Y-120748571D01*
X248340476Y-120843809D01*
X247007142Y-127622380D02*
X246673809Y-127146190D01*
X246435714Y-127622380D02*
X246435714Y-126622380D01*
X246816666Y-126622380D01*
X246911904Y-126670000D01*
X246959523Y-126717619D01*
X247007142Y-126812857D01*
X247007142Y-126955714D01*
X246959523Y-127050952D01*
X246911904Y-127098571D01*
X246816666Y-127146190D01*
X246435714Y-127146190D01*
X247388095Y-126717619D02*
X247435714Y-126670000D01*
X247530952Y-126622380D01*
X247769047Y-126622380D01*
X247864285Y-126670000D01*
X247911904Y-126717619D01*
X247959523Y-126812857D01*
X247959523Y-126908095D01*
X247911904Y-127050952D01*
X247340476Y-127622380D01*
X247959523Y-127622380D01*
X248530952Y-127050952D02*
X248435714Y-127003333D01*
X248388095Y-126955714D01*
X248340476Y-126860476D01*
X248340476Y-126812857D01*
X248388095Y-126717619D01*
X248435714Y-126670000D01*
X248530952Y-126622380D01*
X248721428Y-126622380D01*
X248816666Y-126670000D01*
X248864285Y-126717619D01*
X248911904Y-126812857D01*
X248911904Y-126860476D01*
X248864285Y-126955714D01*
X248816666Y-127003333D01*
X248721428Y-127050952D01*
X248530952Y-127050952D01*
X248435714Y-127098571D01*
X248388095Y-127146190D01*
X248340476Y-127241428D01*
X248340476Y-127431904D01*
X248388095Y-127527142D01*
X248435714Y-127574761D01*
X248530952Y-127622380D01*
X248721428Y-127622380D01*
X248816666Y-127574761D01*
X248864285Y-127527142D01*
X248911904Y-127431904D01*
X248911904Y-127241428D01*
X248864285Y-127146190D01*
X248816666Y-127098571D01*
X248721428Y-127050952D01*
X247007142Y-130162380D02*
X246673809Y-129686190D01*
X246435714Y-130162380D02*
X246435714Y-129162380D01*
X246816666Y-129162380D01*
X246911904Y-129210000D01*
X246959523Y-129257619D01*
X247007142Y-129352857D01*
X247007142Y-129495714D01*
X246959523Y-129590952D01*
X246911904Y-129638571D01*
X246816666Y-129686190D01*
X246435714Y-129686190D01*
X247388095Y-129257619D02*
X247435714Y-129210000D01*
X247530952Y-129162380D01*
X247769047Y-129162380D01*
X247864285Y-129210000D01*
X247911904Y-129257619D01*
X247959523Y-129352857D01*
X247959523Y-129448095D01*
X247911904Y-129590952D01*
X247340476Y-130162380D01*
X247959523Y-130162380D01*
X248435714Y-130162380D02*
X248626190Y-130162380D01*
X248721428Y-130114761D01*
X248769047Y-130067142D01*
X248864285Y-129924285D01*
X248911904Y-129733809D01*
X248911904Y-129352857D01*
X248864285Y-129257619D01*
X248816666Y-129210000D01*
X248721428Y-129162380D01*
X248530952Y-129162380D01*
X248435714Y-129210000D01*
X248388095Y-129257619D01*
X248340476Y-129352857D01*
X248340476Y-129590952D01*
X248388095Y-129686190D01*
X248435714Y-129733809D01*
X248530952Y-129781428D01*
X248721428Y-129781428D01*
X248816666Y-129733809D01*
X248864285Y-129686190D01*
X248911904Y-129590952D01*
X209002380Y-59181904D02*
X209811904Y-59181904D01*
X209907142Y-59134285D01*
X209954761Y-59086666D01*
X210002380Y-58991428D01*
X210002380Y-58800952D01*
X209954761Y-58705714D01*
X209907142Y-58658095D01*
X209811904Y-58610476D01*
X209002380Y-58610476D01*
X210002380Y-57610476D02*
X210002380Y-58181904D01*
X210002380Y-57896190D02*
X209002380Y-57896190D01*
X209145238Y-57991428D01*
X209240476Y-58086666D01*
X209288095Y-58181904D01*
X209002380Y-83311904D02*
X209811904Y-83311904D01*
X209907142Y-83264285D01*
X209954761Y-83216666D01*
X210002380Y-83121428D01*
X210002380Y-82930952D01*
X209954761Y-82835714D01*
X209907142Y-82788095D01*
X209811904Y-82740476D01*
X209002380Y-82740476D01*
X209097619Y-82311904D02*
X209050000Y-82264285D01*
X209002380Y-82169047D01*
X209002380Y-81930952D01*
X209050000Y-81835714D01*
X209097619Y-81788095D01*
X209192857Y-81740476D01*
X209288095Y-81740476D01*
X209430952Y-81788095D01*
X210002380Y-82359523D01*
X210002380Y-81740476D01*
X209002380Y-107441904D02*
X209811904Y-107441904D01*
X209907142Y-107394285D01*
X209954761Y-107346666D01*
X210002380Y-107251428D01*
X210002380Y-107060952D01*
X209954761Y-106965714D01*
X209907142Y-106918095D01*
X209811904Y-106870476D01*
X209002380Y-106870476D01*
X209002380Y-106489523D02*
X209002380Y-105870476D01*
X209383333Y-106203809D01*
X209383333Y-106060952D01*
X209430952Y-105965714D01*
X209478571Y-105918095D01*
X209573809Y-105870476D01*
X209811904Y-105870476D01*
X209907142Y-105918095D01*
X209954761Y-105965714D01*
X210002380Y-106060952D01*
X210002380Y-106346666D01*
X209954761Y-106441904D01*
X209907142Y-106489523D01*
X209002380Y-131571904D02*
X209811904Y-131571904D01*
X209907142Y-131524285D01*
X209954761Y-131476666D01*
X210002380Y-131381428D01*
X210002380Y-131190952D01*
X209954761Y-131095714D01*
X209907142Y-131048095D01*
X209811904Y-131000476D01*
X209002380Y-131000476D01*
X209335714Y-130095714D02*
X210002380Y-130095714D01*
X208954761Y-130333809D02*
X209669047Y-130571904D01*
X209669047Y-129952857D01*
X45172380Y-115061904D02*
X45981904Y-115061904D01*
X46077142Y-115014285D01*
X46124761Y-114966666D01*
X46172380Y-114871428D01*
X46172380Y-114680952D01*
X46124761Y-114585714D01*
X46077142Y-114538095D01*
X45981904Y-114490476D01*
X45172380Y-114490476D01*
X45172380Y-113538095D02*
X45172380Y-114014285D01*
X45648571Y-114061904D01*
X45600952Y-114014285D01*
X45553333Y-113919047D01*
X45553333Y-113680952D01*
X45600952Y-113585714D01*
X45648571Y-113538095D01*
X45743809Y-113490476D01*
X45981904Y-113490476D01*
X46077142Y-113538095D01*
X46124761Y-113585714D01*
X46172380Y-113680952D01*
X46172380Y-113919047D01*
X46124761Y-114014285D01*
X46077142Y-114061904D01*
X45172380Y-134111904D02*
X45981904Y-134111904D01*
X46077142Y-134064285D01*
X46124761Y-134016666D01*
X46172380Y-133921428D01*
X46172380Y-133730952D01*
X46124761Y-133635714D01*
X46077142Y-133588095D01*
X45981904Y-133540476D01*
X45172380Y-133540476D01*
X45172380Y-132635714D02*
X45172380Y-132826190D01*
X45220000Y-132921428D01*
X45267619Y-132969047D01*
X45410476Y-133064285D01*
X45600952Y-133111904D01*
X45981904Y-133111904D01*
X46077142Y-133064285D01*
X46124761Y-133016666D01*
X46172380Y-132921428D01*
X46172380Y-132730952D01*
X46124761Y-132635714D01*
X46077142Y-132588095D01*
X45981904Y-132540476D01*
X45743809Y-132540476D01*
X45648571Y-132588095D01*
X45600952Y-132635714D01*
X45553333Y-132730952D01*
X45553333Y-132921428D01*
X45600952Y-133016666D01*
X45648571Y-133064285D01*
X45743809Y-133111904D01*
X169632380Y-52831904D02*
X170441904Y-52831904D01*
X170537142Y-52784285D01*
X170584761Y-52736666D01*
X170632380Y-52641428D01*
X170632380Y-52450952D01*
X170584761Y-52355714D01*
X170537142Y-52308095D01*
X170441904Y-52260476D01*
X169632380Y-52260476D01*
X169632380Y-51879523D02*
X169632380Y-51212857D01*
X170632380Y-51641428D01*
X169632380Y-69341904D02*
X170441904Y-69341904D01*
X170537142Y-69294285D01*
X170584761Y-69246666D01*
X170632380Y-69151428D01*
X170632380Y-68960952D01*
X170584761Y-68865714D01*
X170537142Y-68818095D01*
X170441904Y-68770476D01*
X169632380Y-68770476D01*
X170060952Y-68151428D02*
X170013333Y-68246666D01*
X169965714Y-68294285D01*
X169870476Y-68341904D01*
X169822857Y-68341904D01*
X169727619Y-68294285D01*
X169680000Y-68246666D01*
X169632380Y-68151428D01*
X169632380Y-67960952D01*
X169680000Y-67865714D01*
X169727619Y-67818095D01*
X169822857Y-67770476D01*
X169870476Y-67770476D01*
X169965714Y-67818095D01*
X170013333Y-67865714D01*
X170060952Y-67960952D01*
X170060952Y-68151428D01*
X170108571Y-68246666D01*
X170156190Y-68294285D01*
X170251428Y-68341904D01*
X170441904Y-68341904D01*
X170537142Y-68294285D01*
X170584761Y-68246666D01*
X170632380Y-68151428D01*
X170632380Y-67960952D01*
X170584761Y-67865714D01*
X170537142Y-67818095D01*
X170441904Y-67770476D01*
X170251428Y-67770476D01*
X170156190Y-67818095D01*
X170108571Y-67865714D01*
X170060952Y-67960952D01*
X132802380Y-78231904D02*
X133611904Y-78231904D01*
X133707142Y-78184285D01*
X133754761Y-78136666D01*
X133802380Y-78041428D01*
X133802380Y-77850952D01*
X133754761Y-77755714D01*
X133707142Y-77708095D01*
X133611904Y-77660476D01*
X132802380Y-77660476D01*
X133802380Y-77136666D02*
X133802380Y-76946190D01*
X133754761Y-76850952D01*
X133707142Y-76803333D01*
X133564285Y-76708095D01*
X133373809Y-76660476D01*
X132992857Y-76660476D01*
X132897619Y-76708095D01*
X132850000Y-76755714D01*
X132802380Y-76850952D01*
X132802380Y-77041428D01*
X132850000Y-77136666D01*
X132897619Y-77184285D01*
X132992857Y-77231904D01*
X133230952Y-77231904D01*
X133326190Y-77184285D01*
X133373809Y-77136666D01*
X133421428Y-77041428D01*
X133421428Y-76850952D01*
X133373809Y-76755714D01*
X133326190Y-76708095D01*
X133230952Y-76660476D01*
X45172380Y-96488095D02*
X45981904Y-96488095D01*
X46077142Y-96440476D01*
X46124761Y-96392857D01*
X46172380Y-96297619D01*
X46172380Y-96107142D01*
X46124761Y-96011904D01*
X46077142Y-95964285D01*
X45981904Y-95916666D01*
X45172380Y-95916666D01*
X46172380Y-94916666D02*
X46172380Y-95488095D01*
X46172380Y-95202380D02*
X45172380Y-95202380D01*
X45315238Y-95297619D01*
X45410476Y-95392857D01*
X45458095Y-95488095D01*
X45172380Y-94297619D02*
X45172380Y-94202380D01*
X45220000Y-94107142D01*
X45267619Y-94059523D01*
X45362857Y-94011904D01*
X45553333Y-93964285D01*
X45791428Y-93964285D01*
X45981904Y-94011904D01*
X46077142Y-94059523D01*
X46124761Y-94107142D01*
X46172380Y-94202380D01*
X46172380Y-94297619D01*
X46124761Y-94392857D01*
X46077142Y-94440476D01*
X45981904Y-94488095D01*
X45791428Y-94535714D01*
X45553333Y-94535714D01*
X45362857Y-94488095D01*
X45267619Y-94440476D01*
X45220000Y-94392857D01*
X45172380Y-94297619D01*
X90892380Y-86328095D02*
X91701904Y-86328095D01*
X91797142Y-86280476D01*
X91844761Y-86232857D01*
X91892380Y-86137619D01*
X91892380Y-85947142D01*
X91844761Y-85851904D01*
X91797142Y-85804285D01*
X91701904Y-85756666D01*
X90892380Y-85756666D01*
X91892380Y-84756666D02*
X91892380Y-85328095D01*
X91892380Y-85042380D02*
X90892380Y-85042380D01*
X91035238Y-85137619D01*
X91130476Y-85232857D01*
X91178095Y-85328095D01*
X91892380Y-83804285D02*
X91892380Y-84375714D01*
X91892380Y-84090000D02*
X90892380Y-84090000D01*
X91035238Y-84185238D01*
X91130476Y-84280476D01*
X91178095Y-84375714D01*
X90892380Y-69818095D02*
X91701904Y-69818095D01*
X91797142Y-69770476D01*
X91844761Y-69722857D01*
X91892380Y-69627619D01*
X91892380Y-69437142D01*
X91844761Y-69341904D01*
X91797142Y-69294285D01*
X91701904Y-69246666D01*
X90892380Y-69246666D01*
X91892380Y-68246666D02*
X91892380Y-68818095D01*
X91892380Y-68532380D02*
X90892380Y-68532380D01*
X91035238Y-68627619D01*
X91130476Y-68722857D01*
X91178095Y-68818095D01*
X90987619Y-67865714D02*
X90940000Y-67818095D01*
X90892380Y-67722857D01*
X90892380Y-67484761D01*
X90940000Y-67389523D01*
X90987619Y-67341904D01*
X91082857Y-67294285D01*
X91178095Y-67294285D01*
X91320952Y-67341904D01*
X91892380Y-67913333D01*
X91892380Y-67294285D01*
X132802380Y-59658095D02*
X133611904Y-59658095D01*
X133707142Y-59610476D01*
X133754761Y-59562857D01*
X133802380Y-59467619D01*
X133802380Y-59277142D01*
X133754761Y-59181904D01*
X133707142Y-59134285D01*
X133611904Y-59086666D01*
X132802380Y-59086666D01*
X133802380Y-58086666D02*
X133802380Y-58658095D01*
X133802380Y-58372380D02*
X132802380Y-58372380D01*
X132945238Y-58467619D01*
X133040476Y-58562857D01*
X133088095Y-58658095D01*
X132802380Y-57753333D02*
X132802380Y-57134285D01*
X133183333Y-57467619D01*
X133183333Y-57324761D01*
X133230952Y-57229523D01*
X133278571Y-57181904D01*
X133373809Y-57134285D01*
X133611904Y-57134285D01*
X133707142Y-57181904D01*
X133754761Y-57229523D01*
X133802380Y-57324761D01*
X133802380Y-57610476D01*
X133754761Y-57705714D01*
X133707142Y-57753333D01*
X169632380Y-86328095D02*
X170441904Y-86328095D01*
X170537142Y-86280476D01*
X170584761Y-86232857D01*
X170632380Y-86137619D01*
X170632380Y-85947142D01*
X170584761Y-85851904D01*
X170537142Y-85804285D01*
X170441904Y-85756666D01*
X169632380Y-85756666D01*
X170632380Y-84756666D02*
X170632380Y-85328095D01*
X170632380Y-85042380D02*
X169632380Y-85042380D01*
X169775238Y-85137619D01*
X169870476Y-85232857D01*
X169918095Y-85328095D01*
X169965714Y-83899523D02*
X170632380Y-83899523D01*
X169584761Y-84137619D02*
X170299047Y-84375714D01*
X170299047Y-83756666D01*
X93432380Y-53308095D02*
X94241904Y-53308095D01*
X94337142Y-53260476D01*
X94384761Y-53212857D01*
X94432380Y-53117619D01*
X94432380Y-52927142D01*
X94384761Y-52831904D01*
X94337142Y-52784285D01*
X94241904Y-52736666D01*
X93432380Y-52736666D01*
X94432380Y-51736666D02*
X94432380Y-52308095D01*
X94432380Y-52022380D02*
X93432380Y-52022380D01*
X93575238Y-52117619D01*
X93670476Y-52212857D01*
X93718095Y-52308095D01*
X93432380Y-50831904D02*
X93432380Y-51308095D01*
X93908571Y-51355714D01*
X93860952Y-51308095D01*
X93813333Y-51212857D01*
X93813333Y-50974761D01*
X93860952Y-50879523D01*
X93908571Y-50831904D01*
X94003809Y-50784285D01*
X94241904Y-50784285D01*
X94337142Y-50831904D01*
X94384761Y-50879523D01*
X94432380Y-50974761D01*
X94432380Y-51212857D01*
X94384761Y-51308095D01*
X94337142Y-51355714D01*
X169632380Y-102838095D02*
X170441904Y-102838095D01*
X170537142Y-102790476D01*
X170584761Y-102742857D01*
X170632380Y-102647619D01*
X170632380Y-102457142D01*
X170584761Y-102361904D01*
X170537142Y-102314285D01*
X170441904Y-102266666D01*
X169632380Y-102266666D01*
X170632380Y-101266666D02*
X170632380Y-101838095D01*
X170632380Y-101552380D02*
X169632380Y-101552380D01*
X169775238Y-101647619D01*
X169870476Y-101742857D01*
X169918095Y-101838095D01*
X169632380Y-100409523D02*
X169632380Y-100600000D01*
X169680000Y-100695238D01*
X169727619Y-100742857D01*
X169870476Y-100838095D01*
X170060952Y-100885714D01*
X170441904Y-100885714D01*
X170537142Y-100838095D01*
X170584761Y-100790476D01*
X170632380Y-100695238D01*
X170632380Y-100504761D01*
X170584761Y-100409523D01*
X170537142Y-100361904D01*
X170441904Y-100314285D01*
X170203809Y-100314285D01*
X170108571Y-100361904D01*
X170060952Y-100409523D01*
X170013333Y-100504761D01*
X170013333Y-100695238D01*
X170060952Y-100790476D01*
X170108571Y-100838095D01*
X170203809Y-100885714D01*
X169632380Y-119348095D02*
X170441904Y-119348095D01*
X170537142Y-119300476D01*
X170584761Y-119252857D01*
X170632380Y-119157619D01*
X170632380Y-118967142D01*
X170584761Y-118871904D01*
X170537142Y-118824285D01*
X170441904Y-118776666D01*
X169632380Y-118776666D01*
X170632380Y-117776666D02*
X170632380Y-118348095D01*
X170632380Y-118062380D02*
X169632380Y-118062380D01*
X169775238Y-118157619D01*
X169870476Y-118252857D01*
X169918095Y-118348095D01*
X169632380Y-117443333D02*
X169632380Y-116776666D01*
X170632380Y-117205238D01*
X132802380Y-109188095D02*
X133611904Y-109188095D01*
X133707142Y-109140476D01*
X133754761Y-109092857D01*
X133802380Y-108997619D01*
X133802380Y-108807142D01*
X133754761Y-108711904D01*
X133707142Y-108664285D01*
X133611904Y-108616666D01*
X132802380Y-108616666D01*
X133802380Y-107616666D02*
X133802380Y-108188095D01*
X133802380Y-107902380D02*
X132802380Y-107902380D01*
X132945238Y-107997619D01*
X133040476Y-108092857D01*
X133088095Y-108188095D01*
X133230952Y-107045238D02*
X133183333Y-107140476D01*
X133135714Y-107188095D01*
X133040476Y-107235714D01*
X132992857Y-107235714D01*
X132897619Y-107188095D01*
X132850000Y-107140476D01*
X132802380Y-107045238D01*
X132802380Y-106854761D01*
X132850000Y-106759523D01*
X132897619Y-106711904D01*
X132992857Y-106664285D01*
X133040476Y-106664285D01*
X133135714Y-106711904D01*
X133183333Y-106759523D01*
X133230952Y-106854761D01*
X133230952Y-107045238D01*
X133278571Y-107140476D01*
X133326190Y-107188095D01*
X133421428Y-107235714D01*
X133611904Y-107235714D01*
X133707142Y-107188095D01*
X133754761Y-107140476D01*
X133802380Y-107045238D01*
X133802380Y-106854761D01*
X133754761Y-106759523D01*
X133707142Y-106711904D01*
X133611904Y-106664285D01*
X133421428Y-106664285D01*
X133326190Y-106711904D01*
X133278571Y-106759523D01*
X133230952Y-106854761D01*
X169632380Y-135858095D02*
X170441904Y-135858095D01*
X170537142Y-135810476D01*
X170584761Y-135762857D01*
X170632380Y-135667619D01*
X170632380Y-135477142D01*
X170584761Y-135381904D01*
X170537142Y-135334285D01*
X170441904Y-135286666D01*
X169632380Y-135286666D01*
X170632380Y-134286666D02*
X170632380Y-134858095D01*
X170632380Y-134572380D02*
X169632380Y-134572380D01*
X169775238Y-134667619D01*
X169870476Y-134762857D01*
X169918095Y-134858095D01*
X170632380Y-133810476D02*
X170632380Y-133620000D01*
X170584761Y-133524761D01*
X170537142Y-133477142D01*
X170394285Y-133381904D01*
X170203809Y-133334285D01*
X169822857Y-133334285D01*
X169727619Y-133381904D01*
X169680000Y-133429523D01*
X169632380Y-133524761D01*
X169632380Y-133715238D01*
X169680000Y-133810476D01*
X169727619Y-133858095D01*
X169822857Y-133905714D01*
X170060952Y-133905714D01*
X170156190Y-133858095D01*
X170203809Y-133810476D01*
X170251428Y-133715238D01*
X170251428Y-133524761D01*
X170203809Y-133429523D01*
X170156190Y-133381904D01*
X170060952Y-133334285D01*
X132802380Y-129508095D02*
X133611904Y-129508095D01*
X133707142Y-129460476D01*
X133754761Y-129412857D01*
X133802380Y-129317619D01*
X133802380Y-129127142D01*
X133754761Y-129031904D01*
X133707142Y-128984285D01*
X133611904Y-128936666D01*
X132802380Y-128936666D01*
X132897619Y-128508095D02*
X132850000Y-128460476D01*
X132802380Y-128365238D01*
X132802380Y-128127142D01*
X132850000Y-128031904D01*
X132897619Y-127984285D01*
X132992857Y-127936666D01*
X133088095Y-127936666D01*
X133230952Y-127984285D01*
X133802380Y-128555714D01*
X133802380Y-127936666D01*
X132802380Y-127317619D02*
X132802380Y-127222380D01*
X132850000Y-127127142D01*
X132897619Y-127079523D01*
X132992857Y-127031904D01*
X133183333Y-126984285D01*
X133421428Y-126984285D01*
X133611904Y-127031904D01*
X133707142Y-127079523D01*
X133754761Y-127127142D01*
X133802380Y-127222380D01*
X133802380Y-127317619D01*
X133754761Y-127412857D01*
X133707142Y-127460476D01*
X133611904Y-127508095D01*
X133421428Y-127555714D01*
X133183333Y-127555714D01*
X132992857Y-127508095D01*
X132897619Y-127460476D01*
X132850000Y-127412857D01*
X132802380Y-127317619D01*
X90892380Y-135858095D02*
X91701904Y-135858095D01*
X91797142Y-135810476D01*
X91844761Y-135762857D01*
X91892380Y-135667619D01*
X91892380Y-135477142D01*
X91844761Y-135381904D01*
X91797142Y-135334285D01*
X91701904Y-135286666D01*
X90892380Y-135286666D01*
X90987619Y-134858095D02*
X90940000Y-134810476D01*
X90892380Y-134715238D01*
X90892380Y-134477142D01*
X90940000Y-134381904D01*
X90987619Y-134334285D01*
X91082857Y-134286666D01*
X91178095Y-134286666D01*
X91320952Y-134334285D01*
X91892380Y-134905714D01*
X91892380Y-134286666D01*
X91892380Y-133334285D02*
X91892380Y-133905714D01*
X91892380Y-133620000D02*
X90892380Y-133620000D01*
X91035238Y-133715238D01*
X91130476Y-133810476D01*
X91178095Y-133905714D01*
X90892380Y-119348095D02*
X91701904Y-119348095D01*
X91797142Y-119300476D01*
X91844761Y-119252857D01*
X91892380Y-119157619D01*
X91892380Y-118967142D01*
X91844761Y-118871904D01*
X91797142Y-118824285D01*
X91701904Y-118776666D01*
X90892380Y-118776666D01*
X90987619Y-118348095D02*
X90940000Y-118300476D01*
X90892380Y-118205238D01*
X90892380Y-117967142D01*
X90940000Y-117871904D01*
X90987619Y-117824285D01*
X91082857Y-117776666D01*
X91178095Y-117776666D01*
X91320952Y-117824285D01*
X91892380Y-118395714D01*
X91892380Y-117776666D01*
X90987619Y-117395714D02*
X90940000Y-117348095D01*
X90892380Y-117252857D01*
X90892380Y-117014761D01*
X90940000Y-116919523D01*
X90987619Y-116871904D01*
X91082857Y-116824285D01*
X91178095Y-116824285D01*
X91320952Y-116871904D01*
X91892380Y-117443333D01*
X91892380Y-116824285D01*
X93432380Y-102838095D02*
X94241904Y-102838095D01*
X94337142Y-102790476D01*
X94384761Y-102742857D01*
X94432380Y-102647619D01*
X94432380Y-102457142D01*
X94384761Y-102361904D01*
X94337142Y-102314285D01*
X94241904Y-102266666D01*
X93432380Y-102266666D01*
X93527619Y-101838095D02*
X93480000Y-101790476D01*
X93432380Y-101695238D01*
X93432380Y-101457142D01*
X93480000Y-101361904D01*
X93527619Y-101314285D01*
X93622857Y-101266666D01*
X93718095Y-101266666D01*
X93860952Y-101314285D01*
X94432380Y-101885714D01*
X94432380Y-101266666D01*
X93432380Y-100933333D02*
X93432380Y-100314285D01*
X93813333Y-100647619D01*
X93813333Y-100504761D01*
X93860952Y-100409523D01*
X93908571Y-100361904D01*
X94003809Y-100314285D01*
X94241904Y-100314285D01*
X94337142Y-100361904D01*
X94384761Y-100409523D01*
X94432380Y-100504761D01*
X94432380Y-100790476D01*
X94384761Y-100885714D01*
X94337142Y-100933333D01*
M02*
