M48
; DRILL file {KiCad 5.1.5+dfsg1-2build2} date Thu 11 Feb 2021 10:51:25 GMT
; FORMAT={3:3/ absolute / metric / suppress leading zeros}
; #@! TF.CreationDate,2021-02-11T10:51:25+00:00
; #@! TF.GenerationSoftware,Kicad,Pcbnew,5.1.5+dfsg1-2build2
; #@! TF.FileFunction,Plated,1,2,PTH
FMAT,2
METRIC,TZ
T1C0.400
T2C0.800
T3C1.000
%
G90
G05
T1
X37725Y-89917
X38100Y-58200
X38100Y-66040
X39370Y-64770
X40640Y-62230
X40640Y-63500
X41148Y-141224
X41656Y-85852
X41910Y-60960
X41910Y-76200
X42153Y-68823
X42164Y-140716
X42500Y-77500
X42783Y-62399
X42783Y-70019
X42961Y-143254
X43946Y-143429
X45217Y-107635
X45720Y-95250
X46228Y-55372
X46736Y-120904
X47244Y-78740
X48260Y-102870
X48500Y-75000
X48500Y-93500
X49276Y-62992
X52832Y-107635
X52832Y-115824
X56022Y-106545
X56388Y-87775
X56388Y-115025
X57912Y-84836
X58420Y-95250
X59997Y-106545
X60978Y-115025
X61000Y-94500
X62230Y-97205
X62992Y-113284
X71628Y-69088
X74168Y-96520
X74900Y-74530
X75692Y-59944
X75692Y-96520
X77216Y-61468
X77216Y-97028
X79248Y-50800
X82804Y-84836
X83312Y-94725
X83820Y-50800
X85500Y-91500
X86000Y-96000
X87376Y-87775
X88392Y-105156
X89408Y-91948
X90170Y-72390
X90424Y-102616
X91440Y-77470
X92964Y-126492
X94488Y-75692
X96000Y-95000
X96280Y-136435
X97028Y-111180
X97390Y-58677
X97500Y-101000
X97790Y-77470
X98500Y-94000
X98848Y-76274
X99568Y-125476
X99750Y-77900
X100000Y-76000
X101092Y-128016
X101600Y-136361
X102000Y-76500
X102108Y-60960
X102108Y-110744
X102691Y-75136
X104500Y-84500
X104738Y-107537
X105156Y-111035
X107188Y-127000
X107500Y-74500
X107696Y-128524
X107696Y-136144
X107950Y-69850
X107950Y-77625
X108204Y-86360
X109500Y-62500
X110236Y-119888
X110236Y-140557
X110585Y-107029
X110744Y-127799
X111760Y-101600
X111863Y-111180
X113000Y-77000
X115025Y-78380
X115500Y-73000
X116840Y-78523
X117026Y-67056
X117420Y-69305
X118364Y-59944
X119380Y-54864
X119380Y-93275
X119888Y-58420
X121412Y-92375
X121412Y-132080
X121920Y-89916
X122428Y-114300
X129540Y-62484
X130048Y-70104
X132588Y-112268
X133096Y-74676
X133096Y-98552
X134112Y-126275
X137160Y-83820
X138176Y-118364
X138684Y-68580
X138684Y-109728
X138695Y-88210
X139700Y-140557
X140208Y-68580
X140716Y-79248
X140716Y-130048
X141224Y-86868
X141500Y-127000
X142240Y-83820
X142748Y-68580
X143764Y-101020
X144049Y-75983
X145075Y-138481
X145288Y-66040
X145796Y-120396
X146050Y-83820
X146853Y-91275
X147320Y-67056
X147821Y-141007
X147828Y-113792
X148590Y-89538
X148844Y-76708
X149860Y-137160
X149860Y-139700
X150368Y-68072
X150876Y-114300
X154940Y-85090
X156210Y-132080
X157480Y-101600
X158500Y-95500
X158500Y-96775
X159500Y-115000
X160287Y-143118
X161036Y-123952
X161544Y-70104
X162000Y-111500
X163068Y-95504
X163500Y-98000
X164500Y-72000
X164500Y-112000
X165500Y-84500
X167640Y-97790
X167640Y-100330
X167640Y-102870
X169672Y-122936
X169672Y-127000
X170180Y-104140
X170517Y-93818
X172720Y-109945
X173791Y-99377
X173990Y-53340
X175768Y-78090
X176675Y-109837
X177292Y-127508
X178037Y-93625
X179832Y-62484
X179832Y-112776
X180848Y-95504
X181065Y-110737
X182372Y-101600
X182880Y-51435
X183388Y-118872
X197104Y-94996
X198120Y-68072
X198500Y-112000
X199000Y-116500
X199136Y-97390
X200152Y-69088
X201676Y-70612
X201708Y-107260
X203200Y-105664
X203644Y-108832
X203708Y-112776
X204216Y-71628
X205733Y-93255
X206756Y-97390
X207010Y-49530
X207010Y-59690
X207264Y-122428
X207500Y-91000
X208788Y-95504
X209000Y-81500
X209296Y-117725
X210240Y-98480
X211836Y-92456
X212090Y-115910
X213360Y-73951
X213360Y-119380
X215900Y-68797
X216000Y-49500
X216408Y-92747
X217424Y-96520
X218500Y-46000
X218500Y-49500
X221488Y-67564
X221488Y-93472
X221525Y-95351
X221996Y-74676
X222975Y-65532
X223012Y-47244
X223012Y-117348
X223520Y-73660
X223520Y-90932
X224028Y-97028
X224028Y-123952
X224536Y-72353
X225044Y-142240
X225335Y-94626
X225480Y-70303
X226060Y-45720
X228092Y-121920
X228600Y-91948
X230124Y-142748
X231140Y-141224
X231648Y-48768
X232156Y-74168
X232156Y-97028
X233680Y-72390
X234188Y-96520
X234696Y-99568
X238760Y-45720
T2
X115570Y-50800
X115570Y-53300
X191770Y-133350
X191770Y-135850
X243840Y-54610
X251460Y-54610
X238760Y-129540
X238760Y-132040
X191770Y-83860
X191770Y-86360
X238760Y-81320
X238760Y-83820
X93980Y-114300
X93980Y-121920
X96520Y-114300
X96520Y-121920
X99060Y-114300
X99060Y-121920
X101600Y-114300
X101600Y-121920
X104140Y-114300
X104140Y-121920
X106680Y-114300
X106680Y-121920
X109220Y-114300
X109220Y-121920
X111760Y-114300
X111760Y-121920
X212090Y-78740
X212090Y-86360
X214630Y-78740
X214630Y-86360
X217170Y-78740
X217170Y-86360
X219710Y-78740
X219710Y-86360
X222250Y-78740
X222250Y-86360
X224790Y-78740
X224790Y-86360
X227330Y-78740
X227330Y-86360
X229870Y-78740
X229870Y-86360
X232410Y-78740
X232410Y-86360
X234950Y-78740
X234950Y-86360
X243840Y-67310
X251460Y-67310
X135890Y-104140
X135890Y-111760
X138430Y-104140
X138430Y-111760
X140970Y-104140
X140970Y-111760
X143510Y-104140
X143510Y-111760
X146050Y-104140
X146050Y-111760
X148590Y-104140
X148590Y-111760
X151130Y-104140
X151130Y-111760
X243840Y-86360
X251460Y-86360
X48260Y-91440
X48260Y-99060
X50800Y-91440
X50800Y-99060
X53340Y-91440
X53340Y-99060
X55880Y-91440
X55880Y-99060
X58420Y-91440
X58420Y-99060
X60960Y-91440
X60960Y-99060
X63500Y-91440
X63500Y-99060
X243840Y-57150
X251460Y-57150
X115500Y-100500
X115500Y-103000
X238760Y-57190
X238760Y-59690
X243840Y-110490
X251460Y-110490
X191770Y-67310
X191770Y-69810
X154940Y-76200
X154940Y-78700
X115570Y-83860
X115570Y-86360
X243840Y-102870
X251460Y-102870
X172720Y-81280
X172720Y-88900
X175260Y-81280
X175260Y-88900
X177800Y-81280
X177800Y-88900
X180340Y-81280
X180340Y-88900
X182880Y-81280
X182880Y-88900
X185420Y-81280
X185420Y-88900
X187960Y-81280
X187960Y-88900
X93980Y-130810
X93980Y-138430
X96520Y-130810
X96520Y-138430
X99060Y-130810
X99060Y-138430
X101600Y-130810
X101600Y-138430
X104140Y-130810
X104140Y-138430
X106680Y-130810
X106680Y-138430
X109220Y-130810
X109220Y-138430
X111760Y-130810
X111760Y-138430
X172720Y-64770
X172720Y-72390
X175260Y-64770
X175260Y-72390
X177800Y-64770
X177800Y-72390
X180340Y-64770
X180340Y-72390
X182880Y-64770
X182880Y-72390
X185420Y-64770
X185420Y-72390
X187960Y-64770
X187960Y-72390
X243840Y-96520
X251460Y-96520
X212090Y-127000
X212090Y-134620
X214630Y-127000
X214630Y-134620
X217170Y-127000
X217170Y-134620
X219710Y-127000
X219710Y-134620
X222250Y-127000
X222250Y-134620
X224790Y-127000
X224790Y-134620
X227330Y-127000
X227330Y-134620
X229870Y-127000
X229870Y-134620
X232410Y-127000
X232410Y-134620
X234950Y-127000
X234950Y-134620
X243840Y-88900
X251460Y-88900
X243840Y-83820
X251460Y-83820
X93980Y-64770
X93980Y-72390
X96520Y-64770
X96520Y-72390
X99060Y-64770
X99060Y-72390
X101600Y-64770
X101600Y-72390
X104140Y-64770
X104140Y-72390
X106680Y-64770
X106680Y-72390
X109220Y-64770
X109220Y-72390
X111760Y-64770
X111760Y-72390
X154940Y-57190
X154940Y-59690
X243840Y-129540
X251460Y-129540
X48260Y-129540
X48260Y-137160
X50800Y-129540
X50800Y-137160
X53340Y-129540
X53340Y-137160
X55880Y-129540
X55880Y-137160
X58420Y-129540
X58420Y-137160
X60960Y-129540
X60960Y-137160
X63500Y-129540
X63500Y-137160
X48260Y-110490
X48260Y-118110
X50800Y-110490
X50800Y-118110
X53340Y-110490
X53340Y-118110
X55880Y-110490
X55880Y-118110
X58420Y-110490
X58420Y-118110
X60960Y-110490
X60960Y-118110
X63500Y-110490
X63500Y-118110
X172720Y-48260
X172720Y-55880
X175260Y-48260
X175260Y-55880
X177800Y-48260
X177800Y-55880
X180340Y-48260
X180340Y-55880
X182880Y-48260
X182880Y-55880
X185420Y-48260
X185420Y-55880
X187960Y-48260
X187960Y-55880
X243840Y-120650
X251460Y-120650
X172720Y-130810
X172720Y-138430
X175260Y-130810
X175260Y-138430
X177800Y-130810
X177800Y-138430
X180340Y-130810
X180340Y-138430
X182880Y-130810
X182880Y-138430
X185420Y-130810
X185420Y-138430
X187960Y-130810
X187960Y-138430
X243840Y-59690
X251460Y-59690
X243840Y-62230
X251460Y-62230
X96520Y-48260
X96520Y-55880
X99060Y-48260
X99060Y-55880
X101600Y-48260
X101600Y-55880
X104140Y-48260
X104140Y-55880
X106680Y-48260
X106680Y-55880
X109220Y-48260
X109220Y-55880
X111760Y-48260
X111760Y-55880
X243840Y-64770
X251460Y-64770
X243840Y-72390
X251460Y-72390
X243840Y-115570
X251460Y-115570
X243840Y-107950
X251460Y-107950
X172720Y-114300
X172720Y-121920
X175260Y-114300
X175260Y-121920
X177800Y-114300
X177800Y-121920
X180340Y-114300
X180340Y-121920
X182880Y-114300
X182880Y-121920
X185420Y-114300
X185420Y-121920
X187960Y-114300
X187960Y-121920
X243840Y-81280
X251460Y-81280
X135890Y-124460
X135890Y-132080
X138430Y-124460
X138430Y-132080
X140970Y-124460
X140970Y-132080
X143510Y-124460
X143510Y-132080
X146050Y-124460
X146050Y-132080
X148590Y-124460
X148590Y-132080
X151130Y-124460
X151130Y-132080
X115570Y-67350
X115570Y-69850
X243840Y-127000
X251460Y-127000
X243840Y-93980
X251460Y-93980
X67310Y-94020
X67310Y-96520
X238760Y-105450
X238760Y-107950
X67310Y-132120
X67310Y-134620
X191770Y-100370
X191770Y-102870
X115570Y-133000
X115570Y-135500
X212090Y-102870
X212090Y-110490
X214630Y-102870
X214630Y-110490
X217170Y-102870
X217170Y-110490
X219710Y-102870
X219710Y-110490
X222250Y-102870
X222250Y-110490
X224790Y-102870
X224790Y-110490
X227330Y-102870
X227330Y-110490
X229870Y-102870
X229870Y-110490
X232410Y-102870
X232410Y-110490
X234950Y-102870
X234950Y-110490
X243840Y-69850
X251460Y-69850
X172720Y-97790
X172720Y-105410
X175260Y-97790
X175260Y-105410
X177800Y-97790
X177800Y-105410
X180340Y-97790
X180340Y-105410
X182880Y-97790
X182880Y-105410
X185420Y-97790
X185420Y-105410
X187960Y-97790
X187960Y-105410
X191770Y-50840
X191770Y-53340
X243840Y-118110
X251460Y-118110
X93980Y-81280
X93980Y-88900
X96520Y-81280
X96520Y-88900
X99060Y-81280
X99060Y-88900
X101600Y-81280
X101600Y-88900
X104140Y-81280
X104140Y-88900
X106680Y-81280
X106680Y-88900
X109220Y-81280
X109220Y-88900
X111760Y-81280
X111760Y-88900
X115570Y-116880
X115570Y-119380
X243840Y-113030
X251460Y-113030
X243840Y-91440
X251460Y-91440
X154940Y-127040
X154940Y-129540
X67310Y-113070
X67310Y-115570
X135890Y-54610
X135890Y-62230
X138430Y-54610
X138430Y-62230
X140970Y-54610
X140970Y-62230
X143510Y-54610
X143510Y-62230
X146050Y-54610
X146050Y-62230
X148590Y-54610
X148590Y-62230
X151130Y-54610
X151130Y-62230
X135890Y-73660
X135890Y-81280
X138430Y-73660
X138430Y-81280
X140970Y-73660
X140970Y-81280
X143510Y-73660
X143510Y-81280
X146050Y-73660
X146050Y-81280
X148590Y-73660
X148590Y-81280
X151130Y-73660
X151130Y-81280
X243840Y-105410
X251460Y-105410
X96520Y-97790
X96520Y-105410
X99060Y-97790
X99060Y-105410
X101600Y-97790
X101600Y-105410
X104140Y-97790
X104140Y-105410
X106680Y-97790
X106680Y-105410
X109220Y-97790
X109220Y-105410
X111760Y-97790
X111760Y-105410
X212090Y-54610
X212090Y-62230
X214630Y-54610
X214630Y-62230
X217170Y-54610
X217170Y-62230
X219710Y-54610
X219710Y-62230
X222250Y-54610
X222250Y-62230
X224790Y-54610
X224790Y-62230
X227330Y-54610
X227330Y-62230
X229870Y-54610
X229870Y-62230
X232410Y-54610
X232410Y-62230
X234950Y-54610
X234950Y-62230
X243840Y-78740
X251460Y-78740
X154940Y-106680
X154940Y-109180
X191770Y-116840
X191770Y-119340
T3
X255270Y-102870
X255270Y-105410
X255270Y-107950
X255270Y-110490
X255270Y-113030
X255270Y-115570
X255270Y-118110
X255270Y-120650
X255270Y-123190
X71628Y-64008
X71628Y-66548
X71628Y-69088
X55880Y-64770
X55880Y-67310
X31750Y-56515
X31750Y-59055
X31750Y-61595
X31750Y-64135
X31750Y-66675
X31750Y-69215
X31750Y-71755
X31750Y-74295
X31750Y-76835
X31750Y-79375
X31750Y-81915
X31750Y-84455
X31750Y-86995
X31750Y-89535
X31750Y-92075
X31750Y-94615
X31750Y-97155
X31750Y-99695
X31750Y-102235
X31750Y-104775
X31750Y-107315
X31750Y-109855
X31750Y-112395
X31750Y-114935
X31750Y-117475
X31750Y-120015
X31750Y-122555
X31750Y-125095
X31750Y-127635
X31750Y-130175
X34290Y-56515
X34290Y-59055
X34290Y-61595
X34290Y-64135
X34290Y-66675
X34290Y-69215
X34290Y-71755
X34290Y-74295
X34290Y-76835
X34290Y-79375
X34290Y-81915
X34290Y-84455
X34290Y-86995
X34290Y-89535
X34290Y-92075
X34290Y-94615
X34290Y-97155
X34290Y-99695
X34290Y-102235
X34290Y-104775
X34290Y-107315
X34290Y-109855
X34290Y-112395
X34290Y-114935
X34290Y-117475
X34290Y-120015
X34290Y-122555
X34290Y-125095
X34290Y-127635
X34290Y-130175
X255270Y-54610
X255270Y-57150
X255270Y-59690
X255270Y-62230
X255270Y-64770
X255270Y-67310
X255270Y-69850
X255270Y-72390
X255270Y-74930
X255270Y-78740
X255270Y-81280
X255270Y-83820
X255270Y-86360
X255270Y-88900
X255270Y-91440
X255270Y-93980
X255270Y-96520
X255270Y-99060
X255270Y-127000
X255270Y-129540
X255270Y-132080
T0
M30
