G04 #@! TF.GenerationSoftware,KiCad,Pcbnew,5.1.5+dfsg1-2build2*
G04 #@! TF.CreationDate,2021-02-11T10:57:50+00:00*
G04 #@! TF.ProjectId,memory,6d656d6f-7279-42e6-9b69-6361645f7063,rev?*
G04 #@! TF.SameCoordinates,Original*
G04 #@! TF.FileFunction,Legend,Top*
G04 #@! TF.FilePolarity,Positive*
%FSLAX46Y46*%
G04 Gerber Fmt 4.6, Leading zero omitted, Abs format (unit mm)*
G04 Created by KiCad (PCBNEW 5.1.5+dfsg1-2build2) date 2021-02-11 10:57:50*
%MOMM*%
%LPD*%
G04 APERTURE LIST*
%ADD10C,0.150000*%
%ADD11C,0.120000*%
%ADD12C,0.300000*%
G04 APERTURE END LIST*
D10*
X246546666Y-97940476D02*
X246546666Y-97464285D01*
X246832380Y-98035714D02*
X245832380Y-97702380D01*
X246832380Y-97369047D01*
X246832380Y-96607142D02*
X245832380Y-96607142D01*
X246784761Y-96607142D02*
X246832380Y-96702380D01*
X246832380Y-96892857D01*
X246784761Y-96988095D01*
X246737142Y-97035714D01*
X246641904Y-97083333D01*
X246356190Y-97083333D01*
X246260952Y-97035714D01*
X246213333Y-96988095D01*
X246165714Y-96892857D01*
X246165714Y-96702380D01*
X246213333Y-96607142D01*
X246832380Y-95702380D02*
X245832380Y-95702380D01*
X246784761Y-95702380D02*
X246832380Y-95797619D01*
X246832380Y-95988095D01*
X246784761Y-96083333D01*
X246737142Y-96130952D01*
X246641904Y-96178571D01*
X246356190Y-96178571D01*
X246260952Y-96130952D01*
X246213333Y-96083333D01*
X246165714Y-95988095D01*
X246165714Y-95797619D01*
X246213333Y-95702380D01*
X246832380Y-95226190D02*
X246165714Y-95226190D01*
X246356190Y-95226190D02*
X246260952Y-95178571D01*
X246213333Y-95130952D01*
X246165714Y-95035714D01*
X246165714Y-94940476D01*
X246784761Y-94226190D02*
X246832380Y-94321428D01*
X246832380Y-94511904D01*
X246784761Y-94607142D01*
X246689523Y-94654761D01*
X246308571Y-94654761D01*
X246213333Y-94607142D01*
X246165714Y-94511904D01*
X246165714Y-94321428D01*
X246213333Y-94226190D01*
X246308571Y-94178571D01*
X246403809Y-94178571D01*
X246499047Y-94654761D01*
X246784761Y-93797619D02*
X246832380Y-93702380D01*
X246832380Y-93511904D01*
X246784761Y-93416666D01*
X246689523Y-93369047D01*
X246641904Y-93369047D01*
X246546666Y-93416666D01*
X246499047Y-93511904D01*
X246499047Y-93654761D01*
X246451428Y-93750000D01*
X246356190Y-93797619D01*
X246308571Y-93797619D01*
X246213333Y-93750000D01*
X246165714Y-93654761D01*
X246165714Y-93511904D01*
X246213333Y-93416666D01*
X246784761Y-92988095D02*
X246832380Y-92892857D01*
X246832380Y-92702380D01*
X246784761Y-92607142D01*
X246689523Y-92559523D01*
X246641904Y-92559523D01*
X246546666Y-92607142D01*
X246499047Y-92702380D01*
X246499047Y-92845238D01*
X246451428Y-92940476D01*
X246356190Y-92988095D01*
X246308571Y-92988095D01*
X246213333Y-92940476D01*
X246165714Y-92845238D01*
X246165714Y-92702380D01*
X246213333Y-92607142D01*
X246308571Y-50315714D02*
X246356190Y-50172857D01*
X246403809Y-50125238D01*
X246499047Y-50077619D01*
X246641904Y-50077619D01*
X246737142Y-50125238D01*
X246784761Y-50172857D01*
X246832380Y-50268095D01*
X246832380Y-50649047D01*
X245832380Y-50649047D01*
X245832380Y-50315714D01*
X245880000Y-50220476D01*
X245927619Y-50172857D01*
X246022857Y-50125238D01*
X246118095Y-50125238D01*
X246213333Y-50172857D01*
X246260952Y-50220476D01*
X246308571Y-50315714D01*
X246308571Y-50649047D01*
X246165714Y-49220476D02*
X246832380Y-49220476D01*
X246165714Y-49649047D02*
X246689523Y-49649047D01*
X246784761Y-49601428D01*
X246832380Y-49506190D01*
X246832380Y-49363333D01*
X246784761Y-49268095D01*
X246737142Y-49220476D01*
X246784761Y-48791904D02*
X246832380Y-48696666D01*
X246832380Y-48506190D01*
X246784761Y-48410952D01*
X246689523Y-48363333D01*
X246641904Y-48363333D01*
X246546666Y-48410952D01*
X246499047Y-48506190D01*
X246499047Y-48649047D01*
X246451428Y-48744285D01*
X246356190Y-48791904D01*
X246308571Y-48791904D01*
X246213333Y-48744285D01*
X246165714Y-48649047D01*
X246165714Y-48506190D01*
X246213333Y-48410952D01*
D11*
X160020000Y-133350000D02*
X208280000Y-133350000D01*
X160020000Y-74930000D02*
X208280000Y-74930000D01*
D10*
X47894761Y-112457142D02*
X46942380Y-113123809D01*
X47894761Y-113600000D02*
X45894761Y-113600000D01*
X45894761Y-112838095D01*
X45990000Y-112647619D01*
X46085238Y-112552380D01*
X46275714Y-112457142D01*
X46561428Y-112457142D01*
X46751904Y-112552380D01*
X46847142Y-112647619D01*
X46942380Y-112838095D01*
X46942380Y-113600000D01*
X45894761Y-111219047D02*
X45894761Y-110838095D01*
X45990000Y-110647619D01*
X46180476Y-110457142D01*
X46561428Y-110361904D01*
X47228095Y-110361904D01*
X47609047Y-110457142D01*
X47799523Y-110647619D01*
X47894761Y-110838095D01*
X47894761Y-111219047D01*
X47799523Y-111409523D01*
X47609047Y-111600000D01*
X47228095Y-111695238D01*
X46561428Y-111695238D01*
X46180476Y-111600000D01*
X45990000Y-111409523D01*
X45894761Y-111219047D01*
X47894761Y-109504761D02*
X45894761Y-109504761D01*
X47323333Y-108838095D01*
X45894761Y-108171428D01*
X47894761Y-108171428D01*
X45799523Y-105790476D02*
X48370952Y-107504761D01*
X47894761Y-103980952D02*
X46942380Y-104647619D01*
X47894761Y-105123809D02*
X45894761Y-105123809D01*
X45894761Y-104361904D01*
X45990000Y-104171428D01*
X46085238Y-104076190D01*
X46275714Y-103980952D01*
X46561428Y-103980952D01*
X46751904Y-104076190D01*
X46847142Y-104171428D01*
X46942380Y-104361904D01*
X46942380Y-105123809D01*
X47323333Y-103219047D02*
X47323333Y-102266666D01*
X47894761Y-103409523D02*
X45894761Y-102742857D01*
X47894761Y-102076190D01*
X47894761Y-101409523D02*
X45894761Y-101409523D01*
X47323333Y-100742857D01*
X45894761Y-100076190D01*
X47894761Y-100076190D01*
X47799523Y-97695238D02*
X47894761Y-97504761D01*
X47894761Y-97123809D01*
X47799523Y-96933333D01*
X47609047Y-96838095D01*
X47513809Y-96838095D01*
X47323333Y-96933333D01*
X47228095Y-97123809D01*
X47228095Y-97409523D01*
X47132857Y-97600000D01*
X46942380Y-97695238D01*
X46847142Y-97695238D01*
X46656666Y-97600000D01*
X46561428Y-97409523D01*
X46561428Y-97123809D01*
X46656666Y-96933333D01*
X47799523Y-95219047D02*
X47894761Y-95409523D01*
X47894761Y-95790476D01*
X47799523Y-95980952D01*
X47609047Y-96076190D01*
X46847142Y-96076190D01*
X46656666Y-95980952D01*
X46561428Y-95790476D01*
X46561428Y-95409523D01*
X46656666Y-95219047D01*
X46847142Y-95123809D01*
X47037619Y-95123809D01*
X47228095Y-96076190D01*
X47894761Y-93980952D02*
X47799523Y-94171428D01*
X47609047Y-94266666D01*
X45894761Y-94266666D01*
X47799523Y-92457142D02*
X47894761Y-92647619D01*
X47894761Y-93028571D01*
X47799523Y-93219047D01*
X47609047Y-93314285D01*
X46847142Y-93314285D01*
X46656666Y-93219047D01*
X46561428Y-93028571D01*
X46561428Y-92647619D01*
X46656666Y-92457142D01*
X46847142Y-92361904D01*
X47037619Y-92361904D01*
X47228095Y-93314285D01*
X47799523Y-90647619D02*
X47894761Y-90838095D01*
X47894761Y-91219047D01*
X47799523Y-91409523D01*
X47704285Y-91504761D01*
X47513809Y-91600000D01*
X46942380Y-91600000D01*
X46751904Y-91504761D01*
X46656666Y-91409523D01*
X46561428Y-91219047D01*
X46561428Y-90838095D01*
X46656666Y-90647619D01*
X46561428Y-90076190D02*
X46561428Y-89314285D01*
X45894761Y-89790476D02*
X47609047Y-89790476D01*
X47799523Y-89695238D01*
X47894761Y-89504761D01*
X47894761Y-89314285D01*
D11*
X49530000Y-121920000D02*
X49530000Y-81280000D01*
X74930000Y-121920000D02*
X49530000Y-121920000D01*
X74930000Y-81280000D02*
X74930000Y-121920000D01*
X49530000Y-81280000D02*
X74930000Y-81280000D01*
D12*
X254607142Y-106797142D02*
X254678571Y-106582857D01*
X254678571Y-106225714D01*
X254607142Y-106082857D01*
X254535714Y-106011428D01*
X254392857Y-105940000D01*
X254250000Y-105940000D01*
X254107142Y-106011428D01*
X254035714Y-106082857D01*
X253964285Y-106225714D01*
X253892857Y-106511428D01*
X253821428Y-106654285D01*
X253750000Y-106725714D01*
X253607142Y-106797142D01*
X253464285Y-106797142D01*
X253321428Y-106725714D01*
X253250000Y-106654285D01*
X253178571Y-106511428D01*
X253178571Y-106154285D01*
X253250000Y-105940000D01*
X254535714Y-104440000D02*
X254607142Y-104511428D01*
X254678571Y-104725714D01*
X254678571Y-104868571D01*
X254607142Y-105082857D01*
X254464285Y-105225714D01*
X254321428Y-105297142D01*
X254035714Y-105368571D01*
X253821428Y-105368571D01*
X253535714Y-105297142D01*
X253392857Y-105225714D01*
X253250000Y-105082857D01*
X253178571Y-104868571D01*
X253178571Y-104725714D01*
X253250000Y-104511428D01*
X253321428Y-104440000D01*
X254250000Y-103868571D02*
X254250000Y-103154285D01*
X254678571Y-104011428D02*
X253178571Y-103511428D01*
X254678571Y-103011428D01*
X254678571Y-102511428D02*
X253178571Y-102511428D01*
X254250000Y-102011428D01*
X253178571Y-101511428D01*
X254678571Y-101511428D01*
X254678571Y-100797142D02*
X253178571Y-100797142D01*
X253178571Y-100225714D01*
X253250000Y-100082857D01*
X253321428Y-100011428D01*
X253464285Y-99940000D01*
X253678571Y-99940000D01*
X253821428Y-100011428D01*
X253892857Y-100082857D01*
X253964285Y-100225714D01*
X253964285Y-100797142D01*
X254678571Y-98154285D02*
X253178571Y-98154285D01*
X254250000Y-97654285D01*
X253178571Y-97154285D01*
X254678571Y-97154285D01*
X254607142Y-95868571D02*
X254678571Y-96011428D01*
X254678571Y-96297142D01*
X254607142Y-96440000D01*
X254464285Y-96511428D01*
X253892857Y-96511428D01*
X253750000Y-96440000D01*
X253678571Y-96297142D01*
X253678571Y-96011428D01*
X253750000Y-95868571D01*
X253892857Y-95797142D01*
X254035714Y-95797142D01*
X254178571Y-96511428D01*
X254678571Y-95154285D02*
X253678571Y-95154285D01*
X253821428Y-95154285D02*
X253750000Y-95082857D01*
X253678571Y-94940000D01*
X253678571Y-94725714D01*
X253750000Y-94582857D01*
X253892857Y-94511428D01*
X254678571Y-94511428D01*
X253892857Y-94511428D02*
X253750000Y-94440000D01*
X253678571Y-94297142D01*
X253678571Y-94082857D01*
X253750000Y-93940000D01*
X253892857Y-93868571D01*
X254678571Y-93868571D01*
X254678571Y-92940000D02*
X254607142Y-93082857D01*
X254535714Y-93154285D01*
X254392857Y-93225714D01*
X253964285Y-93225714D01*
X253821428Y-93154285D01*
X253750000Y-93082857D01*
X253678571Y-92940000D01*
X253678571Y-92725714D01*
X253750000Y-92582857D01*
X253821428Y-92511428D01*
X253964285Y-92440000D01*
X254392857Y-92440000D01*
X254535714Y-92511428D01*
X254607142Y-92582857D01*
X254678571Y-92725714D01*
X254678571Y-92940000D01*
X254678571Y-91797142D02*
X253678571Y-91797142D01*
X253964285Y-91797142D02*
X253821428Y-91725714D01*
X253750000Y-91654285D01*
X253678571Y-91511428D01*
X253678571Y-91368571D01*
X253678571Y-91011428D02*
X254678571Y-90654285D01*
X253678571Y-90297142D02*
X254678571Y-90654285D01*
X255035714Y-90797142D01*
X255107142Y-90868571D01*
X255178571Y-91011428D01*
X254535714Y-87725714D02*
X254607142Y-87797142D01*
X254678571Y-88011428D01*
X254678571Y-88154285D01*
X254607142Y-88368571D01*
X254464285Y-88511428D01*
X254321428Y-88582857D01*
X254035714Y-88654285D01*
X253821428Y-88654285D01*
X253535714Y-88582857D01*
X253392857Y-88511428D01*
X253250000Y-88368571D01*
X253178571Y-88154285D01*
X253178571Y-88011428D01*
X253250000Y-87797142D01*
X253321428Y-87725714D01*
X254678571Y-86440000D02*
X253892857Y-86440000D01*
X253750000Y-86511428D01*
X253678571Y-86654285D01*
X253678571Y-86940000D01*
X253750000Y-87082857D01*
X254607142Y-86440000D02*
X254678571Y-86582857D01*
X254678571Y-86940000D01*
X254607142Y-87082857D01*
X254464285Y-87154285D01*
X254321428Y-87154285D01*
X254178571Y-87082857D01*
X254107142Y-86940000D01*
X254107142Y-86582857D01*
X254035714Y-86440000D01*
X254678571Y-85725714D02*
X253678571Y-85725714D01*
X253964285Y-85725714D02*
X253821428Y-85654285D01*
X253750000Y-85582857D01*
X253678571Y-85440000D01*
X253678571Y-85297142D01*
X254678571Y-84154285D02*
X253178571Y-84154285D01*
X254607142Y-84154285D02*
X254678571Y-84297142D01*
X254678571Y-84582857D01*
X254607142Y-84725714D01*
X254535714Y-84797142D01*
X254392857Y-84868571D01*
X253964285Y-84868571D01*
X253821428Y-84797142D01*
X253750000Y-84725714D01*
X253678571Y-84582857D01*
X253678571Y-84297142D01*
X253750000Y-84154285D01*
X254678571Y-82297142D02*
X253178571Y-82297142D01*
X253750000Y-82297142D02*
X253678571Y-82154285D01*
X253678571Y-81868571D01*
X253750000Y-81725714D01*
X253821428Y-81654285D01*
X253964285Y-81582857D01*
X254392857Y-81582857D01*
X254535714Y-81654285D01*
X254607142Y-81725714D01*
X254678571Y-81868571D01*
X254678571Y-82154285D01*
X254607142Y-82297142D01*
X253678571Y-81082857D02*
X254678571Y-80725714D01*
X253678571Y-80368571D02*
X254678571Y-80725714D01*
X255035714Y-80868571D01*
X255107142Y-80940000D01*
X255178571Y-81082857D01*
X253678571Y-78654285D02*
X254964285Y-78654285D01*
X255107142Y-78725714D01*
X255178571Y-78868571D01*
X255178571Y-78940000D01*
X253178571Y-78654285D02*
X253250000Y-78725714D01*
X253321428Y-78654285D01*
X253250000Y-78582857D01*
X253178571Y-78654285D01*
X253321428Y-78654285D01*
X254607142Y-77368571D02*
X254678571Y-77511428D01*
X254678571Y-77797142D01*
X254607142Y-77940000D01*
X254464285Y-78011428D01*
X253892857Y-78011428D01*
X253750000Y-77940000D01*
X253678571Y-77797142D01*
X253678571Y-77511428D01*
X253750000Y-77368571D01*
X253892857Y-77297142D01*
X254035714Y-77297142D01*
X254178571Y-78011428D01*
X254607142Y-76725714D02*
X254678571Y-76582857D01*
X254678571Y-76297142D01*
X254607142Y-76154285D01*
X254464285Y-76082857D01*
X254392857Y-76082857D01*
X254250000Y-76154285D01*
X254178571Y-76297142D01*
X254178571Y-76511428D01*
X254107142Y-76654285D01*
X253964285Y-76725714D01*
X253892857Y-76725714D01*
X253750000Y-76654285D01*
X253678571Y-76511428D01*
X253678571Y-76297142D01*
X253750000Y-76154285D01*
D10*
X127028333Y-57450952D02*
X127028333Y-56498571D01*
X127599761Y-57641428D02*
X125599761Y-56974761D01*
X127599761Y-56308095D01*
X127599761Y-54784285D02*
X125599761Y-54784285D01*
X127504523Y-54784285D02*
X127599761Y-54974761D01*
X127599761Y-55355714D01*
X127504523Y-55546190D01*
X127409285Y-55641428D01*
X127218809Y-55736666D01*
X126647380Y-55736666D01*
X126456904Y-55641428D01*
X126361666Y-55546190D01*
X126266428Y-55355714D01*
X126266428Y-54974761D01*
X126361666Y-54784285D01*
X127599761Y-52974761D02*
X125599761Y-52974761D01*
X127504523Y-52974761D02*
X127599761Y-53165238D01*
X127599761Y-53546190D01*
X127504523Y-53736666D01*
X127409285Y-53831904D01*
X127218809Y-53927142D01*
X126647380Y-53927142D01*
X126456904Y-53831904D01*
X126361666Y-53736666D01*
X126266428Y-53546190D01*
X126266428Y-53165238D01*
X126361666Y-52974761D01*
X127599761Y-52022380D02*
X126266428Y-52022380D01*
X126647380Y-52022380D02*
X126456904Y-51927142D01*
X126361666Y-51831904D01*
X126266428Y-51641428D01*
X126266428Y-51450952D01*
X127504523Y-50022380D02*
X127599761Y-50212857D01*
X127599761Y-50593809D01*
X127504523Y-50784285D01*
X127314047Y-50879523D01*
X126552142Y-50879523D01*
X126361666Y-50784285D01*
X126266428Y-50593809D01*
X126266428Y-50212857D01*
X126361666Y-50022380D01*
X126552142Y-49927142D01*
X126742619Y-49927142D01*
X126933095Y-50879523D01*
X127504523Y-49165238D02*
X127599761Y-48974761D01*
X127599761Y-48593809D01*
X127504523Y-48403333D01*
X127314047Y-48308095D01*
X127218809Y-48308095D01*
X127028333Y-48403333D01*
X126933095Y-48593809D01*
X126933095Y-48879523D01*
X126837857Y-49070000D01*
X126647380Y-49165238D01*
X126552142Y-49165238D01*
X126361666Y-49070000D01*
X126266428Y-48879523D01*
X126266428Y-48593809D01*
X126361666Y-48403333D01*
X127504523Y-47546190D02*
X127599761Y-47355714D01*
X127599761Y-46974761D01*
X127504523Y-46784285D01*
X127314047Y-46689047D01*
X127218809Y-46689047D01*
X127028333Y-46784285D01*
X126933095Y-46974761D01*
X126933095Y-47260476D01*
X126837857Y-47450952D01*
X126647380Y-47546190D01*
X126552142Y-47546190D01*
X126361666Y-47450952D01*
X126266428Y-47260476D01*
X126266428Y-46974761D01*
X126361666Y-46784285D01*
X130749761Y-57308095D02*
X129416428Y-57308095D01*
X129797380Y-57308095D02*
X129606904Y-57212857D01*
X129511666Y-57117619D01*
X129416428Y-56927142D01*
X129416428Y-56736666D01*
X130654523Y-55308095D02*
X130749761Y-55498571D01*
X130749761Y-55879523D01*
X130654523Y-56070000D01*
X130464047Y-56165238D01*
X129702142Y-56165238D01*
X129511666Y-56070000D01*
X129416428Y-55879523D01*
X129416428Y-55498571D01*
X129511666Y-55308095D01*
X129702142Y-55212857D01*
X129892619Y-55212857D01*
X130083095Y-56165238D01*
X129416428Y-53498571D02*
X131035476Y-53498571D01*
X131225952Y-53593809D01*
X131321190Y-53689047D01*
X131416428Y-53879523D01*
X131416428Y-54165238D01*
X131321190Y-54355714D01*
X130654523Y-53498571D02*
X130749761Y-53689047D01*
X130749761Y-54070000D01*
X130654523Y-54260476D01*
X130559285Y-54355714D01*
X130368809Y-54450952D01*
X129797380Y-54450952D01*
X129606904Y-54355714D01*
X129511666Y-54260476D01*
X129416428Y-54070000D01*
X129416428Y-53689047D01*
X129511666Y-53498571D01*
X130749761Y-52546190D02*
X129416428Y-52546190D01*
X128749761Y-52546190D02*
X128845000Y-52641428D01*
X128940238Y-52546190D01*
X128845000Y-52450952D01*
X128749761Y-52546190D01*
X128940238Y-52546190D01*
X130654523Y-51689047D02*
X130749761Y-51498571D01*
X130749761Y-51117619D01*
X130654523Y-50927142D01*
X130464047Y-50831904D01*
X130368809Y-50831904D01*
X130178333Y-50927142D01*
X130083095Y-51117619D01*
X130083095Y-51403333D01*
X129987857Y-51593809D01*
X129797380Y-51689047D01*
X129702142Y-51689047D01*
X129511666Y-51593809D01*
X129416428Y-51403333D01*
X129416428Y-51117619D01*
X129511666Y-50927142D01*
X129416428Y-50260476D02*
X129416428Y-49498571D01*
X128749761Y-49974761D02*
X130464047Y-49974761D01*
X130654523Y-49879523D01*
X130749761Y-49689047D01*
X130749761Y-49498571D01*
X130654523Y-48070000D02*
X130749761Y-48260476D01*
X130749761Y-48641428D01*
X130654523Y-48831904D01*
X130464047Y-48927142D01*
X129702142Y-48927142D01*
X129511666Y-48831904D01*
X129416428Y-48641428D01*
X129416428Y-48260476D01*
X129511666Y-48070000D01*
X129702142Y-47974761D01*
X129892619Y-47974761D01*
X130083095Y-48927142D01*
X130749761Y-47117619D02*
X129416428Y-47117619D01*
X129797380Y-47117619D02*
X129606904Y-47022380D01*
X129511666Y-46927142D01*
X129416428Y-46736666D01*
X129416428Y-46546190D01*
D11*
X132080000Y-59690000D02*
X132080000Y-44450000D01*
X204470000Y-59690000D02*
X132080000Y-59690000D01*
X204470000Y-44450000D02*
X204470000Y-59690000D01*
X132080000Y-44450000D02*
X204470000Y-44450000D01*
D10*
X158384761Y-102980952D02*
X157432380Y-103647619D01*
X158384761Y-104123809D02*
X156384761Y-104123809D01*
X156384761Y-103361904D01*
X156480000Y-103171428D01*
X156575238Y-103076190D01*
X156765714Y-102980952D01*
X157051428Y-102980952D01*
X157241904Y-103076190D01*
X157337142Y-103171428D01*
X157432380Y-103361904D01*
X157432380Y-104123809D01*
X157813333Y-102219047D02*
X157813333Y-101266666D01*
X158384761Y-102409523D02*
X156384761Y-101742857D01*
X158384761Y-101076190D01*
X158384761Y-100409523D02*
X156384761Y-100409523D01*
X157813333Y-99742857D01*
X156384761Y-99076190D01*
X158384761Y-99076190D01*
D11*
X160020000Y-133350000D02*
X160020000Y-74930000D01*
X208280000Y-74930000D02*
X208280000Y-133350000D01*
D10*
X88534761Y-103171428D02*
X87582380Y-103838095D01*
X88534761Y-104314285D02*
X86534761Y-104314285D01*
X86534761Y-103552380D01*
X86630000Y-103361904D01*
X86725238Y-103266666D01*
X86915714Y-103171428D01*
X87201428Y-103171428D01*
X87391904Y-103266666D01*
X87487142Y-103361904D01*
X87582380Y-103552380D01*
X87582380Y-104314285D01*
X86534761Y-101933333D02*
X86534761Y-101552380D01*
X86630000Y-101361904D01*
X86820476Y-101171428D01*
X87201428Y-101076190D01*
X87868095Y-101076190D01*
X88249047Y-101171428D01*
X88439523Y-101361904D01*
X88534761Y-101552380D01*
X88534761Y-101933333D01*
X88439523Y-102123809D01*
X88249047Y-102314285D01*
X87868095Y-102409523D01*
X87201428Y-102409523D01*
X86820476Y-102314285D01*
X86630000Y-102123809D01*
X86534761Y-101933333D01*
X88534761Y-100219047D02*
X86534761Y-100219047D01*
X87963333Y-99552380D01*
X86534761Y-98885714D01*
X88534761Y-98885714D01*
D11*
X90170000Y-138430000D02*
X90170000Y-68580000D01*
X143510000Y-138430000D02*
X90170000Y-138430000D01*
X143510000Y-68580000D02*
X143510000Y-138430000D01*
X90170000Y-68580000D02*
X143510000Y-68580000D01*
X139700000Y-71120000D02*
X154940000Y-71120000D01*
X154940000Y-76200000D02*
X139700000Y-76200000D01*
X154940000Y-71120000D02*
X154940000Y-76200000D01*
X154940000Y-118110000D02*
X139700000Y-118110000D01*
X154940000Y-113030000D02*
X154940000Y-118110000D01*
X139700000Y-113030000D02*
X154940000Y-113030000D01*
X92710000Y-135890000D02*
X92710000Y-113030000D01*
X139700000Y-113030000D02*
X139700000Y-135890000D01*
X92710000Y-113030000D02*
X139700000Y-113030000D01*
X139700000Y-135890000D02*
X92710000Y-135890000D01*
X92710000Y-93980000D02*
X92710000Y-71120000D01*
X139700000Y-93980000D02*
X92710000Y-93980000D01*
X139700000Y-71120000D02*
X139700000Y-93980000D01*
X92710000Y-71120000D02*
X139700000Y-71120000D01*
X204590000Y-126730000D02*
G75*
G02X204590000Y-124730000I0J1000000D01*
G01*
X204590000Y-128500000D02*
X204590000Y-126730000D01*
X163710000Y-128500000D02*
X204590000Y-128500000D01*
X163710000Y-122960000D02*
X163710000Y-128500000D01*
X204590000Y-122960000D02*
X163710000Y-122960000D01*
X204590000Y-124730000D02*
X204590000Y-122960000D01*
X204590000Y-83550000D02*
G75*
G02X204590000Y-81550000I0J1000000D01*
G01*
X204590000Y-85320000D02*
X204590000Y-83550000D01*
X163710000Y-85320000D02*
X204590000Y-85320000D01*
X163710000Y-79780000D02*
X163710000Y-85320000D01*
X204590000Y-79780000D02*
X163710000Y-79780000D01*
X204590000Y-81550000D02*
X204590000Y-79780000D01*
X69970000Y-94040000D02*
X69970000Y-83760000D01*
X51950000Y-94040000D02*
X69970000Y-94040000D01*
X51950000Y-83760000D02*
X51950000Y-94040000D01*
X69970000Y-83760000D02*
X51950000Y-83760000D01*
X69910000Y-91550000D02*
X69910000Y-89900000D01*
X52010000Y-91550000D02*
X69910000Y-91550000D01*
X52010000Y-86250000D02*
X52010000Y-91550000D01*
X69910000Y-86250000D02*
X52010000Y-86250000D01*
X69910000Y-87900000D02*
X69910000Y-86250000D01*
X69910000Y-89900000D02*
G75*
G02X69910000Y-87900000I0J1000000D01*
G01*
X239490000Y-133450000D02*
X239490000Y-133120000D01*
X232950000Y-133450000D02*
X239490000Y-133450000D01*
X232950000Y-133120000D02*
X232950000Y-133450000D01*
X239490000Y-130710000D02*
X239490000Y-131040000D01*
X232950000Y-130710000D02*
X239490000Y-130710000D01*
X232950000Y-131040000D02*
X232950000Y-130710000D01*
X239490000Y-130910000D02*
X239490000Y-130580000D01*
X232950000Y-130910000D02*
X239490000Y-130910000D01*
X232950000Y-130580000D02*
X232950000Y-130910000D01*
X239490000Y-128170000D02*
X239490000Y-128500000D01*
X232950000Y-128170000D02*
X239490000Y-128170000D01*
X232950000Y-128500000D02*
X232950000Y-128170000D01*
X239490000Y-128370000D02*
X239490000Y-128040000D01*
X232950000Y-128370000D02*
X239490000Y-128370000D01*
X232950000Y-128040000D02*
X232950000Y-128370000D01*
X239490000Y-125630000D02*
X239490000Y-125960000D01*
X232950000Y-125630000D02*
X239490000Y-125630000D01*
X232950000Y-125960000D02*
X232950000Y-125630000D01*
X239490000Y-125830000D02*
X239490000Y-125500000D01*
X232950000Y-125830000D02*
X239490000Y-125830000D01*
X232950000Y-125500000D02*
X232950000Y-125830000D01*
X239490000Y-123090000D02*
X239490000Y-123420000D01*
X232950000Y-123090000D02*
X239490000Y-123090000D01*
X232950000Y-123420000D02*
X232950000Y-123090000D01*
X239490000Y-123290000D02*
X239490000Y-122960000D01*
X232950000Y-123290000D02*
X239490000Y-123290000D01*
X232950000Y-122960000D02*
X232950000Y-123290000D01*
X239490000Y-120550000D02*
X239490000Y-120880000D01*
X232950000Y-120550000D02*
X239490000Y-120550000D01*
X232950000Y-120880000D02*
X232950000Y-120550000D01*
X239490000Y-120750000D02*
X239490000Y-120420000D01*
X232950000Y-120750000D02*
X239490000Y-120750000D01*
X232950000Y-120420000D02*
X232950000Y-120750000D01*
X239490000Y-118010000D02*
X239490000Y-118340000D01*
X232950000Y-118010000D02*
X239490000Y-118010000D01*
X232950000Y-118340000D02*
X232950000Y-118010000D01*
X239490000Y-118210000D02*
X239490000Y-117880000D01*
X232950000Y-118210000D02*
X239490000Y-118210000D01*
X232950000Y-117880000D02*
X232950000Y-118210000D01*
X239490000Y-115470000D02*
X239490000Y-115800000D01*
X232950000Y-115470000D02*
X239490000Y-115470000D01*
X232950000Y-115800000D02*
X232950000Y-115470000D01*
X239490000Y-115670000D02*
X239490000Y-115340000D01*
X232950000Y-115670000D02*
X239490000Y-115670000D01*
X232950000Y-115340000D02*
X232950000Y-115670000D01*
X239490000Y-112930000D02*
X239490000Y-113260000D01*
X232950000Y-112930000D02*
X239490000Y-112930000D01*
X232950000Y-113260000D02*
X232950000Y-112930000D01*
X239490000Y-113130000D02*
X239490000Y-112800000D01*
X232950000Y-113130000D02*
X239490000Y-113130000D01*
X232950000Y-112800000D02*
X232950000Y-113130000D01*
X239490000Y-110390000D02*
X239490000Y-110720000D01*
X232950000Y-110390000D02*
X239490000Y-110390000D01*
X232950000Y-110720000D02*
X232950000Y-110390000D01*
X239490000Y-110590000D02*
X239490000Y-110260000D01*
X232950000Y-110590000D02*
X239490000Y-110590000D01*
X232950000Y-110260000D02*
X232950000Y-110590000D01*
X239490000Y-107850000D02*
X239490000Y-108180000D01*
X232950000Y-107850000D02*
X239490000Y-107850000D01*
X232950000Y-108180000D02*
X232950000Y-107850000D01*
X239490000Y-108050000D02*
X239490000Y-107720000D01*
X232950000Y-108050000D02*
X239490000Y-108050000D01*
X232950000Y-107720000D02*
X232950000Y-108050000D01*
X239490000Y-105310000D02*
X239490000Y-105640000D01*
X232950000Y-105310000D02*
X239490000Y-105310000D01*
X232950000Y-105640000D02*
X232950000Y-105310000D01*
X239490000Y-105510000D02*
X239490000Y-105180000D01*
X232950000Y-105510000D02*
X239490000Y-105510000D01*
X232950000Y-105180000D02*
X232950000Y-105510000D01*
X239490000Y-102770000D02*
X239490000Y-103100000D01*
X232950000Y-102770000D02*
X239490000Y-102770000D01*
X232950000Y-103100000D02*
X232950000Y-102770000D01*
X239490000Y-102970000D02*
X239490000Y-102640000D01*
X232950000Y-102970000D02*
X239490000Y-102970000D01*
X232950000Y-102640000D02*
X232950000Y-102970000D01*
X239490000Y-100230000D02*
X239490000Y-100560000D01*
X232950000Y-100230000D02*
X239490000Y-100230000D01*
X232950000Y-100560000D02*
X232950000Y-100230000D01*
X239490000Y-100430000D02*
X239490000Y-100100000D01*
X232950000Y-100430000D02*
X239490000Y-100430000D01*
X232950000Y-100100000D02*
X232950000Y-100430000D01*
X239490000Y-97690000D02*
X239490000Y-98020000D01*
X232950000Y-97690000D02*
X239490000Y-97690000D01*
X232950000Y-98020000D02*
X232950000Y-97690000D01*
X239490000Y-97890000D02*
X239490000Y-97560000D01*
X232950000Y-97890000D02*
X239490000Y-97890000D01*
X232950000Y-97560000D02*
X232950000Y-97890000D01*
X239490000Y-95150000D02*
X239490000Y-95480000D01*
X232950000Y-95150000D02*
X239490000Y-95150000D01*
X232950000Y-95480000D02*
X232950000Y-95150000D01*
X239490000Y-95350000D02*
X239490000Y-95020000D01*
X232950000Y-95350000D02*
X239490000Y-95350000D01*
X232950000Y-95020000D02*
X232950000Y-95350000D01*
X239490000Y-92610000D02*
X239490000Y-92940000D01*
X232950000Y-92610000D02*
X239490000Y-92610000D01*
X232950000Y-92940000D02*
X232950000Y-92610000D01*
X239490000Y-89000000D02*
X239490000Y-88670000D01*
X232950000Y-89000000D02*
X239490000Y-89000000D01*
X232950000Y-88670000D02*
X232950000Y-89000000D01*
X239490000Y-86260000D02*
X239490000Y-86590000D01*
X232950000Y-86260000D02*
X239490000Y-86260000D01*
X232950000Y-86590000D02*
X232950000Y-86260000D01*
X239490000Y-86460000D02*
X239490000Y-86130000D01*
X232950000Y-86460000D02*
X239490000Y-86460000D01*
X232950000Y-86130000D02*
X232950000Y-86460000D01*
X239490000Y-83720000D02*
X239490000Y-84050000D01*
X232950000Y-83720000D02*
X239490000Y-83720000D01*
X232950000Y-84050000D02*
X232950000Y-83720000D01*
X239490000Y-83920000D02*
X239490000Y-83590000D01*
X232950000Y-83920000D02*
X239490000Y-83920000D01*
X232950000Y-83590000D02*
X232950000Y-83920000D01*
X239490000Y-81180000D02*
X239490000Y-81510000D01*
X232950000Y-81180000D02*
X239490000Y-81180000D01*
X232950000Y-81510000D02*
X232950000Y-81180000D01*
X239490000Y-81380000D02*
X239490000Y-81050000D01*
X232950000Y-81380000D02*
X239490000Y-81380000D01*
X232950000Y-81050000D02*
X232950000Y-81380000D01*
X239490000Y-78640000D02*
X239490000Y-78970000D01*
X232950000Y-78640000D02*
X239490000Y-78640000D01*
X232950000Y-78970000D02*
X232950000Y-78640000D01*
X239490000Y-78840000D02*
X239490000Y-78510000D01*
X232950000Y-78840000D02*
X239490000Y-78840000D01*
X232950000Y-78510000D02*
X232950000Y-78840000D01*
X239490000Y-76100000D02*
X239490000Y-76430000D01*
X232950000Y-76100000D02*
X239490000Y-76100000D01*
X232950000Y-76430000D02*
X232950000Y-76100000D01*
X239490000Y-76300000D02*
X239490000Y-75970000D01*
X232950000Y-76300000D02*
X239490000Y-76300000D01*
X232950000Y-75970000D02*
X232950000Y-76300000D01*
X239490000Y-73560000D02*
X239490000Y-73890000D01*
X232950000Y-73560000D02*
X239490000Y-73560000D01*
X232950000Y-73890000D02*
X232950000Y-73560000D01*
X239490000Y-73760000D02*
X239490000Y-73430000D01*
X232950000Y-73760000D02*
X239490000Y-73760000D01*
X232950000Y-73430000D02*
X232950000Y-73760000D01*
X239490000Y-71020000D02*
X239490000Y-71350000D01*
X232950000Y-71020000D02*
X239490000Y-71020000D01*
X232950000Y-71350000D02*
X232950000Y-71020000D01*
X239490000Y-71220000D02*
X239490000Y-70890000D01*
X232950000Y-71220000D02*
X239490000Y-71220000D01*
X232950000Y-70890000D02*
X232950000Y-71220000D01*
X239490000Y-68480000D02*
X239490000Y-68810000D01*
X232950000Y-68480000D02*
X239490000Y-68480000D01*
X232950000Y-68810000D02*
X232950000Y-68480000D01*
X239490000Y-68680000D02*
X239490000Y-68350000D01*
X232950000Y-68680000D02*
X239490000Y-68680000D01*
X232950000Y-68350000D02*
X232950000Y-68680000D01*
X239490000Y-65940000D02*
X239490000Y-66270000D01*
X232950000Y-65940000D02*
X239490000Y-65940000D01*
X232950000Y-66270000D02*
X232950000Y-65940000D01*
X239490000Y-66140000D02*
X239490000Y-65810000D01*
X232950000Y-66140000D02*
X239490000Y-66140000D01*
X232950000Y-65810000D02*
X232950000Y-66140000D01*
X239490000Y-63400000D02*
X239490000Y-63730000D01*
X232950000Y-63400000D02*
X239490000Y-63400000D01*
X232950000Y-63730000D02*
X232950000Y-63400000D01*
X239490000Y-63600000D02*
X239490000Y-63270000D01*
X232950000Y-63600000D02*
X239490000Y-63600000D01*
X232950000Y-63270000D02*
X232950000Y-63600000D01*
X239490000Y-60860000D02*
X239490000Y-61190000D01*
X232950000Y-60860000D02*
X239490000Y-60860000D01*
X232950000Y-61190000D02*
X232950000Y-60860000D01*
X239490000Y-61060000D02*
X239490000Y-60730000D01*
X232950000Y-61060000D02*
X239490000Y-61060000D01*
X232950000Y-60730000D02*
X232950000Y-61060000D01*
X239490000Y-58320000D02*
X239490000Y-58650000D01*
X232950000Y-58320000D02*
X239490000Y-58320000D01*
X232950000Y-58650000D02*
X232950000Y-58320000D01*
X239490000Y-58520000D02*
X239490000Y-58190000D01*
X232950000Y-58520000D02*
X239490000Y-58520000D01*
X232950000Y-58190000D02*
X232950000Y-58520000D01*
X239490000Y-55780000D02*
X239490000Y-56110000D01*
X232950000Y-55780000D02*
X239490000Y-55780000D01*
X232950000Y-56110000D02*
X232950000Y-55780000D01*
X239490000Y-55980000D02*
X239490000Y-55650000D01*
X232950000Y-55980000D02*
X239490000Y-55980000D01*
X232950000Y-55650000D02*
X232950000Y-55980000D01*
X239490000Y-53240000D02*
X239490000Y-53570000D01*
X232950000Y-53240000D02*
X239490000Y-53240000D01*
X232950000Y-53570000D02*
X232950000Y-53240000D01*
X239490000Y-53440000D02*
X239490000Y-53110000D01*
X232950000Y-53440000D02*
X239490000Y-53440000D01*
X232950000Y-53110000D02*
X232950000Y-53440000D01*
X239490000Y-50700000D02*
X239490000Y-51030000D01*
X232950000Y-50700000D02*
X239490000Y-50700000D01*
X232950000Y-51030000D02*
X232950000Y-50700000D01*
X239490000Y-50900000D02*
X239490000Y-50570000D01*
X232950000Y-50900000D02*
X239490000Y-50900000D01*
X232950000Y-50570000D02*
X232950000Y-50900000D01*
X239490000Y-48160000D02*
X239490000Y-48490000D01*
X232950000Y-48160000D02*
X239490000Y-48160000D01*
X232950000Y-48490000D02*
X232950000Y-48160000D01*
X129660000Y-133410000D02*
X129660000Y-115510000D01*
X98940000Y-133410000D02*
X129660000Y-133410000D01*
X98940000Y-115510000D02*
X98940000Y-133410000D01*
X129660000Y-115510000D02*
X98940000Y-115510000D01*
X129600000Y-130920000D02*
X129600000Y-125460000D01*
X99000000Y-130920000D02*
X129600000Y-130920000D01*
X99000000Y-118000000D02*
X99000000Y-130920000D01*
X129600000Y-118000000D02*
X99000000Y-118000000D01*
X129600000Y-123460000D02*
X129600000Y-118000000D01*
X129600000Y-125460000D02*
G75*
G02X129600000Y-123460000I0J1000000D01*
G01*
X129660000Y-91500000D02*
X129660000Y-73600000D01*
X98940000Y-91500000D02*
X129660000Y-91500000D01*
X98940000Y-73600000D02*
X98940000Y-91500000D01*
X129660000Y-73600000D02*
X98940000Y-73600000D01*
X129600000Y-89010000D02*
X129600000Y-83550000D01*
X99000000Y-89010000D02*
X129600000Y-89010000D01*
X99000000Y-76090000D02*
X99000000Y-89010000D01*
X129600000Y-76090000D02*
X99000000Y-76090000D01*
X129600000Y-81550000D02*
X129600000Y-76090000D01*
X129600000Y-83550000D02*
G75*
G02X129600000Y-81550000I0J1000000D01*
G01*
X199510000Y-57210000D02*
X199510000Y-46930000D01*
X173870000Y-57210000D02*
X199510000Y-57210000D01*
X173870000Y-46930000D02*
X173870000Y-57210000D01*
X199510000Y-46930000D02*
X173870000Y-46930000D01*
X199450000Y-54720000D02*
X199450000Y-53070000D01*
X173930000Y-54720000D02*
X199450000Y-54720000D01*
X173930000Y-49420000D02*
X173930000Y-54720000D01*
X199450000Y-49420000D02*
X173930000Y-49420000D01*
X199450000Y-51070000D02*
X199450000Y-49420000D01*
X199450000Y-53070000D02*
G75*
G02X199450000Y-51070000I0J1000000D01*
G01*
X160140000Y-57210000D02*
X160140000Y-46930000D01*
X134500000Y-57210000D02*
X160140000Y-57210000D01*
X134500000Y-46930000D02*
X134500000Y-57210000D01*
X160140000Y-46930000D02*
X134500000Y-46930000D01*
X160080000Y-54720000D02*
X160080000Y-53070000D01*
X134560000Y-54720000D02*
X160080000Y-54720000D01*
X134560000Y-49420000D02*
X134560000Y-54720000D01*
X160080000Y-49420000D02*
X134560000Y-49420000D01*
X160080000Y-51070000D02*
X160080000Y-49420000D01*
X160080000Y-53070000D02*
G75*
G02X160080000Y-51070000I0J1000000D01*
G01*
X69970000Y-119440000D02*
X69970000Y-109160000D01*
X51950000Y-119440000D02*
X69970000Y-119440000D01*
X51950000Y-109160000D02*
X51950000Y-119440000D01*
X69970000Y-109160000D02*
X51950000Y-109160000D01*
X69910000Y-116950000D02*
X69910000Y-115300000D01*
X52010000Y-116950000D02*
X69910000Y-116950000D01*
X52010000Y-111650000D02*
X52010000Y-116950000D01*
X69910000Y-111650000D02*
X52010000Y-111650000D01*
X69910000Y-113300000D02*
X69910000Y-111650000D01*
X69910000Y-115300000D02*
G75*
G02X69910000Y-113300000I0J1000000D01*
G01*
X69970000Y-106740000D02*
X69970000Y-96460000D01*
X51950000Y-106740000D02*
X69970000Y-106740000D01*
X51950000Y-96460000D02*
X51950000Y-106740000D01*
X69970000Y-96460000D02*
X51950000Y-96460000D01*
X69910000Y-104250000D02*
X69910000Y-102600000D01*
X52010000Y-104250000D02*
X69910000Y-104250000D01*
X52010000Y-98950000D02*
X52010000Y-104250000D01*
X69910000Y-98950000D02*
X52010000Y-98950000D01*
X69910000Y-100600000D02*
X69910000Y-98950000D01*
X69910000Y-102600000D02*
G75*
G02X69910000Y-100600000I0J1000000D01*
G01*
X242510000Y-92650000D02*
X243840000Y-92650000D01*
X242510000Y-93980000D02*
X242510000Y-92650000D01*
X242510000Y-95250000D02*
X245170000Y-95250000D01*
X245170000Y-95250000D02*
X245170000Y-135950000D01*
X242510000Y-95250000D02*
X242510000Y-135950000D01*
X242510000Y-135950000D02*
X245170000Y-135950000D01*
X242510000Y-48200000D02*
X243840000Y-48200000D01*
X242510000Y-49530000D02*
X242510000Y-48200000D01*
X242510000Y-50800000D02*
X245170000Y-50800000D01*
X245170000Y-50800000D02*
X245170000Y-91500000D01*
X242510000Y-50800000D02*
X242510000Y-91500000D01*
X242510000Y-91500000D02*
X245170000Y-91500000D01*
X29210000Y-53915000D02*
X30320000Y-53915000D01*
X30320000Y-53915000D02*
X30320000Y-55245000D01*
X16580000Y-53915000D02*
X16580000Y-130235000D01*
X16580000Y-130235000D02*
X25210000Y-130235000D01*
X25210000Y-53915000D02*
X25210000Y-130235000D01*
X16580000Y-53915000D02*
X25210000Y-53915000D01*
X16580000Y-127635000D02*
X25210000Y-127635000D01*
X16580000Y-125095000D02*
X25210000Y-125095000D01*
X16580000Y-122555000D02*
X25210000Y-122555000D01*
X16580000Y-120015000D02*
X25210000Y-120015000D01*
X16580000Y-117475000D02*
X25210000Y-117475000D01*
X16580000Y-114935000D02*
X25210000Y-114935000D01*
X16580000Y-112395000D02*
X25210000Y-112395000D01*
X16580000Y-109855000D02*
X25210000Y-109855000D01*
X16580000Y-107315000D02*
X25210000Y-107315000D01*
X16580000Y-104775000D02*
X25210000Y-104775000D01*
X16580000Y-102235000D02*
X25210000Y-102235000D01*
X16580000Y-99695000D02*
X25210000Y-99695000D01*
X16580000Y-97155000D02*
X25210000Y-97155000D01*
X16580000Y-94615000D02*
X25210000Y-94615000D01*
X16580000Y-92075000D02*
X25210000Y-92075000D01*
X16580000Y-89535000D02*
X25210000Y-89535000D01*
X16580000Y-86995000D02*
X25210000Y-86995000D01*
X16580000Y-84455000D02*
X25210000Y-84455000D01*
X16580000Y-81915000D02*
X25210000Y-81915000D01*
X16580000Y-79375000D02*
X25210000Y-79375000D01*
X16580000Y-76835000D02*
X25210000Y-76835000D01*
X16580000Y-74295000D02*
X25210000Y-74295000D01*
X16580000Y-71755000D02*
X25210000Y-71755000D01*
X16580000Y-69215000D02*
X25210000Y-69215000D01*
X16580000Y-66675000D02*
X25210000Y-66675000D01*
X16580000Y-64135000D02*
X25210000Y-64135000D01*
X16580000Y-61595000D02*
X25210000Y-61595000D01*
X16580000Y-59055000D02*
X25210000Y-59055000D01*
X16580000Y-56515000D02*
X25210000Y-56515000D01*
X27720000Y-129265000D02*
X28160000Y-129265000D01*
X25210000Y-129265000D02*
X25620000Y-129265000D01*
X27720000Y-128545000D02*
X28160000Y-128545000D01*
X25210000Y-128545000D02*
X25620000Y-128545000D01*
X27720000Y-126725000D02*
X28160000Y-126725000D01*
X25210000Y-126725000D02*
X25620000Y-126725000D01*
X27720000Y-126005000D02*
X28160000Y-126005000D01*
X25210000Y-126005000D02*
X25620000Y-126005000D01*
X27720000Y-124185000D02*
X28160000Y-124185000D01*
X25210000Y-124185000D02*
X25620000Y-124185000D01*
X27720000Y-123465000D02*
X28160000Y-123465000D01*
X25210000Y-123465000D02*
X25620000Y-123465000D01*
X27720000Y-121645000D02*
X28160000Y-121645000D01*
X25210000Y-121645000D02*
X25620000Y-121645000D01*
X27720000Y-120925000D02*
X28160000Y-120925000D01*
X25210000Y-120925000D02*
X25620000Y-120925000D01*
X27720000Y-119105000D02*
X28160000Y-119105000D01*
X25210000Y-119105000D02*
X25620000Y-119105000D01*
X27720000Y-118385000D02*
X28160000Y-118385000D01*
X25210000Y-118385000D02*
X25620000Y-118385000D01*
X27720000Y-116565000D02*
X28160000Y-116565000D01*
X25210000Y-116565000D02*
X25620000Y-116565000D01*
X27720000Y-115845000D02*
X28160000Y-115845000D01*
X25210000Y-115845000D02*
X25620000Y-115845000D01*
X27720000Y-114025000D02*
X28160000Y-114025000D01*
X25210000Y-114025000D02*
X25620000Y-114025000D01*
X27720000Y-113305000D02*
X28160000Y-113305000D01*
X25210000Y-113305000D02*
X25620000Y-113305000D01*
X27720000Y-111485000D02*
X28160000Y-111485000D01*
X25210000Y-111485000D02*
X25620000Y-111485000D01*
X27720000Y-110765000D02*
X28160000Y-110765000D01*
X25210000Y-110765000D02*
X25620000Y-110765000D01*
X27720000Y-108945000D02*
X28160000Y-108945000D01*
X25210000Y-108945000D02*
X25620000Y-108945000D01*
X27720000Y-108225000D02*
X28160000Y-108225000D01*
X25210000Y-108225000D02*
X25620000Y-108225000D01*
X27720000Y-106405000D02*
X28160000Y-106405000D01*
X25210000Y-106405000D02*
X25620000Y-106405000D01*
X27720000Y-105685000D02*
X28160000Y-105685000D01*
X25210000Y-105685000D02*
X25620000Y-105685000D01*
X27720000Y-103865000D02*
X28160000Y-103865000D01*
X25210000Y-103865000D02*
X25620000Y-103865000D01*
X27720000Y-103145000D02*
X28160000Y-103145000D01*
X25210000Y-103145000D02*
X25620000Y-103145000D01*
X27720000Y-101325000D02*
X28160000Y-101325000D01*
X25210000Y-101325000D02*
X25620000Y-101325000D01*
X27720000Y-100605000D02*
X28160000Y-100605000D01*
X25210000Y-100605000D02*
X25620000Y-100605000D01*
X27720000Y-98785000D02*
X28160000Y-98785000D01*
X25210000Y-98785000D02*
X25620000Y-98785000D01*
X27720000Y-98065000D02*
X28160000Y-98065000D01*
X25210000Y-98065000D02*
X25620000Y-98065000D01*
X27720000Y-96245000D02*
X28160000Y-96245000D01*
X25210000Y-96245000D02*
X25620000Y-96245000D01*
X27720000Y-95525000D02*
X28160000Y-95525000D01*
X25210000Y-95525000D02*
X25620000Y-95525000D01*
X27720000Y-93705000D02*
X28160000Y-93705000D01*
X25210000Y-93705000D02*
X25620000Y-93705000D01*
X27720000Y-92985000D02*
X28160000Y-92985000D01*
X25210000Y-92985000D02*
X25620000Y-92985000D01*
X27720000Y-91165000D02*
X28160000Y-91165000D01*
X25210000Y-91165000D02*
X25620000Y-91165000D01*
X27720000Y-90445000D02*
X28160000Y-90445000D01*
X25210000Y-90445000D02*
X25620000Y-90445000D01*
X27720000Y-88625000D02*
X28160000Y-88625000D01*
X25210000Y-88625000D02*
X25620000Y-88625000D01*
X27720000Y-87905000D02*
X28160000Y-87905000D01*
X25210000Y-87905000D02*
X25620000Y-87905000D01*
X27720000Y-86085000D02*
X28160000Y-86085000D01*
X25210000Y-86085000D02*
X25620000Y-86085000D01*
X27720000Y-85365000D02*
X28160000Y-85365000D01*
X25210000Y-85365000D02*
X25620000Y-85365000D01*
X27720000Y-83545000D02*
X28160000Y-83545000D01*
X25210000Y-83545000D02*
X25620000Y-83545000D01*
X27720000Y-82825000D02*
X28160000Y-82825000D01*
X25210000Y-82825000D02*
X25620000Y-82825000D01*
X27720000Y-81005000D02*
X28160000Y-81005000D01*
X25210000Y-81005000D02*
X25620000Y-81005000D01*
X27720000Y-80285000D02*
X28160000Y-80285000D01*
X25210000Y-80285000D02*
X25620000Y-80285000D01*
X27720000Y-78465000D02*
X28160000Y-78465000D01*
X25210000Y-78465000D02*
X25620000Y-78465000D01*
X27720000Y-77745000D02*
X28160000Y-77745000D01*
X25210000Y-77745000D02*
X25620000Y-77745000D01*
X27720000Y-75925000D02*
X28160000Y-75925000D01*
X25210000Y-75925000D02*
X25620000Y-75925000D01*
X27720000Y-75205000D02*
X28160000Y-75205000D01*
X25210000Y-75205000D02*
X25620000Y-75205000D01*
X27720000Y-73385000D02*
X28160000Y-73385000D01*
X25210000Y-73385000D02*
X25620000Y-73385000D01*
X27720000Y-72665000D02*
X28160000Y-72665000D01*
X25210000Y-72665000D02*
X25620000Y-72665000D01*
X27720000Y-70845000D02*
X28160000Y-70845000D01*
X25210000Y-70845000D02*
X25620000Y-70845000D01*
X27720000Y-70125000D02*
X28160000Y-70125000D01*
X25210000Y-70125000D02*
X25620000Y-70125000D01*
X27720000Y-68305000D02*
X28160000Y-68305000D01*
X25210000Y-68305000D02*
X25620000Y-68305000D01*
X27720000Y-67585000D02*
X28160000Y-67585000D01*
X25210000Y-67585000D02*
X25620000Y-67585000D01*
X27720000Y-65765000D02*
X28160000Y-65765000D01*
X25210000Y-65765000D02*
X25620000Y-65765000D01*
X27720000Y-65045000D02*
X28160000Y-65045000D01*
X25210000Y-65045000D02*
X25620000Y-65045000D01*
X27720000Y-63225000D02*
X28160000Y-63225000D01*
X25210000Y-63225000D02*
X25620000Y-63225000D01*
X27720000Y-62505000D02*
X28160000Y-62505000D01*
X25210000Y-62505000D02*
X25620000Y-62505000D01*
X27720000Y-60685000D02*
X28160000Y-60685000D01*
X25210000Y-60685000D02*
X25620000Y-60685000D01*
X27720000Y-59965000D02*
X28160000Y-59965000D01*
X25210000Y-59965000D02*
X25620000Y-59965000D01*
X27720000Y-58145000D02*
X28160000Y-58145000D01*
X25210000Y-58145000D02*
X25620000Y-58145000D01*
X27720000Y-57425000D02*
X28160000Y-57425000D01*
X25210000Y-57425000D02*
X25620000Y-57425000D01*
X27720000Y-55605000D02*
X28100000Y-55605000D01*
X25210000Y-55605000D02*
X25620000Y-55605000D01*
X27720000Y-54885000D02*
X28100000Y-54885000D01*
X25210000Y-54885000D02*
X25620000Y-54885000D01*
X16580000Y-56396900D02*
X25210000Y-56396900D01*
X16580000Y-56278805D02*
X25210000Y-56278805D01*
X16580000Y-56160710D02*
X25210000Y-56160710D01*
X16580000Y-56042615D02*
X25210000Y-56042615D01*
X16580000Y-55924520D02*
X25210000Y-55924520D01*
X16580000Y-55806425D02*
X25210000Y-55806425D01*
X16580000Y-55688330D02*
X25210000Y-55688330D01*
X16580000Y-55570235D02*
X25210000Y-55570235D01*
X16580000Y-55452140D02*
X25210000Y-55452140D01*
X16580000Y-55334045D02*
X25210000Y-55334045D01*
X16580000Y-55215950D02*
X25210000Y-55215950D01*
X16580000Y-55097855D02*
X25210000Y-55097855D01*
X16580000Y-54979760D02*
X25210000Y-54979760D01*
X16580000Y-54861665D02*
X25210000Y-54861665D01*
X16580000Y-54743570D02*
X25210000Y-54743570D01*
X16580000Y-54625475D02*
X25210000Y-54625475D01*
X16580000Y-54507380D02*
X25210000Y-54507380D01*
X16580000Y-54389285D02*
X25210000Y-54389285D01*
X16580000Y-54271190D02*
X25210000Y-54271190D01*
X16580000Y-54153095D02*
X25210000Y-54153095D01*
X16580000Y-54035000D02*
X25210000Y-54035000D01*
X208380000Y-127100000D02*
X205640000Y-127100000D01*
X208380000Y-121860000D02*
X205640000Y-121860000D01*
X205640000Y-121860000D02*
X205640000Y-127100000D01*
X208380000Y-121860000D02*
X208380000Y-127100000D01*
X208380000Y-85150000D02*
X205640000Y-85150000D01*
X208380000Y-79910000D02*
X205640000Y-79910000D01*
X205640000Y-79910000D02*
X205640000Y-85150000D01*
X208380000Y-79910000D02*
X208380000Y-85150000D01*
X143610000Y-127100000D02*
X140870000Y-127100000D01*
X143610000Y-121860000D02*
X140870000Y-121860000D01*
X140870000Y-121860000D02*
X140870000Y-127100000D01*
X143610000Y-121860000D02*
X143610000Y-127100000D01*
X143610000Y-85150000D02*
X140870000Y-85150000D01*
X143610000Y-79910000D02*
X140870000Y-79910000D01*
X140870000Y-79910000D02*
X140870000Y-85150000D01*
X143610000Y-79910000D02*
X143610000Y-85150000D01*
X203300000Y-54710000D02*
X200560000Y-54710000D01*
X203300000Y-49470000D02*
X200560000Y-49470000D01*
X200560000Y-49470000D02*
X200560000Y-54710000D01*
X203300000Y-49470000D02*
X203300000Y-54710000D01*
X163930000Y-54670000D02*
X161190000Y-54670000D01*
X163930000Y-49430000D02*
X161190000Y-49430000D01*
X161190000Y-49430000D02*
X161190000Y-54670000D01*
X163930000Y-49430000D02*
X163930000Y-54670000D01*
X73760000Y-116940000D02*
X71020000Y-116940000D01*
X73760000Y-111700000D02*
X71020000Y-111700000D01*
X71020000Y-111700000D02*
X71020000Y-116940000D01*
X73760000Y-111700000D02*
X73760000Y-116940000D01*
X73760000Y-91540000D02*
X71020000Y-91540000D01*
X73760000Y-86300000D02*
X71020000Y-86300000D01*
X71020000Y-86300000D02*
X71020000Y-91540000D01*
X73760000Y-86300000D02*
X73760000Y-91540000D01*
X73760000Y-104240000D02*
X71020000Y-104240000D01*
X73760000Y-99000000D02*
X71020000Y-99000000D01*
X71020000Y-99000000D02*
X71020000Y-104240000D01*
X73760000Y-99000000D02*
X73760000Y-104240000D01*
D10*
X205042380Y-126491904D02*
X205851904Y-126491904D01*
X205947142Y-126444285D01*
X205994761Y-126396666D01*
X206042380Y-126301428D01*
X206042380Y-126110952D01*
X205994761Y-126015714D01*
X205947142Y-125968095D01*
X205851904Y-125920476D01*
X205042380Y-125920476D01*
X206042380Y-125396666D02*
X206042380Y-125206190D01*
X205994761Y-125110952D01*
X205947142Y-125063333D01*
X205804285Y-124968095D01*
X205613809Y-124920476D01*
X205232857Y-124920476D01*
X205137619Y-124968095D01*
X205090000Y-125015714D01*
X205042380Y-125110952D01*
X205042380Y-125301428D01*
X205090000Y-125396666D01*
X205137619Y-125444285D01*
X205232857Y-125491904D01*
X205470952Y-125491904D01*
X205566190Y-125444285D01*
X205613809Y-125396666D01*
X205661428Y-125301428D01*
X205661428Y-125110952D01*
X205613809Y-125015714D01*
X205566190Y-124968095D01*
X205470952Y-124920476D01*
X205042380Y-83311904D02*
X205851904Y-83311904D01*
X205947142Y-83264285D01*
X205994761Y-83216666D01*
X206042380Y-83121428D01*
X206042380Y-82930952D01*
X205994761Y-82835714D01*
X205947142Y-82788095D01*
X205851904Y-82740476D01*
X205042380Y-82740476D01*
X205470952Y-82121428D02*
X205423333Y-82216666D01*
X205375714Y-82264285D01*
X205280476Y-82311904D01*
X205232857Y-82311904D01*
X205137619Y-82264285D01*
X205090000Y-82216666D01*
X205042380Y-82121428D01*
X205042380Y-81930952D01*
X205090000Y-81835714D01*
X205137619Y-81788095D01*
X205232857Y-81740476D01*
X205280476Y-81740476D01*
X205375714Y-81788095D01*
X205423333Y-81835714D01*
X205470952Y-81930952D01*
X205470952Y-82121428D01*
X205518571Y-82216666D01*
X205566190Y-82264285D01*
X205661428Y-82311904D01*
X205851904Y-82311904D01*
X205947142Y-82264285D01*
X205994761Y-82216666D01*
X206042380Y-82121428D01*
X206042380Y-81930952D01*
X205994761Y-81835714D01*
X205947142Y-81788095D01*
X205851904Y-81740476D01*
X205661428Y-81740476D01*
X205566190Y-81788095D01*
X205518571Y-81835714D01*
X205470952Y-81930952D01*
X50252380Y-89661904D02*
X51061904Y-89661904D01*
X51157142Y-89614285D01*
X51204761Y-89566666D01*
X51252380Y-89471428D01*
X51252380Y-89280952D01*
X51204761Y-89185714D01*
X51157142Y-89138095D01*
X51061904Y-89090476D01*
X50252380Y-89090476D01*
X50347619Y-88661904D02*
X50300000Y-88614285D01*
X50252380Y-88519047D01*
X50252380Y-88280952D01*
X50300000Y-88185714D01*
X50347619Y-88138095D01*
X50442857Y-88090476D01*
X50538095Y-88090476D01*
X50680952Y-88138095D01*
X51252380Y-88709523D01*
X51252380Y-88090476D01*
X235577142Y-132702380D02*
X235243809Y-132226190D01*
X235005714Y-132702380D02*
X235005714Y-131702380D01*
X235386666Y-131702380D01*
X235481904Y-131750000D01*
X235529523Y-131797619D01*
X235577142Y-131892857D01*
X235577142Y-132035714D01*
X235529523Y-132130952D01*
X235481904Y-132178571D01*
X235386666Y-132226190D01*
X235005714Y-132226190D01*
X235910476Y-131702380D02*
X236529523Y-131702380D01*
X236196190Y-132083333D01*
X236339047Y-132083333D01*
X236434285Y-132130952D01*
X236481904Y-132178571D01*
X236529523Y-132273809D01*
X236529523Y-132511904D01*
X236481904Y-132607142D01*
X236434285Y-132654761D01*
X236339047Y-132702380D01*
X236053333Y-132702380D01*
X235958095Y-132654761D01*
X235910476Y-132607142D01*
X236862857Y-131702380D02*
X237481904Y-131702380D01*
X237148571Y-132083333D01*
X237291428Y-132083333D01*
X237386666Y-132130952D01*
X237434285Y-132178571D01*
X237481904Y-132273809D01*
X237481904Y-132511904D01*
X237434285Y-132607142D01*
X237386666Y-132654761D01*
X237291428Y-132702380D01*
X237005714Y-132702380D01*
X236910476Y-132654761D01*
X236862857Y-132607142D01*
X235577142Y-130162380D02*
X235243809Y-129686190D01*
X235005714Y-130162380D02*
X235005714Y-129162380D01*
X235386666Y-129162380D01*
X235481904Y-129210000D01*
X235529523Y-129257619D01*
X235577142Y-129352857D01*
X235577142Y-129495714D01*
X235529523Y-129590952D01*
X235481904Y-129638571D01*
X235386666Y-129686190D01*
X235005714Y-129686190D01*
X235910476Y-129162380D02*
X236529523Y-129162380D01*
X236196190Y-129543333D01*
X236339047Y-129543333D01*
X236434285Y-129590952D01*
X236481904Y-129638571D01*
X236529523Y-129733809D01*
X236529523Y-129971904D01*
X236481904Y-130067142D01*
X236434285Y-130114761D01*
X236339047Y-130162380D01*
X236053333Y-130162380D01*
X235958095Y-130114761D01*
X235910476Y-130067142D01*
X236910476Y-129257619D02*
X236958095Y-129210000D01*
X237053333Y-129162380D01*
X237291428Y-129162380D01*
X237386666Y-129210000D01*
X237434285Y-129257619D01*
X237481904Y-129352857D01*
X237481904Y-129448095D01*
X237434285Y-129590952D01*
X236862857Y-130162380D01*
X237481904Y-130162380D01*
X235577142Y-127622380D02*
X235243809Y-127146190D01*
X235005714Y-127622380D02*
X235005714Y-126622380D01*
X235386666Y-126622380D01*
X235481904Y-126670000D01*
X235529523Y-126717619D01*
X235577142Y-126812857D01*
X235577142Y-126955714D01*
X235529523Y-127050952D01*
X235481904Y-127098571D01*
X235386666Y-127146190D01*
X235005714Y-127146190D01*
X235910476Y-126622380D02*
X236529523Y-126622380D01*
X236196190Y-127003333D01*
X236339047Y-127003333D01*
X236434285Y-127050952D01*
X236481904Y-127098571D01*
X236529523Y-127193809D01*
X236529523Y-127431904D01*
X236481904Y-127527142D01*
X236434285Y-127574761D01*
X236339047Y-127622380D01*
X236053333Y-127622380D01*
X235958095Y-127574761D01*
X235910476Y-127527142D01*
X237481904Y-127622380D02*
X236910476Y-127622380D01*
X237196190Y-127622380D02*
X237196190Y-126622380D01*
X237100952Y-126765238D01*
X237005714Y-126860476D01*
X236910476Y-126908095D01*
X235577142Y-125082380D02*
X235243809Y-124606190D01*
X235005714Y-125082380D02*
X235005714Y-124082380D01*
X235386666Y-124082380D01*
X235481904Y-124130000D01*
X235529523Y-124177619D01*
X235577142Y-124272857D01*
X235577142Y-124415714D01*
X235529523Y-124510952D01*
X235481904Y-124558571D01*
X235386666Y-124606190D01*
X235005714Y-124606190D01*
X235910476Y-124082380D02*
X236529523Y-124082380D01*
X236196190Y-124463333D01*
X236339047Y-124463333D01*
X236434285Y-124510952D01*
X236481904Y-124558571D01*
X236529523Y-124653809D01*
X236529523Y-124891904D01*
X236481904Y-124987142D01*
X236434285Y-125034761D01*
X236339047Y-125082380D01*
X236053333Y-125082380D01*
X235958095Y-125034761D01*
X235910476Y-124987142D01*
X237148571Y-124082380D02*
X237243809Y-124082380D01*
X237339047Y-124130000D01*
X237386666Y-124177619D01*
X237434285Y-124272857D01*
X237481904Y-124463333D01*
X237481904Y-124701428D01*
X237434285Y-124891904D01*
X237386666Y-124987142D01*
X237339047Y-125034761D01*
X237243809Y-125082380D01*
X237148571Y-125082380D01*
X237053333Y-125034761D01*
X237005714Y-124987142D01*
X236958095Y-124891904D01*
X236910476Y-124701428D01*
X236910476Y-124463333D01*
X236958095Y-124272857D01*
X237005714Y-124177619D01*
X237053333Y-124130000D01*
X237148571Y-124082380D01*
X235577142Y-122542380D02*
X235243809Y-122066190D01*
X235005714Y-122542380D02*
X235005714Y-121542380D01*
X235386666Y-121542380D01*
X235481904Y-121590000D01*
X235529523Y-121637619D01*
X235577142Y-121732857D01*
X235577142Y-121875714D01*
X235529523Y-121970952D01*
X235481904Y-122018571D01*
X235386666Y-122066190D01*
X235005714Y-122066190D01*
X235958095Y-121637619D02*
X236005714Y-121590000D01*
X236100952Y-121542380D01*
X236339047Y-121542380D01*
X236434285Y-121590000D01*
X236481904Y-121637619D01*
X236529523Y-121732857D01*
X236529523Y-121828095D01*
X236481904Y-121970952D01*
X235910476Y-122542380D01*
X236529523Y-122542380D01*
X237005714Y-122542380D02*
X237196190Y-122542380D01*
X237291428Y-122494761D01*
X237339047Y-122447142D01*
X237434285Y-122304285D01*
X237481904Y-122113809D01*
X237481904Y-121732857D01*
X237434285Y-121637619D01*
X237386666Y-121590000D01*
X237291428Y-121542380D01*
X237100952Y-121542380D01*
X237005714Y-121590000D01*
X236958095Y-121637619D01*
X236910476Y-121732857D01*
X236910476Y-121970952D01*
X236958095Y-122066190D01*
X237005714Y-122113809D01*
X237100952Y-122161428D01*
X237291428Y-122161428D01*
X237386666Y-122113809D01*
X237434285Y-122066190D01*
X237481904Y-121970952D01*
X235577142Y-120002380D02*
X235243809Y-119526190D01*
X235005714Y-120002380D02*
X235005714Y-119002380D01*
X235386666Y-119002380D01*
X235481904Y-119050000D01*
X235529523Y-119097619D01*
X235577142Y-119192857D01*
X235577142Y-119335714D01*
X235529523Y-119430952D01*
X235481904Y-119478571D01*
X235386666Y-119526190D01*
X235005714Y-119526190D01*
X235958095Y-119097619D02*
X236005714Y-119050000D01*
X236100952Y-119002380D01*
X236339047Y-119002380D01*
X236434285Y-119050000D01*
X236481904Y-119097619D01*
X236529523Y-119192857D01*
X236529523Y-119288095D01*
X236481904Y-119430952D01*
X235910476Y-120002380D01*
X236529523Y-120002380D01*
X237100952Y-119430952D02*
X237005714Y-119383333D01*
X236958095Y-119335714D01*
X236910476Y-119240476D01*
X236910476Y-119192857D01*
X236958095Y-119097619D01*
X237005714Y-119050000D01*
X237100952Y-119002380D01*
X237291428Y-119002380D01*
X237386666Y-119050000D01*
X237434285Y-119097619D01*
X237481904Y-119192857D01*
X237481904Y-119240476D01*
X237434285Y-119335714D01*
X237386666Y-119383333D01*
X237291428Y-119430952D01*
X237100952Y-119430952D01*
X237005714Y-119478571D01*
X236958095Y-119526190D01*
X236910476Y-119621428D01*
X236910476Y-119811904D01*
X236958095Y-119907142D01*
X237005714Y-119954761D01*
X237100952Y-120002380D01*
X237291428Y-120002380D01*
X237386666Y-119954761D01*
X237434285Y-119907142D01*
X237481904Y-119811904D01*
X237481904Y-119621428D01*
X237434285Y-119526190D01*
X237386666Y-119478571D01*
X237291428Y-119430952D01*
X235577142Y-117462380D02*
X235243809Y-116986190D01*
X235005714Y-117462380D02*
X235005714Y-116462380D01*
X235386666Y-116462380D01*
X235481904Y-116510000D01*
X235529523Y-116557619D01*
X235577142Y-116652857D01*
X235577142Y-116795714D01*
X235529523Y-116890952D01*
X235481904Y-116938571D01*
X235386666Y-116986190D01*
X235005714Y-116986190D01*
X235958095Y-116557619D02*
X236005714Y-116510000D01*
X236100952Y-116462380D01*
X236339047Y-116462380D01*
X236434285Y-116510000D01*
X236481904Y-116557619D01*
X236529523Y-116652857D01*
X236529523Y-116748095D01*
X236481904Y-116890952D01*
X235910476Y-117462380D01*
X236529523Y-117462380D01*
X236862857Y-116462380D02*
X237529523Y-116462380D01*
X237100952Y-117462380D01*
X235577142Y-114922380D02*
X235243809Y-114446190D01*
X235005714Y-114922380D02*
X235005714Y-113922380D01*
X235386666Y-113922380D01*
X235481904Y-113970000D01*
X235529523Y-114017619D01*
X235577142Y-114112857D01*
X235577142Y-114255714D01*
X235529523Y-114350952D01*
X235481904Y-114398571D01*
X235386666Y-114446190D01*
X235005714Y-114446190D01*
X235958095Y-114017619D02*
X236005714Y-113970000D01*
X236100952Y-113922380D01*
X236339047Y-113922380D01*
X236434285Y-113970000D01*
X236481904Y-114017619D01*
X236529523Y-114112857D01*
X236529523Y-114208095D01*
X236481904Y-114350952D01*
X235910476Y-114922380D01*
X236529523Y-114922380D01*
X237386666Y-113922380D02*
X237196190Y-113922380D01*
X237100952Y-113970000D01*
X237053333Y-114017619D01*
X236958095Y-114160476D01*
X236910476Y-114350952D01*
X236910476Y-114731904D01*
X236958095Y-114827142D01*
X237005714Y-114874761D01*
X237100952Y-114922380D01*
X237291428Y-114922380D01*
X237386666Y-114874761D01*
X237434285Y-114827142D01*
X237481904Y-114731904D01*
X237481904Y-114493809D01*
X237434285Y-114398571D01*
X237386666Y-114350952D01*
X237291428Y-114303333D01*
X237100952Y-114303333D01*
X237005714Y-114350952D01*
X236958095Y-114398571D01*
X236910476Y-114493809D01*
X235577142Y-112382380D02*
X235243809Y-111906190D01*
X235005714Y-112382380D02*
X235005714Y-111382380D01*
X235386666Y-111382380D01*
X235481904Y-111430000D01*
X235529523Y-111477619D01*
X235577142Y-111572857D01*
X235577142Y-111715714D01*
X235529523Y-111810952D01*
X235481904Y-111858571D01*
X235386666Y-111906190D01*
X235005714Y-111906190D01*
X235958095Y-111477619D02*
X236005714Y-111430000D01*
X236100952Y-111382380D01*
X236339047Y-111382380D01*
X236434285Y-111430000D01*
X236481904Y-111477619D01*
X236529523Y-111572857D01*
X236529523Y-111668095D01*
X236481904Y-111810952D01*
X235910476Y-112382380D01*
X236529523Y-112382380D01*
X237434285Y-111382380D02*
X236958095Y-111382380D01*
X236910476Y-111858571D01*
X236958095Y-111810952D01*
X237053333Y-111763333D01*
X237291428Y-111763333D01*
X237386666Y-111810952D01*
X237434285Y-111858571D01*
X237481904Y-111953809D01*
X237481904Y-112191904D01*
X237434285Y-112287142D01*
X237386666Y-112334761D01*
X237291428Y-112382380D01*
X237053333Y-112382380D01*
X236958095Y-112334761D01*
X236910476Y-112287142D01*
X235577142Y-109842380D02*
X235243809Y-109366190D01*
X235005714Y-109842380D02*
X235005714Y-108842380D01*
X235386666Y-108842380D01*
X235481904Y-108890000D01*
X235529523Y-108937619D01*
X235577142Y-109032857D01*
X235577142Y-109175714D01*
X235529523Y-109270952D01*
X235481904Y-109318571D01*
X235386666Y-109366190D01*
X235005714Y-109366190D01*
X235958095Y-108937619D02*
X236005714Y-108890000D01*
X236100952Y-108842380D01*
X236339047Y-108842380D01*
X236434285Y-108890000D01*
X236481904Y-108937619D01*
X236529523Y-109032857D01*
X236529523Y-109128095D01*
X236481904Y-109270952D01*
X235910476Y-109842380D01*
X236529523Y-109842380D01*
X237386666Y-109175714D02*
X237386666Y-109842380D01*
X237148571Y-108794761D02*
X236910476Y-109509047D01*
X237529523Y-109509047D01*
X235577142Y-107302380D02*
X235243809Y-106826190D01*
X235005714Y-107302380D02*
X235005714Y-106302380D01*
X235386666Y-106302380D01*
X235481904Y-106350000D01*
X235529523Y-106397619D01*
X235577142Y-106492857D01*
X235577142Y-106635714D01*
X235529523Y-106730952D01*
X235481904Y-106778571D01*
X235386666Y-106826190D01*
X235005714Y-106826190D01*
X235958095Y-106397619D02*
X236005714Y-106350000D01*
X236100952Y-106302380D01*
X236339047Y-106302380D01*
X236434285Y-106350000D01*
X236481904Y-106397619D01*
X236529523Y-106492857D01*
X236529523Y-106588095D01*
X236481904Y-106730952D01*
X235910476Y-107302380D01*
X236529523Y-107302380D01*
X236862857Y-106302380D02*
X237481904Y-106302380D01*
X237148571Y-106683333D01*
X237291428Y-106683333D01*
X237386666Y-106730952D01*
X237434285Y-106778571D01*
X237481904Y-106873809D01*
X237481904Y-107111904D01*
X237434285Y-107207142D01*
X237386666Y-107254761D01*
X237291428Y-107302380D01*
X237005714Y-107302380D01*
X236910476Y-107254761D01*
X236862857Y-107207142D01*
X235577142Y-104762380D02*
X235243809Y-104286190D01*
X235005714Y-104762380D02*
X235005714Y-103762380D01*
X235386666Y-103762380D01*
X235481904Y-103810000D01*
X235529523Y-103857619D01*
X235577142Y-103952857D01*
X235577142Y-104095714D01*
X235529523Y-104190952D01*
X235481904Y-104238571D01*
X235386666Y-104286190D01*
X235005714Y-104286190D01*
X235958095Y-103857619D02*
X236005714Y-103810000D01*
X236100952Y-103762380D01*
X236339047Y-103762380D01*
X236434285Y-103810000D01*
X236481904Y-103857619D01*
X236529523Y-103952857D01*
X236529523Y-104048095D01*
X236481904Y-104190952D01*
X235910476Y-104762380D01*
X236529523Y-104762380D01*
X236910476Y-103857619D02*
X236958095Y-103810000D01*
X237053333Y-103762380D01*
X237291428Y-103762380D01*
X237386666Y-103810000D01*
X237434285Y-103857619D01*
X237481904Y-103952857D01*
X237481904Y-104048095D01*
X237434285Y-104190952D01*
X236862857Y-104762380D01*
X237481904Y-104762380D01*
X235577142Y-102222380D02*
X235243809Y-101746190D01*
X235005714Y-102222380D02*
X235005714Y-101222380D01*
X235386666Y-101222380D01*
X235481904Y-101270000D01*
X235529523Y-101317619D01*
X235577142Y-101412857D01*
X235577142Y-101555714D01*
X235529523Y-101650952D01*
X235481904Y-101698571D01*
X235386666Y-101746190D01*
X235005714Y-101746190D01*
X235958095Y-101317619D02*
X236005714Y-101270000D01*
X236100952Y-101222380D01*
X236339047Y-101222380D01*
X236434285Y-101270000D01*
X236481904Y-101317619D01*
X236529523Y-101412857D01*
X236529523Y-101508095D01*
X236481904Y-101650952D01*
X235910476Y-102222380D01*
X236529523Y-102222380D01*
X237481904Y-102222380D02*
X236910476Y-102222380D01*
X237196190Y-102222380D02*
X237196190Y-101222380D01*
X237100952Y-101365238D01*
X237005714Y-101460476D01*
X236910476Y-101508095D01*
X235577142Y-99682380D02*
X235243809Y-99206190D01*
X235005714Y-99682380D02*
X235005714Y-98682380D01*
X235386666Y-98682380D01*
X235481904Y-98730000D01*
X235529523Y-98777619D01*
X235577142Y-98872857D01*
X235577142Y-99015714D01*
X235529523Y-99110952D01*
X235481904Y-99158571D01*
X235386666Y-99206190D01*
X235005714Y-99206190D01*
X235958095Y-98777619D02*
X236005714Y-98730000D01*
X236100952Y-98682380D01*
X236339047Y-98682380D01*
X236434285Y-98730000D01*
X236481904Y-98777619D01*
X236529523Y-98872857D01*
X236529523Y-98968095D01*
X236481904Y-99110952D01*
X235910476Y-99682380D01*
X236529523Y-99682380D01*
X237148571Y-98682380D02*
X237243809Y-98682380D01*
X237339047Y-98730000D01*
X237386666Y-98777619D01*
X237434285Y-98872857D01*
X237481904Y-99063333D01*
X237481904Y-99301428D01*
X237434285Y-99491904D01*
X237386666Y-99587142D01*
X237339047Y-99634761D01*
X237243809Y-99682380D01*
X237148571Y-99682380D01*
X237053333Y-99634761D01*
X237005714Y-99587142D01*
X236958095Y-99491904D01*
X236910476Y-99301428D01*
X236910476Y-99063333D01*
X236958095Y-98872857D01*
X237005714Y-98777619D01*
X237053333Y-98730000D01*
X237148571Y-98682380D01*
X235577142Y-97142380D02*
X235243809Y-96666190D01*
X235005714Y-97142380D02*
X235005714Y-96142380D01*
X235386666Y-96142380D01*
X235481904Y-96190000D01*
X235529523Y-96237619D01*
X235577142Y-96332857D01*
X235577142Y-96475714D01*
X235529523Y-96570952D01*
X235481904Y-96618571D01*
X235386666Y-96666190D01*
X235005714Y-96666190D01*
X236529523Y-97142380D02*
X235958095Y-97142380D01*
X236243809Y-97142380D02*
X236243809Y-96142380D01*
X236148571Y-96285238D01*
X236053333Y-96380476D01*
X235958095Y-96428095D01*
X237005714Y-97142380D02*
X237196190Y-97142380D01*
X237291428Y-97094761D01*
X237339047Y-97047142D01*
X237434285Y-96904285D01*
X237481904Y-96713809D01*
X237481904Y-96332857D01*
X237434285Y-96237619D01*
X237386666Y-96190000D01*
X237291428Y-96142380D01*
X237100952Y-96142380D01*
X237005714Y-96190000D01*
X236958095Y-96237619D01*
X236910476Y-96332857D01*
X236910476Y-96570952D01*
X236958095Y-96666190D01*
X237005714Y-96713809D01*
X237100952Y-96761428D01*
X237291428Y-96761428D01*
X237386666Y-96713809D01*
X237434285Y-96666190D01*
X237481904Y-96570952D01*
X235577142Y-94602380D02*
X235243809Y-94126190D01*
X235005714Y-94602380D02*
X235005714Y-93602380D01*
X235386666Y-93602380D01*
X235481904Y-93650000D01*
X235529523Y-93697619D01*
X235577142Y-93792857D01*
X235577142Y-93935714D01*
X235529523Y-94030952D01*
X235481904Y-94078571D01*
X235386666Y-94126190D01*
X235005714Y-94126190D01*
X236529523Y-94602380D02*
X235958095Y-94602380D01*
X236243809Y-94602380D02*
X236243809Y-93602380D01*
X236148571Y-93745238D01*
X236053333Y-93840476D01*
X235958095Y-93888095D01*
X237100952Y-94030952D02*
X237005714Y-93983333D01*
X236958095Y-93935714D01*
X236910476Y-93840476D01*
X236910476Y-93792857D01*
X236958095Y-93697619D01*
X237005714Y-93650000D01*
X237100952Y-93602380D01*
X237291428Y-93602380D01*
X237386666Y-93650000D01*
X237434285Y-93697619D01*
X237481904Y-93792857D01*
X237481904Y-93840476D01*
X237434285Y-93935714D01*
X237386666Y-93983333D01*
X237291428Y-94030952D01*
X237100952Y-94030952D01*
X237005714Y-94078571D01*
X236958095Y-94126190D01*
X236910476Y-94221428D01*
X236910476Y-94411904D01*
X236958095Y-94507142D01*
X237005714Y-94554761D01*
X237100952Y-94602380D01*
X237291428Y-94602380D01*
X237386666Y-94554761D01*
X237434285Y-94507142D01*
X237481904Y-94411904D01*
X237481904Y-94221428D01*
X237434285Y-94126190D01*
X237386666Y-94078571D01*
X237291428Y-94030952D01*
X235577142Y-88252380D02*
X235243809Y-87776190D01*
X235005714Y-88252380D02*
X235005714Y-87252380D01*
X235386666Y-87252380D01*
X235481904Y-87300000D01*
X235529523Y-87347619D01*
X235577142Y-87442857D01*
X235577142Y-87585714D01*
X235529523Y-87680952D01*
X235481904Y-87728571D01*
X235386666Y-87776190D01*
X235005714Y-87776190D01*
X236529523Y-88252380D02*
X235958095Y-88252380D01*
X236243809Y-88252380D02*
X236243809Y-87252380D01*
X236148571Y-87395238D01*
X236053333Y-87490476D01*
X235958095Y-87538095D01*
X237386666Y-87252380D02*
X237196190Y-87252380D01*
X237100952Y-87300000D01*
X237053333Y-87347619D01*
X236958095Y-87490476D01*
X236910476Y-87680952D01*
X236910476Y-88061904D01*
X236958095Y-88157142D01*
X237005714Y-88204761D01*
X237100952Y-88252380D01*
X237291428Y-88252380D01*
X237386666Y-88204761D01*
X237434285Y-88157142D01*
X237481904Y-88061904D01*
X237481904Y-87823809D01*
X237434285Y-87728571D01*
X237386666Y-87680952D01*
X237291428Y-87633333D01*
X237100952Y-87633333D01*
X237005714Y-87680952D01*
X236958095Y-87728571D01*
X236910476Y-87823809D01*
X235577142Y-85712380D02*
X235243809Y-85236190D01*
X235005714Y-85712380D02*
X235005714Y-84712380D01*
X235386666Y-84712380D01*
X235481904Y-84760000D01*
X235529523Y-84807619D01*
X235577142Y-84902857D01*
X235577142Y-85045714D01*
X235529523Y-85140952D01*
X235481904Y-85188571D01*
X235386666Y-85236190D01*
X235005714Y-85236190D01*
X236529523Y-85712380D02*
X235958095Y-85712380D01*
X236243809Y-85712380D02*
X236243809Y-84712380D01*
X236148571Y-84855238D01*
X236053333Y-84950476D01*
X235958095Y-84998095D01*
X237434285Y-84712380D02*
X236958095Y-84712380D01*
X236910476Y-85188571D01*
X236958095Y-85140952D01*
X237053333Y-85093333D01*
X237291428Y-85093333D01*
X237386666Y-85140952D01*
X237434285Y-85188571D01*
X237481904Y-85283809D01*
X237481904Y-85521904D01*
X237434285Y-85617142D01*
X237386666Y-85664761D01*
X237291428Y-85712380D01*
X237053333Y-85712380D01*
X236958095Y-85664761D01*
X236910476Y-85617142D01*
X235577142Y-83172380D02*
X235243809Y-82696190D01*
X235005714Y-83172380D02*
X235005714Y-82172380D01*
X235386666Y-82172380D01*
X235481904Y-82220000D01*
X235529523Y-82267619D01*
X235577142Y-82362857D01*
X235577142Y-82505714D01*
X235529523Y-82600952D01*
X235481904Y-82648571D01*
X235386666Y-82696190D01*
X235005714Y-82696190D01*
X236529523Y-83172380D02*
X235958095Y-83172380D01*
X236243809Y-83172380D02*
X236243809Y-82172380D01*
X236148571Y-82315238D01*
X236053333Y-82410476D01*
X235958095Y-82458095D01*
X237386666Y-82505714D02*
X237386666Y-83172380D01*
X237148571Y-82124761D02*
X236910476Y-82839047D01*
X237529523Y-82839047D01*
X235577142Y-80632380D02*
X235243809Y-80156190D01*
X235005714Y-80632380D02*
X235005714Y-79632380D01*
X235386666Y-79632380D01*
X235481904Y-79680000D01*
X235529523Y-79727619D01*
X235577142Y-79822857D01*
X235577142Y-79965714D01*
X235529523Y-80060952D01*
X235481904Y-80108571D01*
X235386666Y-80156190D01*
X235005714Y-80156190D01*
X236529523Y-80632380D02*
X235958095Y-80632380D01*
X236243809Y-80632380D02*
X236243809Y-79632380D01*
X236148571Y-79775238D01*
X236053333Y-79870476D01*
X235958095Y-79918095D01*
X236862857Y-79632380D02*
X237481904Y-79632380D01*
X237148571Y-80013333D01*
X237291428Y-80013333D01*
X237386666Y-80060952D01*
X237434285Y-80108571D01*
X237481904Y-80203809D01*
X237481904Y-80441904D01*
X237434285Y-80537142D01*
X237386666Y-80584761D01*
X237291428Y-80632380D01*
X237005714Y-80632380D01*
X236910476Y-80584761D01*
X236862857Y-80537142D01*
X235577142Y-78092380D02*
X235243809Y-77616190D01*
X235005714Y-78092380D02*
X235005714Y-77092380D01*
X235386666Y-77092380D01*
X235481904Y-77140000D01*
X235529523Y-77187619D01*
X235577142Y-77282857D01*
X235577142Y-77425714D01*
X235529523Y-77520952D01*
X235481904Y-77568571D01*
X235386666Y-77616190D01*
X235005714Y-77616190D01*
X236529523Y-78092380D02*
X235958095Y-78092380D01*
X236243809Y-78092380D02*
X236243809Y-77092380D01*
X236148571Y-77235238D01*
X236053333Y-77330476D01*
X235958095Y-77378095D01*
X236910476Y-77187619D02*
X236958095Y-77140000D01*
X237053333Y-77092380D01*
X237291428Y-77092380D01*
X237386666Y-77140000D01*
X237434285Y-77187619D01*
X237481904Y-77282857D01*
X237481904Y-77378095D01*
X237434285Y-77520952D01*
X236862857Y-78092380D01*
X237481904Y-78092380D01*
X235577142Y-75552380D02*
X235243809Y-75076190D01*
X235005714Y-75552380D02*
X235005714Y-74552380D01*
X235386666Y-74552380D01*
X235481904Y-74600000D01*
X235529523Y-74647619D01*
X235577142Y-74742857D01*
X235577142Y-74885714D01*
X235529523Y-74980952D01*
X235481904Y-75028571D01*
X235386666Y-75076190D01*
X235005714Y-75076190D01*
X236529523Y-75552380D02*
X235958095Y-75552380D01*
X236243809Y-75552380D02*
X236243809Y-74552380D01*
X236148571Y-74695238D01*
X236053333Y-74790476D01*
X235958095Y-74838095D01*
X237481904Y-75552380D02*
X236910476Y-75552380D01*
X237196190Y-75552380D02*
X237196190Y-74552380D01*
X237100952Y-74695238D01*
X237005714Y-74790476D01*
X236910476Y-74838095D01*
X235577142Y-73012380D02*
X235243809Y-72536190D01*
X235005714Y-73012380D02*
X235005714Y-72012380D01*
X235386666Y-72012380D01*
X235481904Y-72060000D01*
X235529523Y-72107619D01*
X235577142Y-72202857D01*
X235577142Y-72345714D01*
X235529523Y-72440952D01*
X235481904Y-72488571D01*
X235386666Y-72536190D01*
X235005714Y-72536190D01*
X236529523Y-73012380D02*
X235958095Y-73012380D01*
X236243809Y-73012380D02*
X236243809Y-72012380D01*
X236148571Y-72155238D01*
X236053333Y-72250476D01*
X235958095Y-72298095D01*
X237148571Y-72012380D02*
X237243809Y-72012380D01*
X237339047Y-72060000D01*
X237386666Y-72107619D01*
X237434285Y-72202857D01*
X237481904Y-72393333D01*
X237481904Y-72631428D01*
X237434285Y-72821904D01*
X237386666Y-72917142D01*
X237339047Y-72964761D01*
X237243809Y-73012380D01*
X237148571Y-73012380D01*
X237053333Y-72964761D01*
X237005714Y-72917142D01*
X236958095Y-72821904D01*
X236910476Y-72631428D01*
X236910476Y-72393333D01*
X236958095Y-72202857D01*
X237005714Y-72107619D01*
X237053333Y-72060000D01*
X237148571Y-72012380D01*
X236053333Y-70472380D02*
X235720000Y-69996190D01*
X235481904Y-70472380D02*
X235481904Y-69472380D01*
X235862857Y-69472380D01*
X235958095Y-69520000D01*
X236005714Y-69567619D01*
X236053333Y-69662857D01*
X236053333Y-69805714D01*
X236005714Y-69900952D01*
X235958095Y-69948571D01*
X235862857Y-69996190D01*
X235481904Y-69996190D01*
X236529523Y-70472380D02*
X236720000Y-70472380D01*
X236815238Y-70424761D01*
X236862857Y-70377142D01*
X236958095Y-70234285D01*
X237005714Y-70043809D01*
X237005714Y-69662857D01*
X236958095Y-69567619D01*
X236910476Y-69520000D01*
X236815238Y-69472380D01*
X236624761Y-69472380D01*
X236529523Y-69520000D01*
X236481904Y-69567619D01*
X236434285Y-69662857D01*
X236434285Y-69900952D01*
X236481904Y-69996190D01*
X236529523Y-70043809D01*
X236624761Y-70091428D01*
X236815238Y-70091428D01*
X236910476Y-70043809D01*
X236958095Y-69996190D01*
X237005714Y-69900952D01*
X236053333Y-67932380D02*
X235720000Y-67456190D01*
X235481904Y-67932380D02*
X235481904Y-66932380D01*
X235862857Y-66932380D01*
X235958095Y-66980000D01*
X236005714Y-67027619D01*
X236053333Y-67122857D01*
X236053333Y-67265714D01*
X236005714Y-67360952D01*
X235958095Y-67408571D01*
X235862857Y-67456190D01*
X235481904Y-67456190D01*
X236624761Y-67360952D02*
X236529523Y-67313333D01*
X236481904Y-67265714D01*
X236434285Y-67170476D01*
X236434285Y-67122857D01*
X236481904Y-67027619D01*
X236529523Y-66980000D01*
X236624761Y-66932380D01*
X236815238Y-66932380D01*
X236910476Y-66980000D01*
X236958095Y-67027619D01*
X237005714Y-67122857D01*
X237005714Y-67170476D01*
X236958095Y-67265714D01*
X236910476Y-67313333D01*
X236815238Y-67360952D01*
X236624761Y-67360952D01*
X236529523Y-67408571D01*
X236481904Y-67456190D01*
X236434285Y-67551428D01*
X236434285Y-67741904D01*
X236481904Y-67837142D01*
X236529523Y-67884761D01*
X236624761Y-67932380D01*
X236815238Y-67932380D01*
X236910476Y-67884761D01*
X236958095Y-67837142D01*
X237005714Y-67741904D01*
X237005714Y-67551428D01*
X236958095Y-67456190D01*
X236910476Y-67408571D01*
X236815238Y-67360952D01*
X236053333Y-65392380D02*
X235720000Y-64916190D01*
X235481904Y-65392380D02*
X235481904Y-64392380D01*
X235862857Y-64392380D01*
X235958095Y-64440000D01*
X236005714Y-64487619D01*
X236053333Y-64582857D01*
X236053333Y-64725714D01*
X236005714Y-64820952D01*
X235958095Y-64868571D01*
X235862857Y-64916190D01*
X235481904Y-64916190D01*
X236386666Y-64392380D02*
X237053333Y-64392380D01*
X236624761Y-65392380D01*
X236053333Y-62852380D02*
X235720000Y-62376190D01*
X235481904Y-62852380D02*
X235481904Y-61852380D01*
X235862857Y-61852380D01*
X235958095Y-61900000D01*
X236005714Y-61947619D01*
X236053333Y-62042857D01*
X236053333Y-62185714D01*
X236005714Y-62280952D01*
X235958095Y-62328571D01*
X235862857Y-62376190D01*
X235481904Y-62376190D01*
X236910476Y-61852380D02*
X236720000Y-61852380D01*
X236624761Y-61900000D01*
X236577142Y-61947619D01*
X236481904Y-62090476D01*
X236434285Y-62280952D01*
X236434285Y-62661904D01*
X236481904Y-62757142D01*
X236529523Y-62804761D01*
X236624761Y-62852380D01*
X236815238Y-62852380D01*
X236910476Y-62804761D01*
X236958095Y-62757142D01*
X237005714Y-62661904D01*
X237005714Y-62423809D01*
X236958095Y-62328571D01*
X236910476Y-62280952D01*
X236815238Y-62233333D01*
X236624761Y-62233333D01*
X236529523Y-62280952D01*
X236481904Y-62328571D01*
X236434285Y-62423809D01*
X236053333Y-60312380D02*
X235720000Y-59836190D01*
X235481904Y-60312380D02*
X235481904Y-59312380D01*
X235862857Y-59312380D01*
X235958095Y-59360000D01*
X236005714Y-59407619D01*
X236053333Y-59502857D01*
X236053333Y-59645714D01*
X236005714Y-59740952D01*
X235958095Y-59788571D01*
X235862857Y-59836190D01*
X235481904Y-59836190D01*
X236958095Y-59312380D02*
X236481904Y-59312380D01*
X236434285Y-59788571D01*
X236481904Y-59740952D01*
X236577142Y-59693333D01*
X236815238Y-59693333D01*
X236910476Y-59740952D01*
X236958095Y-59788571D01*
X237005714Y-59883809D01*
X237005714Y-60121904D01*
X236958095Y-60217142D01*
X236910476Y-60264761D01*
X236815238Y-60312380D01*
X236577142Y-60312380D01*
X236481904Y-60264761D01*
X236434285Y-60217142D01*
X236053333Y-57772380D02*
X235720000Y-57296190D01*
X235481904Y-57772380D02*
X235481904Y-56772380D01*
X235862857Y-56772380D01*
X235958095Y-56820000D01*
X236005714Y-56867619D01*
X236053333Y-56962857D01*
X236053333Y-57105714D01*
X236005714Y-57200952D01*
X235958095Y-57248571D01*
X235862857Y-57296190D01*
X235481904Y-57296190D01*
X236910476Y-57105714D02*
X236910476Y-57772380D01*
X236672380Y-56724761D02*
X236434285Y-57439047D01*
X237053333Y-57439047D01*
X236053333Y-55232380D02*
X235720000Y-54756190D01*
X235481904Y-55232380D02*
X235481904Y-54232380D01*
X235862857Y-54232380D01*
X235958095Y-54280000D01*
X236005714Y-54327619D01*
X236053333Y-54422857D01*
X236053333Y-54565714D01*
X236005714Y-54660952D01*
X235958095Y-54708571D01*
X235862857Y-54756190D01*
X235481904Y-54756190D01*
X236386666Y-54232380D02*
X237005714Y-54232380D01*
X236672380Y-54613333D01*
X236815238Y-54613333D01*
X236910476Y-54660952D01*
X236958095Y-54708571D01*
X237005714Y-54803809D01*
X237005714Y-55041904D01*
X236958095Y-55137142D01*
X236910476Y-55184761D01*
X236815238Y-55232380D01*
X236529523Y-55232380D01*
X236434285Y-55184761D01*
X236386666Y-55137142D01*
X236053333Y-52692380D02*
X235720000Y-52216190D01*
X235481904Y-52692380D02*
X235481904Y-51692380D01*
X235862857Y-51692380D01*
X235958095Y-51740000D01*
X236005714Y-51787619D01*
X236053333Y-51882857D01*
X236053333Y-52025714D01*
X236005714Y-52120952D01*
X235958095Y-52168571D01*
X235862857Y-52216190D01*
X235481904Y-52216190D01*
X236434285Y-51787619D02*
X236481904Y-51740000D01*
X236577142Y-51692380D01*
X236815238Y-51692380D01*
X236910476Y-51740000D01*
X236958095Y-51787619D01*
X237005714Y-51882857D01*
X237005714Y-51978095D01*
X236958095Y-52120952D01*
X236386666Y-52692380D01*
X237005714Y-52692380D01*
X236053333Y-50152380D02*
X235720000Y-49676190D01*
X235481904Y-50152380D02*
X235481904Y-49152380D01*
X235862857Y-49152380D01*
X235958095Y-49200000D01*
X236005714Y-49247619D01*
X236053333Y-49342857D01*
X236053333Y-49485714D01*
X236005714Y-49580952D01*
X235958095Y-49628571D01*
X235862857Y-49676190D01*
X235481904Y-49676190D01*
X237005714Y-50152380D02*
X236434285Y-50152380D01*
X236720000Y-50152380D02*
X236720000Y-49152380D01*
X236624761Y-49295238D01*
X236529523Y-49390476D01*
X236434285Y-49438095D01*
X90892380Y-125221904D02*
X91701904Y-125221904D01*
X91797142Y-125174285D01*
X91844761Y-125126666D01*
X91892380Y-125031428D01*
X91892380Y-124840952D01*
X91844761Y-124745714D01*
X91797142Y-124698095D01*
X91701904Y-124650476D01*
X90892380Y-124650476D01*
X90892380Y-124269523D02*
X90892380Y-123602857D01*
X91892380Y-124031428D01*
X90892380Y-83311904D02*
X91701904Y-83311904D01*
X91797142Y-83264285D01*
X91844761Y-83216666D01*
X91892380Y-83121428D01*
X91892380Y-82930952D01*
X91844761Y-82835714D01*
X91797142Y-82788095D01*
X91701904Y-82740476D01*
X90892380Y-82740476D01*
X90892380Y-81835714D02*
X90892380Y-82026190D01*
X90940000Y-82121428D01*
X90987619Y-82169047D01*
X91130476Y-82264285D01*
X91320952Y-82311904D01*
X91701904Y-82311904D01*
X91797142Y-82264285D01*
X91844761Y-82216666D01*
X91892380Y-82121428D01*
X91892380Y-81930952D01*
X91844761Y-81835714D01*
X91797142Y-81788095D01*
X91701904Y-81740476D01*
X91463809Y-81740476D01*
X91368571Y-81788095D01*
X91320952Y-81835714D01*
X91273333Y-81930952D01*
X91273333Y-82121428D01*
X91320952Y-82216666D01*
X91368571Y-82264285D01*
X91463809Y-82311904D01*
X172172380Y-52831904D02*
X172981904Y-52831904D01*
X173077142Y-52784285D01*
X173124761Y-52736666D01*
X173172380Y-52641428D01*
X173172380Y-52450952D01*
X173124761Y-52355714D01*
X173077142Y-52308095D01*
X172981904Y-52260476D01*
X172172380Y-52260476D01*
X172172380Y-51308095D02*
X172172380Y-51784285D01*
X172648571Y-51831904D01*
X172600952Y-51784285D01*
X172553333Y-51689047D01*
X172553333Y-51450952D01*
X172600952Y-51355714D01*
X172648571Y-51308095D01*
X172743809Y-51260476D01*
X172981904Y-51260476D01*
X173077142Y-51308095D01*
X173124761Y-51355714D01*
X173172380Y-51450952D01*
X173172380Y-51689047D01*
X173124761Y-51784285D01*
X173077142Y-51831904D01*
X132802380Y-52831904D02*
X133611904Y-52831904D01*
X133707142Y-52784285D01*
X133754761Y-52736666D01*
X133802380Y-52641428D01*
X133802380Y-52450952D01*
X133754761Y-52355714D01*
X133707142Y-52308095D01*
X133611904Y-52260476D01*
X132802380Y-52260476D01*
X133135714Y-51355714D02*
X133802380Y-51355714D01*
X132754761Y-51593809D02*
X133469047Y-51831904D01*
X133469047Y-51212857D01*
X50252380Y-115061904D02*
X51061904Y-115061904D01*
X51157142Y-115014285D01*
X51204761Y-114966666D01*
X51252380Y-114871428D01*
X51252380Y-114680952D01*
X51204761Y-114585714D01*
X51157142Y-114538095D01*
X51061904Y-114490476D01*
X50252380Y-114490476D01*
X50252380Y-114109523D02*
X50252380Y-113490476D01*
X50633333Y-113823809D01*
X50633333Y-113680952D01*
X50680952Y-113585714D01*
X50728571Y-113538095D01*
X50823809Y-113490476D01*
X51061904Y-113490476D01*
X51157142Y-113538095D01*
X51204761Y-113585714D01*
X51252380Y-113680952D01*
X51252380Y-113966666D01*
X51204761Y-114061904D01*
X51157142Y-114109523D01*
X50252380Y-102361904D02*
X51061904Y-102361904D01*
X51157142Y-102314285D01*
X51204761Y-102266666D01*
X51252380Y-102171428D01*
X51252380Y-101980952D01*
X51204761Y-101885714D01*
X51157142Y-101838095D01*
X51061904Y-101790476D01*
X50252380Y-101790476D01*
X51252380Y-100790476D02*
X51252380Y-101361904D01*
X51252380Y-101076190D02*
X50252380Y-101076190D01*
X50395238Y-101171428D01*
X50490476Y-101266666D01*
X50538095Y-101361904D01*
X245832380Y-114633333D02*
X246546666Y-114633333D01*
X246689523Y-114680952D01*
X246784761Y-114776190D01*
X246832380Y-114919047D01*
X246832380Y-115014285D01*
X245832380Y-114252380D02*
X245832380Y-113633333D01*
X246213333Y-113966666D01*
X246213333Y-113823809D01*
X246260952Y-113728571D01*
X246308571Y-113680952D01*
X246403809Y-113633333D01*
X246641904Y-113633333D01*
X246737142Y-113680952D01*
X246784761Y-113728571D01*
X246832380Y-113823809D01*
X246832380Y-114109523D01*
X246784761Y-114204761D01*
X246737142Y-114252380D01*
X245832380Y-68913333D02*
X246546666Y-68913333D01*
X246689523Y-68960952D01*
X246784761Y-69056190D01*
X246832380Y-69199047D01*
X246832380Y-69294285D01*
X245927619Y-68484761D02*
X245880000Y-68437142D01*
X245832380Y-68341904D01*
X245832380Y-68103809D01*
X245880000Y-68008571D01*
X245927619Y-67960952D01*
X246022857Y-67913333D01*
X246118095Y-67913333D01*
X246260952Y-67960952D01*
X246832380Y-68532380D01*
X246832380Y-67913333D01*
X27606666Y-51927380D02*
X27606666Y-52641666D01*
X27559047Y-52784523D01*
X27463809Y-52879761D01*
X27320952Y-52927380D01*
X27225714Y-52927380D01*
X28606666Y-52927380D02*
X28035238Y-52927380D01*
X28320952Y-52927380D02*
X28320952Y-51927380D01*
X28225714Y-52070238D01*
X28130476Y-52165476D01*
X28035238Y-52213095D01*
X209867142Y-124646666D02*
X209914761Y-124694285D01*
X209962380Y-124837142D01*
X209962380Y-124932380D01*
X209914761Y-125075238D01*
X209819523Y-125170476D01*
X209724285Y-125218095D01*
X209533809Y-125265714D01*
X209390952Y-125265714D01*
X209200476Y-125218095D01*
X209105238Y-125170476D01*
X209010000Y-125075238D01*
X208962380Y-124932380D01*
X208962380Y-124837142D01*
X209010000Y-124694285D01*
X209057619Y-124646666D01*
X209962380Y-124170476D02*
X209962380Y-123980000D01*
X209914761Y-123884761D01*
X209867142Y-123837142D01*
X209724285Y-123741904D01*
X209533809Y-123694285D01*
X209152857Y-123694285D01*
X209057619Y-123741904D01*
X209010000Y-123789523D01*
X208962380Y-123884761D01*
X208962380Y-124075238D01*
X209010000Y-124170476D01*
X209057619Y-124218095D01*
X209152857Y-124265714D01*
X209390952Y-124265714D01*
X209486190Y-124218095D01*
X209533809Y-124170476D01*
X209581428Y-124075238D01*
X209581428Y-123884761D01*
X209533809Y-123789523D01*
X209486190Y-123741904D01*
X209390952Y-123694285D01*
X209867142Y-82696666D02*
X209914761Y-82744285D01*
X209962380Y-82887142D01*
X209962380Y-82982380D01*
X209914761Y-83125238D01*
X209819523Y-83220476D01*
X209724285Y-83268095D01*
X209533809Y-83315714D01*
X209390952Y-83315714D01*
X209200476Y-83268095D01*
X209105238Y-83220476D01*
X209010000Y-83125238D01*
X208962380Y-82982380D01*
X208962380Y-82887142D01*
X209010000Y-82744285D01*
X209057619Y-82696666D01*
X209390952Y-82125238D02*
X209343333Y-82220476D01*
X209295714Y-82268095D01*
X209200476Y-82315714D01*
X209152857Y-82315714D01*
X209057619Y-82268095D01*
X209010000Y-82220476D01*
X208962380Y-82125238D01*
X208962380Y-81934761D01*
X209010000Y-81839523D01*
X209057619Y-81791904D01*
X209152857Y-81744285D01*
X209200476Y-81744285D01*
X209295714Y-81791904D01*
X209343333Y-81839523D01*
X209390952Y-81934761D01*
X209390952Y-82125238D01*
X209438571Y-82220476D01*
X209486190Y-82268095D01*
X209581428Y-82315714D01*
X209771904Y-82315714D01*
X209867142Y-82268095D01*
X209914761Y-82220476D01*
X209962380Y-82125238D01*
X209962380Y-81934761D01*
X209914761Y-81839523D01*
X209867142Y-81791904D01*
X209771904Y-81744285D01*
X209581428Y-81744285D01*
X209486190Y-81791904D01*
X209438571Y-81839523D01*
X209390952Y-81934761D01*
X145097142Y-124646666D02*
X145144761Y-124694285D01*
X145192380Y-124837142D01*
X145192380Y-124932380D01*
X145144761Y-125075238D01*
X145049523Y-125170476D01*
X144954285Y-125218095D01*
X144763809Y-125265714D01*
X144620952Y-125265714D01*
X144430476Y-125218095D01*
X144335238Y-125170476D01*
X144240000Y-125075238D01*
X144192380Y-124932380D01*
X144192380Y-124837142D01*
X144240000Y-124694285D01*
X144287619Y-124646666D01*
X144192380Y-124313333D02*
X144192380Y-123646666D01*
X145192380Y-124075238D01*
X145097142Y-82696666D02*
X145144761Y-82744285D01*
X145192380Y-82887142D01*
X145192380Y-82982380D01*
X145144761Y-83125238D01*
X145049523Y-83220476D01*
X144954285Y-83268095D01*
X144763809Y-83315714D01*
X144620952Y-83315714D01*
X144430476Y-83268095D01*
X144335238Y-83220476D01*
X144240000Y-83125238D01*
X144192380Y-82982380D01*
X144192380Y-82887142D01*
X144240000Y-82744285D01*
X144287619Y-82696666D01*
X144192380Y-81839523D02*
X144192380Y-82030000D01*
X144240000Y-82125238D01*
X144287619Y-82172857D01*
X144430476Y-82268095D01*
X144620952Y-82315714D01*
X145001904Y-82315714D01*
X145097142Y-82268095D01*
X145144761Y-82220476D01*
X145192380Y-82125238D01*
X145192380Y-81934761D01*
X145144761Y-81839523D01*
X145097142Y-81791904D01*
X145001904Y-81744285D01*
X144763809Y-81744285D01*
X144668571Y-81791904D01*
X144620952Y-81839523D01*
X144573333Y-81934761D01*
X144573333Y-82125238D01*
X144620952Y-82220476D01*
X144668571Y-82268095D01*
X144763809Y-82315714D01*
X204787142Y-52256666D02*
X204834761Y-52304285D01*
X204882380Y-52447142D01*
X204882380Y-52542380D01*
X204834761Y-52685238D01*
X204739523Y-52780476D01*
X204644285Y-52828095D01*
X204453809Y-52875714D01*
X204310952Y-52875714D01*
X204120476Y-52828095D01*
X204025238Y-52780476D01*
X203930000Y-52685238D01*
X203882380Y-52542380D01*
X203882380Y-52447142D01*
X203930000Y-52304285D01*
X203977619Y-52256666D01*
X203882380Y-51351904D02*
X203882380Y-51828095D01*
X204358571Y-51875714D01*
X204310952Y-51828095D01*
X204263333Y-51732857D01*
X204263333Y-51494761D01*
X204310952Y-51399523D01*
X204358571Y-51351904D01*
X204453809Y-51304285D01*
X204691904Y-51304285D01*
X204787142Y-51351904D01*
X204834761Y-51399523D01*
X204882380Y-51494761D01*
X204882380Y-51732857D01*
X204834761Y-51828095D01*
X204787142Y-51875714D01*
X165417142Y-52216666D02*
X165464761Y-52264285D01*
X165512380Y-52407142D01*
X165512380Y-52502380D01*
X165464761Y-52645238D01*
X165369523Y-52740476D01*
X165274285Y-52788095D01*
X165083809Y-52835714D01*
X164940952Y-52835714D01*
X164750476Y-52788095D01*
X164655238Y-52740476D01*
X164560000Y-52645238D01*
X164512380Y-52502380D01*
X164512380Y-52407142D01*
X164560000Y-52264285D01*
X164607619Y-52216666D01*
X164845714Y-51359523D02*
X165512380Y-51359523D01*
X164464761Y-51597619D02*
X165179047Y-51835714D01*
X165179047Y-51216666D01*
X75247142Y-114486666D02*
X75294761Y-114534285D01*
X75342380Y-114677142D01*
X75342380Y-114772380D01*
X75294761Y-114915238D01*
X75199523Y-115010476D01*
X75104285Y-115058095D01*
X74913809Y-115105714D01*
X74770952Y-115105714D01*
X74580476Y-115058095D01*
X74485238Y-115010476D01*
X74390000Y-114915238D01*
X74342380Y-114772380D01*
X74342380Y-114677142D01*
X74390000Y-114534285D01*
X74437619Y-114486666D01*
X74342380Y-114153333D02*
X74342380Y-113534285D01*
X74723333Y-113867619D01*
X74723333Y-113724761D01*
X74770952Y-113629523D01*
X74818571Y-113581904D01*
X74913809Y-113534285D01*
X75151904Y-113534285D01*
X75247142Y-113581904D01*
X75294761Y-113629523D01*
X75342380Y-113724761D01*
X75342380Y-114010476D01*
X75294761Y-114105714D01*
X75247142Y-114153333D01*
X75247142Y-89086666D02*
X75294761Y-89134285D01*
X75342380Y-89277142D01*
X75342380Y-89372380D01*
X75294761Y-89515238D01*
X75199523Y-89610476D01*
X75104285Y-89658095D01*
X74913809Y-89705714D01*
X74770952Y-89705714D01*
X74580476Y-89658095D01*
X74485238Y-89610476D01*
X74390000Y-89515238D01*
X74342380Y-89372380D01*
X74342380Y-89277142D01*
X74390000Y-89134285D01*
X74437619Y-89086666D01*
X74437619Y-88705714D02*
X74390000Y-88658095D01*
X74342380Y-88562857D01*
X74342380Y-88324761D01*
X74390000Y-88229523D01*
X74437619Y-88181904D01*
X74532857Y-88134285D01*
X74628095Y-88134285D01*
X74770952Y-88181904D01*
X75342380Y-88753333D01*
X75342380Y-88134285D01*
X75247142Y-101786666D02*
X75294761Y-101834285D01*
X75342380Y-101977142D01*
X75342380Y-102072380D01*
X75294761Y-102215238D01*
X75199523Y-102310476D01*
X75104285Y-102358095D01*
X74913809Y-102405714D01*
X74770952Y-102405714D01*
X74580476Y-102358095D01*
X74485238Y-102310476D01*
X74390000Y-102215238D01*
X74342380Y-102072380D01*
X74342380Y-101977142D01*
X74390000Y-101834285D01*
X74437619Y-101786666D01*
X75342380Y-100834285D02*
X75342380Y-101405714D01*
X75342380Y-101120000D02*
X74342380Y-101120000D01*
X74485238Y-101215238D01*
X74580476Y-101310476D01*
X74628095Y-101405714D01*
M02*
