M48
; DRILL file {KiCad 5.1.5+dfsg1-2build2} date Thu 11 Feb 2021 10:57:56 GMT
; FORMAT={3:3/ absolute / metric / suppress leading zeros}
; #@! TF.CreationDate,2021-02-11T10:57:56+00:00
; #@! TF.GenerationSoftware,Kicad,Pcbnew,5.1.5+dfsg1-2build2
; #@! TF.FileFunction,Plated,1,2,PTH
FMAT,2
METRIC,TZ
T1C0.400
T2C0.800
T3C1.000
%
G90
G05
T1
X35428Y-103003
X35500Y-104000
X36615Y-104714
X37500Y-103500
X40018Y-102775
X56000Y-101825
X60811Y-102275
X61408Y-89592
X62500Y-107500
X63018Y-102775
X67934Y-81434
X68580Y-95250
X70252Y-79752
X73000Y-50500
X82500Y-75000
X83500Y-123000
X84500Y-74000
X85000Y-124500
X86500Y-74500
X87000Y-127000
X88335Y-93835
X89750Y-61280
X90000Y-73000
X90000Y-126000
X91000Y-72000
X93000Y-70500
X93500Y-69000
X95500Y-67500
X98000Y-43500
X100000Y-44500
X102500Y-42775
X103000Y-130230
X103500Y-45500
X105000Y-42275
X105579Y-129759
X106000Y-48000
X106000Y-119000
X106850Y-51720
X108000Y-41500
X108000Y-125000
X108500Y-128775
X109000Y-120000
X110000Y-49500
X110500Y-124000
X111000Y-121000
X111000Y-128275
X113000Y-77000
X114500Y-51000
X115500Y-77000
X116500Y-53000
X117000Y-127000
X118500Y-51000
X121500Y-55000
X123000Y-77000
X126000Y-44775
X126000Y-77000
X126500Y-54000
X128000Y-46000
X128000Y-53000
X133000Y-51500
X134000Y-73000
X138000Y-51225
X139000Y-72000
X140500Y-44000
X142071Y-43275
X142737Y-77763
X143000Y-52500
X143510Y-88900
X144451Y-50786
X145000Y-79000
X145442Y-50923
X145500Y-58500
X146500Y-71500
X146500Y-82000
X148500Y-61500
X149500Y-42500
X151825Y-86500
X152500Y-41500
X154775Y-84500
X155225Y-74500
X155500Y-129000
X156000Y-115500
X156225Y-90337
X157000Y-59500
X157480Y-88900
X158000Y-69500
X159500Y-60000
X160013Y-129487
X161000Y-66500
X162000Y-65000
X162500Y-78000
X162500Y-130500
X163000Y-86000
X163500Y-126000
X163725Y-79518
X164000Y-97500
X165500Y-56000
X167500Y-101000
X167500Y-125500
X167640Y-116840
X168000Y-104500
X168500Y-52500
X168780Y-88260
X169500Y-82500
X169500Y-99000
X170000Y-127000
X170180Y-116840
X170500Y-51500
X170500Y-108500
X171000Y-95500
X171500Y-50500
X171500Y-70775
X171934Y-127774
X172500Y-54500
X172500Y-69500
X172500Y-89000
X172500Y-103000
X172720Y-116840
X173000Y-56000
X173000Y-83000
X173000Y-125000
X173500Y-68000
X174000Y-69000
X175000Y-70775
X175260Y-116840
X176000Y-128000
X176500Y-124000
X177000Y-69500
X177800Y-87630
X177800Y-116840
X179500Y-64500
X180000Y-66000
X180000Y-67775
X180000Y-84000
X180340Y-82550
X180340Y-116840
X180500Y-110000
X180500Y-137500
X182500Y-98000
X182880Y-116840
X183000Y-59500
X183000Y-81500
X183500Y-52500
X183987Y-125487
X185000Y-137000
X185420Y-83820
X185420Y-116840
X185500Y-82000
X185500Y-94500
X186000Y-68500
X186018Y-127225
X188000Y-88000
X188000Y-96000
X188500Y-63000
X188500Y-138000
X189500Y-67000
X189500Y-70000
X190000Y-100500
X190000Y-138500
X190500Y-53500
X190500Y-62275
X190500Y-81280
X190500Y-116840
X191500Y-61000
X191987Y-83487
X192315Y-58000
X193000Y-98000
X193040Y-116840
X193500Y-69500
X193500Y-136000
X195497Y-80138
X195580Y-116840
X196000Y-96000
X196270Y-82027
X198000Y-71000
X198120Y-116840
X198500Y-82500
X198500Y-132500
X201412Y-133225
X201500Y-63000
X201930Y-87630
X202000Y-57500
X202500Y-66725
X203000Y-133000
X203500Y-82500
X206500Y-129500
X208500Y-98000
X209500Y-129225
X210000Y-96500
X210500Y-65275
X210500Y-76500
X211000Y-127500
X211500Y-129225
X213500Y-68000
X214000Y-84000
X214225Y-110725
X215000Y-65500
X215000Y-142725
X215475Y-111475
X215500Y-78500
X215500Y-85000
X215875Y-142225
X216500Y-68000
X216500Y-95000
X216600Y-112100
X217000Y-97500
X217000Y-141725
X217500Y-100000
X217600Y-113100
X217850Y-57020
X218000Y-86000
X218000Y-141225
X218500Y-64500
X218500Y-102275
X219000Y-114500
X219000Y-117000
X219290Y-140816
X219500Y-105225
X219500Y-122500
X220225Y-121500
X220500Y-70000
X220500Y-142000
X220513Y-107513
X221000Y-106000
X221065Y-120958
X221500Y-141000
X222000Y-59500
X222000Y-103000
X222000Y-109500
X222000Y-139500
X222500Y-120000
X223000Y-82500
X223000Y-112000
X223500Y-115000
X223500Y-139000
X224000Y-65270
X224000Y-116500
X224000Y-120500
X224500Y-138225
X224725Y-117500
X224750Y-103640
X225360Y-67000
X225500Y-120000
X225500Y-137725
X226275Y-122018
X226500Y-137225
X226775Y-119000
X227500Y-71000
X227500Y-136725
X228020Y-123300
X228500Y-135225
T2
X232410Y-93980
X240030Y-93980
X207010Y-81280
X207010Y-83780
X232410Y-67310
X240030Y-67310
X232410Y-124460
X240030Y-124460
X232410Y-129540
X240030Y-129540
X135890Y-48260
X135890Y-55880
X138430Y-48260
X138430Y-55880
X140970Y-48260
X140970Y-55880
X143510Y-48260
X143510Y-55880
X146050Y-48260
X146050Y-55880
X148590Y-48260
X148590Y-55880
X151130Y-48260
X151130Y-55880
X153670Y-48260
X153670Y-55880
X156210Y-48260
X156210Y-55880
X158750Y-48260
X158750Y-55880
X232410Y-106680
X240030Y-106680
X232410Y-111760
X240030Y-111760
X175260Y-48260
X175260Y-55880
X177800Y-48260
X177800Y-55880
X180340Y-48260
X180340Y-55880
X182880Y-48260
X182880Y-55880
X185420Y-48260
X185420Y-55880
X187960Y-48260
X187960Y-55880
X190500Y-48260
X190500Y-55880
X193040Y-48260
X193040Y-55880
X195580Y-48260
X195580Y-55880
X198120Y-48260
X198120Y-55880
X232410Y-132080
X240030Y-132080
X232410Y-72390
X240030Y-72390
X232410Y-119380
X240030Y-119380
X201930Y-50840
X201930Y-53340
X232410Y-85090
X240030Y-85090
X232410Y-121920
X240030Y-121920
X232410Y-57150
X240030Y-57150
X53340Y-110490
X53340Y-118110
X55880Y-110490
X55880Y-118110
X58420Y-110490
X58420Y-118110
X60960Y-110490
X60960Y-118110
X63500Y-110490
X63500Y-118110
X66040Y-110490
X66040Y-118110
X68580Y-110490
X68580Y-118110
X232410Y-114300
X240030Y-114300
X232410Y-116840
X240030Y-116840
X142240Y-123230
X142240Y-125730
X232410Y-127000
X240030Y-127000
X142240Y-81280
X142240Y-83780
X53340Y-85090
X53340Y-92710
X55880Y-85090
X55880Y-92710
X58420Y-85090
X58420Y-92710
X60960Y-85090
X60960Y-92710
X63500Y-85090
X63500Y-92710
X66040Y-85090
X66040Y-92710
X68580Y-85090
X68580Y-92710
X53340Y-97790
X53340Y-105410
X55880Y-97790
X55880Y-105410
X58420Y-97790
X58420Y-105410
X60960Y-97790
X60960Y-105410
X63500Y-97790
X63500Y-105410
X66040Y-97790
X66040Y-105410
X68580Y-97790
X68580Y-105410
X100330Y-74930
X100330Y-90170
X102870Y-74930
X102870Y-90170
X105410Y-74930
X105410Y-90170
X107950Y-74930
X107950Y-90170
X110490Y-74930
X110490Y-90170
X113030Y-74930
X113030Y-90170
X115570Y-74930
X115570Y-90170
X118110Y-74930
X118110Y-90170
X120650Y-74930
X120650Y-90170
X123190Y-74930
X123190Y-90170
X125730Y-74930
X125730Y-90170
X128270Y-74930
X128270Y-90170
X232410Y-101600
X240030Y-101600
X72390Y-100370
X72390Y-102870
X232410Y-77470
X240030Y-77470
X232410Y-96520
X240030Y-96520
X232410Y-104140
X240030Y-104140
X100330Y-116840
X100330Y-132080
X102870Y-116840
X102870Y-132080
X105410Y-116840
X105410Y-132080
X107950Y-116840
X107950Y-132080
X110490Y-116840
X110490Y-132080
X113030Y-116840
X113030Y-132080
X115570Y-116840
X115570Y-132080
X118110Y-116840
X118110Y-132080
X120650Y-116840
X120650Y-132080
X123190Y-116840
X123190Y-132080
X125730Y-116840
X125730Y-132080
X128270Y-116840
X128270Y-132080
X232410Y-54610
X240030Y-54610
X207010Y-123230
X207010Y-125730
X232410Y-82550
X240030Y-82550
X232410Y-69850
X240030Y-69850
X165100Y-78740
X165100Y-86360
X167640Y-78740
X167640Y-86360
X170180Y-78740
X170180Y-86360
X172720Y-78740
X172720Y-86360
X175260Y-78740
X175260Y-86360
X177800Y-78740
X177800Y-86360
X180340Y-78740
X180340Y-86360
X182880Y-78740
X182880Y-86360
X185420Y-78740
X185420Y-86360
X187960Y-78740
X187960Y-86360
X190500Y-78740
X190500Y-86360
X193040Y-78740
X193040Y-86360
X195580Y-78740
X195580Y-86360
X198120Y-78740
X198120Y-86360
X200660Y-78740
X200660Y-86360
X203200Y-78740
X203200Y-86360
X232410Y-109220
X240030Y-109220
X232410Y-87630
X240030Y-87630
X232410Y-52070
X240030Y-52070
X232410Y-62230
X240030Y-62230
X232410Y-59690
X240030Y-59690
X72390Y-113070
X72390Y-115570
X162560Y-50800
X162560Y-53300
X232410Y-64770
X240030Y-64770
X232410Y-74930
X240030Y-74930
X232410Y-80010
X240030Y-80010
X232410Y-99060
X240030Y-99060
X232410Y-49530
X240030Y-49530
X72390Y-87670
X72390Y-90170
X165100Y-121920
X165100Y-129540
X167640Y-121920
X167640Y-129540
X170180Y-121920
X170180Y-129540
X172720Y-121920
X172720Y-129540
X175260Y-121920
X175260Y-129540
X177800Y-121920
X177800Y-129540
X180340Y-121920
X180340Y-129540
X182880Y-121920
X182880Y-129540
X185420Y-121920
X185420Y-129540
X187960Y-121920
X187960Y-129540
X190500Y-121920
X190500Y-129540
X193040Y-121920
X193040Y-129540
X195580Y-121920
X195580Y-129540
X198120Y-121920
X198120Y-129540
X200660Y-121920
X200660Y-129540
X203200Y-121920
X203200Y-129540
T3
X26670Y-55245
X26670Y-57785
X26670Y-60325
X26670Y-62865
X26670Y-65405
X26670Y-67945
X26670Y-70485
X26670Y-73025
X26670Y-75565
X26670Y-78105
X26670Y-80645
X26670Y-83185
X26670Y-85725
X26670Y-88265
X26670Y-90805
X26670Y-93345
X26670Y-95885
X26670Y-98425
X26670Y-100965
X26670Y-103505
X26670Y-106045
X26670Y-108585
X26670Y-111125
X26670Y-113665
X26670Y-116205
X26670Y-118745
X26670Y-121285
X26670Y-123825
X26670Y-126365
X26670Y-128905
X29210Y-55245
X29210Y-57785
X29210Y-60325
X29210Y-62865
X29210Y-65405
X29210Y-67945
X29210Y-70485
X29210Y-73025
X29210Y-75565
X29210Y-78105
X29210Y-80645
X29210Y-83185
X29210Y-85725
X29210Y-88265
X29210Y-90805
X29210Y-93345
X29210Y-95885
X29210Y-98425
X29210Y-100965
X29210Y-103505
X29210Y-106045
X29210Y-108585
X29210Y-111125
X29210Y-113665
X29210Y-116205
X29210Y-118745
X29210Y-121285
X29210Y-123825
X29210Y-126365
X29210Y-128905
X243840Y-49530
X243840Y-52070
X243840Y-54610
X243840Y-57150
X243840Y-59690
X243840Y-62230
X243840Y-64770
X243840Y-67310
X243840Y-69850
X243840Y-72390
X243840Y-74930
X243840Y-77470
X243840Y-80010
X243840Y-82550
X243840Y-85090
X243840Y-87630
X243840Y-90170
X243840Y-93980
X243840Y-96520
X243840Y-99060
X243840Y-101600
X243840Y-104140
X243840Y-106680
X243840Y-109220
X243840Y-111760
X243840Y-114300
X243840Y-116840
X243840Y-119380
X243840Y-121920
X243840Y-124460
X243840Y-127000
X243840Y-129540
X243840Y-132080
X243840Y-134620
T0
M30
